G75*
%MOIN*%
%OFA0B0*%
%FSLAX25Y25*%
%IPPOS*%
%LPD*%
%AMOC8*
5,1,8,0,0,1.08239X$1,22.5*
%
%ADD10C,0.14580*%
%ADD11OC8,0.07400*%
%ADD12C,0.00039*%
%ADD13R,0.08477X0.08477*%
%ADD14C,0.08477*%
%ADD15C,0.06312*%
D10*
X0068264Y0137890D03*
X0056846Y0156394D03*
X0080075Y0156394D03*
D11*
X0153500Y0158500D03*
X0163500Y0158500D03*
D12*
X0161335Y0060843D02*
X0160928Y0060807D01*
X0160533Y0060701D01*
X0162136Y0060701D01*
X0161741Y0060807D01*
X0161335Y0060843D01*
X0161014Y0060815D02*
X0161656Y0060815D01*
X0161855Y0060777D02*
X0160815Y0060777D01*
X0160674Y0060739D02*
X0161996Y0060739D01*
X0162136Y0060701D02*
X0162506Y0060529D01*
X0162841Y0060294D01*
X0163129Y0060006D01*
X0163363Y0059671D01*
X0163536Y0059301D01*
X0163642Y0058907D01*
X0163677Y0058500D01*
X0163642Y0058093D01*
X0163536Y0057699D01*
X0163363Y0057329D01*
X0163129Y0056994D01*
X0162841Y0056706D01*
X0162506Y0056471D01*
X0162136Y0056299D01*
X0161741Y0056193D01*
X0161335Y0056157D01*
X0160928Y0056193D01*
X0160533Y0056299D01*
X0160163Y0056471D01*
X0159829Y0056706D01*
X0159540Y0056994D01*
X0159306Y0057329D01*
X0159133Y0057699D01*
X0159028Y0058093D01*
X0158992Y0058500D01*
X0159028Y0058907D01*
X0159133Y0059301D01*
X0159306Y0059671D01*
X0159540Y0060006D01*
X0159829Y0060294D01*
X0160163Y0060529D01*
X0160533Y0060701D01*
X0160452Y0060663D02*
X0162218Y0060663D01*
X0162299Y0060625D02*
X0160370Y0060625D01*
X0160289Y0060587D02*
X0162380Y0060587D01*
X0162462Y0060549D02*
X0160208Y0060549D01*
X0160139Y0060512D02*
X0162531Y0060512D01*
X0162585Y0060474D02*
X0160085Y0060474D01*
X0160031Y0060436D02*
X0162639Y0060436D01*
X0162693Y0060398D02*
X0159976Y0060398D01*
X0159922Y0060360D02*
X0162747Y0060360D01*
X0162801Y0060322D02*
X0159868Y0060322D01*
X0159818Y0060284D02*
X0162851Y0060284D01*
X0162889Y0060246D02*
X0159781Y0060246D01*
X0159743Y0060208D02*
X0162927Y0060208D01*
X0162964Y0060171D02*
X0159705Y0060171D01*
X0159667Y0060133D02*
X0163002Y0060133D01*
X0163040Y0060095D02*
X0159629Y0060095D01*
X0159591Y0060057D02*
X0163078Y0060057D01*
X0163116Y0060019D02*
X0159553Y0060019D01*
X0159523Y0059981D02*
X0163146Y0059981D01*
X0163173Y0059943D02*
X0159496Y0059943D01*
X0159470Y0059905D02*
X0163199Y0059905D01*
X0163226Y0059868D02*
X0159443Y0059868D01*
X0159417Y0059830D02*
X0163253Y0059830D01*
X0163279Y0059792D02*
X0159390Y0059792D01*
X0159364Y0059754D02*
X0163306Y0059754D01*
X0163332Y0059716D02*
X0159337Y0059716D01*
X0159311Y0059678D02*
X0163359Y0059678D01*
X0163378Y0059640D02*
X0159291Y0059640D01*
X0159274Y0059602D02*
X0163395Y0059602D01*
X0163413Y0059564D02*
X0159256Y0059564D01*
X0159238Y0059527D02*
X0163431Y0059527D01*
X0163448Y0059489D02*
X0159221Y0059489D01*
X0159203Y0059451D02*
X0163466Y0059451D01*
X0163484Y0059413D02*
X0159186Y0059413D01*
X0159168Y0059375D02*
X0163501Y0059375D01*
X0163519Y0059337D02*
X0159150Y0059337D01*
X0159133Y0059299D02*
X0163536Y0059299D01*
X0163547Y0059261D02*
X0159123Y0059261D01*
X0159113Y0059224D02*
X0163557Y0059224D01*
X0163567Y0059186D02*
X0159102Y0059186D01*
X0159092Y0059148D02*
X0163577Y0059148D01*
X0163587Y0059110D02*
X0159082Y0059110D01*
X0159072Y0059072D02*
X0163597Y0059072D01*
X0163608Y0059034D02*
X0159062Y0059034D01*
X0159052Y0058996D02*
X0163618Y0058996D01*
X0163628Y0058958D02*
X0159041Y0058958D01*
X0159031Y0058920D02*
X0163638Y0058920D01*
X0163644Y0058883D02*
X0159025Y0058883D01*
X0159022Y0058845D02*
X0163647Y0058845D01*
X0163650Y0058807D02*
X0159019Y0058807D01*
X0159016Y0058769D02*
X0163654Y0058769D01*
X0163657Y0058731D02*
X0159012Y0058731D01*
X0159009Y0058693D02*
X0163660Y0058693D01*
X0163664Y0058655D02*
X0159006Y0058655D01*
X0159002Y0058617D02*
X0163667Y0058617D01*
X0163670Y0058580D02*
X0158999Y0058580D01*
X0158996Y0058542D02*
X0163674Y0058542D01*
X0163677Y0058504D02*
X0158992Y0058504D01*
X0158995Y0058466D02*
X0163674Y0058466D01*
X0163671Y0058428D02*
X0158998Y0058428D01*
X0159002Y0058390D02*
X0163668Y0058390D01*
X0163664Y0058352D02*
X0159005Y0058352D01*
X0159008Y0058314D02*
X0163661Y0058314D01*
X0163658Y0058277D02*
X0159012Y0058277D01*
X0159015Y0058239D02*
X0163654Y0058239D01*
X0163651Y0058201D02*
X0159018Y0058201D01*
X0159021Y0058163D02*
X0163648Y0058163D01*
X0163644Y0058125D02*
X0159025Y0058125D01*
X0159029Y0058087D02*
X0163640Y0058087D01*
X0163630Y0058049D02*
X0159039Y0058049D01*
X0159050Y0058011D02*
X0163620Y0058011D01*
X0163610Y0057973D02*
X0159060Y0057973D01*
X0159070Y0057936D02*
X0163599Y0057936D01*
X0163589Y0057898D02*
X0159080Y0057898D01*
X0159090Y0057860D02*
X0163579Y0057860D01*
X0163569Y0057822D02*
X0159100Y0057822D01*
X0159111Y0057784D02*
X0163559Y0057784D01*
X0163549Y0057746D02*
X0159121Y0057746D01*
X0159131Y0057708D02*
X0163538Y0057708D01*
X0163523Y0057670D02*
X0159147Y0057670D01*
X0159164Y0057633D02*
X0163505Y0057633D01*
X0163487Y0057595D02*
X0159182Y0057595D01*
X0159200Y0057557D02*
X0163470Y0057557D01*
X0163452Y0057519D02*
X0159217Y0057519D01*
X0159235Y0057481D02*
X0163434Y0057481D01*
X0163417Y0057443D02*
X0159253Y0057443D01*
X0159270Y0057405D02*
X0163399Y0057405D01*
X0163381Y0057367D02*
X0159288Y0057367D01*
X0159306Y0057329D02*
X0163364Y0057329D01*
X0163337Y0057292D02*
X0159332Y0057292D01*
X0159358Y0057254D02*
X0163311Y0057254D01*
X0163284Y0057216D02*
X0159385Y0057216D01*
X0159411Y0057178D02*
X0163258Y0057178D01*
X0163231Y0057140D02*
X0159438Y0057140D01*
X0159464Y0057102D02*
X0163205Y0057102D01*
X0163178Y0057064D02*
X0159491Y0057064D01*
X0159518Y0057026D02*
X0163152Y0057026D01*
X0163124Y0056989D02*
X0159546Y0056989D01*
X0159584Y0056951D02*
X0163086Y0056951D01*
X0163048Y0056913D02*
X0159621Y0056913D01*
X0159659Y0056875D02*
X0163010Y0056875D01*
X0162972Y0056837D02*
X0159697Y0056837D01*
X0159735Y0056799D02*
X0162934Y0056799D01*
X0162896Y0056761D02*
X0159773Y0056761D01*
X0159811Y0056723D02*
X0162858Y0056723D01*
X0162812Y0056685D02*
X0159857Y0056685D01*
X0159911Y0056648D02*
X0162758Y0056648D01*
X0162704Y0056610D02*
X0159966Y0056610D01*
X0160020Y0056572D02*
X0162650Y0056572D01*
X0162595Y0056534D02*
X0160074Y0056534D01*
X0160128Y0056496D02*
X0162541Y0056496D01*
X0162478Y0056458D02*
X0160191Y0056458D01*
X0160273Y0056420D02*
X0162397Y0056420D01*
X0162315Y0056382D02*
X0160354Y0056382D01*
X0160435Y0056345D02*
X0162234Y0056345D01*
X0162153Y0056307D02*
X0160517Y0056307D01*
X0160645Y0056269D02*
X0162024Y0056269D01*
X0161883Y0056231D02*
X0160786Y0056231D01*
X0160928Y0056193D02*
X0161742Y0056193D01*
X0118008Y0058500D02*
X0117972Y0058907D01*
X0117867Y0059301D01*
X0117694Y0059671D01*
X0117460Y0060006D01*
X0117171Y0060294D01*
X0116837Y0060529D01*
X0116467Y0060701D01*
X0114864Y0060701D01*
X0114494Y0060529D01*
X0114159Y0060294D01*
X0113871Y0060006D01*
X0113637Y0059671D01*
X0113464Y0059301D01*
X0113358Y0058907D01*
X0113323Y0058500D01*
X0113358Y0058093D01*
X0113464Y0057699D01*
X0113637Y0057329D01*
X0113871Y0056994D01*
X0114159Y0056706D01*
X0114494Y0056471D01*
X0114864Y0056299D01*
X0115259Y0056193D01*
X0115665Y0056157D01*
X0116072Y0056193D01*
X0116467Y0056299D01*
X0116837Y0056471D01*
X0117171Y0056706D01*
X0117460Y0056994D01*
X0117694Y0057329D01*
X0117867Y0057699D01*
X0117972Y0058093D01*
X0118008Y0058500D01*
X0118008Y0058504D02*
X0113323Y0058504D01*
X0113326Y0058542D02*
X0118004Y0058542D01*
X0118001Y0058580D02*
X0113330Y0058580D01*
X0113333Y0058617D02*
X0117998Y0058617D01*
X0117994Y0058655D02*
X0113336Y0058655D01*
X0113340Y0058693D02*
X0117991Y0058693D01*
X0117988Y0058731D02*
X0113343Y0058731D01*
X0113346Y0058769D02*
X0117984Y0058769D01*
X0117981Y0058807D02*
X0113350Y0058807D01*
X0113353Y0058845D02*
X0117978Y0058845D01*
X0117975Y0058883D02*
X0113356Y0058883D01*
X0113362Y0058920D02*
X0117969Y0058920D01*
X0117959Y0058958D02*
X0113372Y0058958D01*
X0113382Y0058996D02*
X0117948Y0058996D01*
X0117938Y0059034D02*
X0113392Y0059034D01*
X0113403Y0059072D02*
X0117928Y0059072D01*
X0117918Y0059110D02*
X0113413Y0059110D01*
X0113423Y0059148D02*
X0117908Y0059148D01*
X0117898Y0059186D02*
X0113433Y0059186D01*
X0113443Y0059224D02*
X0117887Y0059224D01*
X0117877Y0059261D02*
X0113454Y0059261D01*
X0113464Y0059299D02*
X0117867Y0059299D01*
X0117850Y0059337D02*
X0113481Y0059337D01*
X0113499Y0059375D02*
X0117832Y0059375D01*
X0117814Y0059413D02*
X0113516Y0059413D01*
X0113534Y0059451D02*
X0117797Y0059451D01*
X0117779Y0059489D02*
X0113552Y0059489D01*
X0113569Y0059527D02*
X0117762Y0059527D01*
X0117744Y0059564D02*
X0113587Y0059564D01*
X0113605Y0059602D02*
X0117726Y0059602D01*
X0117709Y0059640D02*
X0113622Y0059640D01*
X0113641Y0059678D02*
X0117689Y0059678D01*
X0117663Y0059716D02*
X0113668Y0059716D01*
X0113694Y0059754D02*
X0117636Y0059754D01*
X0117610Y0059792D02*
X0113721Y0059792D01*
X0113747Y0059830D02*
X0117583Y0059830D01*
X0117557Y0059868D02*
X0113774Y0059868D01*
X0113801Y0059905D02*
X0117530Y0059905D01*
X0117504Y0059943D02*
X0113827Y0059943D01*
X0113854Y0059981D02*
X0117477Y0059981D01*
X0117447Y0060019D02*
X0113884Y0060019D01*
X0113922Y0060057D02*
X0117409Y0060057D01*
X0117371Y0060095D02*
X0113960Y0060095D01*
X0113998Y0060133D02*
X0117333Y0060133D01*
X0117295Y0060171D02*
X0114036Y0060171D01*
X0114073Y0060208D02*
X0117257Y0060208D01*
X0117219Y0060246D02*
X0114111Y0060246D01*
X0114149Y0060284D02*
X0117182Y0060284D01*
X0117132Y0060322D02*
X0114199Y0060322D01*
X0114253Y0060360D02*
X0117078Y0060360D01*
X0117024Y0060398D02*
X0114307Y0060398D01*
X0114361Y0060436D02*
X0116969Y0060436D01*
X0116915Y0060474D02*
X0114415Y0060474D01*
X0114469Y0060512D02*
X0116861Y0060512D01*
X0116792Y0060549D02*
X0114538Y0060549D01*
X0114620Y0060587D02*
X0116711Y0060587D01*
X0116630Y0060625D02*
X0114701Y0060625D01*
X0114782Y0060663D02*
X0116548Y0060663D01*
X0116467Y0060701D02*
X0116072Y0060807D01*
X0115665Y0060843D01*
X0115259Y0060807D01*
X0114864Y0060701D01*
X0115004Y0060739D02*
X0116326Y0060739D01*
X0116185Y0060777D02*
X0115145Y0060777D01*
X0115344Y0060815D02*
X0115986Y0060815D01*
X0118005Y0058466D02*
X0113326Y0058466D01*
X0113329Y0058428D02*
X0118002Y0058428D01*
X0117998Y0058390D02*
X0113332Y0058390D01*
X0113336Y0058352D02*
X0117995Y0058352D01*
X0117992Y0058314D02*
X0113339Y0058314D01*
X0113342Y0058277D02*
X0117988Y0058277D01*
X0117985Y0058239D02*
X0113346Y0058239D01*
X0113349Y0058201D02*
X0117982Y0058201D01*
X0117978Y0058163D02*
X0113352Y0058163D01*
X0113355Y0058125D02*
X0117975Y0058125D01*
X0117971Y0058087D02*
X0113360Y0058087D01*
X0113370Y0058049D02*
X0117961Y0058049D01*
X0117950Y0058011D02*
X0113380Y0058011D01*
X0113390Y0057973D02*
X0117940Y0057973D01*
X0117930Y0057936D02*
X0113401Y0057936D01*
X0113411Y0057898D02*
X0117920Y0057898D01*
X0117910Y0057860D02*
X0113421Y0057860D01*
X0113431Y0057822D02*
X0117900Y0057822D01*
X0117889Y0057784D02*
X0113441Y0057784D01*
X0113451Y0057746D02*
X0117879Y0057746D01*
X0117869Y0057708D02*
X0113462Y0057708D01*
X0113477Y0057670D02*
X0117853Y0057670D01*
X0117836Y0057633D02*
X0113495Y0057633D01*
X0113513Y0057595D02*
X0117818Y0057595D01*
X0117800Y0057557D02*
X0113530Y0057557D01*
X0113548Y0057519D02*
X0117783Y0057519D01*
X0117765Y0057481D02*
X0113566Y0057481D01*
X0113583Y0057443D02*
X0117747Y0057443D01*
X0117730Y0057405D02*
X0113601Y0057405D01*
X0113619Y0057367D02*
X0117712Y0057367D01*
X0117694Y0057329D02*
X0113636Y0057329D01*
X0113663Y0057292D02*
X0117668Y0057292D01*
X0117642Y0057254D02*
X0113689Y0057254D01*
X0113716Y0057216D02*
X0117615Y0057216D01*
X0117589Y0057178D02*
X0113742Y0057178D01*
X0113769Y0057140D02*
X0117562Y0057140D01*
X0117535Y0057102D02*
X0113795Y0057102D01*
X0113822Y0057064D02*
X0117509Y0057064D01*
X0117482Y0057026D02*
X0113848Y0057026D01*
X0113876Y0056989D02*
X0117454Y0056989D01*
X0117416Y0056951D02*
X0113914Y0056951D01*
X0113952Y0056913D02*
X0117379Y0056913D01*
X0117341Y0056875D02*
X0113990Y0056875D01*
X0114028Y0056837D02*
X0117303Y0056837D01*
X0117265Y0056799D02*
X0114066Y0056799D01*
X0114104Y0056761D02*
X0117227Y0056761D01*
X0117189Y0056723D02*
X0114142Y0056723D01*
X0114188Y0056685D02*
X0117143Y0056685D01*
X0117089Y0056648D02*
X0114242Y0056648D01*
X0114296Y0056610D02*
X0117034Y0056610D01*
X0116980Y0056572D02*
X0114350Y0056572D01*
X0114405Y0056534D02*
X0116926Y0056534D01*
X0116872Y0056496D02*
X0114459Y0056496D01*
X0114522Y0056458D02*
X0116809Y0056458D01*
X0116727Y0056420D02*
X0114603Y0056420D01*
X0114685Y0056382D02*
X0116646Y0056382D01*
X0116565Y0056345D02*
X0114766Y0056345D01*
X0114847Y0056307D02*
X0116483Y0056307D01*
X0116355Y0056269D02*
X0114976Y0056269D01*
X0115117Y0056231D02*
X0116214Y0056231D01*
X0116072Y0056193D02*
X0115258Y0056193D01*
D13*
X0039878Y0078343D03*
D14*
X0039878Y0058657D03*
X0087122Y0058657D03*
X0087122Y0078343D03*
D15*
X0063500Y0086217D03*
X0063500Y0050783D03*
M02*
