G75*
%MOIN*%
%OFA0B0*%
%FSLAX25Y25*%
%IPPOS*%
%LPD*%
%AMOC8*
5,1,8,0,0,1.08239X$1,22.5*
%
%ADD10C,0.05000*%
%ADD11C,0.00500*%
%ADD12C,0.00800*%
%ADD13C,0.00100*%
%ADD14C,0.00600*%
%ADD15C,0.00472*%
%ADD16C,0.00000*%
D10*
X0003500Y0003500D02*
X0003500Y0198461D01*
X0212201Y0198461D01*
X0212201Y0003500D01*
X0003500Y0003500D01*
D11*
X0043815Y0048815D02*
X0043815Y0088185D01*
X0083185Y0088185D01*
X0083185Y0048815D01*
X0043815Y0048815D01*
X0130050Y0054026D02*
X0130050Y0058254D01*
X0132164Y0058254D01*
X0132868Y0057549D01*
X0132868Y0056140D01*
X0132164Y0055435D01*
X0130050Y0055435D01*
X0131459Y0055435D02*
X0132868Y0054026D01*
X0134400Y0054026D02*
X0137219Y0054026D01*
X0135809Y0054026D02*
X0135809Y0058254D01*
X0134400Y0056844D01*
X0083657Y0137890D02*
X0026177Y0137890D01*
X0026116Y0137791D02*
X0026184Y0173295D01*
X0026177Y0173323D02*
X0083657Y0173323D01*
X0083657Y0137890D01*
X0171250Y0160850D02*
X0174253Y0160850D01*
X0175854Y0160850D02*
X0178856Y0160850D01*
X0180458Y0160850D02*
X0182710Y0160850D01*
X0183460Y0161601D01*
X0183460Y0164603D01*
X0182710Y0165354D01*
X0180458Y0165354D01*
X0180458Y0160850D01*
X0177355Y0163102D02*
X0175854Y0163102D01*
X0175854Y0165354D02*
X0175854Y0160850D01*
X0175854Y0165354D02*
X0178856Y0165354D01*
X0185062Y0163853D02*
X0186563Y0165354D01*
X0186563Y0160850D01*
X0185062Y0160850D02*
X0188064Y0160850D01*
X0171250Y0160850D02*
X0171250Y0165354D01*
D12*
X0168500Y0166000D02*
X0168500Y0151000D01*
D13*
X0168829Y0166309D02*
X0168109Y0165769D01*
X0168110Y0165770D02*
X0167929Y0166003D01*
X0167743Y0166231D01*
X0167551Y0166455D01*
X0167354Y0166674D01*
X0167152Y0166888D01*
X0166944Y0167097D01*
X0166731Y0167300D01*
X0166514Y0167499D01*
X0166291Y0167692D01*
X0166064Y0167880D01*
X0165833Y0168062D01*
X0165597Y0168239D01*
X0165356Y0168409D01*
X0165112Y0168574D01*
X0164864Y0168732D01*
X0164612Y0168885D01*
X0164356Y0169031D01*
X0164097Y0169171D01*
X0163834Y0169305D01*
X0163569Y0169432D01*
X0163300Y0169553D01*
X0163028Y0169667D01*
X0162754Y0169774D01*
X0162477Y0169875D01*
X0162198Y0169969D01*
X0161916Y0170056D01*
X0161633Y0170136D01*
X0161347Y0170209D01*
X0161060Y0170275D01*
X0160771Y0170334D01*
X0160481Y0170386D01*
X0160190Y0170431D01*
X0159898Y0170469D01*
X0159605Y0170499D01*
X0159311Y0170523D01*
X0159017Y0170539D01*
X0158723Y0170548D01*
X0158428Y0170550D01*
X0158133Y0170544D01*
X0157839Y0170532D01*
X0157545Y0170512D01*
X0157252Y0170485D01*
X0156959Y0170451D01*
X0156667Y0170410D01*
X0156377Y0170361D01*
X0156087Y0170306D01*
X0155800Y0170244D01*
X0155513Y0170174D01*
X0155229Y0170097D01*
X0154946Y0170014D01*
X0154666Y0169924D01*
X0154388Y0169827D01*
X0154112Y0169723D01*
X0153839Y0169612D01*
X0153569Y0169495D01*
X0153301Y0169371D01*
X0153037Y0169241D01*
X0152776Y0169104D01*
X0152519Y0168961D01*
X0152265Y0168811D01*
X0152014Y0168656D01*
X0151768Y0168494D01*
X0151526Y0168327D01*
X0151288Y0168153D01*
X0151054Y0167974D01*
X0150824Y0167789D01*
X0150600Y0167599D01*
X0150379Y0167403D01*
X0150164Y0167202D01*
X0149954Y0166995D01*
X0149749Y0166784D01*
X0149549Y0166567D01*
X0149354Y0166346D01*
X0149165Y0166120D01*
X0148982Y0165890D01*
X0148804Y0165655D01*
X0148632Y0165415D01*
X0148466Y0165172D01*
X0148306Y0164925D01*
X0148152Y0164674D01*
X0148004Y0164419D01*
X0147862Y0164160D01*
X0147727Y0163899D01*
X0147598Y0163634D01*
X0147476Y0163366D01*
X0147360Y0163095D01*
X0147251Y0162821D01*
X0147149Y0162545D01*
X0147054Y0162266D01*
X0146965Y0161985D01*
X0146883Y0161702D01*
X0146808Y0161417D01*
X0146741Y0161130D01*
X0146680Y0160842D01*
X0146626Y0160552D01*
X0146579Y0160261D01*
X0146540Y0159969D01*
X0146508Y0159677D01*
X0146482Y0159383D01*
X0146464Y0159089D01*
X0146454Y0158795D01*
X0146450Y0158500D01*
X0146454Y0158205D01*
X0146464Y0157911D01*
X0146482Y0157617D01*
X0146508Y0157323D01*
X0146540Y0157031D01*
X0146579Y0156739D01*
X0146626Y0156448D01*
X0146680Y0156158D01*
X0146741Y0155870D01*
X0146808Y0155583D01*
X0146883Y0155298D01*
X0146965Y0155015D01*
X0147054Y0154734D01*
X0147149Y0154455D01*
X0147251Y0154179D01*
X0147360Y0153905D01*
X0147476Y0153634D01*
X0147598Y0153366D01*
X0147727Y0153101D01*
X0147862Y0152840D01*
X0148004Y0152581D01*
X0148152Y0152326D01*
X0148306Y0152075D01*
X0148466Y0151828D01*
X0148632Y0151585D01*
X0148804Y0151345D01*
X0148982Y0151110D01*
X0149165Y0150880D01*
X0149354Y0150654D01*
X0149549Y0150433D01*
X0149749Y0150216D01*
X0149954Y0150005D01*
X0150164Y0149798D01*
X0150379Y0149597D01*
X0150600Y0149401D01*
X0150824Y0149211D01*
X0151054Y0149026D01*
X0151288Y0148847D01*
X0151526Y0148673D01*
X0151768Y0148506D01*
X0152014Y0148344D01*
X0152265Y0148189D01*
X0152519Y0148039D01*
X0152776Y0147896D01*
X0153037Y0147759D01*
X0153301Y0147629D01*
X0153569Y0147505D01*
X0153839Y0147388D01*
X0154112Y0147277D01*
X0154388Y0147173D01*
X0154666Y0147076D01*
X0154946Y0146986D01*
X0155229Y0146903D01*
X0155513Y0146826D01*
X0155800Y0146756D01*
X0156087Y0146694D01*
X0156377Y0146639D01*
X0156667Y0146590D01*
X0156959Y0146549D01*
X0157252Y0146515D01*
X0157545Y0146488D01*
X0157839Y0146468D01*
X0158133Y0146456D01*
X0158428Y0146450D01*
X0158723Y0146452D01*
X0159017Y0146461D01*
X0159311Y0146477D01*
X0159605Y0146501D01*
X0159898Y0146531D01*
X0160190Y0146569D01*
X0160481Y0146614D01*
X0160771Y0146666D01*
X0161060Y0146725D01*
X0161347Y0146791D01*
X0161633Y0146864D01*
X0161916Y0146944D01*
X0162198Y0147031D01*
X0162477Y0147125D01*
X0162754Y0147226D01*
X0163028Y0147333D01*
X0163300Y0147447D01*
X0163569Y0147568D01*
X0163834Y0147695D01*
X0164097Y0147829D01*
X0164356Y0147969D01*
X0164612Y0148115D01*
X0164864Y0148268D01*
X0165112Y0148426D01*
X0165356Y0148591D01*
X0165597Y0148761D01*
X0165833Y0148938D01*
X0166064Y0149120D01*
X0166291Y0149308D01*
X0166514Y0149501D01*
X0166731Y0149700D01*
X0166944Y0149903D01*
X0167152Y0150112D01*
X0167354Y0150326D01*
X0167551Y0150545D01*
X0167743Y0150769D01*
X0167929Y0150997D01*
X0168110Y0151230D01*
X0168829Y0150691D01*
X0168830Y0150690D01*
X0168636Y0150440D01*
X0168436Y0150194D01*
X0168230Y0149954D01*
X0168018Y0149719D01*
X0167800Y0149489D01*
X0167577Y0149264D01*
X0167349Y0149045D01*
X0167115Y0148831D01*
X0166876Y0148623D01*
X0166632Y0148421D01*
X0166383Y0148226D01*
X0166129Y0148036D01*
X0165871Y0147853D01*
X0165609Y0147676D01*
X0165342Y0147505D01*
X0165071Y0147341D01*
X0164796Y0147184D01*
X0164518Y0147033D01*
X0164235Y0146889D01*
X0163950Y0146753D01*
X0163661Y0146623D01*
X0163369Y0146500D01*
X0163074Y0146385D01*
X0162777Y0146277D01*
X0162476Y0146176D01*
X0162174Y0146082D01*
X0161869Y0145996D01*
X0161562Y0145917D01*
X0161254Y0145846D01*
X0160944Y0145783D01*
X0160632Y0145727D01*
X0160319Y0145678D01*
X0160005Y0145638D01*
X0159690Y0145605D01*
X0159374Y0145580D01*
X0159058Y0145562D01*
X0158742Y0145552D01*
X0158425Y0145550D01*
X0158108Y0145556D01*
X0157792Y0145569D01*
X0157476Y0145591D01*
X0157161Y0145619D01*
X0156846Y0145656D01*
X0156533Y0145700D01*
X0156220Y0145752D01*
X0155909Y0145812D01*
X0155600Y0145879D01*
X0155292Y0145954D01*
X0154986Y0146036D01*
X0154683Y0146125D01*
X0154381Y0146222D01*
X0154082Y0146327D01*
X0153786Y0146439D01*
X0153492Y0146557D01*
X0153202Y0146683D01*
X0152915Y0146816D01*
X0152630Y0146957D01*
X0152350Y0147104D01*
X0152073Y0147257D01*
X0151800Y0147418D01*
X0151531Y0147585D01*
X0151266Y0147759D01*
X0151006Y0147939D01*
X0150750Y0148125D01*
X0150499Y0148318D01*
X0150252Y0148516D01*
X0150010Y0148721D01*
X0149774Y0148931D01*
X0149542Y0149148D01*
X0149317Y0149370D01*
X0149096Y0149597D01*
X0148881Y0149829D01*
X0148672Y0150067D01*
X0148469Y0150310D01*
X0148271Y0150558D01*
X0148080Y0150810D01*
X0147895Y0151067D01*
X0147717Y0151329D01*
X0147545Y0151595D01*
X0147379Y0151864D01*
X0147220Y0152138D01*
X0147068Y0152416D01*
X0146923Y0152697D01*
X0146784Y0152982D01*
X0146653Y0153270D01*
X0146529Y0153562D01*
X0146411Y0153856D01*
X0146301Y0154153D01*
X0146199Y0154452D01*
X0146104Y0154754D01*
X0146016Y0155058D01*
X0145935Y0155365D01*
X0145862Y0155673D01*
X0145797Y0155983D01*
X0145739Y0156294D01*
X0145689Y0156607D01*
X0145647Y0156921D01*
X0145612Y0157235D01*
X0145585Y0157551D01*
X0145565Y0157867D01*
X0145554Y0158183D01*
X0145550Y0158500D01*
X0145554Y0158817D01*
X0145565Y0159133D01*
X0145585Y0159449D01*
X0145612Y0159765D01*
X0145647Y0160079D01*
X0145689Y0160393D01*
X0145739Y0160706D01*
X0145797Y0161017D01*
X0145862Y0161327D01*
X0145935Y0161635D01*
X0146016Y0161942D01*
X0146104Y0162246D01*
X0146199Y0162548D01*
X0146301Y0162847D01*
X0146411Y0163144D01*
X0146529Y0163438D01*
X0146653Y0163730D01*
X0146784Y0164018D01*
X0146923Y0164303D01*
X0147068Y0164584D01*
X0147220Y0164862D01*
X0147379Y0165136D01*
X0147545Y0165405D01*
X0147717Y0165671D01*
X0147895Y0165933D01*
X0148080Y0166190D01*
X0148271Y0166442D01*
X0148469Y0166690D01*
X0148672Y0166933D01*
X0148881Y0167171D01*
X0149096Y0167403D01*
X0149317Y0167630D01*
X0149542Y0167852D01*
X0149774Y0168069D01*
X0150010Y0168279D01*
X0150252Y0168484D01*
X0150499Y0168682D01*
X0150750Y0168875D01*
X0151006Y0169061D01*
X0151266Y0169241D01*
X0151531Y0169415D01*
X0151800Y0169582D01*
X0152073Y0169743D01*
X0152350Y0169896D01*
X0152630Y0170043D01*
X0152915Y0170184D01*
X0153202Y0170317D01*
X0153492Y0170443D01*
X0153786Y0170561D01*
X0154082Y0170673D01*
X0154381Y0170778D01*
X0154683Y0170875D01*
X0154986Y0170964D01*
X0155292Y0171046D01*
X0155600Y0171121D01*
X0155909Y0171188D01*
X0156220Y0171248D01*
X0156533Y0171300D01*
X0156846Y0171344D01*
X0157161Y0171381D01*
X0157476Y0171409D01*
X0157792Y0171431D01*
X0158108Y0171444D01*
X0158425Y0171450D01*
X0158742Y0171448D01*
X0159058Y0171438D01*
X0159374Y0171420D01*
X0159690Y0171395D01*
X0160005Y0171362D01*
X0160319Y0171322D01*
X0160632Y0171273D01*
X0160944Y0171217D01*
X0161254Y0171154D01*
X0161562Y0171083D01*
X0161869Y0171004D01*
X0162174Y0170918D01*
X0162476Y0170824D01*
X0162777Y0170723D01*
X0163074Y0170615D01*
X0163369Y0170500D01*
X0163661Y0170377D01*
X0163950Y0170247D01*
X0164235Y0170111D01*
X0164518Y0169967D01*
X0164796Y0169816D01*
X0165071Y0169659D01*
X0165342Y0169495D01*
X0165609Y0169324D01*
X0165871Y0169147D01*
X0166129Y0168964D01*
X0166383Y0168774D01*
X0166632Y0168579D01*
X0166876Y0168377D01*
X0167115Y0168169D01*
X0167349Y0167955D01*
X0167577Y0167736D01*
X0167800Y0167511D01*
X0168018Y0167281D01*
X0168230Y0167046D01*
X0168436Y0166806D01*
X0168636Y0166560D01*
X0168830Y0166310D01*
X0168755Y0166254D01*
X0168562Y0166502D01*
X0168363Y0166746D01*
X0168159Y0166984D01*
X0167949Y0167218D01*
X0167733Y0167446D01*
X0167511Y0167669D01*
X0167284Y0167887D01*
X0167052Y0168099D01*
X0166815Y0168305D01*
X0166573Y0168506D01*
X0166325Y0168700D01*
X0166074Y0168888D01*
X0165817Y0169070D01*
X0165557Y0169246D01*
X0165292Y0169415D01*
X0165023Y0169578D01*
X0164750Y0169734D01*
X0164474Y0169884D01*
X0164194Y0170026D01*
X0163910Y0170162D01*
X0163623Y0170291D01*
X0163333Y0170413D01*
X0163041Y0170527D01*
X0162745Y0170635D01*
X0162447Y0170735D01*
X0162147Y0170828D01*
X0161844Y0170913D01*
X0161540Y0170991D01*
X0161234Y0171062D01*
X0160926Y0171125D01*
X0160616Y0171181D01*
X0160306Y0171229D01*
X0159994Y0171269D01*
X0159681Y0171302D01*
X0159368Y0171327D01*
X0159054Y0171344D01*
X0158740Y0171354D01*
X0158425Y0171356D01*
X0158111Y0171350D01*
X0157797Y0171337D01*
X0157483Y0171316D01*
X0157170Y0171287D01*
X0156858Y0171251D01*
X0156547Y0171207D01*
X0156237Y0171155D01*
X0155928Y0171096D01*
X0155621Y0171029D01*
X0155315Y0170955D01*
X0155012Y0170874D01*
X0154710Y0170785D01*
X0154411Y0170688D01*
X0154114Y0170585D01*
X0153820Y0170474D01*
X0153529Y0170356D01*
X0153240Y0170231D01*
X0152955Y0170099D01*
X0152673Y0169960D01*
X0152395Y0169814D01*
X0152120Y0169661D01*
X0151849Y0169502D01*
X0151582Y0169336D01*
X0151319Y0169163D01*
X0151060Y0168985D01*
X0150806Y0168800D01*
X0150557Y0168608D01*
X0150312Y0168411D01*
X0150072Y0168208D01*
X0149837Y0167999D01*
X0149607Y0167784D01*
X0149383Y0167564D01*
X0149164Y0167339D01*
X0148951Y0167108D01*
X0148743Y0166872D01*
X0148541Y0166630D01*
X0148346Y0166385D01*
X0148156Y0166134D01*
X0147972Y0165879D01*
X0147795Y0165619D01*
X0147624Y0165355D01*
X0147460Y0165087D01*
X0147302Y0164815D01*
X0147151Y0164540D01*
X0147007Y0164260D01*
X0146869Y0163978D01*
X0146739Y0163692D01*
X0146615Y0163403D01*
X0146499Y0163110D01*
X0146390Y0162816D01*
X0146288Y0162518D01*
X0146194Y0162219D01*
X0146106Y0161916D01*
X0146026Y0161612D01*
X0145954Y0161307D01*
X0145889Y0160999D01*
X0145832Y0160690D01*
X0145782Y0160379D01*
X0145740Y0160068D01*
X0145705Y0159755D01*
X0145679Y0159442D01*
X0145659Y0159128D01*
X0145648Y0158814D01*
X0145644Y0158500D01*
X0145648Y0158186D01*
X0145659Y0157872D01*
X0145679Y0157558D01*
X0145705Y0157245D01*
X0145740Y0156932D01*
X0145782Y0156621D01*
X0145832Y0156310D01*
X0145889Y0156001D01*
X0145954Y0155693D01*
X0146026Y0155388D01*
X0146106Y0155084D01*
X0146194Y0154781D01*
X0146288Y0154482D01*
X0146390Y0154184D01*
X0146499Y0153890D01*
X0146615Y0153597D01*
X0146739Y0153308D01*
X0146869Y0153022D01*
X0147007Y0152740D01*
X0147151Y0152460D01*
X0147302Y0152185D01*
X0147460Y0151913D01*
X0147624Y0151645D01*
X0147795Y0151381D01*
X0147972Y0151121D01*
X0148156Y0150866D01*
X0148346Y0150615D01*
X0148541Y0150370D01*
X0148743Y0150128D01*
X0148951Y0149892D01*
X0149164Y0149661D01*
X0149383Y0149436D01*
X0149607Y0149216D01*
X0149837Y0149001D01*
X0150072Y0148792D01*
X0150312Y0148589D01*
X0150557Y0148392D01*
X0150806Y0148200D01*
X0151060Y0148015D01*
X0151319Y0147837D01*
X0151582Y0147664D01*
X0151849Y0147498D01*
X0152120Y0147339D01*
X0152395Y0147186D01*
X0152673Y0147040D01*
X0152955Y0146901D01*
X0153240Y0146769D01*
X0153529Y0146644D01*
X0153820Y0146526D01*
X0154114Y0146415D01*
X0154411Y0146312D01*
X0154710Y0146215D01*
X0155012Y0146126D01*
X0155315Y0146045D01*
X0155621Y0145971D01*
X0155928Y0145904D01*
X0156237Y0145845D01*
X0156547Y0145793D01*
X0156858Y0145749D01*
X0157170Y0145713D01*
X0157483Y0145684D01*
X0157797Y0145663D01*
X0158111Y0145650D01*
X0158425Y0145644D01*
X0158740Y0145646D01*
X0159054Y0145656D01*
X0159368Y0145673D01*
X0159681Y0145698D01*
X0159994Y0145731D01*
X0160306Y0145771D01*
X0160616Y0145819D01*
X0160926Y0145875D01*
X0161234Y0145938D01*
X0161540Y0146009D01*
X0161844Y0146087D01*
X0162147Y0146172D01*
X0162447Y0146265D01*
X0162745Y0146365D01*
X0163041Y0146473D01*
X0163333Y0146587D01*
X0163623Y0146709D01*
X0163910Y0146838D01*
X0164194Y0146974D01*
X0164474Y0147116D01*
X0164750Y0147266D01*
X0165023Y0147422D01*
X0165292Y0147585D01*
X0165557Y0147754D01*
X0165817Y0147930D01*
X0166074Y0148112D01*
X0166325Y0148300D01*
X0166573Y0148494D01*
X0166815Y0148695D01*
X0167052Y0148901D01*
X0167284Y0149113D01*
X0167511Y0149331D01*
X0167733Y0149554D01*
X0167949Y0149782D01*
X0168159Y0150016D01*
X0168363Y0150254D01*
X0168562Y0150498D01*
X0168755Y0150746D01*
X0168680Y0150803D01*
X0168488Y0150556D01*
X0168291Y0150314D01*
X0168088Y0150077D01*
X0167879Y0149846D01*
X0167665Y0149619D01*
X0167445Y0149397D01*
X0167220Y0149181D01*
X0166989Y0148971D01*
X0166754Y0148766D01*
X0166513Y0148567D01*
X0166268Y0148374D01*
X0166018Y0148188D01*
X0165764Y0148007D01*
X0165505Y0147832D01*
X0165242Y0147664D01*
X0164975Y0147503D01*
X0164704Y0147348D01*
X0164430Y0147199D01*
X0164152Y0147058D01*
X0163870Y0146923D01*
X0163586Y0146795D01*
X0163298Y0146674D01*
X0163007Y0146560D01*
X0162714Y0146454D01*
X0162418Y0146354D01*
X0162120Y0146262D01*
X0161820Y0146177D01*
X0161517Y0146100D01*
X0161213Y0146030D01*
X0160908Y0145967D01*
X0160601Y0145912D01*
X0160292Y0145864D01*
X0159983Y0145824D01*
X0159672Y0145792D01*
X0159361Y0145767D01*
X0159050Y0145750D01*
X0158738Y0145740D01*
X0158426Y0145738D01*
X0158114Y0145744D01*
X0157802Y0145757D01*
X0157491Y0145778D01*
X0157180Y0145806D01*
X0156870Y0145843D01*
X0156561Y0145886D01*
X0156253Y0145937D01*
X0155946Y0145996D01*
X0155642Y0146062D01*
X0155338Y0146136D01*
X0155037Y0146217D01*
X0154738Y0146305D01*
X0154441Y0146401D01*
X0154146Y0146504D01*
X0153854Y0146614D01*
X0153565Y0146731D01*
X0153278Y0146855D01*
X0152995Y0146986D01*
X0152715Y0147124D01*
X0152439Y0147269D01*
X0152166Y0147421D01*
X0151897Y0147579D01*
X0151632Y0147744D01*
X0151371Y0147915D01*
X0151115Y0148092D01*
X0150862Y0148276D01*
X0150615Y0148466D01*
X0150372Y0148661D01*
X0150133Y0148863D01*
X0149900Y0149071D01*
X0149672Y0149284D01*
X0149450Y0149502D01*
X0149232Y0149726D01*
X0149021Y0149955D01*
X0148815Y0150190D01*
X0148614Y0150429D01*
X0148420Y0150673D01*
X0148232Y0150922D01*
X0148049Y0151175D01*
X0147873Y0151433D01*
X0147704Y0151695D01*
X0147541Y0151961D01*
X0147384Y0152231D01*
X0147234Y0152505D01*
X0147091Y0152782D01*
X0146954Y0153062D01*
X0146825Y0153346D01*
X0146702Y0153633D01*
X0146587Y0153923D01*
X0146479Y0154216D01*
X0146377Y0154511D01*
X0146283Y0154809D01*
X0146197Y0155109D01*
X0146118Y0155410D01*
X0146046Y0155714D01*
X0145981Y0156019D01*
X0145924Y0156326D01*
X0145875Y0156634D01*
X0145833Y0156944D01*
X0145799Y0157254D01*
X0145772Y0157565D01*
X0145753Y0157876D01*
X0145742Y0158188D01*
X0145738Y0158500D01*
X0145742Y0158812D01*
X0145753Y0159124D01*
X0145772Y0159435D01*
X0145799Y0159746D01*
X0145833Y0160056D01*
X0145875Y0160366D01*
X0145924Y0160674D01*
X0145981Y0160981D01*
X0146046Y0161286D01*
X0146118Y0161590D01*
X0146197Y0161891D01*
X0146283Y0162191D01*
X0146377Y0162489D01*
X0146479Y0162784D01*
X0146587Y0163077D01*
X0146702Y0163367D01*
X0146825Y0163654D01*
X0146954Y0163938D01*
X0147091Y0164218D01*
X0147234Y0164495D01*
X0147384Y0164769D01*
X0147541Y0165039D01*
X0147704Y0165305D01*
X0147873Y0165567D01*
X0148049Y0165825D01*
X0148232Y0166078D01*
X0148420Y0166327D01*
X0148614Y0166571D01*
X0148815Y0166810D01*
X0149021Y0167045D01*
X0149232Y0167274D01*
X0149450Y0167498D01*
X0149672Y0167716D01*
X0149900Y0167929D01*
X0150133Y0168137D01*
X0150372Y0168339D01*
X0150615Y0168534D01*
X0150862Y0168724D01*
X0151115Y0168908D01*
X0151371Y0169085D01*
X0151632Y0169256D01*
X0151897Y0169421D01*
X0152166Y0169579D01*
X0152439Y0169731D01*
X0152715Y0169876D01*
X0152995Y0170014D01*
X0153278Y0170145D01*
X0153565Y0170269D01*
X0153854Y0170386D01*
X0154146Y0170496D01*
X0154441Y0170599D01*
X0154738Y0170695D01*
X0155037Y0170783D01*
X0155338Y0170864D01*
X0155642Y0170938D01*
X0155946Y0171004D01*
X0156253Y0171063D01*
X0156561Y0171114D01*
X0156870Y0171157D01*
X0157180Y0171194D01*
X0157491Y0171222D01*
X0157802Y0171243D01*
X0158114Y0171256D01*
X0158426Y0171262D01*
X0158738Y0171260D01*
X0159050Y0171250D01*
X0159361Y0171233D01*
X0159672Y0171208D01*
X0159983Y0171176D01*
X0160292Y0171136D01*
X0160601Y0171088D01*
X0160908Y0171033D01*
X0161213Y0170970D01*
X0161517Y0170900D01*
X0161820Y0170823D01*
X0162120Y0170738D01*
X0162418Y0170646D01*
X0162714Y0170546D01*
X0163007Y0170440D01*
X0163298Y0170326D01*
X0163586Y0170205D01*
X0163870Y0170077D01*
X0164152Y0169942D01*
X0164430Y0169801D01*
X0164704Y0169652D01*
X0164975Y0169497D01*
X0165242Y0169336D01*
X0165505Y0169168D01*
X0165764Y0168993D01*
X0166018Y0168812D01*
X0166268Y0168626D01*
X0166513Y0168433D01*
X0166754Y0168234D01*
X0166989Y0168029D01*
X0167220Y0167819D01*
X0167445Y0167603D01*
X0167665Y0167381D01*
X0167879Y0167154D01*
X0168088Y0166923D01*
X0168291Y0166686D01*
X0168488Y0166444D01*
X0168680Y0166197D01*
X0168604Y0166141D01*
X0168414Y0166386D01*
X0168219Y0166626D01*
X0168017Y0166861D01*
X0167810Y0167091D01*
X0167597Y0167316D01*
X0167379Y0167536D01*
X0167155Y0167750D01*
X0166926Y0167959D01*
X0166693Y0168162D01*
X0166454Y0168360D01*
X0166211Y0168551D01*
X0165962Y0168737D01*
X0165710Y0168916D01*
X0165453Y0169089D01*
X0165192Y0169256D01*
X0164927Y0169417D01*
X0164658Y0169570D01*
X0164386Y0169718D01*
X0164110Y0169858D01*
X0163830Y0169992D01*
X0163548Y0170119D01*
X0163262Y0170239D01*
X0162974Y0170352D01*
X0162683Y0170458D01*
X0162389Y0170556D01*
X0162093Y0170648D01*
X0161795Y0170732D01*
X0161495Y0170809D01*
X0161193Y0170878D01*
X0160890Y0170941D01*
X0160585Y0170995D01*
X0160279Y0171043D01*
X0159971Y0171082D01*
X0159663Y0171114D01*
X0159355Y0171139D01*
X0159045Y0171156D01*
X0158736Y0171166D01*
X0158426Y0171168D01*
X0158116Y0171162D01*
X0157807Y0171149D01*
X0157498Y0171128D01*
X0157189Y0171100D01*
X0156882Y0171064D01*
X0156575Y0171021D01*
X0156269Y0170970D01*
X0155965Y0170912D01*
X0155662Y0170846D01*
X0155361Y0170773D01*
X0155062Y0170693D01*
X0154765Y0170605D01*
X0154470Y0170510D01*
X0154178Y0170408D01*
X0153888Y0170299D01*
X0153601Y0170182D01*
X0153317Y0170059D01*
X0153036Y0169929D01*
X0152758Y0169792D01*
X0152484Y0169648D01*
X0152213Y0169498D01*
X0151946Y0169341D01*
X0151683Y0169177D01*
X0151424Y0169007D01*
X0151169Y0168831D01*
X0150918Y0168649D01*
X0150673Y0168460D01*
X0150431Y0168266D01*
X0150195Y0168066D01*
X0149964Y0167860D01*
X0149737Y0167648D01*
X0149516Y0167431D01*
X0149301Y0167209D01*
X0149090Y0166982D01*
X0148886Y0166749D01*
X0148687Y0166511D01*
X0148494Y0166269D01*
X0148307Y0166022D01*
X0148126Y0165771D01*
X0147952Y0165515D01*
X0147783Y0165255D01*
X0147621Y0164991D01*
X0147466Y0164723D01*
X0147317Y0164451D01*
X0147175Y0164176D01*
X0147039Y0163897D01*
X0146911Y0163616D01*
X0146789Y0163331D01*
X0146675Y0163043D01*
X0146567Y0162752D01*
X0146467Y0162459D01*
X0146373Y0162164D01*
X0146287Y0161866D01*
X0146209Y0161567D01*
X0146138Y0161265D01*
X0146074Y0160962D01*
X0146017Y0160658D01*
X0145968Y0160352D01*
X0145927Y0160045D01*
X0145893Y0159737D01*
X0145866Y0159428D01*
X0145847Y0159119D01*
X0145836Y0158810D01*
X0145832Y0158500D01*
X0145836Y0158190D01*
X0145847Y0157881D01*
X0145866Y0157572D01*
X0145893Y0157263D01*
X0145927Y0156955D01*
X0145968Y0156648D01*
X0146017Y0156342D01*
X0146074Y0156038D01*
X0146138Y0155735D01*
X0146209Y0155433D01*
X0146287Y0155134D01*
X0146373Y0154836D01*
X0146467Y0154541D01*
X0146567Y0154248D01*
X0146675Y0153957D01*
X0146789Y0153669D01*
X0146911Y0153384D01*
X0147039Y0153103D01*
X0147175Y0152824D01*
X0147317Y0152549D01*
X0147466Y0152277D01*
X0147621Y0152009D01*
X0147783Y0151745D01*
X0147952Y0151485D01*
X0148126Y0151229D01*
X0148307Y0150978D01*
X0148494Y0150731D01*
X0148687Y0150489D01*
X0148886Y0150251D01*
X0149090Y0150018D01*
X0149301Y0149791D01*
X0149516Y0149569D01*
X0149737Y0149352D01*
X0149964Y0149140D01*
X0150195Y0148934D01*
X0150431Y0148734D01*
X0150673Y0148540D01*
X0150918Y0148351D01*
X0151169Y0148169D01*
X0151424Y0147993D01*
X0151683Y0147823D01*
X0151946Y0147659D01*
X0152213Y0147502D01*
X0152484Y0147352D01*
X0152758Y0147208D01*
X0153036Y0147071D01*
X0153317Y0146941D01*
X0153601Y0146818D01*
X0153888Y0146701D01*
X0154178Y0146592D01*
X0154470Y0146490D01*
X0154765Y0146395D01*
X0155062Y0146307D01*
X0155361Y0146227D01*
X0155662Y0146154D01*
X0155965Y0146088D01*
X0156269Y0146030D01*
X0156575Y0145979D01*
X0156882Y0145936D01*
X0157189Y0145900D01*
X0157498Y0145872D01*
X0157807Y0145851D01*
X0158116Y0145838D01*
X0158426Y0145832D01*
X0158736Y0145834D01*
X0159045Y0145844D01*
X0159355Y0145861D01*
X0159663Y0145886D01*
X0159971Y0145918D01*
X0160279Y0145957D01*
X0160585Y0146005D01*
X0160890Y0146059D01*
X0161193Y0146122D01*
X0161495Y0146191D01*
X0161795Y0146268D01*
X0162093Y0146352D01*
X0162389Y0146444D01*
X0162683Y0146542D01*
X0162974Y0146648D01*
X0163262Y0146761D01*
X0163548Y0146881D01*
X0163830Y0147008D01*
X0164110Y0147142D01*
X0164386Y0147282D01*
X0164658Y0147430D01*
X0164927Y0147583D01*
X0165192Y0147744D01*
X0165453Y0147911D01*
X0165710Y0148084D01*
X0165962Y0148263D01*
X0166211Y0148449D01*
X0166454Y0148640D01*
X0166693Y0148838D01*
X0166926Y0149041D01*
X0167155Y0149250D01*
X0167379Y0149464D01*
X0167597Y0149684D01*
X0167810Y0149909D01*
X0168017Y0150139D01*
X0168219Y0150374D01*
X0168414Y0150614D01*
X0168604Y0150859D01*
X0168529Y0150916D01*
X0168341Y0150673D01*
X0168146Y0150434D01*
X0167946Y0150201D01*
X0167741Y0149973D01*
X0167529Y0149749D01*
X0167313Y0149531D01*
X0167091Y0149318D01*
X0166864Y0149111D01*
X0166632Y0148909D01*
X0166395Y0148713D01*
X0166153Y0148523D01*
X0165907Y0148339D01*
X0165656Y0148161D01*
X0165401Y0147989D01*
X0165142Y0147824D01*
X0164879Y0147664D01*
X0164612Y0147512D01*
X0164342Y0147365D01*
X0164068Y0147226D01*
X0163791Y0147093D01*
X0163510Y0146967D01*
X0163227Y0146848D01*
X0162940Y0146736D01*
X0162651Y0146631D01*
X0162360Y0146533D01*
X0162066Y0146442D01*
X0161770Y0146359D01*
X0161473Y0146282D01*
X0161173Y0146213D01*
X0160872Y0146152D01*
X0160569Y0146097D01*
X0160265Y0146051D01*
X0159960Y0146011D01*
X0159655Y0145979D01*
X0159348Y0145955D01*
X0159041Y0145938D01*
X0158734Y0145928D01*
X0158426Y0145926D01*
X0158119Y0145932D01*
X0157812Y0145945D01*
X0157505Y0145965D01*
X0157199Y0145994D01*
X0156893Y0146029D01*
X0156589Y0146072D01*
X0156286Y0146123D01*
X0155984Y0146180D01*
X0155683Y0146246D01*
X0155384Y0146318D01*
X0155088Y0146398D01*
X0154793Y0146485D01*
X0154500Y0146579D01*
X0154210Y0146681D01*
X0153922Y0146789D01*
X0153637Y0146904D01*
X0153355Y0147027D01*
X0153076Y0147156D01*
X0152800Y0147292D01*
X0152528Y0147435D01*
X0152259Y0147584D01*
X0151994Y0147740D01*
X0151733Y0147902D01*
X0151476Y0148071D01*
X0151223Y0148246D01*
X0150975Y0148427D01*
X0150731Y0148614D01*
X0150491Y0148807D01*
X0150257Y0149005D01*
X0150027Y0149210D01*
X0149802Y0149420D01*
X0149583Y0149635D01*
X0149369Y0149856D01*
X0149160Y0150081D01*
X0148957Y0150312D01*
X0148760Y0150548D01*
X0148568Y0150789D01*
X0148383Y0151034D01*
X0148203Y0151283D01*
X0148030Y0151537D01*
X0147863Y0151795D01*
X0147702Y0152057D01*
X0147548Y0152323D01*
X0147400Y0152593D01*
X0147259Y0152866D01*
X0147124Y0153143D01*
X0146997Y0153422D01*
X0146876Y0153705D01*
X0146762Y0153991D01*
X0146656Y0154279D01*
X0146556Y0154570D01*
X0146463Y0154863D01*
X0146378Y0155159D01*
X0146300Y0155456D01*
X0146229Y0155755D01*
X0146166Y0156056D01*
X0146110Y0156358D01*
X0146061Y0156662D01*
X0146020Y0156967D01*
X0145986Y0157272D01*
X0145960Y0157578D01*
X0145941Y0157885D01*
X0145930Y0158193D01*
X0145926Y0158500D01*
X0145930Y0158807D01*
X0145941Y0159115D01*
X0145960Y0159422D01*
X0145986Y0159728D01*
X0146020Y0160033D01*
X0146061Y0160338D01*
X0146110Y0160642D01*
X0146166Y0160944D01*
X0146229Y0161245D01*
X0146300Y0161544D01*
X0146378Y0161841D01*
X0146463Y0162137D01*
X0146556Y0162430D01*
X0146656Y0162721D01*
X0146762Y0163009D01*
X0146876Y0163295D01*
X0146997Y0163578D01*
X0147124Y0163857D01*
X0147259Y0164134D01*
X0147400Y0164407D01*
X0147548Y0164677D01*
X0147702Y0164943D01*
X0147863Y0165205D01*
X0148030Y0165463D01*
X0148203Y0165717D01*
X0148383Y0165966D01*
X0148568Y0166211D01*
X0148760Y0166452D01*
X0148957Y0166688D01*
X0149160Y0166919D01*
X0149369Y0167144D01*
X0149583Y0167365D01*
X0149802Y0167580D01*
X0150027Y0167790D01*
X0150257Y0167995D01*
X0150491Y0168193D01*
X0150731Y0168386D01*
X0150975Y0168573D01*
X0151223Y0168754D01*
X0151476Y0168929D01*
X0151733Y0169098D01*
X0151994Y0169260D01*
X0152259Y0169416D01*
X0152528Y0169565D01*
X0152800Y0169708D01*
X0153076Y0169844D01*
X0153355Y0169973D01*
X0153637Y0170096D01*
X0153922Y0170211D01*
X0154210Y0170319D01*
X0154500Y0170421D01*
X0154793Y0170515D01*
X0155088Y0170602D01*
X0155384Y0170682D01*
X0155683Y0170754D01*
X0155984Y0170820D01*
X0156286Y0170877D01*
X0156589Y0170928D01*
X0156893Y0170971D01*
X0157199Y0171006D01*
X0157505Y0171035D01*
X0157812Y0171055D01*
X0158119Y0171068D01*
X0158426Y0171074D01*
X0158734Y0171072D01*
X0159041Y0171062D01*
X0159348Y0171045D01*
X0159655Y0171021D01*
X0159960Y0170989D01*
X0160265Y0170949D01*
X0160569Y0170903D01*
X0160872Y0170848D01*
X0161173Y0170787D01*
X0161473Y0170718D01*
X0161770Y0170641D01*
X0162066Y0170558D01*
X0162360Y0170467D01*
X0162651Y0170369D01*
X0162940Y0170264D01*
X0163227Y0170152D01*
X0163510Y0170033D01*
X0163791Y0169907D01*
X0164068Y0169774D01*
X0164342Y0169635D01*
X0164612Y0169488D01*
X0164879Y0169336D01*
X0165142Y0169176D01*
X0165401Y0169011D01*
X0165656Y0168839D01*
X0165907Y0168661D01*
X0166153Y0168477D01*
X0166395Y0168287D01*
X0166632Y0168091D01*
X0166864Y0167889D01*
X0167091Y0167682D01*
X0167313Y0167469D01*
X0167529Y0167251D01*
X0167741Y0167027D01*
X0167946Y0166799D01*
X0168146Y0166566D01*
X0168341Y0166327D01*
X0168529Y0166084D01*
X0168454Y0166028D01*
X0168267Y0166269D01*
X0168074Y0166506D01*
X0167875Y0166737D01*
X0167671Y0166964D01*
X0167462Y0167186D01*
X0167247Y0167402D01*
X0167026Y0167613D01*
X0166801Y0167819D01*
X0166571Y0168019D01*
X0166335Y0168214D01*
X0166096Y0168402D01*
X0165851Y0168585D01*
X0165602Y0168762D01*
X0165349Y0168932D01*
X0165092Y0169097D01*
X0164831Y0169255D01*
X0164566Y0169406D01*
X0164298Y0169551D01*
X0164026Y0169690D01*
X0163751Y0169822D01*
X0163472Y0169947D01*
X0163191Y0170065D01*
X0162907Y0170176D01*
X0162620Y0170280D01*
X0162331Y0170378D01*
X0162039Y0170468D01*
X0161746Y0170551D01*
X0161450Y0170626D01*
X0161153Y0170695D01*
X0160854Y0170756D01*
X0160553Y0170810D01*
X0160252Y0170856D01*
X0159949Y0170896D01*
X0159646Y0170927D01*
X0159341Y0170952D01*
X0159037Y0170968D01*
X0158732Y0170978D01*
X0158427Y0170980D01*
X0158122Y0170974D01*
X0157817Y0170961D01*
X0157512Y0170941D01*
X0157208Y0170913D01*
X0156905Y0170878D01*
X0156603Y0170835D01*
X0156302Y0170785D01*
X0156002Y0170728D01*
X0155704Y0170663D01*
X0155408Y0170591D01*
X0155113Y0170512D01*
X0154820Y0170425D01*
X0154530Y0170332D01*
X0154242Y0170231D01*
X0153956Y0170123D01*
X0153673Y0170009D01*
X0153393Y0169887D01*
X0153116Y0169759D01*
X0152843Y0169624D01*
X0152573Y0169483D01*
X0152306Y0169334D01*
X0152043Y0169180D01*
X0151784Y0169019D01*
X0151528Y0168851D01*
X0151277Y0168678D01*
X0151031Y0168498D01*
X0150789Y0168312D01*
X0150551Y0168121D01*
X0150318Y0167924D01*
X0150090Y0167721D01*
X0149867Y0167512D01*
X0149649Y0167299D01*
X0149437Y0167080D01*
X0149230Y0166856D01*
X0149028Y0166626D01*
X0148832Y0166392D01*
X0148642Y0166154D01*
X0148458Y0165910D01*
X0148280Y0165663D01*
X0148108Y0165411D01*
X0147942Y0165154D01*
X0147783Y0164894D01*
X0147629Y0164630D01*
X0147483Y0164363D01*
X0147343Y0164092D01*
X0147209Y0163817D01*
X0147083Y0163540D01*
X0146963Y0163259D01*
X0146850Y0162975D01*
X0146744Y0162689D01*
X0146645Y0162401D01*
X0146553Y0162110D01*
X0146469Y0161816D01*
X0146391Y0161521D01*
X0146321Y0161224D01*
X0146258Y0160926D01*
X0146202Y0160626D01*
X0146154Y0160324D01*
X0146113Y0160022D01*
X0146080Y0159719D01*
X0146054Y0159415D01*
X0146035Y0159110D01*
X0146024Y0158805D01*
X0146020Y0158500D01*
X0146024Y0158195D01*
X0146035Y0157890D01*
X0146054Y0157585D01*
X0146080Y0157281D01*
X0146113Y0156978D01*
X0146154Y0156676D01*
X0146202Y0156374D01*
X0146258Y0156074D01*
X0146321Y0155776D01*
X0146391Y0155479D01*
X0146469Y0155184D01*
X0146553Y0154890D01*
X0146645Y0154599D01*
X0146744Y0154311D01*
X0146850Y0154025D01*
X0146963Y0153741D01*
X0147083Y0153460D01*
X0147209Y0153183D01*
X0147343Y0152908D01*
X0147483Y0152637D01*
X0147629Y0152370D01*
X0147783Y0152106D01*
X0147942Y0151846D01*
X0148108Y0151589D01*
X0148280Y0151337D01*
X0148458Y0151090D01*
X0148642Y0150846D01*
X0148832Y0150608D01*
X0149028Y0150374D01*
X0149230Y0150144D01*
X0149437Y0149920D01*
X0149649Y0149701D01*
X0149867Y0149488D01*
X0150090Y0149279D01*
X0150318Y0149076D01*
X0150551Y0148879D01*
X0150789Y0148688D01*
X0151031Y0148502D01*
X0151277Y0148322D01*
X0151528Y0148149D01*
X0151784Y0147981D01*
X0152043Y0147820D01*
X0152306Y0147666D01*
X0152573Y0147517D01*
X0152843Y0147376D01*
X0153116Y0147241D01*
X0153393Y0147113D01*
X0153673Y0146991D01*
X0153956Y0146877D01*
X0154242Y0146769D01*
X0154530Y0146668D01*
X0154820Y0146575D01*
X0155113Y0146488D01*
X0155408Y0146409D01*
X0155704Y0146337D01*
X0156002Y0146272D01*
X0156302Y0146215D01*
X0156603Y0146165D01*
X0156905Y0146122D01*
X0157208Y0146087D01*
X0157512Y0146059D01*
X0157817Y0146039D01*
X0158122Y0146026D01*
X0158427Y0146020D01*
X0158732Y0146022D01*
X0159037Y0146032D01*
X0159341Y0146048D01*
X0159646Y0146073D01*
X0159949Y0146104D01*
X0160252Y0146144D01*
X0160553Y0146190D01*
X0160854Y0146244D01*
X0161153Y0146305D01*
X0161450Y0146374D01*
X0161746Y0146449D01*
X0162039Y0146532D01*
X0162331Y0146622D01*
X0162620Y0146720D01*
X0162907Y0146824D01*
X0163191Y0146935D01*
X0163472Y0147053D01*
X0163751Y0147178D01*
X0164026Y0147310D01*
X0164298Y0147449D01*
X0164566Y0147594D01*
X0164831Y0147745D01*
X0165092Y0147903D01*
X0165349Y0148068D01*
X0165602Y0148238D01*
X0165851Y0148415D01*
X0166096Y0148598D01*
X0166335Y0148786D01*
X0166571Y0148981D01*
X0166801Y0149181D01*
X0167026Y0149387D01*
X0167247Y0149598D01*
X0167462Y0149814D01*
X0167671Y0150036D01*
X0167875Y0150263D01*
X0168074Y0150494D01*
X0168267Y0150731D01*
X0168454Y0150972D01*
X0168379Y0151028D01*
X0168193Y0150789D01*
X0168002Y0150554D01*
X0167805Y0150325D01*
X0167602Y0150100D01*
X0167394Y0149879D01*
X0167180Y0149665D01*
X0166962Y0149455D01*
X0166738Y0149251D01*
X0166510Y0149052D01*
X0166276Y0148859D01*
X0166038Y0148672D01*
X0165796Y0148491D01*
X0165549Y0148315D01*
X0165298Y0148146D01*
X0165042Y0147983D01*
X0164783Y0147826D01*
X0164520Y0147676D01*
X0164254Y0147532D01*
X0163984Y0147394D01*
X0163711Y0147263D01*
X0163435Y0147139D01*
X0163155Y0147022D01*
X0162873Y0146912D01*
X0162589Y0146808D01*
X0162302Y0146712D01*
X0162012Y0146622D01*
X0161721Y0146540D01*
X0161428Y0146465D01*
X0161132Y0146397D01*
X0160836Y0146336D01*
X0160538Y0146283D01*
X0160238Y0146237D01*
X0159938Y0146198D01*
X0159637Y0146166D01*
X0159335Y0146142D01*
X0159032Y0146125D01*
X0158730Y0146116D01*
X0158427Y0146114D01*
X0158124Y0146120D01*
X0157822Y0146133D01*
X0157519Y0146153D01*
X0157218Y0146181D01*
X0156917Y0146216D01*
X0156617Y0146258D01*
X0156318Y0146308D01*
X0156021Y0146365D01*
X0155725Y0146429D01*
X0155431Y0146500D01*
X0155138Y0146579D01*
X0154848Y0146665D01*
X0154559Y0146758D01*
X0154274Y0146857D01*
X0153990Y0146964D01*
X0153710Y0147078D01*
X0153432Y0147198D01*
X0153157Y0147326D01*
X0152885Y0147460D01*
X0152617Y0147600D01*
X0152352Y0147747D01*
X0152091Y0147901D01*
X0151834Y0148061D01*
X0151581Y0148227D01*
X0151332Y0148399D01*
X0151087Y0148577D01*
X0150846Y0148762D01*
X0150611Y0148952D01*
X0150380Y0149147D01*
X0150153Y0149349D01*
X0149932Y0149555D01*
X0149716Y0149768D01*
X0149505Y0149985D01*
X0149300Y0150207D01*
X0149100Y0150435D01*
X0148905Y0150667D01*
X0148717Y0150904D01*
X0148534Y0151146D01*
X0148357Y0151391D01*
X0148186Y0151642D01*
X0148022Y0151896D01*
X0147863Y0152154D01*
X0147711Y0152416D01*
X0147566Y0152681D01*
X0147427Y0152950D01*
X0147294Y0153223D01*
X0147169Y0153498D01*
X0147050Y0153777D01*
X0146938Y0154058D01*
X0146833Y0154342D01*
X0146734Y0154629D01*
X0146643Y0154918D01*
X0146559Y0155209D01*
X0146482Y0155502D01*
X0146413Y0155796D01*
X0146350Y0156093D01*
X0146295Y0156390D01*
X0146247Y0156689D01*
X0146206Y0156989D01*
X0146173Y0157291D01*
X0146147Y0157592D01*
X0146129Y0157895D01*
X0146118Y0158197D01*
X0146114Y0158500D01*
X0146118Y0158803D01*
X0146129Y0159105D01*
X0146147Y0159408D01*
X0146173Y0159709D01*
X0146206Y0160011D01*
X0146247Y0160311D01*
X0146295Y0160610D01*
X0146350Y0160907D01*
X0146413Y0161204D01*
X0146482Y0161498D01*
X0146559Y0161791D01*
X0146643Y0162082D01*
X0146734Y0162371D01*
X0146833Y0162658D01*
X0146938Y0162942D01*
X0147050Y0163223D01*
X0147169Y0163502D01*
X0147294Y0163777D01*
X0147427Y0164050D01*
X0147566Y0164319D01*
X0147711Y0164584D01*
X0147863Y0164846D01*
X0148022Y0165104D01*
X0148186Y0165358D01*
X0148357Y0165609D01*
X0148534Y0165854D01*
X0148717Y0166096D01*
X0148905Y0166333D01*
X0149100Y0166565D01*
X0149300Y0166793D01*
X0149505Y0167015D01*
X0149716Y0167232D01*
X0149932Y0167445D01*
X0150153Y0167651D01*
X0150380Y0167853D01*
X0150611Y0168048D01*
X0150846Y0168238D01*
X0151087Y0168423D01*
X0151332Y0168601D01*
X0151581Y0168773D01*
X0151834Y0168939D01*
X0152091Y0169099D01*
X0152352Y0169253D01*
X0152617Y0169400D01*
X0152885Y0169540D01*
X0153157Y0169674D01*
X0153432Y0169802D01*
X0153710Y0169922D01*
X0153990Y0170036D01*
X0154274Y0170143D01*
X0154559Y0170242D01*
X0154848Y0170335D01*
X0155138Y0170421D01*
X0155431Y0170500D01*
X0155725Y0170571D01*
X0156021Y0170635D01*
X0156318Y0170692D01*
X0156617Y0170742D01*
X0156917Y0170784D01*
X0157218Y0170819D01*
X0157519Y0170847D01*
X0157822Y0170867D01*
X0158124Y0170880D01*
X0158427Y0170886D01*
X0158730Y0170884D01*
X0159032Y0170875D01*
X0159335Y0170858D01*
X0159637Y0170834D01*
X0159938Y0170802D01*
X0160238Y0170763D01*
X0160538Y0170717D01*
X0160836Y0170664D01*
X0161132Y0170603D01*
X0161428Y0170535D01*
X0161721Y0170460D01*
X0162012Y0170378D01*
X0162302Y0170288D01*
X0162589Y0170192D01*
X0162873Y0170088D01*
X0163155Y0169978D01*
X0163435Y0169861D01*
X0163711Y0169737D01*
X0163984Y0169606D01*
X0164254Y0169468D01*
X0164520Y0169324D01*
X0164783Y0169174D01*
X0165042Y0169017D01*
X0165298Y0168854D01*
X0165549Y0168685D01*
X0165796Y0168509D01*
X0166038Y0168328D01*
X0166276Y0168141D01*
X0166510Y0167948D01*
X0166738Y0167749D01*
X0166962Y0167545D01*
X0167180Y0167335D01*
X0167394Y0167121D01*
X0167602Y0166900D01*
X0167805Y0166675D01*
X0168002Y0166446D01*
X0168193Y0166211D01*
X0168379Y0165972D01*
X0168304Y0165915D01*
X0168119Y0166153D01*
X0167929Y0166385D01*
X0167734Y0166614D01*
X0167533Y0166837D01*
X0167326Y0167055D01*
X0167114Y0167269D01*
X0166897Y0167477D01*
X0166675Y0167679D01*
X0166448Y0167876D01*
X0166217Y0168068D01*
X0165981Y0168254D01*
X0165740Y0168434D01*
X0165495Y0168608D01*
X0165246Y0168776D01*
X0164992Y0168938D01*
X0164735Y0169093D01*
X0164474Y0169242D01*
X0164210Y0169385D01*
X0163942Y0169522D01*
X0163671Y0169651D01*
X0163397Y0169774D01*
X0163120Y0169891D01*
X0162840Y0170000D01*
X0162557Y0170103D01*
X0162273Y0170199D01*
X0161985Y0170287D01*
X0161696Y0170369D01*
X0161405Y0170444D01*
X0161112Y0170511D01*
X0160818Y0170572D01*
X0160522Y0170625D01*
X0160225Y0170670D01*
X0159927Y0170709D01*
X0159628Y0170740D01*
X0159328Y0170764D01*
X0159028Y0170781D01*
X0158728Y0170790D01*
X0158427Y0170792D01*
X0158127Y0170786D01*
X0157826Y0170774D01*
X0157527Y0170753D01*
X0157227Y0170726D01*
X0156929Y0170691D01*
X0156631Y0170649D01*
X0156335Y0170600D01*
X0156040Y0170543D01*
X0155746Y0170479D01*
X0155454Y0170409D01*
X0155164Y0170331D01*
X0154875Y0170245D01*
X0154589Y0170153D01*
X0154305Y0170054D01*
X0154024Y0169948D01*
X0153746Y0169835D01*
X0153470Y0169716D01*
X0153197Y0169589D01*
X0152928Y0169456D01*
X0152662Y0169317D01*
X0152399Y0169171D01*
X0152140Y0169019D01*
X0151884Y0168860D01*
X0151633Y0168695D01*
X0151386Y0168524D01*
X0151143Y0168347D01*
X0150904Y0168164D01*
X0150670Y0167976D01*
X0150441Y0167782D01*
X0150217Y0167582D01*
X0149997Y0167377D01*
X0149783Y0167166D01*
X0149573Y0166950D01*
X0149369Y0166730D01*
X0149171Y0166504D01*
X0148978Y0166273D01*
X0148791Y0166038D01*
X0148609Y0165799D01*
X0148434Y0165555D01*
X0148264Y0165306D01*
X0148101Y0165054D01*
X0147944Y0164798D01*
X0147793Y0164538D01*
X0147649Y0164274D01*
X0147511Y0164007D01*
X0147379Y0163737D01*
X0147255Y0163464D01*
X0147137Y0163187D01*
X0147026Y0162908D01*
X0146921Y0162626D01*
X0146824Y0162342D01*
X0146733Y0162055D01*
X0146650Y0161766D01*
X0146574Y0161476D01*
X0146504Y0161183D01*
X0146442Y0160889D01*
X0146388Y0160594D01*
X0146340Y0160297D01*
X0146300Y0159999D01*
X0146267Y0159700D01*
X0146241Y0159401D01*
X0146223Y0159101D01*
X0146212Y0158801D01*
X0146208Y0158500D01*
X0146212Y0158199D01*
X0146223Y0157899D01*
X0146241Y0157599D01*
X0146267Y0157300D01*
X0146300Y0157001D01*
X0146340Y0156703D01*
X0146388Y0156406D01*
X0146442Y0156111D01*
X0146504Y0155817D01*
X0146574Y0155524D01*
X0146650Y0155234D01*
X0146733Y0154945D01*
X0146824Y0154658D01*
X0146921Y0154374D01*
X0147026Y0154092D01*
X0147137Y0153813D01*
X0147255Y0153536D01*
X0147379Y0153263D01*
X0147511Y0152993D01*
X0147649Y0152726D01*
X0147793Y0152462D01*
X0147944Y0152202D01*
X0148101Y0151946D01*
X0148264Y0151694D01*
X0148434Y0151445D01*
X0148609Y0151201D01*
X0148791Y0150962D01*
X0148978Y0150727D01*
X0149171Y0150496D01*
X0149369Y0150270D01*
X0149573Y0150050D01*
X0149783Y0149834D01*
X0149997Y0149623D01*
X0150217Y0149418D01*
X0150441Y0149218D01*
X0150670Y0149024D01*
X0150904Y0148836D01*
X0151143Y0148653D01*
X0151386Y0148476D01*
X0151633Y0148305D01*
X0151884Y0148140D01*
X0152140Y0147981D01*
X0152399Y0147829D01*
X0152662Y0147683D01*
X0152928Y0147544D01*
X0153197Y0147411D01*
X0153470Y0147284D01*
X0153746Y0147165D01*
X0154024Y0147052D01*
X0154305Y0146946D01*
X0154589Y0146847D01*
X0154875Y0146755D01*
X0155164Y0146669D01*
X0155454Y0146591D01*
X0155746Y0146521D01*
X0156040Y0146457D01*
X0156335Y0146400D01*
X0156631Y0146351D01*
X0156929Y0146309D01*
X0157227Y0146274D01*
X0157527Y0146247D01*
X0157826Y0146226D01*
X0158127Y0146214D01*
X0158427Y0146208D01*
X0158728Y0146210D01*
X0159028Y0146219D01*
X0159328Y0146236D01*
X0159628Y0146260D01*
X0159927Y0146291D01*
X0160225Y0146330D01*
X0160522Y0146375D01*
X0160818Y0146428D01*
X0161112Y0146489D01*
X0161405Y0146556D01*
X0161696Y0146631D01*
X0161985Y0146713D01*
X0162273Y0146801D01*
X0162557Y0146897D01*
X0162840Y0147000D01*
X0163120Y0147109D01*
X0163397Y0147226D01*
X0163671Y0147349D01*
X0163942Y0147478D01*
X0164210Y0147615D01*
X0164474Y0147758D01*
X0164735Y0147907D01*
X0164992Y0148062D01*
X0165246Y0148224D01*
X0165495Y0148392D01*
X0165740Y0148566D01*
X0165981Y0148746D01*
X0166217Y0148932D01*
X0166448Y0149124D01*
X0166675Y0149321D01*
X0166897Y0149523D01*
X0167114Y0149731D01*
X0167326Y0149945D01*
X0167533Y0150163D01*
X0167734Y0150386D01*
X0167929Y0150615D01*
X0168119Y0150847D01*
X0168304Y0151085D01*
X0168228Y0151141D01*
X0168046Y0150906D01*
X0167857Y0150675D01*
X0167663Y0150448D01*
X0167463Y0150226D01*
X0167258Y0150010D01*
X0167048Y0149798D01*
X0166833Y0149592D01*
X0166613Y0149391D01*
X0166387Y0149195D01*
X0166158Y0149005D01*
X0165923Y0148821D01*
X0165684Y0148642D01*
X0165441Y0148469D01*
X0165194Y0148303D01*
X0164942Y0148142D01*
X0164687Y0147988D01*
X0164428Y0147840D01*
X0164166Y0147698D01*
X0163900Y0147563D01*
X0163631Y0147434D01*
X0163359Y0147312D01*
X0163084Y0147196D01*
X0162806Y0147087D01*
X0162526Y0146986D01*
X0162243Y0146891D01*
X0161958Y0146803D01*
X0161671Y0146722D01*
X0161383Y0146647D01*
X0161092Y0146581D01*
X0160800Y0146521D01*
X0160506Y0146468D01*
X0160211Y0146423D01*
X0159916Y0146384D01*
X0159619Y0146353D01*
X0159322Y0146330D01*
X0159024Y0146313D01*
X0158726Y0146304D01*
X0158428Y0146302D01*
X0158129Y0146308D01*
X0157831Y0146320D01*
X0157534Y0146340D01*
X0157237Y0146368D01*
X0156941Y0146402D01*
X0156645Y0146444D01*
X0156351Y0146493D01*
X0156058Y0146549D01*
X0155767Y0146612D01*
X0155477Y0146683D01*
X0155189Y0146760D01*
X0154903Y0146844D01*
X0154619Y0146936D01*
X0154337Y0147034D01*
X0154058Y0147139D01*
X0153782Y0147251D01*
X0153508Y0147370D01*
X0153238Y0147495D01*
X0152970Y0147627D01*
X0152706Y0147766D01*
X0152445Y0147911D01*
X0152188Y0148062D01*
X0151935Y0148219D01*
X0151686Y0148383D01*
X0151440Y0148553D01*
X0151199Y0148728D01*
X0150962Y0148910D01*
X0150730Y0149097D01*
X0150503Y0149289D01*
X0150280Y0149488D01*
X0150062Y0149691D01*
X0149849Y0149900D01*
X0149641Y0150114D01*
X0149439Y0150334D01*
X0149242Y0150557D01*
X0149051Y0150786D01*
X0148865Y0151020D01*
X0148685Y0151257D01*
X0148511Y0151499D01*
X0148343Y0151746D01*
X0148181Y0151996D01*
X0148025Y0152250D01*
X0147875Y0152508D01*
X0147732Y0152770D01*
X0147595Y0153035D01*
X0147464Y0153303D01*
X0147341Y0153574D01*
X0147224Y0153849D01*
X0147113Y0154126D01*
X0147010Y0154406D01*
X0146913Y0154688D01*
X0146823Y0154972D01*
X0146741Y0155259D01*
X0146665Y0155547D01*
X0146596Y0155837D01*
X0146535Y0156129D01*
X0146480Y0156422D01*
X0146433Y0156717D01*
X0146393Y0157012D01*
X0146360Y0157309D01*
X0146335Y0157606D01*
X0146317Y0157904D01*
X0146306Y0158202D01*
X0146302Y0158500D01*
X0146306Y0158798D01*
X0146317Y0159096D01*
X0146335Y0159394D01*
X0146360Y0159691D01*
X0146393Y0159988D01*
X0146433Y0160283D01*
X0146480Y0160578D01*
X0146535Y0160871D01*
X0146596Y0161163D01*
X0146665Y0161453D01*
X0146741Y0161741D01*
X0146823Y0162028D01*
X0146913Y0162312D01*
X0147010Y0162594D01*
X0147113Y0162874D01*
X0147224Y0163151D01*
X0147341Y0163426D01*
X0147464Y0163697D01*
X0147595Y0163965D01*
X0147732Y0164230D01*
X0147875Y0164492D01*
X0148025Y0164750D01*
X0148181Y0165004D01*
X0148343Y0165254D01*
X0148511Y0165501D01*
X0148685Y0165743D01*
X0148865Y0165980D01*
X0149051Y0166214D01*
X0149242Y0166443D01*
X0149439Y0166666D01*
X0149641Y0166886D01*
X0149849Y0167100D01*
X0150062Y0167309D01*
X0150280Y0167512D01*
X0150503Y0167711D01*
X0150730Y0167903D01*
X0150962Y0168090D01*
X0151199Y0168272D01*
X0151440Y0168447D01*
X0151686Y0168617D01*
X0151935Y0168781D01*
X0152188Y0168938D01*
X0152445Y0169089D01*
X0152706Y0169234D01*
X0152970Y0169373D01*
X0153238Y0169505D01*
X0153508Y0169630D01*
X0153782Y0169749D01*
X0154058Y0169861D01*
X0154337Y0169966D01*
X0154619Y0170064D01*
X0154903Y0170156D01*
X0155189Y0170240D01*
X0155477Y0170317D01*
X0155767Y0170388D01*
X0156058Y0170451D01*
X0156351Y0170507D01*
X0156645Y0170556D01*
X0156941Y0170598D01*
X0157237Y0170632D01*
X0157534Y0170660D01*
X0157831Y0170680D01*
X0158129Y0170692D01*
X0158428Y0170698D01*
X0158726Y0170696D01*
X0159024Y0170687D01*
X0159322Y0170670D01*
X0159619Y0170647D01*
X0159916Y0170616D01*
X0160211Y0170577D01*
X0160506Y0170532D01*
X0160800Y0170479D01*
X0161092Y0170419D01*
X0161383Y0170353D01*
X0161671Y0170278D01*
X0161958Y0170197D01*
X0162243Y0170109D01*
X0162526Y0170014D01*
X0162806Y0169913D01*
X0163084Y0169804D01*
X0163359Y0169688D01*
X0163631Y0169566D01*
X0163900Y0169437D01*
X0164166Y0169302D01*
X0164428Y0169160D01*
X0164687Y0169012D01*
X0164942Y0168858D01*
X0165194Y0168697D01*
X0165441Y0168531D01*
X0165684Y0168358D01*
X0165923Y0168179D01*
X0166158Y0167995D01*
X0166387Y0167805D01*
X0166613Y0167609D01*
X0166833Y0167408D01*
X0167048Y0167202D01*
X0167258Y0166990D01*
X0167463Y0166774D01*
X0167663Y0166552D01*
X0167857Y0166325D01*
X0168046Y0166094D01*
X0168228Y0165859D01*
X0168153Y0165802D01*
X0167972Y0166036D01*
X0167785Y0166265D01*
X0167592Y0166490D01*
X0167394Y0166710D01*
X0167191Y0166925D01*
X0166982Y0167135D01*
X0166768Y0167340D01*
X0166550Y0167539D01*
X0166326Y0167733D01*
X0166098Y0167922D01*
X0165866Y0168105D01*
X0165629Y0168282D01*
X0165387Y0168453D01*
X0165142Y0168619D01*
X0164893Y0168778D01*
X0164639Y0168931D01*
X0164383Y0169078D01*
X0164122Y0169219D01*
X0163858Y0169353D01*
X0163591Y0169481D01*
X0163321Y0169602D01*
X0163049Y0169717D01*
X0162773Y0169825D01*
X0162495Y0169926D01*
X0162214Y0170020D01*
X0161932Y0170107D01*
X0161647Y0170188D01*
X0161360Y0170261D01*
X0161072Y0170328D01*
X0160782Y0170387D01*
X0160490Y0170439D01*
X0160198Y0170484D01*
X0159904Y0170522D01*
X0159610Y0170553D01*
X0159315Y0170577D01*
X0159020Y0170593D01*
X0158724Y0170602D01*
X0158428Y0170604D01*
X0158132Y0170598D01*
X0157836Y0170586D01*
X0157541Y0170566D01*
X0157246Y0170539D01*
X0156952Y0170505D01*
X0156659Y0170463D01*
X0156367Y0170415D01*
X0156077Y0170359D01*
X0155788Y0170296D01*
X0155500Y0170226D01*
X0155214Y0170149D01*
X0154930Y0170066D01*
X0154649Y0169975D01*
X0154369Y0169877D01*
X0154092Y0169773D01*
X0153818Y0169662D01*
X0153547Y0169544D01*
X0153278Y0169420D01*
X0153013Y0169289D01*
X0152751Y0169151D01*
X0152492Y0169008D01*
X0152237Y0168858D01*
X0151985Y0168701D01*
X0151738Y0168539D01*
X0151495Y0168371D01*
X0151255Y0168196D01*
X0151020Y0168016D01*
X0150790Y0167831D01*
X0150564Y0167639D01*
X0150343Y0167443D01*
X0150127Y0167241D01*
X0149916Y0167033D01*
X0149710Y0166821D01*
X0149509Y0166603D01*
X0149313Y0166381D01*
X0149123Y0166154D01*
X0148939Y0165923D01*
X0148761Y0165687D01*
X0148588Y0165447D01*
X0148421Y0165202D01*
X0148260Y0164954D01*
X0148105Y0164701D01*
X0147957Y0164445D01*
X0147815Y0164186D01*
X0147679Y0163923D01*
X0147549Y0163657D01*
X0147427Y0163388D01*
X0147310Y0163115D01*
X0147201Y0162840D01*
X0147098Y0162563D01*
X0147002Y0162283D01*
X0146913Y0162001D01*
X0146831Y0161716D01*
X0146756Y0161430D01*
X0146688Y0161142D01*
X0146627Y0160853D01*
X0146573Y0160562D01*
X0146526Y0160269D01*
X0146486Y0159976D01*
X0146454Y0159682D01*
X0146429Y0159387D01*
X0146410Y0159092D01*
X0146400Y0158796D01*
X0146396Y0158500D01*
X0146400Y0158204D01*
X0146410Y0157908D01*
X0146429Y0157613D01*
X0146454Y0157318D01*
X0146486Y0157024D01*
X0146526Y0156731D01*
X0146573Y0156438D01*
X0146627Y0156147D01*
X0146688Y0155858D01*
X0146756Y0155570D01*
X0146831Y0155284D01*
X0146913Y0154999D01*
X0147002Y0154717D01*
X0147098Y0154437D01*
X0147201Y0154160D01*
X0147310Y0153885D01*
X0147427Y0153612D01*
X0147549Y0153343D01*
X0147679Y0153077D01*
X0147815Y0152814D01*
X0147957Y0152555D01*
X0148105Y0152299D01*
X0148260Y0152046D01*
X0148421Y0151798D01*
X0148588Y0151553D01*
X0148761Y0151313D01*
X0148939Y0151077D01*
X0149123Y0150846D01*
X0149313Y0150619D01*
X0149509Y0150397D01*
X0149710Y0150179D01*
X0149916Y0149967D01*
X0150127Y0149759D01*
X0150343Y0149557D01*
X0150564Y0149361D01*
X0150790Y0149169D01*
X0151020Y0148984D01*
X0151255Y0148804D01*
X0151495Y0148629D01*
X0151738Y0148461D01*
X0151985Y0148299D01*
X0152237Y0148142D01*
X0152492Y0147992D01*
X0152751Y0147849D01*
X0153013Y0147711D01*
X0153278Y0147580D01*
X0153547Y0147456D01*
X0153818Y0147338D01*
X0154092Y0147227D01*
X0154369Y0147123D01*
X0154649Y0147025D01*
X0154930Y0146934D01*
X0155214Y0146851D01*
X0155500Y0146774D01*
X0155788Y0146704D01*
X0156077Y0146641D01*
X0156367Y0146585D01*
X0156659Y0146537D01*
X0156952Y0146495D01*
X0157246Y0146461D01*
X0157541Y0146434D01*
X0157836Y0146414D01*
X0158132Y0146402D01*
X0158428Y0146396D01*
X0158724Y0146398D01*
X0159020Y0146407D01*
X0159315Y0146423D01*
X0159610Y0146447D01*
X0159904Y0146478D01*
X0160198Y0146516D01*
X0160490Y0146561D01*
X0160782Y0146613D01*
X0161072Y0146672D01*
X0161360Y0146739D01*
X0161647Y0146812D01*
X0161932Y0146893D01*
X0162214Y0146980D01*
X0162495Y0147074D01*
X0162773Y0147175D01*
X0163049Y0147283D01*
X0163321Y0147398D01*
X0163591Y0147519D01*
X0163858Y0147647D01*
X0164122Y0147781D01*
X0164383Y0147922D01*
X0164639Y0148069D01*
X0164893Y0148222D01*
X0165142Y0148381D01*
X0165387Y0148547D01*
X0165629Y0148718D01*
X0165866Y0148895D01*
X0166098Y0149078D01*
X0166326Y0149267D01*
X0166550Y0149461D01*
X0166768Y0149660D01*
X0166982Y0149865D01*
X0167191Y0150075D01*
X0167394Y0150290D01*
X0167592Y0150510D01*
X0167785Y0150735D01*
X0167972Y0150964D01*
X0168153Y0151198D01*
D14*
X0148500Y0158500D02*
X0148503Y0158745D01*
X0148512Y0158991D01*
X0148527Y0159236D01*
X0148548Y0159480D01*
X0148575Y0159724D01*
X0148608Y0159967D01*
X0148647Y0160210D01*
X0148692Y0160451D01*
X0148743Y0160691D01*
X0148800Y0160930D01*
X0148862Y0161167D01*
X0148931Y0161403D01*
X0149005Y0161637D01*
X0149085Y0161869D01*
X0149170Y0162099D01*
X0149261Y0162327D01*
X0149358Y0162552D01*
X0149460Y0162776D01*
X0149568Y0162996D01*
X0149681Y0163214D01*
X0149799Y0163429D01*
X0149923Y0163641D01*
X0150051Y0163850D01*
X0150185Y0164056D01*
X0150324Y0164258D01*
X0150468Y0164457D01*
X0150617Y0164652D01*
X0150770Y0164844D01*
X0150928Y0165032D01*
X0151090Y0165216D01*
X0151258Y0165395D01*
X0151429Y0165571D01*
X0151605Y0165742D01*
X0151784Y0165910D01*
X0151968Y0166072D01*
X0152156Y0166230D01*
X0152348Y0166383D01*
X0152543Y0166532D01*
X0152742Y0166676D01*
X0152944Y0166815D01*
X0153150Y0166949D01*
X0153359Y0167077D01*
X0153571Y0167201D01*
X0153786Y0167319D01*
X0154004Y0167432D01*
X0154224Y0167540D01*
X0154448Y0167642D01*
X0154673Y0167739D01*
X0154901Y0167830D01*
X0155131Y0167915D01*
X0155363Y0167995D01*
X0155597Y0168069D01*
X0155833Y0168138D01*
X0156070Y0168200D01*
X0156309Y0168257D01*
X0156549Y0168308D01*
X0156790Y0168353D01*
X0157033Y0168392D01*
X0157276Y0168425D01*
X0157520Y0168452D01*
X0157764Y0168473D01*
X0158009Y0168488D01*
X0158255Y0168497D01*
X0158500Y0168500D01*
X0158745Y0168497D01*
X0158991Y0168488D01*
X0159236Y0168473D01*
X0159480Y0168452D01*
X0159724Y0168425D01*
X0159967Y0168392D01*
X0160210Y0168353D01*
X0160451Y0168308D01*
X0160691Y0168257D01*
X0160930Y0168200D01*
X0161167Y0168138D01*
X0161403Y0168069D01*
X0161637Y0167995D01*
X0161869Y0167915D01*
X0162099Y0167830D01*
X0162327Y0167739D01*
X0162552Y0167642D01*
X0162776Y0167540D01*
X0162996Y0167432D01*
X0163214Y0167319D01*
X0163429Y0167201D01*
X0163641Y0167077D01*
X0163850Y0166949D01*
X0164056Y0166815D01*
X0164258Y0166676D01*
X0164457Y0166532D01*
X0164652Y0166383D01*
X0164844Y0166230D01*
X0165032Y0166072D01*
X0165216Y0165910D01*
X0165395Y0165742D01*
X0165571Y0165571D01*
X0165742Y0165395D01*
X0165910Y0165216D01*
X0166072Y0165032D01*
X0166230Y0164844D01*
X0166383Y0164652D01*
X0166532Y0164457D01*
X0166676Y0164258D01*
X0166815Y0164056D01*
X0166949Y0163850D01*
X0167077Y0163641D01*
X0167201Y0163429D01*
X0167319Y0163214D01*
X0167432Y0162996D01*
X0167540Y0162776D01*
X0167642Y0162552D01*
X0167739Y0162327D01*
X0167830Y0162099D01*
X0167915Y0161869D01*
X0167995Y0161637D01*
X0168069Y0161403D01*
X0168138Y0161167D01*
X0168200Y0160930D01*
X0168257Y0160691D01*
X0168308Y0160451D01*
X0168353Y0160210D01*
X0168392Y0159967D01*
X0168425Y0159724D01*
X0168452Y0159480D01*
X0168473Y0159236D01*
X0168488Y0158991D01*
X0168497Y0158745D01*
X0168500Y0158500D01*
X0168497Y0158255D01*
X0168488Y0158009D01*
X0168473Y0157764D01*
X0168452Y0157520D01*
X0168425Y0157276D01*
X0168392Y0157033D01*
X0168353Y0156790D01*
X0168308Y0156549D01*
X0168257Y0156309D01*
X0168200Y0156070D01*
X0168138Y0155833D01*
X0168069Y0155597D01*
X0167995Y0155363D01*
X0167915Y0155131D01*
X0167830Y0154901D01*
X0167739Y0154673D01*
X0167642Y0154448D01*
X0167540Y0154224D01*
X0167432Y0154004D01*
X0167319Y0153786D01*
X0167201Y0153571D01*
X0167077Y0153359D01*
X0166949Y0153150D01*
X0166815Y0152944D01*
X0166676Y0152742D01*
X0166532Y0152543D01*
X0166383Y0152348D01*
X0166230Y0152156D01*
X0166072Y0151968D01*
X0165910Y0151784D01*
X0165742Y0151605D01*
X0165571Y0151429D01*
X0165395Y0151258D01*
X0165216Y0151090D01*
X0165032Y0150928D01*
X0164844Y0150770D01*
X0164652Y0150617D01*
X0164457Y0150468D01*
X0164258Y0150324D01*
X0164056Y0150185D01*
X0163850Y0150051D01*
X0163641Y0149923D01*
X0163429Y0149799D01*
X0163214Y0149681D01*
X0162996Y0149568D01*
X0162776Y0149460D01*
X0162552Y0149358D01*
X0162327Y0149261D01*
X0162099Y0149170D01*
X0161869Y0149085D01*
X0161637Y0149005D01*
X0161403Y0148931D01*
X0161167Y0148862D01*
X0160930Y0148800D01*
X0160691Y0148743D01*
X0160451Y0148692D01*
X0160210Y0148647D01*
X0159967Y0148608D01*
X0159724Y0148575D01*
X0159480Y0148548D01*
X0159236Y0148527D01*
X0158991Y0148512D01*
X0158745Y0148503D01*
X0158500Y0148500D01*
X0158255Y0148503D01*
X0158009Y0148512D01*
X0157764Y0148527D01*
X0157520Y0148548D01*
X0157276Y0148575D01*
X0157033Y0148608D01*
X0156790Y0148647D01*
X0156549Y0148692D01*
X0156309Y0148743D01*
X0156070Y0148800D01*
X0155833Y0148862D01*
X0155597Y0148931D01*
X0155363Y0149005D01*
X0155131Y0149085D01*
X0154901Y0149170D01*
X0154673Y0149261D01*
X0154448Y0149358D01*
X0154224Y0149460D01*
X0154004Y0149568D01*
X0153786Y0149681D01*
X0153571Y0149799D01*
X0153359Y0149923D01*
X0153150Y0150051D01*
X0152944Y0150185D01*
X0152742Y0150324D01*
X0152543Y0150468D01*
X0152348Y0150617D01*
X0152156Y0150770D01*
X0151968Y0150928D01*
X0151784Y0151090D01*
X0151605Y0151258D01*
X0151429Y0151429D01*
X0151258Y0151605D01*
X0151090Y0151784D01*
X0150928Y0151968D01*
X0150770Y0152156D01*
X0150617Y0152348D01*
X0150468Y0152543D01*
X0150324Y0152742D01*
X0150185Y0152944D01*
X0150051Y0153150D01*
X0149923Y0153359D01*
X0149799Y0153571D01*
X0149681Y0153786D01*
X0149568Y0154004D01*
X0149460Y0154224D01*
X0149358Y0154448D01*
X0149261Y0154673D01*
X0149170Y0154901D01*
X0149085Y0155131D01*
X0149005Y0155363D01*
X0148931Y0155597D01*
X0148862Y0155833D01*
X0148800Y0156070D01*
X0148743Y0156309D01*
X0148692Y0156549D01*
X0148647Y0156790D01*
X0148608Y0157033D01*
X0148575Y0157276D01*
X0148548Y0157520D01*
X0148527Y0157764D01*
X0148512Y0158009D01*
X0148503Y0158255D01*
X0148500Y0158500D01*
D15*
X0147437Y0063618D02*
X0151886Y0063618D01*
X0151886Y0053382D01*
X0147437Y0053382D01*
X0151886Y0058500D02*
X0158264Y0058500D01*
X0129563Y0053382D02*
X0125114Y0053382D01*
X0125114Y0063618D01*
X0129563Y0063618D01*
X0125114Y0058500D02*
X0118736Y0058500D01*
D16*
X0060744Y0050783D02*
X0060746Y0050888D01*
X0060752Y0050993D01*
X0060762Y0051097D01*
X0060776Y0051201D01*
X0060794Y0051305D01*
X0060816Y0051407D01*
X0060841Y0051509D01*
X0060871Y0051610D01*
X0060904Y0051709D01*
X0060941Y0051807D01*
X0060982Y0051904D01*
X0061027Y0051999D01*
X0061075Y0052092D01*
X0061126Y0052184D01*
X0061182Y0052273D01*
X0061240Y0052360D01*
X0061302Y0052445D01*
X0061366Y0052528D01*
X0061434Y0052608D01*
X0061505Y0052685D01*
X0061579Y0052759D01*
X0061656Y0052831D01*
X0061735Y0052900D01*
X0061817Y0052965D01*
X0061901Y0053028D01*
X0061988Y0053087D01*
X0062077Y0053143D01*
X0062168Y0053196D01*
X0062261Y0053245D01*
X0062355Y0053290D01*
X0062451Y0053332D01*
X0062549Y0053370D01*
X0062648Y0053404D01*
X0062749Y0053435D01*
X0062850Y0053461D01*
X0062953Y0053484D01*
X0063056Y0053503D01*
X0063160Y0053518D01*
X0063264Y0053529D01*
X0063369Y0053536D01*
X0063474Y0053539D01*
X0063579Y0053538D01*
X0063684Y0053533D01*
X0063788Y0053524D01*
X0063892Y0053511D01*
X0063996Y0053494D01*
X0064099Y0053473D01*
X0064201Y0053448D01*
X0064302Y0053420D01*
X0064401Y0053387D01*
X0064500Y0053351D01*
X0064597Y0053311D01*
X0064692Y0053268D01*
X0064786Y0053220D01*
X0064878Y0053170D01*
X0064968Y0053116D01*
X0065056Y0053058D01*
X0065141Y0052997D01*
X0065224Y0052933D01*
X0065305Y0052866D01*
X0065383Y0052796D01*
X0065458Y0052722D01*
X0065530Y0052647D01*
X0065600Y0052568D01*
X0065666Y0052487D01*
X0065730Y0052403D01*
X0065790Y0052317D01*
X0065846Y0052229D01*
X0065900Y0052138D01*
X0065950Y0052046D01*
X0065996Y0051952D01*
X0066039Y0051856D01*
X0066078Y0051758D01*
X0066113Y0051660D01*
X0066144Y0051559D01*
X0066172Y0051458D01*
X0066196Y0051356D01*
X0066216Y0051253D01*
X0066232Y0051149D01*
X0066244Y0051045D01*
X0066252Y0050940D01*
X0066256Y0050835D01*
X0066256Y0050731D01*
X0066252Y0050626D01*
X0066244Y0050521D01*
X0066232Y0050417D01*
X0066216Y0050313D01*
X0066196Y0050210D01*
X0066172Y0050108D01*
X0066144Y0050007D01*
X0066113Y0049906D01*
X0066078Y0049808D01*
X0066039Y0049710D01*
X0065996Y0049614D01*
X0065950Y0049520D01*
X0065900Y0049428D01*
X0065846Y0049337D01*
X0065790Y0049249D01*
X0065730Y0049163D01*
X0065666Y0049079D01*
X0065600Y0048998D01*
X0065530Y0048919D01*
X0065458Y0048844D01*
X0065383Y0048770D01*
X0065305Y0048700D01*
X0065224Y0048633D01*
X0065141Y0048569D01*
X0065056Y0048508D01*
X0064968Y0048450D01*
X0064878Y0048396D01*
X0064786Y0048346D01*
X0064692Y0048298D01*
X0064597Y0048255D01*
X0064500Y0048215D01*
X0064401Y0048179D01*
X0064302Y0048146D01*
X0064201Y0048118D01*
X0064099Y0048093D01*
X0063996Y0048072D01*
X0063892Y0048055D01*
X0063788Y0048042D01*
X0063684Y0048033D01*
X0063579Y0048028D01*
X0063474Y0048027D01*
X0063369Y0048030D01*
X0063264Y0048037D01*
X0063160Y0048048D01*
X0063056Y0048063D01*
X0062953Y0048082D01*
X0062850Y0048105D01*
X0062749Y0048131D01*
X0062648Y0048162D01*
X0062549Y0048196D01*
X0062451Y0048234D01*
X0062355Y0048276D01*
X0062261Y0048321D01*
X0062168Y0048370D01*
X0062077Y0048423D01*
X0061988Y0048479D01*
X0061901Y0048538D01*
X0061817Y0048601D01*
X0061735Y0048666D01*
X0061656Y0048735D01*
X0061579Y0048807D01*
X0061505Y0048881D01*
X0061434Y0048958D01*
X0061366Y0049038D01*
X0061302Y0049121D01*
X0061240Y0049206D01*
X0061182Y0049293D01*
X0061126Y0049382D01*
X0061075Y0049474D01*
X0061027Y0049567D01*
X0060982Y0049662D01*
X0060941Y0049759D01*
X0060904Y0049857D01*
X0060871Y0049956D01*
X0060841Y0050057D01*
X0060816Y0050159D01*
X0060794Y0050261D01*
X0060776Y0050365D01*
X0060762Y0050469D01*
X0060752Y0050573D01*
X0060746Y0050678D01*
X0060744Y0050783D01*
X0060744Y0086217D02*
X0060746Y0086322D01*
X0060752Y0086427D01*
X0060762Y0086531D01*
X0060776Y0086635D01*
X0060794Y0086739D01*
X0060816Y0086841D01*
X0060841Y0086943D01*
X0060871Y0087044D01*
X0060904Y0087143D01*
X0060941Y0087241D01*
X0060982Y0087338D01*
X0061027Y0087433D01*
X0061075Y0087526D01*
X0061126Y0087618D01*
X0061182Y0087707D01*
X0061240Y0087794D01*
X0061302Y0087879D01*
X0061366Y0087962D01*
X0061434Y0088042D01*
X0061505Y0088119D01*
X0061579Y0088193D01*
X0061656Y0088265D01*
X0061735Y0088334D01*
X0061817Y0088399D01*
X0061901Y0088462D01*
X0061988Y0088521D01*
X0062077Y0088577D01*
X0062168Y0088630D01*
X0062261Y0088679D01*
X0062355Y0088724D01*
X0062451Y0088766D01*
X0062549Y0088804D01*
X0062648Y0088838D01*
X0062749Y0088869D01*
X0062850Y0088895D01*
X0062953Y0088918D01*
X0063056Y0088937D01*
X0063160Y0088952D01*
X0063264Y0088963D01*
X0063369Y0088970D01*
X0063474Y0088973D01*
X0063579Y0088972D01*
X0063684Y0088967D01*
X0063788Y0088958D01*
X0063892Y0088945D01*
X0063996Y0088928D01*
X0064099Y0088907D01*
X0064201Y0088882D01*
X0064302Y0088854D01*
X0064401Y0088821D01*
X0064500Y0088785D01*
X0064597Y0088745D01*
X0064692Y0088702D01*
X0064786Y0088654D01*
X0064878Y0088604D01*
X0064968Y0088550D01*
X0065056Y0088492D01*
X0065141Y0088431D01*
X0065224Y0088367D01*
X0065305Y0088300D01*
X0065383Y0088230D01*
X0065458Y0088156D01*
X0065530Y0088081D01*
X0065600Y0088002D01*
X0065666Y0087921D01*
X0065730Y0087837D01*
X0065790Y0087751D01*
X0065846Y0087663D01*
X0065900Y0087572D01*
X0065950Y0087480D01*
X0065996Y0087386D01*
X0066039Y0087290D01*
X0066078Y0087192D01*
X0066113Y0087094D01*
X0066144Y0086993D01*
X0066172Y0086892D01*
X0066196Y0086790D01*
X0066216Y0086687D01*
X0066232Y0086583D01*
X0066244Y0086479D01*
X0066252Y0086374D01*
X0066256Y0086269D01*
X0066256Y0086165D01*
X0066252Y0086060D01*
X0066244Y0085955D01*
X0066232Y0085851D01*
X0066216Y0085747D01*
X0066196Y0085644D01*
X0066172Y0085542D01*
X0066144Y0085441D01*
X0066113Y0085340D01*
X0066078Y0085242D01*
X0066039Y0085144D01*
X0065996Y0085048D01*
X0065950Y0084954D01*
X0065900Y0084862D01*
X0065846Y0084771D01*
X0065790Y0084683D01*
X0065730Y0084597D01*
X0065666Y0084513D01*
X0065600Y0084432D01*
X0065530Y0084353D01*
X0065458Y0084278D01*
X0065383Y0084204D01*
X0065305Y0084134D01*
X0065224Y0084067D01*
X0065141Y0084003D01*
X0065056Y0083942D01*
X0064968Y0083884D01*
X0064878Y0083830D01*
X0064786Y0083780D01*
X0064692Y0083732D01*
X0064597Y0083689D01*
X0064500Y0083649D01*
X0064401Y0083613D01*
X0064302Y0083580D01*
X0064201Y0083552D01*
X0064099Y0083527D01*
X0063996Y0083506D01*
X0063892Y0083489D01*
X0063788Y0083476D01*
X0063684Y0083467D01*
X0063579Y0083462D01*
X0063474Y0083461D01*
X0063369Y0083464D01*
X0063264Y0083471D01*
X0063160Y0083482D01*
X0063056Y0083497D01*
X0062953Y0083516D01*
X0062850Y0083539D01*
X0062749Y0083565D01*
X0062648Y0083596D01*
X0062549Y0083630D01*
X0062451Y0083668D01*
X0062355Y0083710D01*
X0062261Y0083755D01*
X0062168Y0083804D01*
X0062077Y0083857D01*
X0061988Y0083913D01*
X0061901Y0083972D01*
X0061817Y0084035D01*
X0061735Y0084100D01*
X0061656Y0084169D01*
X0061579Y0084241D01*
X0061505Y0084315D01*
X0061434Y0084392D01*
X0061366Y0084472D01*
X0061302Y0084555D01*
X0061240Y0084640D01*
X0061182Y0084727D01*
X0061126Y0084816D01*
X0061075Y0084908D01*
X0061027Y0085001D01*
X0060982Y0085096D01*
X0060941Y0085193D01*
X0060904Y0085291D01*
X0060871Y0085390D01*
X0060841Y0085491D01*
X0060816Y0085593D01*
X0060794Y0085695D01*
X0060776Y0085799D01*
X0060762Y0085903D01*
X0060752Y0086007D01*
X0060746Y0086112D01*
X0060744Y0086217D01*
M02*
