G75*
%MOIN*%
%OFA0B0*%
%FSLAX25Y25*%
%IPPOS*%
%LPD*%
%AMOC8*
5,1,8,0,0,1.08239X$1,22.5*
%
%ADD10C,0.13780*%
%ADD11OC8,0.06600*%
%ADD12C,0.05150*%
%ADD13R,0.07677X0.07677*%
%ADD14C,0.07677*%
%ADD15C,0.01000*%
D10*
X0068264Y0137890D03*
X0056846Y0156394D03*
X0080075Y0156394D03*
D11*
X0153500Y0158500D03*
X0163500Y0158500D03*
D12*
X0161335Y0058500D03*
X0115665Y0058500D03*
D13*
X0039878Y0078343D03*
D14*
X0039878Y0058657D03*
X0087122Y0058657D03*
X0087122Y0078343D03*
D15*
X0040400Y0058400D02*
X0039878Y0058657D01*
X0040400Y0058400D02*
X0086300Y0058400D01*
X0087122Y0058657D01*
X0087200Y0058400D01*
X0115100Y0058400D01*
X0115665Y0058500D01*
X0087122Y0078343D02*
X0086300Y0078200D01*
X0055700Y0078200D01*
X0055700Y0088100D01*
X0056600Y0089000D01*
X0056600Y0155600D01*
X0056846Y0156394D01*
X0080075Y0156394D02*
X0080900Y0156500D01*
X0082700Y0158300D01*
X0152900Y0158300D01*
X0153500Y0158500D01*
X0161900Y0157400D02*
X0162800Y0158300D01*
X0163500Y0158500D01*
X0161900Y0157400D02*
X0161900Y0059300D01*
X0161335Y0058500D01*
X0055700Y0078200D02*
X0040400Y0078200D01*
X0039878Y0078343D01*
M02*
