G75*
%MOIN*%
%OFA0B0*%
%FSLAX25Y25*%
%IPPOS*%
%LPD*%
%AMOC8*
5,1,8,0,0,1.08239X$1,22.5*
%
%ADD10C,0.05000*%
%ADD11C,0.00000*%
D10*
X0003500Y0003500D02*
X0003500Y0198461D01*
X0212201Y0198461D01*
X0212201Y0003500D01*
X0003500Y0003500D01*
D11*
X0060744Y0050783D02*
X0060746Y0050888D01*
X0060752Y0050993D01*
X0060762Y0051097D01*
X0060776Y0051201D01*
X0060794Y0051305D01*
X0060816Y0051407D01*
X0060841Y0051509D01*
X0060871Y0051610D01*
X0060904Y0051709D01*
X0060941Y0051807D01*
X0060982Y0051904D01*
X0061027Y0051999D01*
X0061075Y0052092D01*
X0061126Y0052184D01*
X0061182Y0052273D01*
X0061240Y0052360D01*
X0061302Y0052445D01*
X0061366Y0052528D01*
X0061434Y0052608D01*
X0061505Y0052685D01*
X0061579Y0052759D01*
X0061656Y0052831D01*
X0061735Y0052900D01*
X0061817Y0052965D01*
X0061901Y0053028D01*
X0061988Y0053087D01*
X0062077Y0053143D01*
X0062168Y0053196D01*
X0062261Y0053245D01*
X0062355Y0053290D01*
X0062451Y0053332D01*
X0062549Y0053370D01*
X0062648Y0053404D01*
X0062749Y0053435D01*
X0062850Y0053461D01*
X0062953Y0053484D01*
X0063056Y0053503D01*
X0063160Y0053518D01*
X0063264Y0053529D01*
X0063369Y0053536D01*
X0063474Y0053539D01*
X0063579Y0053538D01*
X0063684Y0053533D01*
X0063788Y0053524D01*
X0063892Y0053511D01*
X0063996Y0053494D01*
X0064099Y0053473D01*
X0064201Y0053448D01*
X0064302Y0053420D01*
X0064401Y0053387D01*
X0064500Y0053351D01*
X0064597Y0053311D01*
X0064692Y0053268D01*
X0064786Y0053220D01*
X0064878Y0053170D01*
X0064968Y0053116D01*
X0065056Y0053058D01*
X0065141Y0052997D01*
X0065224Y0052933D01*
X0065305Y0052866D01*
X0065383Y0052796D01*
X0065458Y0052722D01*
X0065530Y0052647D01*
X0065600Y0052568D01*
X0065666Y0052487D01*
X0065730Y0052403D01*
X0065790Y0052317D01*
X0065846Y0052229D01*
X0065900Y0052138D01*
X0065950Y0052046D01*
X0065996Y0051952D01*
X0066039Y0051856D01*
X0066078Y0051758D01*
X0066113Y0051660D01*
X0066144Y0051559D01*
X0066172Y0051458D01*
X0066196Y0051356D01*
X0066216Y0051253D01*
X0066232Y0051149D01*
X0066244Y0051045D01*
X0066252Y0050940D01*
X0066256Y0050835D01*
X0066256Y0050731D01*
X0066252Y0050626D01*
X0066244Y0050521D01*
X0066232Y0050417D01*
X0066216Y0050313D01*
X0066196Y0050210D01*
X0066172Y0050108D01*
X0066144Y0050007D01*
X0066113Y0049906D01*
X0066078Y0049808D01*
X0066039Y0049710D01*
X0065996Y0049614D01*
X0065950Y0049520D01*
X0065900Y0049428D01*
X0065846Y0049337D01*
X0065790Y0049249D01*
X0065730Y0049163D01*
X0065666Y0049079D01*
X0065600Y0048998D01*
X0065530Y0048919D01*
X0065458Y0048844D01*
X0065383Y0048770D01*
X0065305Y0048700D01*
X0065224Y0048633D01*
X0065141Y0048569D01*
X0065056Y0048508D01*
X0064968Y0048450D01*
X0064878Y0048396D01*
X0064786Y0048346D01*
X0064692Y0048298D01*
X0064597Y0048255D01*
X0064500Y0048215D01*
X0064401Y0048179D01*
X0064302Y0048146D01*
X0064201Y0048118D01*
X0064099Y0048093D01*
X0063996Y0048072D01*
X0063892Y0048055D01*
X0063788Y0048042D01*
X0063684Y0048033D01*
X0063579Y0048028D01*
X0063474Y0048027D01*
X0063369Y0048030D01*
X0063264Y0048037D01*
X0063160Y0048048D01*
X0063056Y0048063D01*
X0062953Y0048082D01*
X0062850Y0048105D01*
X0062749Y0048131D01*
X0062648Y0048162D01*
X0062549Y0048196D01*
X0062451Y0048234D01*
X0062355Y0048276D01*
X0062261Y0048321D01*
X0062168Y0048370D01*
X0062077Y0048423D01*
X0061988Y0048479D01*
X0061901Y0048538D01*
X0061817Y0048601D01*
X0061735Y0048666D01*
X0061656Y0048735D01*
X0061579Y0048807D01*
X0061505Y0048881D01*
X0061434Y0048958D01*
X0061366Y0049038D01*
X0061302Y0049121D01*
X0061240Y0049206D01*
X0061182Y0049293D01*
X0061126Y0049382D01*
X0061075Y0049474D01*
X0061027Y0049567D01*
X0060982Y0049662D01*
X0060941Y0049759D01*
X0060904Y0049857D01*
X0060871Y0049956D01*
X0060841Y0050057D01*
X0060816Y0050159D01*
X0060794Y0050261D01*
X0060776Y0050365D01*
X0060762Y0050469D01*
X0060752Y0050573D01*
X0060746Y0050678D01*
X0060744Y0050783D01*
X0060744Y0086217D02*
X0060746Y0086322D01*
X0060752Y0086427D01*
X0060762Y0086531D01*
X0060776Y0086635D01*
X0060794Y0086739D01*
X0060816Y0086841D01*
X0060841Y0086943D01*
X0060871Y0087044D01*
X0060904Y0087143D01*
X0060941Y0087241D01*
X0060982Y0087338D01*
X0061027Y0087433D01*
X0061075Y0087526D01*
X0061126Y0087618D01*
X0061182Y0087707D01*
X0061240Y0087794D01*
X0061302Y0087879D01*
X0061366Y0087962D01*
X0061434Y0088042D01*
X0061505Y0088119D01*
X0061579Y0088193D01*
X0061656Y0088265D01*
X0061735Y0088334D01*
X0061817Y0088399D01*
X0061901Y0088462D01*
X0061988Y0088521D01*
X0062077Y0088577D01*
X0062168Y0088630D01*
X0062261Y0088679D01*
X0062355Y0088724D01*
X0062451Y0088766D01*
X0062549Y0088804D01*
X0062648Y0088838D01*
X0062749Y0088869D01*
X0062850Y0088895D01*
X0062953Y0088918D01*
X0063056Y0088937D01*
X0063160Y0088952D01*
X0063264Y0088963D01*
X0063369Y0088970D01*
X0063474Y0088973D01*
X0063579Y0088972D01*
X0063684Y0088967D01*
X0063788Y0088958D01*
X0063892Y0088945D01*
X0063996Y0088928D01*
X0064099Y0088907D01*
X0064201Y0088882D01*
X0064302Y0088854D01*
X0064401Y0088821D01*
X0064500Y0088785D01*
X0064597Y0088745D01*
X0064692Y0088702D01*
X0064786Y0088654D01*
X0064878Y0088604D01*
X0064968Y0088550D01*
X0065056Y0088492D01*
X0065141Y0088431D01*
X0065224Y0088367D01*
X0065305Y0088300D01*
X0065383Y0088230D01*
X0065458Y0088156D01*
X0065530Y0088081D01*
X0065600Y0088002D01*
X0065666Y0087921D01*
X0065730Y0087837D01*
X0065790Y0087751D01*
X0065846Y0087663D01*
X0065900Y0087572D01*
X0065950Y0087480D01*
X0065996Y0087386D01*
X0066039Y0087290D01*
X0066078Y0087192D01*
X0066113Y0087094D01*
X0066144Y0086993D01*
X0066172Y0086892D01*
X0066196Y0086790D01*
X0066216Y0086687D01*
X0066232Y0086583D01*
X0066244Y0086479D01*
X0066252Y0086374D01*
X0066256Y0086269D01*
X0066256Y0086165D01*
X0066252Y0086060D01*
X0066244Y0085955D01*
X0066232Y0085851D01*
X0066216Y0085747D01*
X0066196Y0085644D01*
X0066172Y0085542D01*
X0066144Y0085441D01*
X0066113Y0085340D01*
X0066078Y0085242D01*
X0066039Y0085144D01*
X0065996Y0085048D01*
X0065950Y0084954D01*
X0065900Y0084862D01*
X0065846Y0084771D01*
X0065790Y0084683D01*
X0065730Y0084597D01*
X0065666Y0084513D01*
X0065600Y0084432D01*
X0065530Y0084353D01*
X0065458Y0084278D01*
X0065383Y0084204D01*
X0065305Y0084134D01*
X0065224Y0084067D01*
X0065141Y0084003D01*
X0065056Y0083942D01*
X0064968Y0083884D01*
X0064878Y0083830D01*
X0064786Y0083780D01*
X0064692Y0083732D01*
X0064597Y0083689D01*
X0064500Y0083649D01*
X0064401Y0083613D01*
X0064302Y0083580D01*
X0064201Y0083552D01*
X0064099Y0083527D01*
X0063996Y0083506D01*
X0063892Y0083489D01*
X0063788Y0083476D01*
X0063684Y0083467D01*
X0063579Y0083462D01*
X0063474Y0083461D01*
X0063369Y0083464D01*
X0063264Y0083471D01*
X0063160Y0083482D01*
X0063056Y0083497D01*
X0062953Y0083516D01*
X0062850Y0083539D01*
X0062749Y0083565D01*
X0062648Y0083596D01*
X0062549Y0083630D01*
X0062451Y0083668D01*
X0062355Y0083710D01*
X0062261Y0083755D01*
X0062168Y0083804D01*
X0062077Y0083857D01*
X0061988Y0083913D01*
X0061901Y0083972D01*
X0061817Y0084035D01*
X0061735Y0084100D01*
X0061656Y0084169D01*
X0061579Y0084241D01*
X0061505Y0084315D01*
X0061434Y0084392D01*
X0061366Y0084472D01*
X0061302Y0084555D01*
X0061240Y0084640D01*
X0061182Y0084727D01*
X0061126Y0084816D01*
X0061075Y0084908D01*
X0061027Y0085001D01*
X0060982Y0085096D01*
X0060941Y0085193D01*
X0060904Y0085291D01*
X0060871Y0085390D01*
X0060841Y0085491D01*
X0060816Y0085593D01*
X0060794Y0085695D01*
X0060776Y0085799D01*
X0060762Y0085903D01*
X0060752Y0086007D01*
X0060746Y0086112D01*
X0060744Y0086217D01*
M02*
