G75*
%MOIN*%
%OFA0B0*%
%FSLAX25Y25*%
%IPPOS*%
%LPD*%
%AMOC8*
5,1,8,0,0,1.08239X$1,22.5*
%
%ADD10R,0.04000X0.10000*%
%ADD11R,0.01378X0.03150*%
%ADD12R,0.05118X0.05906*%
%ADD13R,0.05906X0.05118*%
%ADD14R,0.04331X0.07480*%
%ADD15R,0.07400X0.07400*%
%ADD16OC8,0.07400*%
%ADD17C,0.07400*%
%ADD18R,0.04724X0.02165*%
%ADD19R,0.04724X0.04724*%
%ADD20R,0.05315X0.00787*%
%ADD21R,0.00787X0.05315*%
%ADD22R,0.03937X0.05906*%
%ADD23R,0.11417X0.08071*%
%ADD24R,0.05906X0.03937*%
%ADD25R,0.08071X0.11417*%
%ADD26R,0.03150X0.02362*%
%ADD27R,0.02362X0.03150*%
%ADD28R,0.06150X0.01102*%
%ADD29R,0.01102X0.06150*%
%ADD30C,0.03200*%
%ADD31C,0.03962*%
%ADD32C,0.01000*%
%ADD33C,0.03175*%
%ADD34C,0.03937*%
D10*
G36*
X0242127Y0364327D02*
X0239299Y0367155D01*
X0246369Y0374225D01*
X0249197Y0371397D01*
X0242127Y0364327D01*
G37*
G36*
X0223742Y0382712D02*
X0220914Y0385540D01*
X0227984Y0392610D01*
X0230812Y0389782D01*
X0223742Y0382712D01*
G37*
D11*
G36*
X0249920Y0358498D02*
X0248946Y0359472D01*
X0251172Y0361698D01*
X0252146Y0360724D01*
X0249920Y0358498D01*
G37*
G36*
X0251730Y0356689D02*
X0250756Y0357663D01*
X0252982Y0359889D01*
X0253956Y0358915D01*
X0251730Y0356689D01*
G37*
G36*
X0253539Y0354879D02*
X0252565Y0355853D01*
X0254791Y0358079D01*
X0255765Y0357105D01*
X0253539Y0354879D01*
G37*
G36*
X0257993Y0359333D02*
X0257019Y0360307D01*
X0259245Y0362533D01*
X0260219Y0361559D01*
X0257993Y0359333D01*
G37*
G36*
X0256184Y0361143D02*
X0255210Y0362117D01*
X0257436Y0364343D01*
X0258410Y0363369D01*
X0256184Y0361143D01*
G37*
G36*
X0254374Y0362952D02*
X0253400Y0363926D01*
X0255626Y0366152D01*
X0256600Y0365178D01*
X0254374Y0362952D01*
G37*
D12*
G36*
X0238252Y0359974D02*
X0241871Y0363593D01*
X0246046Y0359418D01*
X0242427Y0355799D01*
X0238252Y0359974D01*
G37*
G36*
X0232962Y0354684D02*
X0236581Y0358303D01*
X0240756Y0354128D01*
X0237137Y0350509D01*
X0232962Y0354684D01*
G37*
G36*
X0245126Y0346688D02*
X0241507Y0343069D01*
X0237332Y0347244D01*
X0240951Y0350863D01*
X0245126Y0346688D01*
G37*
G36*
X0250416Y0351977D02*
X0246797Y0348358D01*
X0242622Y0352533D01*
X0246241Y0356152D01*
X0250416Y0351977D01*
G37*
G36*
X0258557Y0352448D02*
X0262176Y0348829D01*
X0258001Y0344654D01*
X0254382Y0348273D01*
X0258557Y0352448D01*
G37*
G36*
X0263290Y0347716D02*
X0266909Y0344097D01*
X0262734Y0339922D01*
X0259115Y0343541D01*
X0263290Y0347716D01*
G37*
G36*
X0274038Y0357716D02*
X0277657Y0354097D01*
X0273482Y0349922D01*
X0269863Y0353541D01*
X0274038Y0357716D01*
G37*
G36*
X0269305Y0362448D02*
X0272924Y0358829D01*
X0268749Y0354654D01*
X0265130Y0358273D01*
X0269305Y0362448D01*
G37*
X0299543Y0363665D03*
X0306236Y0363665D03*
X0306748Y0354217D03*
X0299268Y0354217D03*
X0272417Y0320988D03*
X0264937Y0320988D03*
X0264819Y0311224D03*
X0271512Y0311224D03*
X0272181Y0301343D03*
X0264701Y0301343D03*
X0278008Y0291146D03*
X0285488Y0291146D03*
X0283205Y0280280D03*
X0275724Y0280280D03*
X0275803Y0270201D03*
X0269110Y0270201D03*
X0260213Y0270398D03*
X0252732Y0270398D03*
X0256354Y0287563D03*
X0263835Y0287563D03*
X0287614Y0260752D03*
X0295094Y0260752D03*
X0305331Y0260752D03*
X0312811Y0260752D03*
X0323165Y0252248D03*
X0329858Y0252248D03*
X0364071Y0323272D03*
X0371551Y0323272D03*
D13*
X0352772Y0315358D03*
X0352772Y0308665D03*
X0363559Y0297445D03*
X0363559Y0290752D03*
X0337969Y0289217D03*
X0337969Y0295909D03*
X0342299Y0270083D03*
X0342299Y0262602D03*
X0272732Y0242209D03*
X0272732Y0234728D03*
X0249780Y0297051D03*
X0249780Y0303744D03*
X0331669Y0373705D03*
X0342772Y0373783D03*
X0342772Y0381264D03*
X0331669Y0381185D03*
X0356551Y0364177D03*
X0356551Y0357484D03*
X0368087Y0357917D03*
X0368087Y0364610D03*
D14*
X0338756Y0363272D03*
X0329701Y0363272D03*
X0329701Y0348705D03*
X0338756Y0348705D03*
D15*
X0359532Y0273943D03*
D16*
X0359532Y0263943D03*
X0369532Y0263943D03*
X0369532Y0273943D03*
X0369532Y0253943D03*
X0359532Y0253943D03*
D17*
X0364268Y0231224D03*
X0374268Y0231224D03*
X0384268Y0231224D03*
X0354268Y0231224D03*
X0344268Y0231224D03*
X0334268Y0231224D03*
X0311709Y0228075D03*
X0301709Y0228075D03*
X0260724Y0235752D03*
X0250724Y0235752D03*
X0233835Y0248311D03*
X0233835Y0258311D03*
X0233835Y0268311D03*
X0227969Y0301815D03*
X0227969Y0311815D03*
X0301709Y0385555D03*
X0311709Y0385555D03*
X0384661Y0375713D03*
X0384661Y0365713D03*
X0384661Y0355713D03*
X0384661Y0345713D03*
X0384661Y0335713D03*
X0384661Y0325713D03*
X0385449Y0311815D03*
X0385449Y0301815D03*
D18*
X0262693Y0259453D03*
X0262693Y0251972D03*
X0252457Y0251972D03*
X0252457Y0255713D03*
X0252457Y0259453D03*
D19*
X0254346Y0279138D03*
X0262614Y0279138D03*
X0356472Y0374059D03*
X0368087Y0374650D03*
X0368087Y0382917D03*
X0356472Y0382327D03*
D20*
X0318618Y0284177D03*
X0318618Y0282209D03*
X0318618Y0280240D03*
X0318618Y0278272D03*
X0318618Y0276303D03*
X0318618Y0274335D03*
X0301098Y0274335D03*
X0301098Y0276303D03*
X0301098Y0278272D03*
X0301098Y0280240D03*
X0301098Y0282209D03*
X0301098Y0284177D03*
D21*
X0304937Y0288016D03*
X0306906Y0288016D03*
X0308874Y0288016D03*
X0310843Y0288016D03*
X0312811Y0288016D03*
X0314780Y0288016D03*
X0314780Y0270496D03*
X0312811Y0270496D03*
X0310843Y0270496D03*
X0308874Y0270496D03*
X0306906Y0270496D03*
X0304937Y0270496D03*
D22*
X0308205Y0249571D03*
X0315685Y0249571D03*
X0314346Y0365240D03*
X0321827Y0365240D03*
D23*
X0318087Y0373213D03*
X0311945Y0241598D03*
D24*
X0365528Y0306697D03*
X0365528Y0314177D03*
X0247890Y0311972D03*
X0247890Y0319453D03*
D25*
X0239917Y0315713D03*
X0373500Y0310437D03*
D26*
X0308126Y0374374D03*
X0298677Y0374374D03*
X0301433Y0241382D03*
X0291984Y0241382D03*
D27*
X0239228Y0295240D03*
X0239228Y0304689D03*
X0375528Y0299177D03*
X0375528Y0289728D03*
D28*
X0329469Y0307799D03*
X0329469Y0309768D03*
X0329469Y0311736D03*
X0329469Y0313705D03*
X0329469Y0315673D03*
X0329469Y0317642D03*
X0329469Y0319610D03*
X0329469Y0321579D03*
X0329469Y0323547D03*
X0329469Y0325516D03*
X0329469Y0327484D03*
X0329469Y0329453D03*
X0329469Y0331421D03*
X0329469Y0333390D03*
X0329469Y0335358D03*
X0329469Y0337327D03*
X0291035Y0337327D03*
X0291035Y0335358D03*
X0291035Y0333390D03*
X0291035Y0331421D03*
X0291035Y0329453D03*
X0291035Y0327484D03*
X0291035Y0325516D03*
X0291035Y0323547D03*
X0291035Y0321579D03*
X0291035Y0319610D03*
X0291035Y0317642D03*
X0291035Y0315673D03*
X0291035Y0313705D03*
X0291035Y0311736D03*
X0291035Y0309768D03*
X0291035Y0307799D03*
D29*
X0295488Y0303346D03*
X0297457Y0303346D03*
X0299425Y0303346D03*
X0301394Y0303346D03*
X0303362Y0303346D03*
X0305331Y0303346D03*
X0307299Y0303346D03*
X0309268Y0303346D03*
X0311236Y0303346D03*
X0313205Y0303346D03*
X0315173Y0303346D03*
X0317142Y0303346D03*
X0319110Y0303346D03*
X0321079Y0303346D03*
X0323047Y0303346D03*
X0325016Y0303346D03*
X0325016Y0341780D03*
X0323047Y0341780D03*
X0321079Y0341780D03*
X0319110Y0341780D03*
X0317142Y0341780D03*
X0315173Y0341780D03*
X0313205Y0341780D03*
X0311236Y0341780D03*
X0309268Y0341780D03*
X0307299Y0341780D03*
X0305331Y0341780D03*
X0303362Y0341780D03*
X0301394Y0341780D03*
X0299425Y0341780D03*
X0297457Y0341780D03*
X0295488Y0341780D03*
D30*
X0298677Y0374374D02*
X0298677Y0382524D01*
X0301709Y0385555D01*
X0248441Y0360358D02*
X0242811Y0360358D01*
X0242149Y0359696D01*
X0242149Y0367177D01*
X0244248Y0369276D01*
X0227969Y0301815D02*
X0239228Y0295240D01*
X0239228Y0273705D01*
X0233835Y0268311D01*
X0241669Y0268311D01*
X0250016Y0259965D01*
X0252457Y0251972D02*
X0252457Y0248862D01*
X0255134Y0246185D01*
X0268756Y0246185D01*
X0272732Y0242209D01*
X0291157Y0242209D01*
X0291984Y0241382D01*
X0291984Y0237799D01*
X0301709Y0228075D01*
X0311709Y0228075D02*
X0312614Y0228980D01*
X0312614Y0239886D02*
X0311630Y0240870D01*
X0311118Y0241382D01*
X0250724Y0235752D02*
X0249740Y0234768D01*
X0235055Y0234768D01*
X0227181Y0242642D01*
X0227181Y0252878D01*
X0233835Y0257563D01*
X0233835Y0258311D01*
X0375528Y0289728D02*
X0385134Y0299335D01*
X0385449Y0299335D01*
X0385449Y0298862D01*
X0385449Y0299335D02*
X0385449Y0301815D01*
X0375528Y0289728D02*
X0384661Y0280594D01*
X0384661Y0276303D01*
D31*
X0384661Y0276303D03*
X0284661Y0354846D03*
X0280331Y0357602D03*
X0276000Y0360752D03*
X0272457Y0364689D03*
X0267732Y0367839D03*
X0264189Y0364295D03*
X0260252Y0367839D03*
X0263402Y0371382D03*
X0259858Y0375319D03*
X0255921Y0378862D03*
X0251984Y0374925D03*
X0255921Y0371382D03*
X0261433Y0354846D03*
X0266157Y0352091D03*
X0268913Y0347760D03*
X0273638Y0344610D03*
X0281118Y0350909D03*
X0264189Y0334768D03*
X0258677Y0337524D03*
X0255134Y0341854D03*
X0251197Y0338705D03*
X0246866Y0342248D03*
X0251197Y0345004D03*
X0239780Y0338705D03*
X0245685Y0337130D03*
X0235449Y0343035D03*
X0229937Y0343823D03*
X0231906Y0338705D03*
X0233480Y0348547D03*
X0229543Y0351303D03*
X0225213Y0347760D03*
X0268126Y0280043D03*
X0268126Y0255634D03*
D32*
X0222063Y0222169D02*
X0222063Y0352091D01*
X0238198Y0366759D01*
X0238198Y0366699D01*
X0239449Y0365448D01*
X0239449Y0362727D01*
X0237151Y0360430D01*
X0237151Y0359704D01*
X0236778Y0359804D01*
X0236383Y0359804D01*
X0236002Y0359702D01*
X0235660Y0359504D01*
X0234064Y0357909D01*
X0236859Y0355114D01*
X0236152Y0354407D01*
X0233357Y0357201D01*
X0231762Y0355606D01*
X0231564Y0355264D01*
X0231462Y0354882D01*
X0231462Y0354487D01*
X0231564Y0354106D01*
X0231762Y0353764D01*
X0233636Y0351890D01*
X0236152Y0354406D01*
X0236859Y0353699D01*
X0234343Y0351183D01*
X0236217Y0349309D01*
X0236559Y0349111D01*
X0236940Y0349009D01*
X0236976Y0349009D01*
X0236132Y0348165D01*
X0235934Y0347823D01*
X0235832Y0347441D01*
X0235832Y0347046D01*
X0235934Y0346665D01*
X0236132Y0346323D01*
X0238006Y0344449D01*
X0240522Y0346966D01*
X0241229Y0346258D01*
X0238713Y0343742D01*
X0240587Y0341868D01*
X0240929Y0341670D01*
X0241310Y0341568D01*
X0241705Y0341568D01*
X0242087Y0341670D01*
X0242429Y0341868D01*
X0244024Y0343463D01*
X0241229Y0346258D01*
X0241936Y0346965D01*
X0244731Y0344171D01*
X0246327Y0345766D01*
X0246525Y0346108D01*
X0246627Y0346490D01*
X0246627Y0346885D01*
X0246527Y0347257D01*
X0247253Y0347257D01*
X0251516Y0351521D01*
X0251516Y0352432D01*
X0250168Y0353780D01*
X0251209Y0354879D01*
X0251596Y0355266D01*
X0252565Y0354296D01*
X0252565Y0352003D01*
X0254561Y0350007D01*
X0253282Y0348729D01*
X0253282Y0347817D01*
X0257545Y0343554D01*
X0258015Y0343554D01*
X0258015Y0343085D01*
X0262278Y0338821D01*
X0263189Y0338821D01*
X0266043Y0341675D01*
X0277550Y0330168D01*
X0277550Y0325561D01*
X0277531Y0325542D01*
X0277550Y0324902D01*
X0277550Y0324262D01*
X0277568Y0324244D01*
X0277569Y0324217D01*
X0278034Y0323778D01*
X0278487Y0323325D01*
X0278513Y0323325D01*
X0281578Y0320431D01*
X0282030Y0319979D01*
X0282057Y0319979D01*
X0282076Y0319960D01*
X0282716Y0319979D01*
X0286461Y0319979D01*
X0286461Y0319610D01*
X0286461Y0318862D01*
X0286563Y0318480D01*
X0286760Y0318138D01*
X0286861Y0318038D01*
X0286861Y0306792D01*
X0287505Y0306148D01*
X0293837Y0306148D01*
X0293837Y0299816D01*
X0294481Y0299172D01*
X0296409Y0299172D01*
X0289983Y0292746D01*
X0289147Y0292746D01*
X0289147Y0294554D01*
X0288503Y0295198D01*
X0282473Y0295198D01*
X0281960Y0294685D01*
X0281767Y0295019D01*
X0281488Y0295299D01*
X0281146Y0295496D01*
X0280764Y0295598D01*
X0278508Y0295598D01*
X0278508Y0291646D01*
X0277508Y0291646D01*
X0277508Y0295598D01*
X0276495Y0295598D01*
X0279119Y0298222D01*
X0280078Y0298222D01*
X0281066Y0298631D01*
X0281822Y0299387D01*
X0282231Y0300375D01*
X0282231Y0301444D01*
X0281822Y0302432D01*
X0281066Y0303188D01*
X0280078Y0303597D01*
X0279009Y0303597D01*
X0278021Y0303188D01*
X0277265Y0302432D01*
X0276856Y0301444D01*
X0276856Y0300485D01*
X0276240Y0299869D01*
X0276240Y0300843D01*
X0272681Y0300843D01*
X0272681Y0301842D01*
X0276240Y0301842D01*
X0276240Y0304493D01*
X0276138Y0304874D01*
X0275940Y0305216D01*
X0275661Y0305496D01*
X0275319Y0305693D01*
X0274938Y0305795D01*
X0272681Y0305795D01*
X0272681Y0301843D01*
X0271681Y0301843D01*
X0271681Y0305795D01*
X0269425Y0305795D01*
X0269043Y0305693D01*
X0268701Y0305496D01*
X0268422Y0305216D01*
X0268229Y0304882D01*
X0267715Y0305395D01*
X0266419Y0305395D01*
X0266419Y0307172D01*
X0267834Y0307172D01*
X0268165Y0307503D01*
X0268497Y0307172D01*
X0274527Y0307172D01*
X0275171Y0307816D01*
X0275171Y0309624D01*
X0278211Y0309624D01*
X0287683Y0300153D01*
X0287683Y0299194D01*
X0288092Y0298206D01*
X0288848Y0297450D01*
X0289836Y0297041D01*
X0290905Y0297041D01*
X0291892Y0297450D01*
X0292648Y0298206D01*
X0293057Y0299194D01*
X0293057Y0300263D01*
X0292648Y0301251D01*
X0291892Y0302007D01*
X0290905Y0302416D01*
X0289945Y0302416D01*
X0279537Y0312824D01*
X0275171Y0312824D01*
X0275171Y0314633D01*
X0274527Y0315277D01*
X0268497Y0315277D01*
X0268165Y0314945D01*
X0267834Y0315277D01*
X0266537Y0315277D01*
X0266537Y0316935D01*
X0267952Y0316935D01*
X0268465Y0317449D01*
X0268658Y0317114D01*
X0268937Y0316835D01*
X0269279Y0316638D01*
X0269661Y0316535D01*
X0271917Y0316535D01*
X0271917Y0320488D01*
X0272917Y0320488D01*
X0272917Y0316535D01*
X0275174Y0316535D01*
X0275555Y0316638D01*
X0275897Y0316835D01*
X0276177Y0317114D01*
X0276374Y0317456D01*
X0276476Y0317838D01*
X0276476Y0320488D01*
X0272917Y0320488D01*
X0272917Y0321488D01*
X0271917Y0321488D01*
X0271917Y0325441D01*
X0269661Y0325441D01*
X0269279Y0325339D01*
X0268937Y0325141D01*
X0268658Y0324862D01*
X0268465Y0324528D01*
X0267952Y0325041D01*
X0261922Y0325041D01*
X0261278Y0324397D01*
X0261278Y0317580D01*
X0261922Y0316935D01*
X0263337Y0316935D01*
X0263337Y0315277D01*
X0261804Y0315277D01*
X0261160Y0314633D01*
X0261160Y0307816D01*
X0261804Y0307172D01*
X0263219Y0307172D01*
X0263219Y0305395D01*
X0261686Y0305395D01*
X0261042Y0304751D01*
X0261042Y0297934D01*
X0261686Y0297290D01*
X0266491Y0297290D01*
X0270857Y0292924D01*
X0270857Y0281502D01*
X0270738Y0281789D01*
X0269871Y0282655D01*
X0269726Y0282716D01*
X0269726Y0283934D01*
X0268789Y0284872D01*
X0267494Y0286167D01*
X0267494Y0290971D01*
X0266849Y0291616D01*
X0260820Y0291616D01*
X0260307Y0291102D01*
X0260114Y0291437D01*
X0259834Y0291716D01*
X0259492Y0291914D01*
X0259111Y0292016D01*
X0256854Y0292016D01*
X0256854Y0288063D01*
X0255854Y0288063D01*
X0255854Y0287063D01*
X0252295Y0287063D01*
X0252295Y0284413D01*
X0252398Y0284031D01*
X0252595Y0283689D01*
X0252874Y0283410D01*
X0253216Y0283212D01*
X0253598Y0283110D01*
X0255854Y0283110D01*
X0255854Y0287063D01*
X0256854Y0287063D01*
X0256854Y0283110D01*
X0259111Y0283110D01*
X0259492Y0283212D01*
X0259834Y0283410D01*
X0260114Y0283689D01*
X0260307Y0284024D01*
X0260820Y0283510D01*
X0265625Y0283510D01*
X0266451Y0282684D01*
X0266381Y0282655D01*
X0265879Y0282153D01*
X0265432Y0282600D01*
X0259796Y0282600D01*
X0259152Y0281956D01*
X0259152Y0276320D01*
X0259796Y0275676D01*
X0264130Y0275676D01*
X0265933Y0274091D01*
X0265451Y0273609D01*
X0265451Y0266792D01*
X0266096Y0266148D01*
X0272125Y0266148D01*
X0272457Y0266480D01*
X0272788Y0266148D01*
X0274203Y0266148D01*
X0274203Y0263974D01*
X0271282Y0261053D01*
X0266093Y0261053D01*
X0265511Y0261635D01*
X0264293Y0261635D01*
X0264293Y0268580D01*
X0263872Y0269001D01*
X0263872Y0273806D01*
X0263227Y0274450D01*
X0257198Y0274450D01*
X0256685Y0273937D01*
X0256492Y0274271D01*
X0256212Y0274551D01*
X0255870Y0274748D01*
X0255489Y0274850D01*
X0253232Y0274850D01*
X0253232Y0270898D01*
X0252232Y0270898D01*
X0252232Y0274850D01*
X0249976Y0274850D01*
X0249594Y0274748D01*
X0249252Y0274551D01*
X0248973Y0274271D01*
X0248775Y0273929D01*
X0248673Y0273548D01*
X0248673Y0270898D01*
X0252232Y0270898D01*
X0252232Y0269898D01*
X0248673Y0269898D01*
X0248673Y0267247D01*
X0248775Y0266866D01*
X0248973Y0266524D01*
X0249252Y0266245D01*
X0249594Y0266047D01*
X0249976Y0265945D01*
X0252232Y0265945D01*
X0252232Y0269898D01*
X0253232Y0269898D01*
X0253232Y0265945D01*
X0255489Y0265945D01*
X0255870Y0266047D01*
X0256212Y0266245D01*
X0256492Y0266524D01*
X0256685Y0266858D01*
X0257198Y0266345D01*
X0261093Y0266345D01*
X0261093Y0261635D01*
X0259875Y0261635D01*
X0259231Y0260991D01*
X0259231Y0257914D01*
X0259875Y0257270D01*
X0265469Y0257270D01*
X0265045Y0256247D01*
X0265045Y0255021D01*
X0265336Y0254319D01*
X0265172Y0254155D01*
X0259875Y0254155D01*
X0259231Y0253511D01*
X0259231Y0250434D01*
X0259875Y0249790D01*
X0265511Y0249790D01*
X0266155Y0250434D01*
X0266155Y0250613D01*
X0266970Y0251428D01*
X0268095Y0252553D01*
X0268739Y0252553D01*
X0269871Y0253022D01*
X0270738Y0253889D01*
X0271207Y0255021D01*
X0271207Y0256247D01*
X0270738Y0257379D01*
X0270264Y0257853D01*
X0272608Y0257853D01*
X0273545Y0258790D01*
X0277403Y0262648D01*
X0277403Y0266148D01*
X0278818Y0266148D01*
X0279462Y0266792D01*
X0279462Y0273609D01*
X0278818Y0274254D01*
X0277403Y0274254D01*
X0277403Y0276227D01*
X0278739Y0276227D01*
X0279252Y0276740D01*
X0279445Y0276406D01*
X0279725Y0276126D01*
X0280067Y0275929D01*
X0280448Y0275827D01*
X0282705Y0275827D01*
X0282705Y0279779D01*
X0283705Y0279779D01*
X0283705Y0275827D01*
X0285961Y0275827D01*
X0286343Y0275929D01*
X0286685Y0276126D01*
X0286964Y0276406D01*
X0287162Y0276748D01*
X0287264Y0277129D01*
X0287264Y0279780D01*
X0283705Y0279780D01*
X0283705Y0280779D01*
X0287264Y0280779D01*
X0287264Y0283430D01*
X0287162Y0283811D01*
X0286964Y0284153D01*
X0286685Y0284433D01*
X0286343Y0284630D01*
X0285961Y0284732D01*
X0283705Y0284732D01*
X0283705Y0280780D01*
X0282705Y0280780D01*
X0282705Y0284732D01*
X0280448Y0284732D01*
X0280067Y0284630D01*
X0279725Y0284433D01*
X0279445Y0284153D01*
X0279252Y0283819D01*
X0278739Y0284332D01*
X0274057Y0284332D01*
X0274057Y0287604D01*
X0274249Y0287272D01*
X0274528Y0286993D01*
X0274870Y0286795D01*
X0275251Y0286693D01*
X0277508Y0286693D01*
X0277508Y0290646D01*
X0278508Y0290646D01*
X0278508Y0286693D01*
X0280764Y0286693D01*
X0281146Y0286795D01*
X0281488Y0286993D01*
X0281767Y0287272D01*
X0281960Y0287606D01*
X0282473Y0287093D01*
X0288503Y0287093D01*
X0289147Y0287737D01*
X0289147Y0289546D01*
X0291308Y0289546D01*
X0298135Y0296372D01*
X0298116Y0296326D01*
X0298116Y0295257D01*
X0298525Y0294269D01*
X0299281Y0293513D01*
X0300269Y0293104D01*
X0300310Y0293104D01*
X0302834Y0290098D01*
X0299602Y0290098D01*
X0299016Y0289513D01*
X0299016Y0285671D01*
X0297985Y0285671D01*
X0297341Y0285027D01*
X0297341Y0283624D01*
X0297241Y0283523D01*
X0297043Y0283181D01*
X0296941Y0282800D01*
X0296941Y0282209D01*
X0299016Y0282209D01*
X0299016Y0282209D01*
X0296941Y0282209D01*
X0296941Y0281617D01*
X0297043Y0281236D01*
X0297050Y0281224D01*
X0297043Y0281213D01*
X0296941Y0280831D01*
X0296941Y0280240D01*
X0296941Y0279649D01*
X0297043Y0279267D01*
X0297050Y0279256D01*
X0297043Y0279244D01*
X0296941Y0278863D01*
X0296941Y0278272D01*
X0299016Y0278272D01*
X0299016Y0278272D01*
X0296941Y0278272D01*
X0296941Y0277680D01*
X0297043Y0277299D01*
X0297050Y0277287D01*
X0297043Y0277276D01*
X0296941Y0276894D01*
X0296941Y0276303D01*
X0296941Y0275712D01*
X0297043Y0275330D01*
X0297050Y0275319D01*
X0297043Y0275307D01*
X0296941Y0274926D01*
X0296941Y0274335D01*
X0299016Y0274335D01*
X0299016Y0274335D01*
X0296941Y0274335D01*
X0296941Y0273743D01*
X0297043Y0273362D01*
X0297241Y0273020D01*
X0297520Y0272741D01*
X0297862Y0272543D01*
X0298243Y0272441D01*
X0299016Y0272441D01*
X0299016Y0269393D01*
X0299602Y0268807D01*
X0302855Y0268807D01*
X0301715Y0267667D01*
X0299747Y0267667D01*
X0298809Y0266730D01*
X0296885Y0264805D01*
X0292080Y0264805D01*
X0291567Y0264291D01*
X0291374Y0264626D01*
X0291094Y0264905D01*
X0290752Y0265102D01*
X0290371Y0265205D01*
X0288114Y0265205D01*
X0288114Y0261252D01*
X0287114Y0261252D01*
X0287114Y0260252D01*
X0283555Y0260252D01*
X0283555Y0257602D01*
X0283657Y0257220D01*
X0283855Y0256878D01*
X0284134Y0256599D01*
X0284476Y0256401D01*
X0284858Y0256299D01*
X0287114Y0256299D01*
X0287114Y0260252D01*
X0288114Y0260252D01*
X0288114Y0256299D01*
X0290371Y0256299D01*
X0290752Y0256401D01*
X0291094Y0256599D01*
X0291374Y0256878D01*
X0291567Y0257212D01*
X0292080Y0256699D01*
X0298109Y0256699D01*
X0298754Y0257344D01*
X0298754Y0262148D01*
X0301072Y0264467D01*
X0301978Y0264467D01*
X0301672Y0264160D01*
X0301672Y0257344D01*
X0302316Y0256699D01*
X0308345Y0256699D01*
X0308990Y0257344D01*
X0308990Y0262311D01*
X0309152Y0262148D01*
X0309152Y0257344D01*
X0309796Y0256699D01*
X0315826Y0256699D01*
X0316470Y0257344D01*
X0316470Y0264160D01*
X0315826Y0264805D01*
X0311021Y0264805D01*
X0310474Y0265352D01*
X0310474Y0266739D01*
X0311692Y0266739D01*
X0311827Y0266873D01*
X0311962Y0266739D01*
X0313660Y0266739D01*
X0313795Y0266873D01*
X0313930Y0266739D01*
X0315629Y0266739D01*
X0316273Y0267383D01*
X0316273Y0268807D01*
X0320115Y0268807D01*
X0320701Y0269393D01*
X0320701Y0272841D01*
X0321731Y0272841D01*
X0322376Y0273485D01*
X0322376Y0275184D01*
X0322241Y0275319D01*
X0322376Y0275454D01*
X0322376Y0276672D01*
X0327686Y0276672D01*
X0329488Y0278473D01*
X0329218Y0277822D01*
X0329218Y0276753D01*
X0329627Y0275765D01*
X0330306Y0275087D01*
X0330306Y0266139D01*
X0322038Y0257871D01*
X0322038Y0256301D01*
X0320151Y0256301D01*
X0319506Y0255656D01*
X0319506Y0251171D01*
X0318754Y0251171D01*
X0318754Y0252979D01*
X0318109Y0253624D01*
X0313261Y0253624D01*
X0312617Y0252979D01*
X0312617Y0246734D01*
X0311673Y0246734D01*
X0311673Y0249087D01*
X0308689Y0249087D01*
X0308689Y0250055D01*
X0311673Y0250055D01*
X0311673Y0252721D01*
X0311571Y0253103D01*
X0311374Y0253445D01*
X0311094Y0253724D01*
X0310752Y0253921D01*
X0310371Y0254024D01*
X0308689Y0254024D01*
X0308689Y0250055D01*
X0307720Y0250055D01*
X0307720Y0249087D01*
X0304736Y0249087D01*
X0304736Y0246421D01*
X0304838Y0246039D01*
X0305036Y0245697D01*
X0305136Y0245597D01*
X0305136Y0244450D01*
X0300823Y0244450D01*
X0299695Y0243983D01*
X0298832Y0243120D01*
X0298812Y0243072D01*
X0298758Y0243019D01*
X0298758Y0242943D01*
X0298365Y0241992D01*
X0298365Y0240772D01*
X0298758Y0239821D01*
X0298758Y0239745D01*
X0298812Y0239691D01*
X0298832Y0239644D01*
X0299695Y0238781D01*
X0300823Y0238313D01*
X0305136Y0238313D01*
X0305136Y0237107D01*
X0305781Y0236463D01*
X0309546Y0236463D01*
X0309546Y0232374D01*
X0308990Y0232144D01*
X0307639Y0230794D01*
X0306909Y0229030D01*
X0306909Y0227120D01*
X0307639Y0225356D01*
X0308990Y0224006D01*
X0310754Y0223275D01*
X0312663Y0223275D01*
X0314428Y0224006D01*
X0315778Y0225356D01*
X0316509Y0227120D01*
X0316509Y0229030D01*
X0315778Y0230794D01*
X0315683Y0230889D01*
X0315683Y0236463D01*
X0318109Y0236463D01*
X0318754Y0237107D01*
X0318754Y0246089D01*
X0318717Y0246126D01*
X0318754Y0246162D01*
X0318754Y0247971D01*
X0321151Y0247971D01*
X0321375Y0248195D01*
X0326180Y0248195D01*
X0326229Y0248244D01*
X0326378Y0248095D01*
X0326720Y0247898D01*
X0327102Y0247795D01*
X0329358Y0247795D01*
X0329358Y0251748D01*
X0330358Y0251748D01*
X0330358Y0247795D01*
X0332615Y0247795D01*
X0332996Y0247898D01*
X0333338Y0248095D01*
X0333618Y0248374D01*
X0333815Y0248716D01*
X0333917Y0249098D01*
X0333917Y0251748D01*
X0330358Y0251748D01*
X0330358Y0252748D01*
X0329358Y0252748D01*
X0329358Y0256701D01*
X0327102Y0256701D01*
X0326720Y0256599D01*
X0326378Y0256401D01*
X0326229Y0256252D01*
X0326180Y0256301D01*
X0325238Y0256301D01*
X0325238Y0256546D01*
X0332568Y0263876D01*
X0333505Y0264814D01*
X0333505Y0275087D01*
X0334184Y0275765D01*
X0334593Y0276753D01*
X0334593Y0277822D01*
X0334184Y0278810D01*
X0333428Y0279566D01*
X0332440Y0279975D01*
X0331371Y0279975D01*
X0330720Y0279705D01*
X0331623Y0280609D01*
X0332561Y0281546D01*
X0334529Y0283514D01*
X0336369Y0285354D01*
X0336369Y0285129D01*
X0339454Y0282043D01*
X0339454Y0281084D01*
X0339863Y0280096D01*
X0340542Y0279418D01*
X0340542Y0273742D01*
X0338891Y0273742D01*
X0338246Y0273097D01*
X0338246Y0267068D01*
X0338760Y0266555D01*
X0338425Y0266362D01*
X0338146Y0266082D01*
X0337949Y0265740D01*
X0337846Y0265359D01*
X0337846Y0263102D01*
X0341799Y0263102D01*
X0341799Y0262102D01*
X0342799Y0262102D01*
X0342799Y0258543D01*
X0345449Y0258543D01*
X0345831Y0258646D01*
X0346173Y0258843D01*
X0346452Y0259122D01*
X0346650Y0259464D01*
X0346752Y0259846D01*
X0346752Y0262102D01*
X0342799Y0262102D01*
X0342799Y0263102D01*
X0346752Y0263102D01*
X0346752Y0265359D01*
X0346650Y0265740D01*
X0346452Y0266082D01*
X0346173Y0266362D01*
X0345839Y0266555D01*
X0346352Y0267068D01*
X0346352Y0273097D01*
X0345708Y0273742D01*
X0343742Y0273742D01*
X0343742Y0279418D01*
X0344420Y0280096D01*
X0344479Y0280238D01*
X0344479Y0279823D01*
X0344431Y0279226D01*
X0344479Y0279170D01*
X0344479Y0279096D01*
X0344902Y0278673D01*
X0355277Y0266475D01*
X0354732Y0265931D01*
X0354732Y0261954D01*
X0357544Y0259143D01*
X0361520Y0259143D01*
X0364332Y0261954D01*
X0364332Y0265931D01*
X0361520Y0268743D01*
X0357550Y0268743D01*
X0357209Y0269143D01*
X0363688Y0269143D01*
X0364332Y0269787D01*
X0364332Y0278098D01*
X0363688Y0278743D01*
X0361065Y0278743D01*
X0361065Y0283496D01*
X0361163Y0283644D01*
X0361065Y0284139D01*
X0361065Y0284643D01*
X0360938Y0284769D01*
X0360904Y0284944D01*
X0360484Y0285224D01*
X0360127Y0285580D01*
X0359949Y0285580D01*
X0353978Y0289561D01*
X0353978Y0292803D01*
X0354100Y0293215D01*
X0353978Y0293441D01*
X0353978Y0293698D01*
X0353674Y0294002D01*
X0350475Y0299908D01*
X0350807Y0299576D01*
X0351794Y0299167D01*
X0352863Y0299167D01*
X0353851Y0299576D01*
X0354607Y0300332D01*
X0355016Y0301320D01*
X0355016Y0302389D01*
X0354607Y0303377D01*
X0354372Y0303612D01*
X0354372Y0305006D01*
X0356180Y0305006D01*
X0356824Y0305651D01*
X0356824Y0311680D01*
X0356493Y0312012D01*
X0356824Y0312344D01*
X0356824Y0315273D01*
X0357230Y0314293D01*
X0357986Y0313537D01*
X0358974Y0313128D01*
X0360043Y0313128D01*
X0361031Y0313537D01*
X0361475Y0313981D01*
X0361475Y0313647D01*
X0359046Y0311218D01*
X0359046Y0299696D01*
X0359506Y0299235D01*
X0359506Y0294430D01*
X0359555Y0294381D01*
X0359406Y0294232D01*
X0359209Y0293890D01*
X0359106Y0293509D01*
X0359106Y0291252D01*
X0363059Y0291252D01*
X0363059Y0290252D01*
X0359106Y0290252D01*
X0359106Y0287995D01*
X0359209Y0287614D01*
X0359406Y0287272D01*
X0359685Y0286993D01*
X0360027Y0286795D01*
X0360409Y0286693D01*
X0363059Y0286693D01*
X0363059Y0290252D01*
X0364059Y0290252D01*
X0364059Y0291252D01*
X0368012Y0291252D01*
X0368012Y0293509D01*
X0367910Y0293890D01*
X0367712Y0294232D01*
X0367563Y0294381D01*
X0367612Y0294430D01*
X0367612Y0300460D01*
X0366967Y0301104D01*
X0362246Y0301104D01*
X0362246Y0303264D01*
X0362377Y0303228D01*
X0365043Y0303228D01*
X0365043Y0306213D01*
X0366012Y0306213D01*
X0366012Y0303228D01*
X0368678Y0303228D01*
X0369059Y0303331D01*
X0369401Y0303528D01*
X0369502Y0303628D01*
X0371608Y0303628D01*
X0372616Y0298033D01*
X0373275Y0297005D01*
X0373643Y0296750D01*
X0373891Y0296502D01*
X0374000Y0296502D01*
X0374278Y0296309D01*
X0375471Y0296049D01*
X0376672Y0296265D01*
X0377041Y0296502D01*
X0377164Y0296502D01*
X0377385Y0296724D01*
X0377699Y0296925D01*
X0378396Y0297928D01*
X0378656Y0299120D01*
X0377844Y0303628D01*
X0377991Y0303628D01*
X0378635Y0304273D01*
X0378635Y0307940D01*
X0382132Y0308344D01*
X0382730Y0307746D01*
X0384494Y0307015D01*
X0386404Y0307015D01*
X0388168Y0307746D01*
X0389518Y0309096D01*
X0390249Y0310860D01*
X0390249Y0312770D01*
X0389518Y0314534D01*
X0388168Y0315884D01*
X0386404Y0316615D01*
X0384494Y0316615D01*
X0382730Y0315884D01*
X0381380Y0314534D01*
X0381336Y0314430D01*
X0378635Y0314118D01*
X0378635Y0316601D01*
X0377991Y0317246D01*
X0369009Y0317246D01*
X0368972Y0317209D01*
X0368936Y0317246D01*
X0364722Y0317246D01*
X0364552Y0317415D01*
X0361709Y0317415D01*
X0361031Y0318093D01*
X0360043Y0318502D01*
X0358974Y0318502D01*
X0357986Y0318093D01*
X0357230Y0317337D01*
X0356824Y0316357D01*
X0356824Y0317148D01*
X0360412Y0320736D01*
X0360412Y0319863D01*
X0361056Y0319219D01*
X0367086Y0319219D01*
X0367730Y0319863D01*
X0367730Y0326680D01*
X0367086Y0327324D01*
X0361056Y0327324D01*
X0360412Y0326680D01*
X0360412Y0324872D01*
X0360022Y0324872D01*
X0354168Y0319017D01*
X0351264Y0319017D01*
X0349245Y0320951D01*
X0348789Y0321407D01*
X0348769Y0321407D01*
X0348754Y0321421D01*
X0348109Y0321407D01*
X0347886Y0321407D01*
X0347345Y0321947D01*
X0351376Y0321947D01*
X0351986Y0321337D01*
X0352974Y0320928D01*
X0354043Y0320928D01*
X0355031Y0321337D01*
X0355787Y0322093D01*
X0356196Y0323080D01*
X0356196Y0324150D01*
X0355787Y0325137D01*
X0355031Y0325893D01*
X0354043Y0326302D01*
X0352974Y0326302D01*
X0351986Y0325893D01*
X0351240Y0325147D01*
X0349504Y0325147D01*
X0369687Y0345330D01*
X0369687Y0354258D01*
X0371495Y0354258D01*
X0372139Y0354903D01*
X0372139Y0360932D01*
X0371808Y0361264D01*
X0372139Y0361596D01*
X0372139Y0367625D01*
X0371495Y0368269D01*
X0369687Y0368269D01*
X0369687Y0371187D01*
X0370904Y0371187D01*
X0371549Y0371832D01*
X0371549Y0377467D01*
X0370904Y0378112D01*
X0365269Y0378112D01*
X0364624Y0377467D01*
X0364624Y0371832D01*
X0365269Y0371187D01*
X0366487Y0371187D01*
X0366487Y0368269D01*
X0364678Y0368269D01*
X0364034Y0367625D01*
X0364034Y0361596D01*
X0364366Y0361264D01*
X0364034Y0360932D01*
X0364034Y0354903D01*
X0364678Y0354258D01*
X0366487Y0354258D01*
X0366487Y0346656D01*
X0346846Y0327015D01*
X0339591Y0327015D01*
X0357689Y0345493D01*
X0358151Y0345955D01*
X0358151Y0345965D01*
X0358158Y0345972D01*
X0358151Y0346626D01*
X0358151Y0353825D01*
X0359960Y0353825D01*
X0360604Y0354470D01*
X0360604Y0360499D01*
X0360272Y0360831D01*
X0360604Y0361162D01*
X0360604Y0367192D01*
X0359960Y0367836D01*
X0358151Y0367836D01*
X0358151Y0370597D01*
X0359290Y0370597D01*
X0359935Y0371241D01*
X0359935Y0376877D01*
X0359290Y0377521D01*
X0353655Y0377521D01*
X0353010Y0376877D01*
X0353010Y0371241D01*
X0353655Y0370597D01*
X0354951Y0370597D01*
X0354951Y0367836D01*
X0353143Y0367836D01*
X0352498Y0367192D01*
X0352498Y0361162D01*
X0352830Y0360831D01*
X0352498Y0360499D01*
X0352498Y0354470D01*
X0353143Y0353825D01*
X0354951Y0353825D01*
X0354951Y0347271D01*
X0339996Y0332001D01*
X0340105Y0332265D01*
X0340105Y0333334D01*
X0339696Y0334321D01*
X0339215Y0334802D01*
X0339333Y0334852D01*
X0340089Y0335608D01*
X0340498Y0336595D01*
X0340498Y0337664D01*
X0340089Y0338652D01*
X0339333Y0339408D01*
X0338346Y0339817D01*
X0337276Y0339817D01*
X0336289Y0339408D01*
X0335610Y0338730D01*
X0334983Y0338730D01*
X0333643Y0337390D01*
X0333643Y0338334D01*
X0332999Y0338978D01*
X0326667Y0338978D01*
X0326667Y0344277D01*
X0327080Y0343865D01*
X0332322Y0343865D01*
X0332966Y0344509D01*
X0332966Y0352901D01*
X0332322Y0353545D01*
X0327080Y0353545D01*
X0326435Y0352901D01*
X0326435Y0345541D01*
X0326023Y0345954D01*
X0322679Y0345954D01*
X0322679Y0356021D01*
X0321741Y0356958D01*
X0317141Y0361558D01*
X0317415Y0361832D01*
X0317415Y0368077D01*
X0318358Y0368077D01*
X0318358Y0365724D01*
X0321342Y0365724D01*
X0321342Y0364756D01*
X0318358Y0364756D01*
X0318358Y0362090D01*
X0318460Y0361708D01*
X0318658Y0361366D01*
X0318937Y0361087D01*
X0319279Y0360890D01*
X0319661Y0360787D01*
X0321342Y0360787D01*
X0321342Y0364756D01*
X0322311Y0364756D01*
X0322311Y0365724D01*
X0325295Y0365724D01*
X0325295Y0368390D01*
X0325193Y0368772D01*
X0324996Y0369114D01*
X0324895Y0369214D01*
X0324895Y0377704D01*
X0324251Y0378348D01*
X0318887Y0378348D01*
X0316129Y0383684D01*
X0316509Y0384600D01*
X0316509Y0386510D01*
X0315778Y0388274D01*
X0314428Y0389624D01*
X0312663Y0390355D01*
X0310754Y0390355D01*
X0308990Y0389624D01*
X0307639Y0388274D01*
X0306909Y0386510D01*
X0306909Y0384600D01*
X0307639Y0382836D01*
X0308990Y0381486D01*
X0310730Y0380765D01*
X0311979Y0378348D01*
X0311922Y0378348D01*
X0311278Y0377704D01*
X0311278Y0377096D01*
X0307875Y0377493D01*
X0306701Y0377159D01*
X0305743Y0376402D01*
X0305619Y0376178D01*
X0305451Y0376011D01*
X0305451Y0375878D01*
X0305149Y0375336D01*
X0305007Y0374123D01*
X0305341Y0372949D01*
X0305451Y0372809D01*
X0305451Y0372737D01*
X0305724Y0372464D01*
X0306098Y0371991D01*
X0307164Y0371397D01*
X0311278Y0370917D01*
X0311278Y0368722D01*
X0311314Y0368685D01*
X0311278Y0368649D01*
X0311278Y0365265D01*
X0309895Y0365265D01*
X0309895Y0367074D01*
X0309251Y0367718D01*
X0303222Y0367718D01*
X0303173Y0367669D01*
X0303023Y0367818D01*
X0302681Y0368016D01*
X0302300Y0368118D01*
X0300043Y0368118D01*
X0300043Y0364165D01*
X0299043Y0364165D01*
X0299043Y0363165D01*
X0300043Y0363165D01*
X0300043Y0359213D01*
X0302300Y0359213D01*
X0302681Y0359315D01*
X0303023Y0359512D01*
X0303173Y0359662D01*
X0303222Y0359613D01*
X0309251Y0359613D01*
X0309895Y0360257D01*
X0309895Y0362065D01*
X0311278Y0362065D01*
X0311278Y0361832D01*
X0311922Y0361187D01*
X0312987Y0361187D01*
X0319479Y0354696D01*
X0319479Y0345954D01*
X0314777Y0345954D01*
X0314677Y0346055D01*
X0314596Y0346101D01*
X0314608Y0346113D01*
X0314608Y0349303D01*
X0314880Y0349600D01*
X0315708Y0349600D01*
X0316696Y0350009D01*
X0317451Y0350765D01*
X0317861Y0351753D01*
X0317861Y0352822D01*
X0317451Y0353810D01*
X0316696Y0354566D01*
X0315708Y0354975D01*
X0314639Y0354975D01*
X0313651Y0354566D01*
X0312895Y0353810D01*
X0312486Y0352822D01*
X0312486Y0351753D01*
X0312494Y0351733D01*
X0311852Y0351032D01*
X0311408Y0350588D01*
X0311408Y0350548D01*
X0311381Y0350518D01*
X0311408Y0349891D01*
X0311408Y0349223D01*
X0310790Y0349841D01*
X0310236Y0350071D01*
X0310507Y0350343D01*
X0310705Y0350685D01*
X0310807Y0351066D01*
X0310807Y0353717D01*
X0307248Y0353717D01*
X0307248Y0354716D01*
X0310807Y0354716D01*
X0310807Y0357367D01*
X0310705Y0357748D01*
X0310507Y0358090D01*
X0310228Y0358370D01*
X0309886Y0358567D01*
X0309505Y0358669D01*
X0307248Y0358669D01*
X0307248Y0354717D01*
X0306248Y0354717D01*
X0306248Y0358669D01*
X0303991Y0358669D01*
X0303610Y0358567D01*
X0303268Y0358370D01*
X0302989Y0358090D01*
X0302796Y0357756D01*
X0302282Y0358269D01*
X0296253Y0358269D01*
X0295609Y0357625D01*
X0295609Y0350808D01*
X0296253Y0350164D01*
X0297668Y0350164D01*
X0297668Y0349814D01*
X0298605Y0348876D01*
X0301127Y0346354D01*
X0300645Y0346354D01*
X0300264Y0346252D01*
X0299921Y0346055D01*
X0299821Y0345954D01*
X0294481Y0345954D01*
X0293837Y0345310D01*
X0293837Y0338978D01*
X0287505Y0338978D01*
X0286861Y0338334D01*
X0286861Y0327088D01*
X0286760Y0326988D01*
X0286563Y0326646D01*
X0286461Y0326264D01*
X0286461Y0325516D01*
X0291035Y0325516D01*
X0291035Y0325516D01*
X0286461Y0325516D01*
X0286461Y0325230D01*
X0284687Y0327131D01*
X0284687Y0342911D01*
X0283749Y0343848D01*
X0276357Y0351241D01*
X0278757Y0353641D01*
X0278757Y0354553D01*
X0274494Y0358816D01*
X0274025Y0358816D01*
X0274025Y0359285D01*
X0269761Y0363549D01*
X0268850Y0363549D01*
X0265859Y0360557D01*
X0263883Y0362533D01*
X0260802Y0362533D01*
X0259910Y0363425D01*
X0259910Y0363567D01*
X0259808Y0363948D01*
X0259611Y0364290D01*
X0258984Y0364917D01*
X0256810Y0362743D01*
X0256810Y0362743D01*
X0258984Y0364917D01*
X0258357Y0365544D01*
X0258015Y0365741D01*
X0257634Y0365844D01*
X0257492Y0365844D01*
X0256082Y0367253D01*
X0255171Y0367253D01*
X0252300Y0364382D01*
X0252300Y0363470D01*
X0253709Y0362061D01*
X0253709Y0361919D01*
X0253811Y0361537D01*
X0254009Y0361195D01*
X0254636Y0360569D01*
X0255262Y0359942D01*
X0255604Y0359744D01*
X0255986Y0359642D01*
X0256128Y0359642D01*
X0257537Y0358233D01*
X0258449Y0358233D01*
X0259549Y0359333D01*
X0262557Y0359333D01*
X0264030Y0357861D01*
X0264030Y0357817D01*
X0268293Y0353554D01*
X0268763Y0353554D01*
X0268763Y0353085D01*
X0273026Y0348821D01*
X0273937Y0348821D01*
X0274094Y0348978D01*
X0281487Y0341585D01*
X0281487Y0326527D01*
X0281465Y0325893D01*
X0281487Y0325869D01*
X0281487Y0325837D01*
X0281936Y0325388D01*
X0283998Y0323179D01*
X0283329Y0323179D01*
X0280750Y0325615D01*
X0280750Y0331493D01*
X0279812Y0332431D01*
X0268009Y0344234D01*
X0268009Y0344553D01*
X0263746Y0348816D01*
X0263277Y0348816D01*
X0263277Y0349285D01*
X0259013Y0353549D01*
X0258102Y0353549D01*
X0256823Y0352270D01*
X0255765Y0353328D01*
X0255765Y0355549D01*
X0256866Y0356650D01*
X0256866Y0357561D01*
X0255247Y0359180D01*
X0255056Y0359180D01*
X0255056Y0359371D01*
X0253438Y0360989D01*
X0253247Y0360989D01*
X0253247Y0361180D01*
X0251628Y0362799D01*
X0250717Y0362799D01*
X0250268Y0362350D01*
X0249970Y0362647D01*
X0248978Y0363058D01*
X0244849Y0363058D01*
X0244849Y0365493D01*
X0250297Y0370942D01*
X0250297Y0371853D01*
X0247204Y0374946D01*
X0265370Y0391461D01*
X0391354Y0391461D01*
X0391354Y0222169D01*
X0222063Y0222169D01*
X0222063Y0222940D02*
X0391354Y0222940D01*
X0391354Y0223939D02*
X0314266Y0223939D01*
X0315359Y0224937D02*
X0391354Y0224937D01*
X0391354Y0225936D02*
X0316018Y0225936D01*
X0316432Y0226934D02*
X0332083Y0226934D01*
X0331549Y0227155D02*
X0333313Y0226424D01*
X0335222Y0226424D01*
X0336987Y0227155D01*
X0338337Y0228505D01*
X0339068Y0230270D01*
X0339068Y0232179D01*
X0338337Y0233943D01*
X0336987Y0235294D01*
X0335222Y0236024D01*
X0333313Y0236024D01*
X0331549Y0235294D01*
X0330198Y0233943D01*
X0329468Y0232179D01*
X0329468Y0230270D01*
X0330198Y0228505D01*
X0331549Y0227155D01*
X0330771Y0227933D02*
X0316509Y0227933D01*
X0316509Y0228931D02*
X0330022Y0228931D01*
X0329609Y0229930D02*
X0316136Y0229930D01*
X0315683Y0230928D02*
X0329468Y0230928D01*
X0329468Y0231927D02*
X0315683Y0231927D01*
X0315683Y0232925D02*
X0329777Y0232925D01*
X0330190Y0233924D02*
X0315683Y0233924D01*
X0315683Y0234922D02*
X0331177Y0234922D01*
X0333062Y0235921D02*
X0315683Y0235921D01*
X0318565Y0236919D02*
X0340935Y0236919D01*
X0340935Y0235921D02*
X0335473Y0235921D01*
X0337358Y0234922D02*
X0340935Y0234922D01*
X0340935Y0234680D02*
X0340198Y0233943D01*
X0339468Y0232179D01*
X0339468Y0230270D01*
X0340198Y0228505D01*
X0341549Y0227155D01*
X0343313Y0226424D01*
X0345222Y0226424D01*
X0346987Y0227155D01*
X0348337Y0228505D01*
X0349068Y0230270D01*
X0349068Y0232179D01*
X0348337Y0233943D01*
X0346987Y0235294D01*
X0345222Y0236024D01*
X0344135Y0236024D01*
X0344135Y0243591D01*
X0344814Y0244269D01*
X0345223Y0245257D01*
X0345223Y0246326D01*
X0344814Y0247314D01*
X0344058Y0248070D01*
X0343070Y0248479D01*
X0342001Y0248479D01*
X0341013Y0248070D01*
X0340257Y0247314D01*
X0339848Y0246326D01*
X0339848Y0245257D01*
X0340257Y0244269D01*
X0340935Y0243591D01*
X0340935Y0234680D01*
X0340190Y0233924D02*
X0338345Y0233924D01*
X0338759Y0232925D02*
X0339777Y0232925D01*
X0339468Y0231927D02*
X0339068Y0231927D01*
X0339068Y0230928D02*
X0339468Y0230928D01*
X0339609Y0229930D02*
X0338927Y0229930D01*
X0338513Y0228931D02*
X0340022Y0228931D01*
X0340771Y0227933D02*
X0337764Y0227933D01*
X0336453Y0226934D02*
X0342083Y0226934D01*
X0346453Y0226934D02*
X0352083Y0226934D01*
X0351549Y0227155D02*
X0353313Y0226424D01*
X0355222Y0226424D01*
X0356987Y0227155D01*
X0358337Y0228505D01*
X0359068Y0230270D01*
X0359068Y0232179D01*
X0358337Y0233943D01*
X0356987Y0235294D01*
X0355335Y0235978D01*
X0355548Y0240924D01*
X0355628Y0241507D01*
X0355576Y0241575D01*
X0355580Y0241660D01*
X0355182Y0242094D01*
X0348072Y0251448D01*
X0348072Y0251572D01*
X0347681Y0251964D01*
X0347345Y0252405D01*
X0347223Y0252422D01*
X0347135Y0252509D01*
X0346581Y0252509D01*
X0346032Y0252584D01*
X0345933Y0252509D01*
X0341193Y0252509D01*
X0340514Y0253188D01*
X0339527Y0253597D01*
X0338458Y0253597D01*
X0337470Y0253188D01*
X0336714Y0252432D01*
X0336305Y0251444D01*
X0336305Y0250375D01*
X0336714Y0249387D01*
X0337470Y0248631D01*
X0338458Y0248222D01*
X0339527Y0248222D01*
X0340514Y0248631D01*
X0341193Y0249309D01*
X0345679Y0249309D01*
X0352329Y0240559D01*
X0352112Y0235527D01*
X0351549Y0235294D01*
X0350198Y0233943D01*
X0349468Y0232179D01*
X0349468Y0230270D01*
X0350198Y0228505D01*
X0351549Y0227155D01*
X0350771Y0227933D02*
X0347764Y0227933D01*
X0348513Y0228931D02*
X0350022Y0228931D01*
X0349609Y0229930D02*
X0348927Y0229930D01*
X0349068Y0230928D02*
X0349468Y0230928D01*
X0349468Y0231927D02*
X0349068Y0231927D01*
X0348759Y0232925D02*
X0349777Y0232925D01*
X0350190Y0233924D02*
X0348345Y0233924D01*
X0347358Y0234922D02*
X0351177Y0234922D01*
X0352129Y0235921D02*
X0345473Y0235921D01*
X0344135Y0236919D02*
X0352172Y0236919D01*
X0352216Y0237918D02*
X0344135Y0237918D01*
X0344135Y0238916D02*
X0352259Y0238916D01*
X0352302Y0239915D02*
X0344135Y0239915D01*
X0344135Y0240913D02*
X0352060Y0240913D01*
X0351301Y0241912D02*
X0344135Y0241912D01*
X0344135Y0242910D02*
X0350542Y0242910D01*
X0349783Y0243909D02*
X0344453Y0243909D01*
X0345078Y0244907D02*
X0349024Y0244907D01*
X0348266Y0245906D02*
X0345223Y0245906D01*
X0344983Y0246904D02*
X0347507Y0246904D01*
X0346748Y0247903D02*
X0344225Y0247903D01*
X0345989Y0248901D02*
X0340785Y0248901D01*
X0340846Y0247903D02*
X0333005Y0247903D01*
X0333865Y0248901D02*
X0337200Y0248901D01*
X0336502Y0249900D02*
X0333917Y0249900D01*
X0333917Y0250898D02*
X0336305Y0250898D01*
X0336492Y0251897D02*
X0330358Y0251897D01*
X0330358Y0252748D02*
X0333917Y0252748D01*
X0333917Y0255398D01*
X0333815Y0255780D01*
X0333618Y0256122D01*
X0333338Y0256401D01*
X0332996Y0256599D01*
X0332615Y0256701D01*
X0330358Y0256701D01*
X0330358Y0252748D01*
X0330358Y0252895D02*
X0329358Y0252895D01*
X0329358Y0253894D02*
X0330358Y0253894D01*
X0330358Y0254892D02*
X0329358Y0254892D01*
X0329358Y0255891D02*
X0330358Y0255891D01*
X0333751Y0255891D02*
X0354732Y0255891D01*
X0354732Y0255931D02*
X0354732Y0251954D01*
X0357544Y0249143D01*
X0361520Y0249143D01*
X0364332Y0251954D01*
X0364332Y0255931D01*
X0361520Y0258743D01*
X0357544Y0258743D01*
X0354732Y0255931D01*
X0354732Y0254892D02*
X0333917Y0254892D01*
X0333917Y0253894D02*
X0354732Y0253894D01*
X0354732Y0252895D02*
X0340807Y0252895D01*
X0338992Y0250909D02*
X0346472Y0250909D01*
X0353953Y0241067D01*
X0353559Y0231933D01*
X0354268Y0231224D01*
X0357764Y0227933D02*
X0360771Y0227933D01*
X0360198Y0228505D02*
X0361549Y0227155D01*
X0363313Y0226424D01*
X0365222Y0226424D01*
X0366987Y0227155D01*
X0368337Y0228505D01*
X0369068Y0230270D01*
X0369068Y0232179D01*
X0368337Y0233943D01*
X0366987Y0235294D01*
X0365222Y0236024D01*
X0363313Y0236024D01*
X0361549Y0235294D01*
X0360198Y0233943D01*
X0359468Y0232179D01*
X0359468Y0230270D01*
X0360198Y0228505D01*
X0360022Y0228931D02*
X0358513Y0228931D01*
X0358927Y0229930D02*
X0359609Y0229930D01*
X0359468Y0230928D02*
X0359068Y0230928D01*
X0359068Y0231927D02*
X0359468Y0231927D01*
X0359777Y0232925D02*
X0358759Y0232925D01*
X0358345Y0233924D02*
X0360190Y0233924D01*
X0361177Y0234922D02*
X0357358Y0234922D01*
X0355473Y0235921D02*
X0363062Y0235921D01*
X0365473Y0235921D02*
X0373062Y0235921D01*
X0373313Y0236024D02*
X0371549Y0235294D01*
X0370198Y0233943D01*
X0369468Y0232179D01*
X0369468Y0230270D01*
X0370198Y0228505D01*
X0371549Y0227155D01*
X0373313Y0226424D01*
X0375222Y0226424D01*
X0376987Y0227155D01*
X0378337Y0228505D01*
X0379068Y0230270D01*
X0379068Y0232179D01*
X0378337Y0233943D01*
X0376987Y0235294D01*
X0375222Y0236024D01*
X0373313Y0236024D01*
X0375473Y0235921D02*
X0382031Y0235921D01*
X0382272Y0236043D02*
X0381542Y0235672D01*
X0380880Y0235191D01*
X0380301Y0234612D01*
X0379820Y0233950D01*
X0379449Y0233221D01*
X0379196Y0232442D01*
X0379082Y0231724D01*
X0383768Y0231724D01*
X0383768Y0230724D01*
X0384768Y0230724D01*
X0384768Y0226039D01*
X0385485Y0226152D01*
X0386264Y0226405D01*
X0386993Y0226777D01*
X0387655Y0227258D01*
X0388234Y0227837D01*
X0388715Y0228499D01*
X0389087Y0229228D01*
X0389340Y0230007D01*
X0389453Y0230724D01*
X0384768Y0230724D01*
X0384768Y0231724D01*
X0389453Y0231724D01*
X0389340Y0232442D01*
X0389087Y0233221D01*
X0388715Y0233950D01*
X0388234Y0234612D01*
X0387655Y0235191D01*
X0386993Y0235672D01*
X0386264Y0236043D01*
X0385485Y0236296D01*
X0384768Y0236410D01*
X0384768Y0231724D01*
X0383768Y0231724D01*
X0383768Y0236410D01*
X0383050Y0236296D01*
X0382272Y0236043D01*
X0383768Y0235921D02*
X0384768Y0235921D01*
X0384768Y0234922D02*
X0383768Y0234922D01*
X0383768Y0233924D02*
X0384768Y0233924D01*
X0384768Y0232925D02*
X0383768Y0232925D01*
X0383768Y0231927D02*
X0384768Y0231927D01*
X0384768Y0230928D02*
X0391354Y0230928D01*
X0391354Y0229930D02*
X0389315Y0229930D01*
X0388935Y0228931D02*
X0391354Y0228931D01*
X0391354Y0227933D02*
X0388304Y0227933D01*
X0387209Y0226934D02*
X0391354Y0226934D01*
X0391354Y0231927D02*
X0389421Y0231927D01*
X0389183Y0232925D02*
X0391354Y0232925D01*
X0391354Y0233924D02*
X0388728Y0233924D01*
X0387924Y0234922D02*
X0391354Y0234922D01*
X0391354Y0235921D02*
X0386505Y0235921D01*
X0391354Y0236919D02*
X0355375Y0236919D01*
X0355418Y0237918D02*
X0391354Y0237918D01*
X0391354Y0238916D02*
X0355462Y0238916D01*
X0355505Y0239915D02*
X0391354Y0239915D01*
X0391354Y0240913D02*
X0355548Y0240913D01*
X0355349Y0241912D02*
X0391354Y0241912D01*
X0391354Y0242910D02*
X0354561Y0242910D01*
X0353803Y0243909D02*
X0391354Y0243909D01*
X0391354Y0244907D02*
X0353044Y0244907D01*
X0352285Y0245906D02*
X0391354Y0245906D01*
X0391354Y0246904D02*
X0351526Y0246904D01*
X0350767Y0247903D02*
X0391354Y0247903D01*
X0391354Y0248901D02*
X0371845Y0248901D01*
X0371686Y0248743D02*
X0374732Y0251789D01*
X0374732Y0253443D01*
X0370032Y0253443D01*
X0370032Y0254442D01*
X0374732Y0254442D01*
X0374732Y0256096D01*
X0371686Y0259143D01*
X0370032Y0259143D01*
X0370032Y0254443D01*
X0369032Y0254443D01*
X0369032Y0259143D01*
X0367378Y0259143D01*
X0364332Y0256096D01*
X0364332Y0254442D01*
X0369032Y0254442D01*
X0369032Y0253443D01*
X0364332Y0253443D01*
X0364332Y0251789D01*
X0367378Y0248743D01*
X0369032Y0248743D01*
X0369032Y0253442D01*
X0370032Y0253442D01*
X0370032Y0248743D01*
X0371686Y0248743D01*
X0372843Y0249900D02*
X0391354Y0249900D01*
X0391354Y0250898D02*
X0373842Y0250898D01*
X0374732Y0251897D02*
X0391354Y0251897D01*
X0391354Y0252895D02*
X0374732Y0252895D01*
X0374732Y0254892D02*
X0391354Y0254892D01*
X0391354Y0253894D02*
X0370032Y0253894D01*
X0370032Y0254892D02*
X0369032Y0254892D01*
X0369032Y0253894D02*
X0364332Y0253894D01*
X0364332Y0254892D02*
X0364332Y0254892D01*
X0364332Y0255891D02*
X0364332Y0255891D01*
X0365125Y0256889D02*
X0363374Y0256889D01*
X0362375Y0257888D02*
X0366124Y0257888D01*
X0367122Y0258886D02*
X0346216Y0258886D01*
X0346752Y0259885D02*
X0356802Y0259885D01*
X0355803Y0260883D02*
X0346752Y0260883D01*
X0346752Y0261882D02*
X0354805Y0261882D01*
X0354732Y0262880D02*
X0342799Y0262880D01*
X0342799Y0261882D02*
X0341799Y0261882D01*
X0341799Y0262102D02*
X0341799Y0258543D01*
X0339149Y0258543D01*
X0338767Y0258646D01*
X0338425Y0258843D01*
X0338146Y0259122D01*
X0337949Y0259464D01*
X0337846Y0259846D01*
X0337846Y0262102D01*
X0341799Y0262102D01*
X0341799Y0262880D02*
X0331572Y0262880D01*
X0330574Y0261882D02*
X0337846Y0261882D01*
X0337846Y0260883D02*
X0329575Y0260883D01*
X0328577Y0259885D02*
X0337846Y0259885D01*
X0338382Y0258886D02*
X0327578Y0258886D01*
X0326580Y0257888D02*
X0356689Y0257888D01*
X0355691Y0256889D02*
X0325581Y0256889D01*
X0323638Y0257209D02*
X0331906Y0265476D01*
X0331906Y0277287D01*
X0332729Y0279855D02*
X0340104Y0279855D01*
X0340542Y0278857D02*
X0334137Y0278857D01*
X0334578Y0277858D02*
X0340542Y0277858D01*
X0340542Y0276860D02*
X0334593Y0276860D01*
X0334224Y0275861D02*
X0340542Y0275861D01*
X0340542Y0274863D02*
X0333505Y0274863D01*
X0333505Y0273864D02*
X0340542Y0273864D01*
X0338246Y0272866D02*
X0333505Y0272866D01*
X0333505Y0271867D02*
X0338246Y0271867D01*
X0338246Y0270869D02*
X0333505Y0270869D01*
X0333505Y0269870D02*
X0338246Y0269870D01*
X0338246Y0268872D02*
X0333505Y0268872D01*
X0333505Y0267873D02*
X0338246Y0267873D01*
X0338440Y0266875D02*
X0333505Y0266875D01*
X0333505Y0265876D02*
X0338027Y0265876D01*
X0337846Y0264877D02*
X0333505Y0264877D01*
X0332571Y0263879D02*
X0337846Y0263879D01*
X0341799Y0260883D02*
X0342799Y0260883D01*
X0342799Y0259885D02*
X0341799Y0259885D01*
X0341799Y0258886D02*
X0342799Y0258886D01*
X0346752Y0263879D02*
X0354732Y0263879D01*
X0354732Y0264877D02*
X0346752Y0264877D01*
X0346571Y0265876D02*
X0354732Y0265876D01*
X0354938Y0266875D02*
X0346158Y0266875D01*
X0346352Y0267873D02*
X0354088Y0267873D01*
X0353239Y0268872D02*
X0346352Y0268872D01*
X0346352Y0269870D02*
X0352390Y0269870D01*
X0351540Y0270869D02*
X0346352Y0270869D01*
X0346352Y0271867D02*
X0350691Y0271867D01*
X0349841Y0272866D02*
X0346352Y0272866D01*
X0348143Y0274863D02*
X0343742Y0274863D01*
X0343742Y0275861D02*
X0347293Y0275861D01*
X0346444Y0276860D02*
X0343742Y0276860D01*
X0343742Y0277858D02*
X0345595Y0277858D01*
X0344718Y0278857D02*
X0343742Y0278857D01*
X0344179Y0279855D02*
X0344479Y0279855D01*
X0346079Y0279758D02*
X0346079Y0291854D01*
X0340961Y0301303D01*
X0340961Y0310752D01*
X0335055Y0315476D01*
X0331906Y0315476D01*
X0331709Y0315673D01*
X0329469Y0315673D01*
X0329469Y0317642D02*
X0336827Y0317642D01*
X0344110Y0311933D01*
X0344110Y0302091D01*
X0349228Y0292248D01*
X0349228Y0285949D01*
X0354740Y0282012D01*
X0359465Y0283980D02*
X0359465Y0274010D01*
X0359532Y0273943D01*
X0364332Y0273864D02*
X0364732Y0273864D01*
X0364732Y0272866D02*
X0364332Y0272866D01*
X0364732Y0271954D02*
X0367544Y0269143D01*
X0371520Y0269143D01*
X0374332Y0271954D01*
X0374332Y0275931D01*
X0371520Y0278743D01*
X0367544Y0278743D01*
X0364732Y0275931D01*
X0364732Y0271954D01*
X0364820Y0271867D02*
X0364332Y0271867D01*
X0364332Y0270869D02*
X0365818Y0270869D01*
X0366817Y0269870D02*
X0364332Y0269870D01*
X0362390Y0267873D02*
X0366675Y0267873D01*
X0367544Y0268743D02*
X0364732Y0265931D01*
X0364732Y0261954D01*
X0367544Y0259143D01*
X0371520Y0259143D01*
X0374332Y0261954D01*
X0374332Y0265931D01*
X0371520Y0268743D01*
X0367544Y0268743D01*
X0365676Y0266875D02*
X0363388Y0266875D01*
X0364332Y0265876D02*
X0364732Y0265876D01*
X0364732Y0264877D02*
X0364332Y0264877D01*
X0364332Y0263879D02*
X0364732Y0263879D01*
X0364732Y0262880D02*
X0364332Y0262880D01*
X0364260Y0261882D02*
X0364805Y0261882D01*
X0365803Y0260883D02*
X0363261Y0260883D01*
X0362263Y0259885D02*
X0366802Y0259885D01*
X0369032Y0258886D02*
X0370032Y0258886D01*
X0370032Y0257888D02*
X0369032Y0257888D01*
X0369032Y0256889D02*
X0370032Y0256889D01*
X0370032Y0255891D02*
X0369032Y0255891D01*
X0369032Y0252895D02*
X0370032Y0252895D01*
X0370032Y0251897D02*
X0369032Y0251897D01*
X0369032Y0250898D02*
X0370032Y0250898D01*
X0370032Y0249900D02*
X0369032Y0249900D01*
X0369032Y0248901D02*
X0370032Y0248901D01*
X0367220Y0248901D02*
X0350008Y0248901D01*
X0349249Y0249900D02*
X0356787Y0249900D01*
X0355788Y0250898D02*
X0348491Y0250898D01*
X0347748Y0251897D02*
X0354790Y0251897D01*
X0362278Y0249900D02*
X0366221Y0249900D01*
X0365223Y0250898D02*
X0363276Y0250898D01*
X0364275Y0251897D02*
X0364332Y0251897D01*
X0364332Y0252895D02*
X0364332Y0252895D01*
X0371942Y0258886D02*
X0391354Y0258886D01*
X0391354Y0257888D02*
X0372941Y0257888D01*
X0373939Y0256889D02*
X0391354Y0256889D01*
X0391354Y0255891D02*
X0374732Y0255891D01*
X0372263Y0259885D02*
X0391354Y0259885D01*
X0391354Y0260883D02*
X0373261Y0260883D01*
X0374260Y0261882D02*
X0391354Y0261882D01*
X0391354Y0262880D02*
X0374332Y0262880D01*
X0374332Y0263879D02*
X0391354Y0263879D01*
X0391354Y0264877D02*
X0374332Y0264877D01*
X0374332Y0265876D02*
X0391354Y0265876D01*
X0391354Y0266875D02*
X0373388Y0266875D01*
X0372390Y0267873D02*
X0391354Y0267873D01*
X0391354Y0268872D02*
X0357440Y0268872D01*
X0359532Y0263943D02*
X0346079Y0279758D01*
X0342142Y0281618D02*
X0342142Y0270240D01*
X0342299Y0270083D01*
X0343742Y0273864D02*
X0348992Y0273864D01*
X0342142Y0281618D02*
X0337969Y0285791D01*
X0337969Y0289217D01*
X0332929Y0284177D01*
X0330961Y0282209D01*
X0318618Y0282209D01*
X0318618Y0284177D02*
X0332929Y0284177D01*
X0333865Y0282851D02*
X0338646Y0282851D01*
X0339454Y0281852D02*
X0332867Y0281852D01*
X0331868Y0280854D02*
X0339550Y0280854D01*
X0337648Y0283849D02*
X0334864Y0283849D01*
X0335862Y0284848D02*
X0336649Y0284848D01*
X0330961Y0282209D02*
X0329268Y0280516D01*
X0328992Y0280240D01*
X0318618Y0280240D01*
X0318618Y0278272D02*
X0327024Y0278272D01*
X0328992Y0280240D01*
X0330870Y0279855D02*
X0331082Y0279855D01*
X0329233Y0277858D02*
X0328873Y0277858D01*
X0329218Y0276860D02*
X0327874Y0276860D01*
X0329587Y0275861D02*
X0322376Y0275861D01*
X0322376Y0274863D02*
X0330306Y0274863D01*
X0330306Y0273864D02*
X0322376Y0273864D01*
X0321756Y0272866D02*
X0330306Y0272866D01*
X0330306Y0271867D02*
X0320701Y0271867D01*
X0320701Y0270869D02*
X0330306Y0270869D01*
X0330306Y0269870D02*
X0320701Y0269870D01*
X0320179Y0268872D02*
X0330306Y0268872D01*
X0330306Y0267873D02*
X0316273Y0267873D01*
X0315765Y0266875D02*
X0330306Y0266875D01*
X0330042Y0265876D02*
X0310474Y0265876D01*
X0310948Y0264877D02*
X0329044Y0264877D01*
X0328045Y0263879D02*
X0316470Y0263879D01*
X0316470Y0262880D02*
X0327047Y0262880D01*
X0326048Y0261882D02*
X0316470Y0261882D01*
X0316470Y0260883D02*
X0325050Y0260883D01*
X0324051Y0259885D02*
X0316470Y0259885D01*
X0316470Y0258886D02*
X0323053Y0258886D01*
X0322054Y0257888D02*
X0316470Y0257888D01*
X0316016Y0256889D02*
X0322038Y0256889D01*
X0323638Y0257209D02*
X0323638Y0252720D01*
X0323165Y0252248D01*
X0320488Y0249571D01*
X0315685Y0249571D01*
X0312617Y0249900D02*
X0308689Y0249900D01*
X0308205Y0249571D02*
X0307969Y0249335D01*
X0307720Y0249900D02*
X0265621Y0249900D01*
X0266441Y0250898D02*
X0304736Y0250898D01*
X0304736Y0250055D02*
X0307720Y0250055D01*
X0307720Y0254024D01*
X0306039Y0254024D01*
X0305657Y0253921D01*
X0305315Y0253724D01*
X0305036Y0253445D01*
X0304838Y0253103D01*
X0304736Y0252721D01*
X0304736Y0250055D01*
X0304736Y0248901D02*
X0256236Y0248901D01*
X0256252Y0248885D02*
X0255311Y0249826D01*
X0255919Y0250434D01*
X0255919Y0253511D01*
X0255870Y0253560D01*
X0256019Y0253709D01*
X0256217Y0254051D01*
X0256319Y0254432D01*
X0256319Y0255671D01*
X0252498Y0255671D01*
X0252498Y0255754D01*
X0256319Y0255754D01*
X0256319Y0256993D01*
X0256217Y0257374D01*
X0256019Y0257716D01*
X0255870Y0257866D01*
X0255919Y0257914D01*
X0255919Y0260991D01*
X0255275Y0261635D01*
X0252163Y0261635D01*
X0243199Y0270600D01*
X0242206Y0271011D01*
X0240353Y0271011D01*
X0241517Y0272175D01*
X0241928Y0273168D01*
X0241928Y0295057D01*
X0241976Y0295407D01*
X0241928Y0295589D01*
X0241928Y0295777D01*
X0241793Y0296104D01*
X0241703Y0296446D01*
X0241589Y0296596D01*
X0241517Y0296770D01*
X0241509Y0296777D01*
X0241509Y0297271D01*
X0240865Y0297915D01*
X0240002Y0297915D01*
X0232768Y0302139D01*
X0232768Y0302770D01*
X0232038Y0304534D01*
X0230687Y0305884D01*
X0228923Y0306615D01*
X0227014Y0306615D01*
X0225250Y0305884D01*
X0223899Y0304534D01*
X0223169Y0302770D01*
X0223169Y0300860D01*
X0223899Y0299096D01*
X0225250Y0297746D01*
X0227014Y0297015D01*
X0228923Y0297015D01*
X0230041Y0297478D01*
X0236528Y0293690D01*
X0236528Y0274823D01*
X0234808Y0273103D01*
X0234789Y0273111D01*
X0232880Y0273111D01*
X0231116Y0272380D01*
X0229765Y0271030D01*
X0229035Y0269266D01*
X0229035Y0267356D01*
X0229765Y0265592D01*
X0231116Y0264242D01*
X0232880Y0263511D01*
X0234789Y0263511D01*
X0236554Y0264242D01*
X0237904Y0265592D01*
X0237912Y0265611D01*
X0240551Y0265611D01*
X0248486Y0257676D01*
X0248797Y0257547D01*
X0248697Y0257374D01*
X0248594Y0256993D01*
X0248594Y0255754D01*
X0252415Y0255754D01*
X0252415Y0255671D01*
X0248594Y0255671D01*
X0248594Y0254432D01*
X0248697Y0254051D01*
X0248894Y0253709D01*
X0249043Y0253560D01*
X0248994Y0253511D01*
X0248994Y0250434D01*
X0249639Y0249790D01*
X0249757Y0249790D01*
X0249757Y0248325D01*
X0250168Y0247333D01*
X0252845Y0244656D01*
X0253604Y0243896D01*
X0254597Y0243485D01*
X0267638Y0243485D01*
X0268680Y0242443D01*
X0268680Y0239194D01*
X0269193Y0238681D01*
X0268859Y0238488D01*
X0268579Y0238208D01*
X0268382Y0237866D01*
X0268280Y0237485D01*
X0268280Y0235228D01*
X0272232Y0235228D01*
X0272232Y0234228D01*
X0273232Y0234228D01*
X0273232Y0230669D01*
X0275883Y0230669D01*
X0276264Y0230772D01*
X0276606Y0230969D01*
X0276885Y0231248D01*
X0277083Y0231590D01*
X0277185Y0231972D01*
X0277185Y0234228D01*
X0273232Y0234228D01*
X0273232Y0235228D01*
X0277185Y0235228D01*
X0277185Y0237485D01*
X0277083Y0237866D01*
X0276885Y0238208D01*
X0276606Y0238488D01*
X0276272Y0238681D01*
X0276785Y0239194D01*
X0276785Y0239509D01*
X0289284Y0239509D01*
X0289284Y0237262D01*
X0289695Y0236270D01*
X0296917Y0229049D01*
X0296909Y0229030D01*
X0296909Y0227120D01*
X0297639Y0225356D01*
X0298990Y0224006D01*
X0300754Y0223275D01*
X0302663Y0223275D01*
X0304428Y0224006D01*
X0305778Y0225356D01*
X0306509Y0227120D01*
X0306509Y0229030D01*
X0305778Y0230794D01*
X0304428Y0232144D01*
X0302663Y0232875D01*
X0300754Y0232875D01*
X0300735Y0232867D01*
X0294684Y0238918D01*
X0294684Y0241919D01*
X0294659Y0241980D01*
X0294659Y0243019D01*
X0294015Y0243663D01*
X0293522Y0243663D01*
X0293514Y0243671D01*
X0292687Y0244498D01*
X0291695Y0244909D01*
X0276785Y0244909D01*
X0276785Y0245223D01*
X0276141Y0245868D01*
X0272892Y0245868D01*
X0270285Y0248474D01*
X0269293Y0248885D01*
X0256252Y0248885D01*
X0255385Y0249900D02*
X0259765Y0249900D01*
X0259231Y0250898D02*
X0255919Y0250898D01*
X0255919Y0251897D02*
X0259231Y0251897D01*
X0259231Y0252895D02*
X0255919Y0252895D01*
X0256126Y0253894D02*
X0259614Y0253894D01*
X0256319Y0254892D02*
X0265098Y0254892D01*
X0265045Y0255891D02*
X0256319Y0255891D01*
X0256319Y0256889D02*
X0265311Y0256889D01*
X0268126Y0255634D02*
X0268126Y0254846D01*
X0265370Y0252091D01*
X0262811Y0252091D01*
X0262693Y0251972D01*
X0267439Y0251897D02*
X0304736Y0251897D01*
X0304783Y0252895D02*
X0269566Y0252895D01*
X0270740Y0253894D02*
X0305610Y0253894D01*
X0307720Y0253894D02*
X0308689Y0253894D01*
X0308689Y0252895D02*
X0307720Y0252895D01*
X0307720Y0251897D02*
X0308689Y0251897D01*
X0308689Y0250898D02*
X0307720Y0250898D01*
X0311673Y0250898D02*
X0312617Y0250898D01*
X0312617Y0251897D02*
X0311673Y0251897D01*
X0311627Y0252895D02*
X0312617Y0252895D01*
X0310800Y0253894D02*
X0319506Y0253894D01*
X0319506Y0254892D02*
X0271154Y0254892D01*
X0271207Y0255891D02*
X0319741Y0255891D01*
X0319506Y0252895D02*
X0318754Y0252895D01*
X0318754Y0251897D02*
X0319506Y0251897D01*
X0318754Y0247903D02*
X0326711Y0247903D01*
X0329358Y0247903D02*
X0330358Y0247903D01*
X0330358Y0248901D02*
X0329358Y0248901D01*
X0329358Y0249900D02*
X0330358Y0249900D01*
X0330358Y0250898D02*
X0329358Y0250898D01*
X0333917Y0252895D02*
X0337177Y0252895D01*
X0340088Y0246904D02*
X0318754Y0246904D01*
X0318754Y0245906D02*
X0339848Y0245906D01*
X0339993Y0244907D02*
X0318754Y0244907D01*
X0318754Y0243909D02*
X0340617Y0243909D01*
X0340935Y0242910D02*
X0318754Y0242910D01*
X0318754Y0241912D02*
X0340935Y0241912D01*
X0340935Y0240913D02*
X0318754Y0240913D01*
X0318754Y0239915D02*
X0340935Y0239915D01*
X0340935Y0238916D02*
X0318754Y0238916D01*
X0318754Y0237918D02*
X0340935Y0237918D01*
X0342535Y0232957D02*
X0344268Y0231224D01*
X0342535Y0232957D02*
X0342535Y0245791D01*
X0356453Y0226934D02*
X0362083Y0226934D01*
X0366453Y0226934D02*
X0372083Y0226934D01*
X0370771Y0227933D02*
X0367764Y0227933D01*
X0368513Y0228931D02*
X0370022Y0228931D01*
X0369609Y0229930D02*
X0368927Y0229930D01*
X0369068Y0230928D02*
X0369468Y0230928D01*
X0369468Y0231927D02*
X0369068Y0231927D01*
X0368759Y0232925D02*
X0369777Y0232925D01*
X0370190Y0233924D02*
X0368345Y0233924D01*
X0367358Y0234922D02*
X0371177Y0234922D01*
X0377358Y0234922D02*
X0380612Y0234922D01*
X0379807Y0233924D02*
X0378345Y0233924D01*
X0378759Y0232925D02*
X0379353Y0232925D01*
X0379114Y0231927D02*
X0379068Y0231927D01*
X0379068Y0230928D02*
X0383768Y0230928D01*
X0383768Y0230724D02*
X0379082Y0230724D01*
X0379196Y0230007D01*
X0379449Y0229228D01*
X0379820Y0228499D01*
X0380301Y0227837D01*
X0380880Y0227258D01*
X0381542Y0226777D01*
X0382272Y0226405D01*
X0383050Y0226152D01*
X0383768Y0226039D01*
X0383768Y0230724D01*
X0383768Y0229930D02*
X0384768Y0229930D01*
X0384768Y0228931D02*
X0383768Y0228931D01*
X0383768Y0227933D02*
X0384768Y0227933D01*
X0384768Y0226934D02*
X0383768Y0226934D01*
X0381326Y0226934D02*
X0376453Y0226934D01*
X0377764Y0227933D02*
X0380232Y0227933D01*
X0379600Y0228931D02*
X0378513Y0228931D01*
X0378927Y0229930D02*
X0379221Y0229930D01*
X0372248Y0269870D02*
X0391354Y0269870D01*
X0391354Y0270869D02*
X0373247Y0270869D01*
X0374245Y0271867D02*
X0391354Y0271867D01*
X0391354Y0272866D02*
X0374332Y0272866D01*
X0374332Y0273864D02*
X0382743Y0273864D01*
X0382916Y0273691D02*
X0384049Y0273222D01*
X0385274Y0273222D01*
X0386407Y0273691D01*
X0387273Y0274558D01*
X0387743Y0275690D01*
X0387743Y0276916D01*
X0387361Y0277836D01*
X0387361Y0281132D01*
X0386950Y0282124D01*
X0379346Y0289728D01*
X0385780Y0296162D01*
X0385986Y0296162D01*
X0386978Y0296573D01*
X0387738Y0297333D01*
X0387855Y0297616D01*
X0388168Y0297746D01*
X0389518Y0299096D01*
X0390249Y0300860D01*
X0390249Y0302770D01*
X0389518Y0304534D01*
X0388168Y0305884D01*
X0386404Y0306615D01*
X0384494Y0306615D01*
X0382730Y0305884D01*
X0381380Y0304534D01*
X0380649Y0302770D01*
X0380649Y0300860D01*
X0381291Y0299310D01*
X0374384Y0292403D01*
X0373891Y0292403D01*
X0373246Y0291759D01*
X0373246Y0291266D01*
X0373239Y0291258D01*
X0372828Y0290265D01*
X0372828Y0289191D01*
X0373239Y0288199D01*
X0373246Y0288191D01*
X0373246Y0287698D01*
X0373891Y0287054D01*
X0374384Y0287054D01*
X0381961Y0279476D01*
X0381961Y0277836D01*
X0381580Y0276916D01*
X0381580Y0275690D01*
X0382049Y0274558D01*
X0382916Y0273691D01*
X0381923Y0274863D02*
X0374332Y0274863D01*
X0374332Y0275861D02*
X0381580Y0275861D01*
X0381580Y0276860D02*
X0373403Y0276860D01*
X0372405Y0277858D02*
X0381961Y0277858D01*
X0381961Y0278857D02*
X0361065Y0278857D01*
X0361065Y0279855D02*
X0381582Y0279855D01*
X0380584Y0280854D02*
X0361065Y0280854D01*
X0361065Y0281852D02*
X0379585Y0281852D01*
X0378587Y0282851D02*
X0361065Y0282851D01*
X0361122Y0283849D02*
X0377588Y0283849D01*
X0376590Y0284848D02*
X0360923Y0284848D01*
X0359465Y0283980D02*
X0352378Y0288705D01*
X0352378Y0293035D01*
X0347260Y0302484D01*
X0347260Y0313508D01*
X0341748Y0317445D01*
X0338795Y0319610D01*
X0329469Y0319610D01*
X0329469Y0323547D02*
X0353441Y0323547D01*
X0353509Y0323615D01*
X0355487Y0321793D02*
X0356943Y0321793D01*
X0356076Y0322791D02*
X0357942Y0322791D01*
X0358940Y0323790D02*
X0356196Y0323790D01*
X0355932Y0324788D02*
X0359939Y0324788D01*
X0360412Y0325787D02*
X0355137Y0325787D01*
X0351880Y0325787D02*
X0350143Y0325787D01*
X0351142Y0326785D02*
X0360517Y0326785D01*
X0360685Y0323272D02*
X0352772Y0315358D01*
X0348126Y0319807D01*
X0345685Y0319807D01*
X0347500Y0321793D02*
X0351530Y0321793D01*
X0350451Y0319796D02*
X0354946Y0319796D01*
X0355945Y0320794D02*
X0349409Y0320794D01*
X0347509Y0325415D02*
X0329569Y0325415D01*
X0329469Y0325516D01*
X0329469Y0327484D02*
X0337811Y0327484D01*
X0356551Y0346618D01*
X0356551Y0357484D01*
X0352498Y0357739D02*
X0344372Y0357739D01*
X0344372Y0356741D02*
X0352498Y0356741D01*
X0352498Y0355742D02*
X0344372Y0355742D01*
X0344372Y0354744D02*
X0352498Y0354744D01*
X0354951Y0353745D02*
X0344372Y0353745D01*
X0344372Y0352746D02*
X0354951Y0352746D01*
X0354951Y0351748D02*
X0344062Y0351748D01*
X0344372Y0352058D02*
X0344372Y0370124D01*
X0346180Y0370124D01*
X0346824Y0370769D01*
X0346824Y0376798D01*
X0346311Y0377311D01*
X0346645Y0377504D01*
X0346925Y0377784D01*
X0347122Y0378126D01*
X0347224Y0378507D01*
X0347224Y0380764D01*
X0343272Y0380764D01*
X0343272Y0381764D01*
X0347224Y0381764D01*
X0347224Y0384020D01*
X0347122Y0384402D01*
X0346925Y0384744D01*
X0346645Y0385023D01*
X0346303Y0385221D01*
X0345922Y0385323D01*
X0343272Y0385323D01*
X0343272Y0381764D01*
X0342272Y0381764D01*
X0342272Y0385323D01*
X0339621Y0385323D01*
X0339240Y0385221D01*
X0338898Y0385023D01*
X0338619Y0384744D01*
X0338421Y0384402D01*
X0338319Y0384020D01*
X0338319Y0381764D01*
X0342272Y0381764D01*
X0342272Y0380764D01*
X0338319Y0380764D01*
X0338319Y0378507D01*
X0338421Y0378126D01*
X0338619Y0377784D01*
X0338898Y0377504D01*
X0339232Y0377311D01*
X0338719Y0376798D01*
X0338719Y0370769D01*
X0339363Y0370124D01*
X0341172Y0370124D01*
X0341172Y0368112D01*
X0336135Y0368112D01*
X0335491Y0367467D01*
X0335491Y0359076D01*
X0336135Y0358431D01*
X0341172Y0358431D01*
X0341172Y0353545D01*
X0336135Y0353545D01*
X0335491Y0352901D01*
X0335491Y0344509D01*
X0336135Y0343865D01*
X0336393Y0343865D01*
X0336108Y0343176D01*
X0336108Y0342107D01*
X0336517Y0341119D01*
X0337273Y0340363D01*
X0338261Y0339954D01*
X0339330Y0339954D01*
X0340318Y0340363D01*
X0341074Y0341119D01*
X0341483Y0342107D01*
X0341483Y0343176D01*
X0341198Y0343865D01*
X0341377Y0343865D01*
X0342021Y0344509D01*
X0342021Y0349707D01*
X0344372Y0352058D01*
X0342772Y0352720D02*
X0338756Y0348705D01*
X0338756Y0342681D01*
X0338795Y0342642D01*
X0336872Y0340764D02*
X0326667Y0340764D01*
X0326667Y0339766D02*
X0337152Y0339766D01*
X0338470Y0339766D02*
X0347600Y0339766D01*
X0346622Y0338767D02*
X0339974Y0338767D01*
X0340455Y0337769D02*
X0345644Y0337769D01*
X0344666Y0336770D02*
X0340498Y0336770D01*
X0340157Y0335772D02*
X0343688Y0335772D01*
X0342711Y0334773D02*
X0339244Y0334773D01*
X0339922Y0333775D02*
X0341733Y0333775D01*
X0340755Y0332776D02*
X0340105Y0332776D01*
X0337417Y0332799D02*
X0336827Y0333390D01*
X0329469Y0333390D01*
X0329469Y0335358D02*
X0329665Y0335555D01*
X0334071Y0335555D01*
X0335646Y0337130D01*
X0337811Y0337130D01*
X0335648Y0338767D02*
X0333210Y0338767D01*
X0333643Y0337769D02*
X0334022Y0337769D01*
X0336250Y0341763D02*
X0326667Y0341763D01*
X0326667Y0342761D02*
X0336108Y0342761D01*
X0336350Y0343760D02*
X0326667Y0343760D01*
X0326435Y0345757D02*
X0326220Y0345757D01*
X0326435Y0346755D02*
X0322679Y0346755D01*
X0322679Y0347754D02*
X0326435Y0347754D01*
X0326435Y0348752D02*
X0322679Y0348752D01*
X0322679Y0349751D02*
X0326435Y0349751D01*
X0326435Y0350749D02*
X0322679Y0350749D01*
X0322679Y0351748D02*
X0326435Y0351748D01*
X0326435Y0352746D02*
X0322679Y0352746D01*
X0322679Y0353745D02*
X0341172Y0353745D01*
X0341172Y0354744D02*
X0322679Y0354744D01*
X0322679Y0355742D02*
X0341172Y0355742D01*
X0341172Y0356741D02*
X0325592Y0356741D01*
X0325554Y0356702D02*
X0326310Y0357458D01*
X0326719Y0358446D01*
X0326719Y0358792D01*
X0327080Y0358431D01*
X0332322Y0358431D01*
X0332966Y0359076D01*
X0332966Y0364274D01*
X0333269Y0364577D01*
X0333269Y0370046D01*
X0335078Y0370046D01*
X0335722Y0370690D01*
X0335722Y0376719D01*
X0335209Y0377233D01*
X0335543Y0377426D01*
X0335822Y0377705D01*
X0336020Y0378047D01*
X0336122Y0378428D01*
X0336122Y0380685D01*
X0332169Y0380685D01*
X0332169Y0381685D01*
X0331169Y0381685D01*
X0331169Y0380685D01*
X0327217Y0380685D01*
X0327217Y0378428D01*
X0327319Y0378047D01*
X0327516Y0377705D01*
X0327796Y0377426D01*
X0328130Y0377233D01*
X0327617Y0376719D01*
X0327617Y0370690D01*
X0328261Y0370046D01*
X0330069Y0370046D01*
X0330069Y0368112D01*
X0327080Y0368112D01*
X0326435Y0367467D01*
X0326435Y0363647D01*
X0325295Y0362507D01*
X0325295Y0364756D01*
X0322311Y0364756D01*
X0322311Y0361060D01*
X0321753Y0360503D01*
X0321344Y0359515D01*
X0321344Y0358446D01*
X0321753Y0357458D01*
X0322509Y0356702D01*
X0323497Y0356293D01*
X0324566Y0356293D01*
X0325554Y0356702D01*
X0326426Y0357739D02*
X0341172Y0357739D01*
X0344372Y0358738D02*
X0352498Y0358738D01*
X0352498Y0359736D02*
X0344372Y0359736D01*
X0344372Y0360735D02*
X0352734Y0360735D01*
X0352498Y0361733D02*
X0344372Y0361733D01*
X0344372Y0362732D02*
X0352498Y0362732D01*
X0352498Y0363730D02*
X0344372Y0363730D01*
X0344372Y0364729D02*
X0352498Y0364729D01*
X0352498Y0365727D02*
X0344372Y0365727D01*
X0344372Y0366726D02*
X0352498Y0366726D01*
X0353031Y0367724D02*
X0344372Y0367724D01*
X0344372Y0368723D02*
X0354951Y0368723D01*
X0354951Y0369721D02*
X0344372Y0369721D01*
X0346775Y0370720D02*
X0353532Y0370720D01*
X0353010Y0371718D02*
X0346824Y0371718D01*
X0346824Y0372717D02*
X0353010Y0372717D01*
X0353010Y0373715D02*
X0346824Y0373715D01*
X0346824Y0374714D02*
X0353010Y0374714D01*
X0353010Y0375712D02*
X0346824Y0375712D01*
X0346824Y0376711D02*
X0353010Y0376711D01*
X0353531Y0378567D02*
X0353913Y0378465D01*
X0355972Y0378465D01*
X0355972Y0381827D01*
X0352610Y0381827D01*
X0352610Y0379767D01*
X0352712Y0379386D01*
X0352910Y0379044D01*
X0353189Y0378764D01*
X0353531Y0378567D01*
X0353287Y0378708D02*
X0347224Y0378708D01*
X0347224Y0379706D02*
X0352627Y0379706D01*
X0352610Y0380705D02*
X0347224Y0380705D01*
X0347224Y0382702D02*
X0355972Y0382702D01*
X0355972Y0382827D02*
X0355972Y0381827D01*
X0356972Y0381827D01*
X0356972Y0378465D01*
X0359032Y0378465D01*
X0359414Y0378567D01*
X0359756Y0378764D01*
X0360035Y0379044D01*
X0360232Y0379386D01*
X0360335Y0379767D01*
X0360335Y0381827D01*
X0356972Y0381827D01*
X0356972Y0382827D01*
X0355972Y0382827D01*
X0352610Y0382827D01*
X0352610Y0384886D01*
X0352712Y0385268D01*
X0352910Y0385610D01*
X0353189Y0385889D01*
X0353531Y0386087D01*
X0353913Y0386189D01*
X0355972Y0386189D01*
X0355972Y0382827D01*
X0355972Y0383700D02*
X0356972Y0383700D01*
X0356972Y0382827D02*
X0356972Y0386189D01*
X0359032Y0386189D01*
X0359414Y0386087D01*
X0359756Y0385889D01*
X0360035Y0385610D01*
X0360232Y0385268D01*
X0360335Y0384886D01*
X0360335Y0382827D01*
X0356972Y0382827D01*
X0356972Y0382702D02*
X0367587Y0382702D01*
X0367587Y0382417D02*
X0364224Y0382417D01*
X0364224Y0380358D01*
X0364327Y0379976D01*
X0364524Y0379634D01*
X0364803Y0379355D01*
X0365145Y0379157D01*
X0365527Y0379055D01*
X0367587Y0379055D01*
X0367587Y0382417D01*
X0368587Y0382417D01*
X0368587Y0383417D01*
X0371949Y0383417D01*
X0371949Y0385477D01*
X0371847Y0385859D01*
X0371649Y0386201D01*
X0371370Y0386480D01*
X0371028Y0386677D01*
X0370646Y0386780D01*
X0368587Y0386780D01*
X0368587Y0383417D01*
X0367587Y0383417D01*
X0367587Y0382417D01*
X0367587Y0381703D02*
X0368587Y0381703D01*
X0368587Y0382417D02*
X0368587Y0379055D01*
X0370646Y0379055D01*
X0371028Y0379157D01*
X0371370Y0379355D01*
X0371649Y0379634D01*
X0371847Y0379976D01*
X0371949Y0380358D01*
X0371949Y0382417D01*
X0368587Y0382417D01*
X0368587Y0382702D02*
X0391354Y0382702D01*
X0391354Y0383700D02*
X0371949Y0383700D01*
X0371949Y0384699D02*
X0391354Y0384699D01*
X0391354Y0385697D02*
X0371890Y0385697D01*
X0370958Y0386696D02*
X0391354Y0386696D01*
X0391354Y0387694D02*
X0316018Y0387694D01*
X0316432Y0386696D02*
X0365215Y0386696D01*
X0365145Y0386677D02*
X0364803Y0386480D01*
X0364524Y0386201D01*
X0364327Y0385859D01*
X0364224Y0385477D01*
X0364224Y0383417D01*
X0367587Y0383417D01*
X0367587Y0386780D01*
X0365527Y0386780D01*
X0365145Y0386677D01*
X0364283Y0385697D02*
X0359948Y0385697D01*
X0360335Y0384699D02*
X0364224Y0384699D01*
X0364224Y0383700D02*
X0360335Y0383700D01*
X0360335Y0381703D02*
X0364224Y0381703D01*
X0364224Y0380705D02*
X0360335Y0380705D01*
X0360318Y0379706D02*
X0364482Y0379706D01*
X0364866Y0377709D02*
X0346850Y0377709D01*
X0343272Y0381703D02*
X0352610Y0381703D01*
X0352610Y0383700D02*
X0347224Y0383700D01*
X0346951Y0384699D02*
X0352610Y0384699D01*
X0352997Y0385697D02*
X0316509Y0385697D01*
X0316509Y0384699D02*
X0327550Y0384699D01*
X0327516Y0384665D02*
X0327319Y0384323D01*
X0327217Y0383942D01*
X0327217Y0381685D01*
X0331169Y0381685D01*
X0331169Y0385244D01*
X0328519Y0385244D01*
X0328138Y0385142D01*
X0327796Y0384944D01*
X0327516Y0384665D01*
X0327217Y0383700D02*
X0316136Y0383700D01*
X0316637Y0382702D02*
X0327217Y0382702D01*
X0327217Y0381703D02*
X0317153Y0381703D01*
X0317669Y0380705D02*
X0331169Y0380705D01*
X0331169Y0381703D02*
X0332169Y0381703D01*
X0332169Y0381685D02*
X0332169Y0385244D01*
X0334820Y0385244D01*
X0335201Y0385142D01*
X0335543Y0384944D01*
X0335822Y0384665D01*
X0336020Y0384323D01*
X0336122Y0383942D01*
X0336122Y0381685D01*
X0332169Y0381685D01*
X0332169Y0380705D02*
X0338319Y0380705D01*
X0338319Y0379706D02*
X0336122Y0379706D01*
X0336122Y0378708D02*
X0338319Y0378708D01*
X0338693Y0377709D02*
X0335825Y0377709D01*
X0335722Y0376711D02*
X0338719Y0376711D01*
X0338719Y0375712D02*
X0335722Y0375712D01*
X0335722Y0374714D02*
X0338719Y0374714D01*
X0338719Y0373715D02*
X0335722Y0373715D01*
X0335722Y0372717D02*
X0338719Y0372717D01*
X0338719Y0371718D02*
X0335722Y0371718D01*
X0335722Y0370720D02*
X0338768Y0370720D01*
X0341172Y0369721D02*
X0333269Y0369721D01*
X0333269Y0368723D02*
X0341172Y0368723D01*
X0342772Y0373783D02*
X0342772Y0352720D01*
X0343063Y0350749D02*
X0354951Y0350749D01*
X0354951Y0349751D02*
X0342065Y0349751D01*
X0342021Y0348752D02*
X0354951Y0348752D01*
X0354951Y0347754D02*
X0342021Y0347754D01*
X0342021Y0346755D02*
X0354446Y0346755D01*
X0353468Y0345757D02*
X0342021Y0345757D01*
X0342021Y0344758D02*
X0352490Y0344758D01*
X0351512Y0343760D02*
X0341241Y0343760D01*
X0341483Y0342761D02*
X0350534Y0342761D01*
X0349556Y0341763D02*
X0341340Y0341763D01*
X0340718Y0340764D02*
X0348578Y0340764D01*
X0351102Y0338767D02*
X0358598Y0338767D01*
X0357600Y0337769D02*
X0350124Y0337769D01*
X0349146Y0336770D02*
X0356601Y0336770D01*
X0355603Y0335772D02*
X0348168Y0335772D01*
X0347190Y0334773D02*
X0354604Y0334773D01*
X0353606Y0333775D02*
X0346212Y0333775D01*
X0345234Y0332776D02*
X0352607Y0332776D01*
X0351609Y0331778D02*
X0344256Y0331778D01*
X0343278Y0330779D02*
X0350610Y0330779D01*
X0349612Y0329781D02*
X0342300Y0329781D01*
X0341322Y0328782D02*
X0348613Y0328782D01*
X0347615Y0327784D02*
X0340344Y0327784D01*
X0338277Y0330246D02*
X0337139Y0329084D01*
X0333643Y0329084D01*
X0333643Y0329849D01*
X0333744Y0329949D01*
X0333941Y0330291D01*
X0334043Y0330673D01*
X0334043Y0331421D01*
X0329469Y0331421D01*
X0329469Y0331421D01*
X0334043Y0331421D01*
X0334043Y0331790D01*
X0334927Y0331790D01*
X0335139Y0331277D01*
X0335895Y0330521D01*
X0336883Y0330112D01*
X0337952Y0330112D01*
X0338277Y0330246D01*
X0337821Y0329781D02*
X0333643Y0329781D01*
X0334043Y0330779D02*
X0335637Y0330779D01*
X0334932Y0331778D02*
X0334043Y0331778D01*
X0329468Y0331421D02*
X0329468Y0331421D01*
X0324894Y0331421D01*
X0324894Y0330930D01*
X0324818Y0330942D01*
X0324665Y0330832D01*
X0324477Y0330824D01*
X0324143Y0330458D01*
X0321380Y0328475D01*
X0321404Y0328534D01*
X0321404Y0329195D01*
X0324894Y0332041D01*
X0324894Y0331421D01*
X0329468Y0331421D01*
X0329469Y0329453D02*
X0325213Y0329256D01*
X0316157Y0322760D01*
X0298047Y0322760D01*
X0305331Y0331815D01*
X0305331Y0331618D01*
X0309858Y0331618D01*
X0315173Y0336539D01*
X0315173Y0341780D01*
X0313205Y0341779D02*
X0313205Y0337205D01*
X0313537Y0337205D01*
X0309231Y0333218D01*
X0306931Y0333218D01*
X0306931Y0337205D01*
X0307299Y0337205D01*
X0307299Y0341779D01*
X0307299Y0341779D01*
X0307299Y0337205D01*
X0308048Y0337205D01*
X0308429Y0337307D01*
X0308771Y0337504D01*
X0308872Y0337605D01*
X0311632Y0337605D01*
X0311733Y0337504D01*
X0312075Y0337307D01*
X0312456Y0337205D01*
X0313205Y0337205D01*
X0313205Y0341779D01*
X0313205Y0341779D01*
X0313205Y0341763D02*
X0313205Y0341763D01*
X0313205Y0340764D02*
X0313205Y0340764D01*
X0313205Y0339766D02*
X0313205Y0339766D01*
X0313205Y0338767D02*
X0313205Y0338767D01*
X0313205Y0337769D02*
X0313205Y0337769D01*
X0313068Y0336770D02*
X0306931Y0336770D01*
X0306931Y0335772D02*
X0311989Y0335772D01*
X0310911Y0334773D02*
X0306931Y0334773D01*
X0306931Y0333775D02*
X0309832Y0333775D01*
X0307299Y0337769D02*
X0307299Y0337769D01*
X0307299Y0338767D02*
X0307299Y0338767D01*
X0307299Y0339766D02*
X0307299Y0339766D01*
X0307299Y0340764D02*
X0307299Y0340764D01*
X0307299Y0341763D02*
X0307299Y0341763D01*
X0305331Y0341780D02*
X0305331Y0331815D01*
X0303731Y0332379D02*
X0298155Y0325447D01*
X0297513Y0325447D01*
X0296525Y0325038D01*
X0295769Y0324282D01*
X0295360Y0323294D01*
X0295360Y0322225D01*
X0295769Y0321238D01*
X0296525Y0320482D01*
X0297513Y0320072D01*
X0298582Y0320072D01*
X0299570Y0320482D01*
X0300248Y0321160D01*
X0316027Y0321160D01*
X0316552Y0321073D01*
X0316672Y0321160D01*
X0316820Y0321160D01*
X0317196Y0321536D01*
X0325294Y0327345D01*
X0325294Y0317621D01*
X0325160Y0317755D01*
X0324172Y0318164D01*
X0323213Y0318164D01*
X0321545Y0319832D01*
X0298566Y0319832D01*
X0297628Y0318895D01*
X0296007Y0317273D01*
X0295210Y0317273D01*
X0295210Y0318038D01*
X0295311Y0318138D01*
X0295508Y0318480D01*
X0295610Y0318862D01*
X0295610Y0319610D01*
X0291036Y0319610D01*
X0291036Y0319610D01*
X0295610Y0319610D01*
X0295610Y0320359D01*
X0295508Y0320740D01*
X0295311Y0321082D01*
X0295210Y0321183D01*
X0295210Y0323943D01*
X0295311Y0324044D01*
X0295508Y0324386D01*
X0295610Y0324767D01*
X0295610Y0325516D01*
X0295610Y0326264D01*
X0295508Y0326646D01*
X0295311Y0326988D01*
X0295210Y0327088D01*
X0295210Y0337605D01*
X0299821Y0337605D01*
X0299921Y0337504D01*
X0300264Y0337307D01*
X0300645Y0337205D01*
X0301394Y0337205D01*
X0302142Y0337205D01*
X0302524Y0337307D01*
X0302866Y0337504D01*
X0302966Y0337605D01*
X0303731Y0337605D01*
X0303731Y0332379D01*
X0303731Y0332776D02*
X0295210Y0332776D01*
X0295210Y0331778D02*
X0303247Y0331778D01*
X0302444Y0330779D02*
X0295210Y0330779D01*
X0295210Y0329781D02*
X0301641Y0329781D01*
X0300838Y0328782D02*
X0295210Y0328782D01*
X0295210Y0327784D02*
X0300035Y0327784D01*
X0299232Y0326785D02*
X0295428Y0326785D01*
X0295610Y0325787D02*
X0298429Y0325787D01*
X0296275Y0324788D02*
X0295610Y0324788D01*
X0295610Y0325516D02*
X0291036Y0325516D01*
X0295610Y0325516D01*
X0295565Y0323790D02*
X0295210Y0323790D01*
X0295210Y0322791D02*
X0295360Y0322791D01*
X0295210Y0321793D02*
X0295539Y0321793D01*
X0295477Y0320794D02*
X0296212Y0320794D01*
X0295610Y0319796D02*
X0298529Y0319796D01*
X0297530Y0318797D02*
X0295593Y0318797D01*
X0295210Y0317799D02*
X0296532Y0317799D01*
X0296669Y0315673D02*
X0299228Y0318232D01*
X0320882Y0318232D01*
X0323638Y0315476D01*
X0323638Y0315673D01*
X0323441Y0315673D02*
X0323638Y0315476D01*
X0325054Y0317799D02*
X0325294Y0317799D01*
X0325294Y0318797D02*
X0322580Y0318797D01*
X0321581Y0319796D02*
X0325294Y0319796D01*
X0325294Y0320794D02*
X0299882Y0320794D01*
X0296669Y0315673D02*
X0291035Y0315673D01*
X0291035Y0319610D02*
X0286461Y0319610D01*
X0291035Y0319610D01*
X0291035Y0319610D01*
X0291035Y0321579D02*
X0282693Y0321579D01*
X0279150Y0324925D01*
X0279150Y0330831D01*
X0266162Y0343819D01*
X0263012Y0343819D01*
X0265132Y0340764D02*
X0266953Y0340764D01*
X0267952Y0339766D02*
X0264134Y0339766D01*
X0261333Y0339766D02*
X0222063Y0339766D01*
X0222063Y0340764D02*
X0260335Y0340764D01*
X0259336Y0341763D02*
X0242247Y0341763D01*
X0243322Y0342761D02*
X0258338Y0342761D01*
X0257339Y0343760D02*
X0243728Y0343760D01*
X0244144Y0344758D02*
X0242729Y0344758D01*
X0243145Y0345757D02*
X0241731Y0345757D01*
X0241726Y0346755D02*
X0242146Y0346755D01*
X0240732Y0346755D02*
X0240312Y0346755D01*
X0240728Y0345757D02*
X0239314Y0345757D01*
X0239729Y0344758D02*
X0238315Y0344758D01*
X0237696Y0344758D02*
X0222063Y0344758D01*
X0222063Y0343760D02*
X0238731Y0343760D01*
X0239693Y0342761D02*
X0222063Y0342761D01*
X0222063Y0341763D02*
X0240768Y0341763D01*
X0245319Y0344758D02*
X0256341Y0344758D01*
X0255342Y0345757D02*
X0246318Y0345757D01*
X0246627Y0346755D02*
X0254344Y0346755D01*
X0253345Y0347754D02*
X0247749Y0347754D01*
X0248748Y0348752D02*
X0253306Y0348752D01*
X0254304Y0349751D02*
X0249746Y0349751D01*
X0250745Y0350749D02*
X0253819Y0350749D01*
X0252820Y0351748D02*
X0251516Y0351748D01*
X0251202Y0352746D02*
X0252565Y0352746D01*
X0252565Y0353745D02*
X0250203Y0353745D01*
X0251080Y0354744D02*
X0252118Y0354744D01*
X0250062Y0355995D02*
X0252356Y0358289D01*
X0254165Y0356479D02*
X0254165Y0352666D01*
X0258279Y0348551D01*
X0260814Y0351748D02*
X0270099Y0351748D01*
X0269101Y0352746D02*
X0259816Y0352746D01*
X0257300Y0352746D02*
X0256347Y0352746D01*
X0255765Y0353745D02*
X0268102Y0353745D01*
X0267104Y0354744D02*
X0255765Y0354744D01*
X0255958Y0355742D02*
X0266105Y0355742D01*
X0265107Y0356741D02*
X0256866Y0356741D01*
X0256688Y0357739D02*
X0264108Y0357739D01*
X0263153Y0358738D02*
X0258954Y0358738D01*
X0257032Y0358738D02*
X0255689Y0358738D01*
X0255635Y0359736D02*
X0254691Y0359736D01*
X0254636Y0360569D02*
X0256810Y0362743D01*
X0260252Y0366185D01*
X0260252Y0367839D01*
X0258040Y0365727D02*
X0295484Y0365727D01*
X0295484Y0364729D02*
X0259172Y0364729D01*
X0258796Y0364729D02*
X0258795Y0364729D01*
X0257797Y0363730D02*
X0257797Y0363730D01*
X0256810Y0362743D02*
X0254636Y0360569D01*
X0254801Y0360735D02*
X0254802Y0360735D01*
X0254470Y0360735D02*
X0253692Y0360735D01*
X0253759Y0361733D02*
X0252694Y0361733D01*
X0253038Y0362732D02*
X0251695Y0362732D01*
X0250649Y0362732D02*
X0249767Y0362732D01*
X0248441Y0360358D02*
X0248701Y0360098D01*
X0250546Y0360098D01*
X0252300Y0363730D02*
X0244849Y0363730D01*
X0244849Y0364729D02*
X0252647Y0364729D01*
X0253645Y0365727D02*
X0245083Y0365727D01*
X0246081Y0366726D02*
X0254644Y0366726D01*
X0256610Y0366726D02*
X0295484Y0366726D01*
X0295484Y0366816D02*
X0295484Y0364165D01*
X0299043Y0364165D01*
X0299043Y0368118D01*
X0296787Y0368118D01*
X0296405Y0368016D01*
X0296063Y0367818D01*
X0295784Y0367539D01*
X0295586Y0367197D01*
X0295484Y0366816D01*
X0295969Y0367724D02*
X0247080Y0367724D01*
X0248078Y0368723D02*
X0311278Y0368723D01*
X0311278Y0369721D02*
X0249077Y0369721D01*
X0250075Y0370720D02*
X0311278Y0370720D01*
X0311278Y0367724D02*
X0303118Y0367724D01*
X0300043Y0367724D02*
X0299043Y0367724D01*
X0299043Y0366726D02*
X0300043Y0366726D01*
X0300043Y0365727D02*
X0299043Y0365727D01*
X0299043Y0364729D02*
X0300043Y0364729D01*
X0299543Y0363665D02*
X0297811Y0361933D01*
X0290173Y0361933D01*
X0284661Y0356421D01*
X0284661Y0354846D01*
X0278757Y0353745D02*
X0295609Y0353745D01*
X0295609Y0354744D02*
X0278567Y0354744D01*
X0277568Y0355742D02*
X0295609Y0355742D01*
X0295609Y0356741D02*
X0276570Y0356741D01*
X0275571Y0357739D02*
X0295723Y0357739D01*
X0296405Y0359315D02*
X0296787Y0359213D01*
X0299043Y0359213D01*
X0299043Y0363165D01*
X0295484Y0363165D01*
X0295484Y0360515D01*
X0295586Y0360134D01*
X0295784Y0359792D01*
X0296063Y0359512D01*
X0296405Y0359315D01*
X0295839Y0359736D02*
X0273574Y0359736D01*
X0272576Y0360735D02*
X0295484Y0360735D01*
X0295484Y0361733D02*
X0271577Y0361733D01*
X0270579Y0362732D02*
X0295484Y0362732D01*
X0299043Y0362732D02*
X0300043Y0362732D01*
X0300043Y0361733D02*
X0299043Y0361733D01*
X0299043Y0360735D02*
X0300043Y0360735D01*
X0300043Y0359736D02*
X0299043Y0359736D01*
X0299043Y0363730D02*
X0259867Y0363730D01*
X0260604Y0362732D02*
X0268033Y0362732D01*
X0267034Y0361733D02*
X0264683Y0361733D01*
X0265682Y0360735D02*
X0266036Y0360735D01*
X0263220Y0360933D02*
X0266551Y0357602D01*
X0268078Y0357602D01*
X0269027Y0358551D01*
X0274573Y0358738D02*
X0315437Y0358738D01*
X0314438Y0359736D02*
X0309374Y0359736D01*
X0309895Y0360735D02*
X0313440Y0360735D01*
X0311377Y0361733D02*
X0309895Y0361733D01*
X0312772Y0363665D02*
X0306236Y0363665D01*
X0309895Y0365727D02*
X0311278Y0365727D01*
X0311278Y0366726D02*
X0309895Y0366726D01*
X0312772Y0363665D02*
X0321079Y0355358D01*
X0321079Y0341780D01*
X0323047Y0341780D02*
X0323047Y0337720D01*
X0309858Y0326697D01*
X0317554Y0321793D02*
X0325294Y0321793D01*
X0325294Y0322791D02*
X0318946Y0322791D01*
X0320338Y0323790D02*
X0325294Y0323790D01*
X0325294Y0324788D02*
X0321730Y0324788D01*
X0323122Y0325787D02*
X0325294Y0325787D01*
X0325294Y0326785D02*
X0324513Y0326785D01*
X0323199Y0329781D02*
X0322122Y0329781D01*
X0321807Y0328782D02*
X0321404Y0328782D01*
X0318717Y0329069D02*
X0325016Y0334206D01*
X0325016Y0341780D01*
X0319479Y0346755D02*
X0314608Y0346755D01*
X0314608Y0347754D02*
X0319479Y0347754D01*
X0319479Y0348752D02*
X0314608Y0348752D01*
X0316072Y0349751D02*
X0319479Y0349751D01*
X0319479Y0350749D02*
X0317436Y0350749D01*
X0317859Y0351748D02*
X0319479Y0351748D01*
X0319479Y0352746D02*
X0317861Y0352746D01*
X0317478Y0353745D02*
X0319479Y0353745D01*
X0319431Y0354744D02*
X0316266Y0354744D01*
X0314080Y0354744D02*
X0310807Y0354744D01*
X0310807Y0355742D02*
X0318432Y0355742D01*
X0317434Y0356741D02*
X0310807Y0356741D01*
X0310707Y0357739D02*
X0316435Y0357739D01*
X0318964Y0359736D02*
X0321436Y0359736D01*
X0321344Y0358738D02*
X0319962Y0358738D01*
X0320961Y0357739D02*
X0321637Y0357739D01*
X0321959Y0356741D02*
X0322471Y0356741D01*
X0324031Y0358980D02*
X0328323Y0363272D01*
X0329701Y0363272D01*
X0328126Y0363272D01*
X0329701Y0363272D02*
X0331669Y0365240D01*
X0331669Y0373705D01*
X0327617Y0373715D02*
X0324895Y0373715D01*
X0324895Y0372717D02*
X0327617Y0372717D01*
X0327617Y0371718D02*
X0324895Y0371718D01*
X0324895Y0370720D02*
X0327617Y0370720D01*
X0330069Y0369721D02*
X0324895Y0369721D01*
X0325206Y0368723D02*
X0330069Y0368723D01*
X0333269Y0367724D02*
X0335747Y0367724D01*
X0335491Y0366726D02*
X0333269Y0366726D01*
X0333269Y0365727D02*
X0335491Y0365727D01*
X0335491Y0364729D02*
X0333269Y0364729D01*
X0332966Y0363730D02*
X0335491Y0363730D01*
X0335491Y0362732D02*
X0332966Y0362732D01*
X0332966Y0361733D02*
X0335491Y0361733D01*
X0335491Y0360735D02*
X0332966Y0360735D01*
X0332966Y0359736D02*
X0335491Y0359736D01*
X0335829Y0358738D02*
X0332628Y0358738D01*
X0326774Y0358738D02*
X0326719Y0358738D01*
X0325520Y0362732D02*
X0325295Y0362732D01*
X0325295Y0363730D02*
X0326435Y0363730D01*
X0326435Y0364729D02*
X0325295Y0364729D01*
X0325295Y0365727D02*
X0326435Y0365727D01*
X0326435Y0366726D02*
X0325295Y0366726D01*
X0325295Y0367724D02*
X0326692Y0367724D01*
X0322311Y0364729D02*
X0321342Y0364729D01*
X0321342Y0363730D02*
X0322311Y0363730D01*
X0322311Y0362732D02*
X0321342Y0362732D01*
X0321342Y0361733D02*
X0322311Y0361733D01*
X0321985Y0360735D02*
X0317965Y0360735D01*
X0318454Y0361733D02*
X0317316Y0361733D01*
X0317415Y0362732D02*
X0318358Y0362732D01*
X0318358Y0363730D02*
X0317415Y0363730D01*
X0317415Y0364729D02*
X0318358Y0364729D01*
X0318358Y0365727D02*
X0317415Y0365727D01*
X0317415Y0366726D02*
X0318358Y0366726D01*
X0318358Y0367724D02*
X0317415Y0367724D01*
X0314346Y0365240D02*
X0312772Y0363665D01*
X0307248Y0357739D02*
X0306248Y0357739D01*
X0306248Y0356741D02*
X0307248Y0356741D01*
X0307248Y0355742D02*
X0306248Y0355742D01*
X0306248Y0354744D02*
X0307248Y0354744D01*
X0307248Y0353745D02*
X0312868Y0353745D01*
X0312486Y0352746D02*
X0310807Y0352746D01*
X0310807Y0351748D02*
X0312488Y0351748D01*
X0311569Y0350749D02*
X0310722Y0350749D01*
X0310880Y0349751D02*
X0311408Y0349751D01*
X0313008Y0349925D02*
X0313008Y0346776D01*
X0311433Y0345201D01*
X0311433Y0341976D01*
X0311236Y0341780D01*
X0309268Y0341780D02*
X0309268Y0347563D01*
X0306852Y0348752D02*
X0303254Y0348752D01*
X0303828Y0348179D02*
X0301843Y0350164D01*
X0302282Y0350164D01*
X0302796Y0350677D01*
X0302989Y0350343D01*
X0303268Y0350063D01*
X0303610Y0349866D01*
X0303991Y0349764D01*
X0306248Y0349764D01*
X0306248Y0353716D01*
X0307248Y0353716D01*
X0307248Y0349764D01*
X0307668Y0349764D01*
X0306989Y0349085D01*
X0306580Y0348098D01*
X0306580Y0347028D01*
X0306860Y0346354D01*
X0306551Y0346354D01*
X0306169Y0346252D01*
X0305827Y0346055D01*
X0305727Y0345954D01*
X0304765Y0345954D01*
X0304765Y0347241D01*
X0303828Y0348179D01*
X0303828Y0348179D01*
X0304253Y0347754D02*
X0306580Y0347754D01*
X0306693Y0346755D02*
X0304765Y0346755D01*
X0303165Y0346579D02*
X0303165Y0341976D01*
X0303362Y0341780D01*
X0305134Y0341583D02*
X0305331Y0341780D01*
X0301394Y0341779D02*
X0301394Y0337205D01*
X0301394Y0341779D01*
X0301394Y0341779D01*
X0301394Y0341763D02*
X0301394Y0341763D01*
X0301394Y0340764D02*
X0301394Y0340764D01*
X0301394Y0339766D02*
X0301394Y0339766D01*
X0301394Y0338767D02*
X0301394Y0338767D01*
X0301394Y0337769D02*
X0301394Y0337769D01*
X0303731Y0336770D02*
X0295210Y0336770D01*
X0295210Y0335772D02*
X0303731Y0335772D01*
X0303731Y0334773D02*
X0295210Y0334773D01*
X0295210Y0333775D02*
X0303731Y0333775D01*
X0293837Y0339766D02*
X0284687Y0339766D01*
X0284687Y0340764D02*
X0293837Y0340764D01*
X0293837Y0341763D02*
X0284687Y0341763D01*
X0284687Y0342761D02*
X0293837Y0342761D01*
X0293837Y0343760D02*
X0283837Y0343760D01*
X0282839Y0344758D02*
X0293837Y0344758D01*
X0294284Y0345757D02*
X0281840Y0345757D01*
X0280842Y0346755D02*
X0300726Y0346755D01*
X0299727Y0347754D02*
X0279843Y0347754D01*
X0278845Y0348752D02*
X0298729Y0348752D01*
X0298605Y0348876D02*
X0298605Y0348876D01*
X0297730Y0349751D02*
X0277846Y0349751D01*
X0276848Y0350749D02*
X0295667Y0350749D01*
X0295609Y0351748D02*
X0276864Y0351748D01*
X0277862Y0352746D02*
X0295609Y0352746D01*
X0299268Y0354217D02*
X0299268Y0350476D01*
X0303165Y0346579D01*
X0302256Y0349751D02*
X0307655Y0349751D01*
X0307248Y0350749D02*
X0306248Y0350749D01*
X0306248Y0351748D02*
X0307248Y0351748D01*
X0307248Y0352746D02*
X0306248Y0352746D01*
X0313008Y0349925D02*
X0315173Y0352287D01*
X0332966Y0352746D02*
X0335491Y0352746D01*
X0335491Y0351748D02*
X0332966Y0351748D01*
X0332966Y0350749D02*
X0335491Y0350749D01*
X0335491Y0349751D02*
X0332966Y0349751D01*
X0332966Y0348752D02*
X0335491Y0348752D01*
X0335491Y0347754D02*
X0332966Y0347754D01*
X0332966Y0346755D02*
X0335491Y0346755D01*
X0335491Y0345757D02*
X0332966Y0345757D01*
X0332966Y0344758D02*
X0335491Y0344758D01*
X0324894Y0331778D02*
X0324570Y0331778D01*
X0324436Y0330779D02*
X0323346Y0330779D01*
X0321276Y0312720D02*
X0307496Y0312720D01*
X0305528Y0312749D01*
X0303756Y0312720D01*
X0298047Y0312720D01*
X0296158Y0310809D02*
X0295210Y0310809D01*
X0295769Y0311198D02*
X0296525Y0310442D01*
X0297513Y0310033D01*
X0298582Y0310033D01*
X0299570Y0310442D01*
X0300248Y0311120D01*
X0303108Y0311120D01*
X0303119Y0311110D01*
X0303769Y0311120D01*
X0303928Y0311120D01*
X0303928Y0307924D01*
X0304330Y0307521D01*
X0302966Y0307521D01*
X0302866Y0307622D01*
X0302524Y0307819D01*
X0302142Y0307921D01*
X0301394Y0307921D01*
X0301394Y0303347D01*
X0301394Y0303347D01*
X0301394Y0307921D01*
X0300645Y0307921D01*
X0300264Y0307819D01*
X0299921Y0307622D01*
X0299821Y0307521D01*
X0295210Y0307521D01*
X0295210Y0314073D01*
X0295699Y0314073D01*
X0295360Y0313255D01*
X0295360Y0312186D01*
X0295769Y0311198D01*
X0295517Y0311808D02*
X0295210Y0311808D01*
X0295210Y0312806D02*
X0295360Y0312806D01*
X0295210Y0313805D02*
X0295587Y0313805D01*
X0295210Y0309810D02*
X0303928Y0309810D01*
X0303928Y0308812D02*
X0295210Y0308812D01*
X0295210Y0307813D02*
X0300254Y0307813D01*
X0301394Y0307813D02*
X0301394Y0307813D01*
X0301394Y0306815D02*
X0301394Y0306815D01*
X0301394Y0305816D02*
X0301394Y0305816D01*
X0301394Y0304818D02*
X0301394Y0304818D01*
X0301394Y0303819D02*
X0301394Y0303819D01*
X0301197Y0303543D02*
X0301394Y0303346D01*
X0301197Y0303543D02*
X0301394Y0309374D01*
X0302533Y0307813D02*
X0304038Y0307813D01*
X0305528Y0308587D02*
X0307299Y0306815D01*
X0307299Y0305634D01*
X0307496Y0305437D01*
X0307299Y0305240D01*
X0307299Y0303346D01*
X0305331Y0303346D02*
X0303362Y0303346D01*
X0303362Y0299335D01*
X0302772Y0298744D01*
X0298244Y0298744D01*
X0290646Y0291146D01*
X0285488Y0291146D01*
X0289147Y0292836D02*
X0290073Y0292836D01*
X0289147Y0293834D02*
X0291072Y0293834D01*
X0292070Y0294833D02*
X0288868Y0294833D01*
X0288470Y0297828D02*
X0278725Y0297828D01*
X0277726Y0296830D02*
X0294067Y0296830D01*
X0295066Y0297828D02*
X0292271Y0297828D01*
X0292905Y0298827D02*
X0296064Y0298827D01*
X0293837Y0299825D02*
X0293057Y0299825D01*
X0292825Y0300824D02*
X0293837Y0300824D01*
X0293837Y0301822D02*
X0292077Y0301822D01*
X0293837Y0302821D02*
X0289540Y0302821D01*
X0288542Y0303819D02*
X0293837Y0303819D01*
X0293837Y0304818D02*
X0287543Y0304818D01*
X0286545Y0305816D02*
X0293837Y0305816D01*
X0290370Y0299728D02*
X0278874Y0311224D01*
X0271512Y0311224D01*
X0275171Y0308812D02*
X0279024Y0308812D01*
X0280022Y0307813D02*
X0275168Y0307813D01*
X0276153Y0304818D02*
X0283018Y0304818D01*
X0284016Y0303819D02*
X0276240Y0303819D01*
X0276240Y0302821D02*
X0277654Y0302821D01*
X0277013Y0301822D02*
X0272681Y0301822D01*
X0272681Y0300842D02*
X0272681Y0296890D01*
X0273261Y0296890D01*
X0272339Y0295967D01*
X0271416Y0296890D01*
X0271681Y0296890D01*
X0271681Y0300842D01*
X0272681Y0300842D01*
X0272681Y0300824D02*
X0271681Y0300824D01*
X0271681Y0299825D02*
X0272681Y0299825D01*
X0272681Y0298827D02*
X0271681Y0298827D01*
X0271681Y0297828D02*
X0272681Y0297828D01*
X0273201Y0296830D02*
X0271476Y0296830D01*
X0272457Y0293823D02*
X0279543Y0300909D01*
X0281432Y0302821D02*
X0285015Y0302821D01*
X0286013Y0301822D02*
X0282074Y0301822D01*
X0282231Y0300824D02*
X0287012Y0300824D01*
X0287683Y0299825D02*
X0282003Y0299825D01*
X0281261Y0298827D02*
X0287835Y0298827D01*
X0293069Y0295831D02*
X0276728Y0295831D01*
X0277508Y0294833D02*
X0278508Y0294833D01*
X0278508Y0293834D02*
X0277508Y0293834D01*
X0277508Y0292836D02*
X0278508Y0292836D01*
X0278508Y0291837D02*
X0277508Y0291837D01*
X0277508Y0289840D02*
X0278508Y0289840D01*
X0278508Y0288842D02*
X0277508Y0288842D01*
X0277508Y0287843D02*
X0278508Y0287843D01*
X0278508Y0286845D02*
X0277508Y0286845D01*
X0274784Y0286845D02*
X0274057Y0286845D01*
X0274057Y0285846D02*
X0299016Y0285846D01*
X0299016Y0286845D02*
X0281232Y0286845D01*
X0282705Y0283849D02*
X0283705Y0283849D01*
X0283705Y0282851D02*
X0282705Y0282851D01*
X0282705Y0281852D02*
X0283705Y0281852D01*
X0283705Y0280854D02*
X0282705Y0280854D01*
X0283705Y0279855D02*
X0296941Y0279855D01*
X0296941Y0280240D02*
X0299016Y0280240D01*
X0299016Y0280240D01*
X0296941Y0280240D01*
X0296947Y0280854D02*
X0287264Y0280854D01*
X0287264Y0281852D02*
X0296941Y0281852D01*
X0296955Y0282851D02*
X0287264Y0282851D01*
X0287140Y0283849D02*
X0297341Y0283849D01*
X0297341Y0284848D02*
X0274057Y0284848D01*
X0270857Y0284848D02*
X0268813Y0284848D01*
X0268789Y0284872D02*
X0268789Y0284872D01*
X0267814Y0285846D02*
X0270857Y0285846D01*
X0270857Y0286845D02*
X0267494Y0286845D01*
X0267494Y0287843D02*
X0270857Y0287843D01*
X0270857Y0288842D02*
X0267494Y0288842D01*
X0267494Y0289840D02*
X0270857Y0289840D01*
X0270857Y0290839D02*
X0267494Y0290839D01*
X0270857Y0291837D02*
X0259624Y0291837D01*
X0256854Y0291837D02*
X0255854Y0291837D01*
X0255854Y0292016D02*
X0253598Y0292016D01*
X0253216Y0291914D01*
X0252874Y0291716D01*
X0252595Y0291437D01*
X0252398Y0291095D01*
X0252295Y0290713D01*
X0252295Y0288063D01*
X0255854Y0288063D01*
X0255854Y0292016D01*
X0255854Y0290839D02*
X0256854Y0290839D01*
X0256354Y0290476D02*
X0256354Y0287563D01*
X0254346Y0285555D01*
X0255854Y0285846D02*
X0256854Y0285846D01*
X0256854Y0284848D02*
X0255854Y0284848D01*
X0255854Y0283849D02*
X0256854Y0283849D01*
X0256906Y0283000D02*
X0254846Y0283000D01*
X0254846Y0279638D01*
X0253846Y0279638D01*
X0253846Y0278638D01*
X0250484Y0278638D01*
X0250484Y0276578D01*
X0250586Y0276197D01*
X0250784Y0275855D01*
X0251063Y0275575D01*
X0251405Y0275378D01*
X0251787Y0275276D01*
X0253846Y0275276D01*
X0253846Y0278638D01*
X0254846Y0278638D01*
X0254846Y0275276D01*
X0256906Y0275276D01*
X0257288Y0275378D01*
X0257630Y0275575D01*
X0257909Y0275855D01*
X0258106Y0276197D01*
X0258209Y0276578D01*
X0258209Y0278638D01*
X0254846Y0278638D01*
X0254846Y0279638D01*
X0258209Y0279638D01*
X0258209Y0281697D01*
X0258106Y0282079D01*
X0257909Y0282421D01*
X0257630Y0282700D01*
X0257288Y0282898D01*
X0256906Y0283000D01*
X0257369Y0282851D02*
X0266284Y0282851D01*
X0268126Y0283272D02*
X0268126Y0280043D01*
X0270674Y0281852D02*
X0270857Y0281852D01*
X0270857Y0282851D02*
X0269726Y0282851D01*
X0269726Y0283849D02*
X0270857Y0283849D01*
X0268126Y0283272D02*
X0263835Y0287563D01*
X0260481Y0283849D02*
X0260206Y0283849D01*
X0259152Y0281852D02*
X0258167Y0281852D01*
X0258209Y0280854D02*
X0259152Y0280854D01*
X0259152Y0279855D02*
X0258209Y0279855D01*
X0259152Y0278857D02*
X0254846Y0278857D01*
X0254346Y0279138D02*
X0254346Y0276776D01*
X0253846Y0276860D02*
X0254846Y0276860D01*
X0254846Y0277858D02*
X0253846Y0277858D01*
X0253846Y0278857D02*
X0241928Y0278857D01*
X0241928Y0279855D02*
X0250484Y0279855D01*
X0250484Y0279638D02*
X0250484Y0281697D01*
X0250586Y0282079D01*
X0250784Y0282421D01*
X0251063Y0282700D01*
X0251405Y0282898D01*
X0251787Y0283000D01*
X0253846Y0283000D01*
X0253846Y0279638D01*
X0250484Y0279638D01*
X0250484Y0280854D02*
X0241928Y0280854D01*
X0241928Y0281852D02*
X0250526Y0281852D01*
X0251324Y0282851D02*
X0241928Y0282851D01*
X0241928Y0283849D02*
X0252503Y0283849D01*
X0252295Y0284848D02*
X0241928Y0284848D01*
X0241928Y0285846D02*
X0252295Y0285846D01*
X0252295Y0286845D02*
X0241928Y0286845D01*
X0241928Y0287843D02*
X0255854Y0287843D01*
X0255854Y0286845D02*
X0256854Y0286845D01*
X0256854Y0288842D02*
X0255854Y0288842D01*
X0255854Y0289840D02*
X0256854Y0289840D01*
X0256354Y0290476D02*
X0249780Y0297051D01*
X0250280Y0296830D02*
X0266951Y0296830D01*
X0267949Y0295831D02*
X0254232Y0295831D01*
X0254232Y0296551D02*
X0250280Y0296551D01*
X0250280Y0297551D01*
X0254232Y0297551D01*
X0254232Y0299808D01*
X0254130Y0300189D01*
X0253933Y0300531D01*
X0253783Y0300680D01*
X0253832Y0300729D01*
X0253832Y0306759D01*
X0253188Y0307403D01*
X0249490Y0307403D01*
X0249490Y0308904D01*
X0251298Y0308904D01*
X0251943Y0309548D01*
X0251943Y0310727D01*
X0254114Y0310727D01*
X0254793Y0310048D01*
X0255780Y0309639D01*
X0256850Y0309639D01*
X0257837Y0310048D01*
X0258593Y0310804D01*
X0259002Y0311792D01*
X0259002Y0312861D01*
X0258593Y0313849D01*
X0257837Y0314605D01*
X0256850Y0315014D01*
X0255780Y0315014D01*
X0254793Y0314605D01*
X0254114Y0313927D01*
X0251943Y0313927D01*
X0251943Y0314397D01*
X0251298Y0315041D01*
X0245053Y0315041D01*
X0245053Y0315984D01*
X0247405Y0315984D01*
X0247405Y0318968D01*
X0248374Y0318968D01*
X0248374Y0315984D01*
X0251040Y0315984D01*
X0251421Y0316086D01*
X0251764Y0316284D01*
X0252043Y0316563D01*
X0252240Y0316905D01*
X0252343Y0317287D01*
X0252343Y0318968D01*
X0248374Y0318968D01*
X0248374Y0319937D01*
X0247405Y0319937D01*
X0247405Y0322921D01*
X0244740Y0322921D01*
X0244358Y0322819D01*
X0244016Y0322622D01*
X0243916Y0322521D01*
X0235426Y0322521D01*
X0234782Y0321877D01*
X0234782Y0317265D01*
X0230626Y0315910D01*
X0228923Y0316615D01*
X0227014Y0316615D01*
X0225250Y0315884D01*
X0223899Y0314534D01*
X0223169Y0312770D01*
X0223169Y0310860D01*
X0223899Y0309096D01*
X0225250Y0307746D01*
X0227014Y0307015D01*
X0228923Y0307015D01*
X0230687Y0307746D01*
X0232038Y0309096D01*
X0232430Y0310043D01*
X0234782Y0310810D01*
X0234782Y0309548D01*
X0235426Y0308904D01*
X0236417Y0308904D01*
X0236128Y0304271D01*
X0236524Y0303116D01*
X0237331Y0302201D01*
X0237475Y0302131D01*
X0237592Y0302014D01*
X0237713Y0302014D01*
X0238428Y0301665D01*
X0239646Y0301588D01*
X0240801Y0301984D01*
X0240835Y0302014D01*
X0240865Y0302014D01*
X0241092Y0302242D01*
X0241716Y0302792D01*
X0242253Y0303888D01*
X0242566Y0308904D01*
X0244408Y0308904D01*
X0244445Y0308940D01*
X0244481Y0308904D01*
X0246290Y0308904D01*
X0246290Y0307322D01*
X0245727Y0306759D01*
X0245727Y0300729D01*
X0245776Y0300680D01*
X0245626Y0300531D01*
X0245429Y0300189D01*
X0245327Y0299808D01*
X0245327Y0297551D01*
X0249279Y0297551D01*
X0249279Y0296551D01*
X0245327Y0296551D01*
X0245327Y0294295D01*
X0245429Y0293913D01*
X0245626Y0293571D01*
X0245906Y0293292D01*
X0246248Y0293094D01*
X0246629Y0292992D01*
X0249280Y0292992D01*
X0249280Y0296551D01*
X0250279Y0296551D01*
X0250279Y0292992D01*
X0252930Y0292992D01*
X0253311Y0293094D01*
X0253653Y0293292D01*
X0253933Y0293571D01*
X0254130Y0293913D01*
X0254232Y0294295D01*
X0254232Y0296551D01*
X0254232Y0297828D02*
X0261147Y0297828D01*
X0261042Y0298827D02*
X0254232Y0298827D01*
X0254228Y0299825D02*
X0261042Y0299825D01*
X0261042Y0300824D02*
X0253832Y0300824D01*
X0253832Y0301822D02*
X0261042Y0301822D01*
X0261042Y0302821D02*
X0253832Y0302821D01*
X0253832Y0303819D02*
X0261042Y0303819D01*
X0261109Y0304818D02*
X0253832Y0304818D01*
X0253832Y0305816D02*
X0263219Y0305816D01*
X0263219Y0306815D02*
X0253776Y0306815D01*
X0255367Y0309810D02*
X0251943Y0309810D01*
X0249490Y0308812D02*
X0261160Y0308812D01*
X0261160Y0309810D02*
X0257263Y0309810D01*
X0258595Y0310809D02*
X0261160Y0310809D01*
X0261160Y0311808D02*
X0259002Y0311808D01*
X0259002Y0312806D02*
X0261160Y0312806D01*
X0261160Y0313805D02*
X0258612Y0313805D01*
X0257359Y0314803D02*
X0261330Y0314803D01*
X0263337Y0315802D02*
X0245053Y0315802D01*
X0247405Y0316800D02*
X0248374Y0316800D01*
X0248374Y0317799D02*
X0247405Y0317799D01*
X0247405Y0318797D02*
X0248374Y0318797D01*
X0247890Y0319453D02*
X0245685Y0321657D01*
X0245685Y0337130D01*
X0236698Y0345757D02*
X0222063Y0345757D01*
X0222063Y0346755D02*
X0235910Y0346755D01*
X0235916Y0347754D02*
X0222063Y0347754D01*
X0222063Y0348752D02*
X0236719Y0348752D01*
X0235774Y0349751D02*
X0222063Y0349751D01*
X0222063Y0350749D02*
X0234776Y0350749D01*
X0234908Y0351748D02*
X0222063Y0351748D01*
X0222785Y0352746D02*
X0232779Y0352746D01*
X0231780Y0353745D02*
X0223883Y0353745D01*
X0224981Y0354744D02*
X0231462Y0354744D01*
X0231898Y0355742D02*
X0226080Y0355742D01*
X0227178Y0356741D02*
X0232896Y0356741D01*
X0233818Y0356741D02*
X0235232Y0356741D01*
X0234817Y0355742D02*
X0236231Y0355742D01*
X0236489Y0354744D02*
X0235815Y0354744D01*
X0235491Y0353745D02*
X0236814Y0353745D01*
X0235906Y0352746D02*
X0234492Y0352746D01*
X0234234Y0357739D02*
X0228276Y0357739D01*
X0229375Y0358738D02*
X0234893Y0358738D01*
X0236130Y0359736D02*
X0230473Y0359736D01*
X0231571Y0360735D02*
X0237456Y0360735D01*
X0237151Y0359736D02*
X0237031Y0359736D01*
X0238454Y0361733D02*
X0232670Y0361733D01*
X0233768Y0362732D02*
X0239449Y0362732D01*
X0239449Y0363730D02*
X0234866Y0363730D01*
X0235965Y0364729D02*
X0239449Y0364729D01*
X0239170Y0365727D02*
X0237063Y0365727D01*
X0238162Y0366726D02*
X0238198Y0366726D01*
X0247437Y0374714D02*
X0295977Y0374714D01*
X0295977Y0373837D02*
X0296002Y0373776D01*
X0296002Y0372737D01*
X0296647Y0372093D01*
X0297140Y0372093D01*
X0297148Y0372085D01*
X0298140Y0371674D01*
X0299214Y0371674D01*
X0300207Y0372085D01*
X0300214Y0372093D01*
X0300708Y0372093D01*
X0301352Y0372737D01*
X0301352Y0373776D01*
X0301377Y0373837D01*
X0301377Y0380755D01*
X0302663Y0380755D01*
X0304428Y0381486D01*
X0305778Y0382836D01*
X0306509Y0384600D01*
X0306509Y0386510D01*
X0305778Y0388274D01*
X0304428Y0389624D01*
X0302663Y0390355D01*
X0300754Y0390355D01*
X0298990Y0389624D01*
X0297639Y0388274D01*
X0296909Y0386510D01*
X0296909Y0384600D01*
X0296917Y0384581D01*
X0296388Y0384053D01*
X0295977Y0383061D01*
X0295977Y0373837D01*
X0296002Y0373715D02*
X0248435Y0373715D01*
X0249434Y0372717D02*
X0296023Y0372717D01*
X0298033Y0371718D02*
X0250297Y0371718D01*
X0248047Y0375712D02*
X0295977Y0375712D01*
X0295977Y0376711D02*
X0249145Y0376711D01*
X0250244Y0377709D02*
X0295977Y0377709D01*
X0295977Y0378708D02*
X0251342Y0378708D01*
X0252440Y0379706D02*
X0295977Y0379706D01*
X0295977Y0380705D02*
X0253539Y0380705D01*
X0254637Y0381703D02*
X0295977Y0381703D01*
X0295977Y0382702D02*
X0255735Y0382702D01*
X0256834Y0383700D02*
X0296242Y0383700D01*
X0296909Y0384699D02*
X0257932Y0384699D01*
X0259030Y0385697D02*
X0296909Y0385697D01*
X0296986Y0386696D02*
X0260129Y0386696D01*
X0261227Y0387694D02*
X0297399Y0387694D01*
X0298058Y0388693D02*
X0262326Y0388693D01*
X0263424Y0389691D02*
X0299152Y0389691D01*
X0304266Y0389691D02*
X0309152Y0389691D01*
X0308058Y0388693D02*
X0305359Y0388693D01*
X0306018Y0387694D02*
X0307399Y0387694D01*
X0306986Y0386696D02*
X0306432Y0386696D01*
X0306509Y0385697D02*
X0306909Y0385697D01*
X0306909Y0384699D02*
X0306509Y0384699D01*
X0306136Y0383700D02*
X0307281Y0383700D01*
X0307774Y0382702D02*
X0305644Y0382702D01*
X0304645Y0381703D02*
X0308772Y0381703D01*
X0310761Y0380705D02*
X0301377Y0380705D01*
X0301377Y0379706D02*
X0311277Y0379706D01*
X0311793Y0378708D02*
X0301377Y0378708D01*
X0301377Y0377709D02*
X0311284Y0377709D01*
X0306134Y0376711D02*
X0301377Y0376711D01*
X0301377Y0375712D02*
X0305359Y0375712D01*
X0305076Y0374714D02*
X0301377Y0374714D01*
X0301352Y0373715D02*
X0305123Y0373715D01*
X0305472Y0372717D02*
X0301331Y0372717D01*
X0299321Y0371718D02*
X0306588Y0371718D01*
X0318701Y0378708D02*
X0327217Y0378708D01*
X0327217Y0379706D02*
X0318185Y0379706D01*
X0324890Y0377709D02*
X0327514Y0377709D01*
X0327617Y0376711D02*
X0324895Y0376711D01*
X0324895Y0375712D02*
X0327617Y0375712D01*
X0327617Y0374714D02*
X0324895Y0374714D01*
X0331169Y0382702D02*
X0332169Y0382702D01*
X0332169Y0383700D02*
X0331169Y0383700D01*
X0331169Y0384699D02*
X0332169Y0384699D01*
X0335789Y0384699D02*
X0338593Y0384699D01*
X0338319Y0383700D02*
X0336122Y0383700D01*
X0336122Y0382702D02*
X0338319Y0382702D01*
X0336122Y0381703D02*
X0342272Y0381703D01*
X0342272Y0382702D02*
X0343272Y0382702D01*
X0343272Y0383700D02*
X0342272Y0383700D01*
X0342272Y0384699D02*
X0343272Y0384699D01*
X0355972Y0384699D02*
X0356972Y0384699D01*
X0356972Y0385697D02*
X0355972Y0385697D01*
X0355972Y0381703D02*
X0356972Y0381703D01*
X0356972Y0380705D02*
X0355972Y0380705D01*
X0355972Y0379706D02*
X0356972Y0379706D01*
X0356972Y0378708D02*
X0355972Y0378708D01*
X0359658Y0378708D02*
X0380410Y0378708D01*
X0380214Y0378438D02*
X0380695Y0379100D01*
X0381274Y0379679D01*
X0381936Y0380160D01*
X0382665Y0380532D01*
X0383444Y0380785D01*
X0384161Y0380898D01*
X0384161Y0376213D01*
X0385161Y0376213D01*
X0385161Y0380898D01*
X0385879Y0380785D01*
X0386658Y0380532D01*
X0387387Y0380160D01*
X0388049Y0379679D01*
X0388628Y0379100D01*
X0389109Y0378438D01*
X0389480Y0377709D01*
X0391354Y0377709D01*
X0391354Y0376711D02*
X0389768Y0376711D01*
X0389733Y0376930D02*
X0389480Y0377709D01*
X0389733Y0376930D02*
X0389847Y0376213D01*
X0385161Y0376213D01*
X0385161Y0375213D01*
X0385161Y0370527D01*
X0385879Y0370641D01*
X0386658Y0370894D01*
X0387387Y0371265D01*
X0388049Y0371746D01*
X0388628Y0372325D01*
X0389109Y0372987D01*
X0389480Y0373716D01*
X0389733Y0374495D01*
X0389847Y0375213D01*
X0385161Y0375213D01*
X0384161Y0375213D01*
X0379476Y0375213D01*
X0379589Y0374495D01*
X0379842Y0373716D01*
X0380214Y0372987D01*
X0380695Y0372325D01*
X0381274Y0371746D01*
X0381936Y0371265D01*
X0382665Y0370894D01*
X0383444Y0370641D01*
X0384161Y0370527D01*
X0384161Y0375213D01*
X0384161Y0376213D01*
X0379476Y0376213D01*
X0379589Y0376930D01*
X0379842Y0377709D01*
X0380214Y0378438D01*
X0379843Y0377709D02*
X0371307Y0377709D01*
X0371549Y0376711D02*
X0379555Y0376711D01*
X0379555Y0374714D02*
X0371549Y0374714D01*
X0371549Y0375712D02*
X0384161Y0375712D01*
X0384161Y0374714D02*
X0385161Y0374714D01*
X0385161Y0375712D02*
X0391354Y0375712D01*
X0391354Y0374714D02*
X0389768Y0374714D01*
X0389480Y0373715D02*
X0391354Y0373715D01*
X0391354Y0372717D02*
X0388912Y0372717D01*
X0388010Y0371718D02*
X0391354Y0371718D01*
X0391354Y0370720D02*
X0386122Y0370720D01*
X0385616Y0370513D02*
X0383707Y0370513D01*
X0381942Y0369782D01*
X0380592Y0368432D01*
X0379861Y0366667D01*
X0379861Y0364758D01*
X0380592Y0362994D01*
X0381942Y0361643D01*
X0383707Y0360913D01*
X0385616Y0360913D01*
X0387380Y0361643D01*
X0388731Y0362994D01*
X0389461Y0364758D01*
X0389461Y0366667D01*
X0388731Y0368432D01*
X0387380Y0369782D01*
X0385616Y0370513D01*
X0385161Y0370720D02*
X0384161Y0370720D01*
X0383200Y0370720D02*
X0369687Y0370720D01*
X0369687Y0369721D02*
X0381882Y0369721D01*
X0380883Y0368723D02*
X0369687Y0368723D01*
X0372040Y0367724D02*
X0380299Y0367724D01*
X0379886Y0366726D02*
X0372139Y0366726D01*
X0372139Y0365727D02*
X0379861Y0365727D01*
X0379873Y0364729D02*
X0372139Y0364729D01*
X0372139Y0363730D02*
X0380287Y0363730D01*
X0380854Y0362732D02*
X0372139Y0362732D01*
X0372139Y0361733D02*
X0381853Y0361733D01*
X0381942Y0359782D02*
X0380592Y0358432D01*
X0379861Y0356667D01*
X0379861Y0354758D01*
X0380592Y0352994D01*
X0381942Y0351643D01*
X0383707Y0350913D01*
X0385616Y0350913D01*
X0387380Y0351643D01*
X0388731Y0352994D01*
X0389461Y0354758D01*
X0389461Y0356667D01*
X0388731Y0358432D01*
X0387380Y0359782D01*
X0385616Y0360513D01*
X0383707Y0360513D01*
X0381942Y0359782D01*
X0381897Y0359736D02*
X0372139Y0359736D01*
X0372139Y0358738D02*
X0380898Y0358738D01*
X0380305Y0357739D02*
X0372139Y0357739D01*
X0372139Y0356741D02*
X0379892Y0356741D01*
X0379861Y0355742D02*
X0372139Y0355742D01*
X0371980Y0354744D02*
X0379867Y0354744D01*
X0380281Y0353745D02*
X0369687Y0353745D01*
X0369687Y0352746D02*
X0380839Y0352746D01*
X0381838Y0351748D02*
X0369687Y0351748D01*
X0369687Y0350749D02*
X0391354Y0350749D01*
X0391354Y0349751D02*
X0387411Y0349751D01*
X0387380Y0349782D02*
X0385616Y0350513D01*
X0383707Y0350513D01*
X0381942Y0349782D01*
X0380592Y0348432D01*
X0379861Y0346667D01*
X0379861Y0344758D01*
X0380592Y0342994D01*
X0380884Y0342702D01*
X0371503Y0333321D01*
X0370544Y0333321D01*
X0369556Y0332912D01*
X0368800Y0332156D01*
X0368391Y0331168D01*
X0368391Y0330099D01*
X0368800Y0329112D01*
X0369556Y0328356D01*
X0370544Y0327946D01*
X0371613Y0327946D01*
X0372601Y0328356D01*
X0373357Y0329112D01*
X0373597Y0329691D01*
X0373919Y0328915D01*
X0374675Y0328159D01*
X0375662Y0327750D01*
X0376731Y0327750D01*
X0377719Y0328159D01*
X0378475Y0328915D01*
X0378884Y0329902D01*
X0378884Y0330805D01*
X0380868Y0332718D01*
X0381942Y0331643D01*
X0383707Y0330913D01*
X0385616Y0330913D01*
X0387380Y0331643D01*
X0388731Y0332994D01*
X0389461Y0334758D01*
X0389461Y0336667D01*
X0388731Y0338432D01*
X0387380Y0339782D01*
X0385616Y0340513D01*
X0383707Y0340513D01*
X0382876Y0340169D01*
X0383646Y0340938D01*
X0383707Y0340913D01*
X0385616Y0340913D01*
X0387380Y0341643D01*
X0388731Y0342994D01*
X0389461Y0344758D01*
X0389461Y0346667D01*
X0388731Y0348432D01*
X0387380Y0349782D01*
X0388410Y0348752D02*
X0391354Y0348752D01*
X0391354Y0347754D02*
X0389011Y0347754D01*
X0389425Y0346755D02*
X0391354Y0346755D01*
X0391354Y0345757D02*
X0389461Y0345757D01*
X0389461Y0344758D02*
X0391354Y0344758D01*
X0391354Y0343760D02*
X0389048Y0343760D01*
X0388498Y0342761D02*
X0391354Y0342761D01*
X0391354Y0341763D02*
X0387500Y0341763D01*
X0387396Y0339766D02*
X0391354Y0339766D01*
X0391354Y0340764D02*
X0383472Y0340764D01*
X0380824Y0342761D02*
X0367118Y0342761D01*
X0366119Y0341763D02*
X0379945Y0341763D01*
X0378947Y0340764D02*
X0365121Y0340764D01*
X0364122Y0339766D02*
X0377948Y0339766D01*
X0376949Y0338767D02*
X0363124Y0338767D01*
X0362125Y0337769D02*
X0375951Y0337769D01*
X0374952Y0336770D02*
X0361127Y0336770D01*
X0360128Y0335772D02*
X0373954Y0335772D01*
X0372955Y0334773D02*
X0359130Y0334773D01*
X0358131Y0333775D02*
X0371957Y0333775D01*
X0369421Y0332776D02*
X0357133Y0332776D01*
X0356134Y0331778D02*
X0368644Y0331778D01*
X0368391Y0330779D02*
X0355136Y0330779D01*
X0354137Y0329781D02*
X0368523Y0329781D01*
X0369130Y0328782D02*
X0353139Y0328782D01*
X0352140Y0327784D02*
X0375580Y0327784D01*
X0375105Y0326785D02*
X0379910Y0326785D01*
X0379861Y0326667D02*
X0379861Y0324872D01*
X0375210Y0324872D01*
X0375210Y0326680D01*
X0374566Y0327324D01*
X0368536Y0327324D01*
X0367892Y0326680D01*
X0367892Y0319863D01*
X0368536Y0319219D01*
X0374566Y0319219D01*
X0375210Y0319863D01*
X0375210Y0321672D01*
X0381914Y0321672D01*
X0381942Y0321643D01*
X0383707Y0320913D01*
X0385616Y0320913D01*
X0387380Y0321643D01*
X0388731Y0322994D01*
X0389461Y0324758D01*
X0389461Y0326667D01*
X0388731Y0328432D01*
X0387380Y0329782D01*
X0385616Y0330513D01*
X0383707Y0330513D01*
X0381942Y0329782D01*
X0380592Y0328432D01*
X0379861Y0326667D01*
X0379861Y0325787D02*
X0375210Y0325787D01*
X0376814Y0327784D02*
X0380324Y0327784D01*
X0380943Y0328782D02*
X0378343Y0328782D01*
X0378834Y0329781D02*
X0381941Y0329781D01*
X0381808Y0331778D02*
X0379893Y0331778D01*
X0378884Y0330779D02*
X0391354Y0330779D01*
X0391354Y0329781D02*
X0387381Y0329781D01*
X0388380Y0328782D02*
X0391354Y0328782D01*
X0391354Y0327784D02*
X0388999Y0327784D01*
X0389413Y0326785D02*
X0391354Y0326785D01*
X0391354Y0325787D02*
X0389461Y0325787D01*
X0389461Y0324788D02*
X0391354Y0324788D01*
X0391354Y0323790D02*
X0389060Y0323790D01*
X0388528Y0322791D02*
X0391354Y0322791D01*
X0391354Y0321793D02*
X0387530Y0321793D01*
X0391354Y0320794D02*
X0375210Y0320794D01*
X0375143Y0319796D02*
X0391354Y0319796D01*
X0391354Y0318797D02*
X0358473Y0318797D01*
X0357692Y0317799D02*
X0357475Y0317799D01*
X0357008Y0316800D02*
X0356824Y0316800D01*
X0356824Y0314803D02*
X0357019Y0314803D01*
X0356824Y0313805D02*
X0357719Y0313805D01*
X0356824Y0312806D02*
X0360634Y0312806D01*
X0361299Y0313805D02*
X0361475Y0313805D01*
X0359635Y0311808D02*
X0356697Y0311808D01*
X0356824Y0310809D02*
X0359046Y0310809D01*
X0359046Y0309810D02*
X0356824Y0309810D01*
X0356824Y0308812D02*
X0359046Y0308812D01*
X0359046Y0307813D02*
X0356824Y0307813D01*
X0356824Y0306815D02*
X0359046Y0306815D01*
X0359046Y0305816D02*
X0356824Y0305816D01*
X0359046Y0304818D02*
X0354372Y0304818D01*
X0354372Y0303819D02*
X0359046Y0303819D01*
X0359046Y0302821D02*
X0354837Y0302821D01*
X0355016Y0301822D02*
X0359046Y0301822D01*
X0359046Y0300824D02*
X0354811Y0300824D01*
X0354100Y0299825D02*
X0359046Y0299825D01*
X0359506Y0298827D02*
X0351061Y0298827D01*
X0350558Y0299825D02*
X0350520Y0299825D01*
X0351601Y0297828D02*
X0359506Y0297828D01*
X0359506Y0296830D02*
X0352142Y0296830D01*
X0352683Y0295831D02*
X0359506Y0295831D01*
X0359506Y0294833D02*
X0353224Y0294833D01*
X0353842Y0293834D02*
X0359194Y0293834D01*
X0359106Y0292836D02*
X0353988Y0292836D01*
X0353978Y0291837D02*
X0359106Y0291837D01*
X0359106Y0289840D02*
X0353978Y0289840D01*
X0353978Y0290839D02*
X0363059Y0290839D01*
X0363059Y0289840D02*
X0364059Y0289840D01*
X0364059Y0290252D02*
X0364059Y0286693D01*
X0366709Y0286693D01*
X0367091Y0286795D01*
X0367433Y0286993D01*
X0367712Y0287272D01*
X0367910Y0287614D01*
X0368012Y0287995D01*
X0368012Y0290252D01*
X0364059Y0290252D01*
X0364059Y0290839D02*
X0373065Y0290839D01*
X0372828Y0289840D02*
X0368012Y0289840D01*
X0368012Y0288842D02*
X0372972Y0288842D01*
X0373246Y0287843D02*
X0367971Y0287843D01*
X0367177Y0286845D02*
X0374593Y0286845D01*
X0375591Y0285846D02*
X0359550Y0285846D01*
X0359941Y0286845D02*
X0358052Y0286845D01*
X0359147Y0287843D02*
X0356555Y0287843D01*
X0355057Y0288842D02*
X0359106Y0288842D01*
X0363059Y0288842D02*
X0364059Y0288842D01*
X0364059Y0287843D02*
X0363059Y0287843D01*
X0363059Y0286845D02*
X0364059Y0286845D01*
X0368012Y0291837D02*
X0373325Y0291837D01*
X0374817Y0292836D02*
X0368012Y0292836D01*
X0367924Y0293834D02*
X0375815Y0293834D01*
X0376814Y0294833D02*
X0367612Y0294833D01*
X0367612Y0295831D02*
X0377812Y0295831D01*
X0377551Y0296830D02*
X0378811Y0296830D01*
X0378327Y0297828D02*
X0379809Y0297828D01*
X0380808Y0298827D02*
X0378592Y0298827D01*
X0378529Y0299825D02*
X0381077Y0299825D01*
X0380664Y0300824D02*
X0378349Y0300824D01*
X0378169Y0301822D02*
X0380649Y0301822D01*
X0380670Y0302821D02*
X0377989Y0302821D01*
X0378182Y0303819D02*
X0381084Y0303819D01*
X0381664Y0304818D02*
X0378635Y0304818D01*
X0378635Y0305816D02*
X0382662Y0305816D01*
X0382662Y0307813D02*
X0378635Y0307813D01*
X0378635Y0306815D02*
X0391354Y0306815D01*
X0391354Y0307813D02*
X0388236Y0307813D01*
X0389234Y0308812D02*
X0391354Y0308812D01*
X0391354Y0309810D02*
X0389814Y0309810D01*
X0390228Y0310809D02*
X0391354Y0310809D01*
X0391354Y0311808D02*
X0390249Y0311808D01*
X0390234Y0312806D02*
X0391354Y0312806D01*
X0391354Y0313805D02*
X0389820Y0313805D01*
X0389249Y0314803D02*
X0391354Y0314803D01*
X0391354Y0315802D02*
X0388250Y0315802D01*
X0391354Y0316800D02*
X0378437Y0316800D01*
X0378635Y0315802D02*
X0382647Y0315802D01*
X0381649Y0314803D02*
X0378635Y0314803D01*
X0382220Y0323272D02*
X0371551Y0323272D01*
X0367892Y0322791D02*
X0367730Y0322791D01*
X0367730Y0321793D02*
X0367892Y0321793D01*
X0367892Y0320794D02*
X0367730Y0320794D01*
X0367662Y0319796D02*
X0367960Y0319796D01*
X0367892Y0323790D02*
X0367730Y0323790D01*
X0367730Y0324788D02*
X0367892Y0324788D01*
X0367892Y0325787D02*
X0367730Y0325787D01*
X0367625Y0326785D02*
X0367997Y0326785D01*
X0371079Y0330634D02*
X0384661Y0344217D01*
X0384661Y0345713D01*
X0379861Y0345757D02*
X0369687Y0345757D01*
X0369687Y0346755D02*
X0379898Y0346755D01*
X0380311Y0347754D02*
X0369687Y0347754D01*
X0369687Y0348752D02*
X0380913Y0348752D01*
X0381912Y0349751D02*
X0369687Y0349751D01*
X0366487Y0349751D02*
X0358151Y0349751D01*
X0358151Y0350749D02*
X0366487Y0350749D01*
X0366487Y0351748D02*
X0358151Y0351748D01*
X0358151Y0352746D02*
X0366487Y0352746D01*
X0366487Y0353745D02*
X0358151Y0353745D01*
X0360604Y0354744D02*
X0364193Y0354744D01*
X0364034Y0355742D02*
X0360604Y0355742D01*
X0360604Y0356741D02*
X0364034Y0356741D01*
X0364034Y0357739D02*
X0360604Y0357739D01*
X0360604Y0358738D02*
X0364034Y0358738D01*
X0364034Y0359736D02*
X0360604Y0359736D01*
X0360368Y0360735D02*
X0364034Y0360735D01*
X0364034Y0361733D02*
X0360604Y0361733D01*
X0360604Y0362732D02*
X0364034Y0362732D01*
X0364034Y0363730D02*
X0360604Y0363730D01*
X0360604Y0364729D02*
X0364034Y0364729D01*
X0364034Y0365727D02*
X0360604Y0365727D01*
X0360604Y0366726D02*
X0364034Y0366726D01*
X0364133Y0367724D02*
X0360072Y0367724D01*
X0358151Y0368723D02*
X0366487Y0368723D01*
X0366487Y0369721D02*
X0358151Y0369721D01*
X0359413Y0370720D02*
X0366487Y0370720D01*
X0364738Y0371718D02*
X0359935Y0371718D01*
X0359935Y0372717D02*
X0364624Y0372717D01*
X0364624Y0373715D02*
X0359935Y0373715D01*
X0359935Y0374714D02*
X0364624Y0374714D01*
X0364624Y0375712D02*
X0359935Y0375712D01*
X0359935Y0376711D02*
X0364624Y0376711D01*
X0368087Y0374650D02*
X0368087Y0364610D01*
X0372139Y0360735D02*
X0391354Y0360735D01*
X0391354Y0361733D02*
X0387470Y0361733D01*
X0388469Y0362732D02*
X0391354Y0362732D01*
X0391354Y0363730D02*
X0389036Y0363730D01*
X0389449Y0364729D02*
X0391354Y0364729D01*
X0391354Y0365727D02*
X0389461Y0365727D01*
X0389437Y0366726D02*
X0391354Y0366726D01*
X0391354Y0367724D02*
X0389024Y0367724D01*
X0388440Y0368723D02*
X0391354Y0368723D01*
X0391354Y0369721D02*
X0387441Y0369721D01*
X0385161Y0371718D02*
X0384161Y0371718D01*
X0384161Y0372717D02*
X0385161Y0372717D01*
X0385161Y0373715D02*
X0384161Y0373715D01*
X0384161Y0376711D02*
X0385161Y0376711D01*
X0385161Y0377709D02*
X0384161Y0377709D01*
X0384161Y0378708D02*
X0385161Y0378708D01*
X0385161Y0379706D02*
X0384161Y0379706D01*
X0384161Y0380705D02*
X0385161Y0380705D01*
X0386125Y0380705D02*
X0391354Y0380705D01*
X0391354Y0381703D02*
X0371949Y0381703D01*
X0371949Y0380705D02*
X0383198Y0380705D01*
X0381312Y0379706D02*
X0371691Y0379706D01*
X0368587Y0379706D02*
X0367587Y0379706D01*
X0367587Y0380705D02*
X0368587Y0380705D01*
X0368587Y0383700D02*
X0367587Y0383700D01*
X0367587Y0384699D02*
X0368587Y0384699D01*
X0368587Y0385697D02*
X0367587Y0385697D01*
X0367587Y0386696D02*
X0368587Y0386696D01*
X0371549Y0373715D02*
X0379843Y0373715D01*
X0380410Y0372717D02*
X0371549Y0372717D01*
X0371435Y0371718D02*
X0381312Y0371718D01*
X0388913Y0378708D02*
X0391354Y0378708D01*
X0391354Y0379706D02*
X0388011Y0379706D01*
X0391354Y0388693D02*
X0315359Y0388693D01*
X0314266Y0389691D02*
X0391354Y0389691D01*
X0391354Y0390690D02*
X0264522Y0390690D01*
X0256810Y0362743D02*
X0256810Y0362743D01*
X0256799Y0362732D02*
X0256798Y0362732D01*
X0255800Y0361733D02*
X0255800Y0361733D01*
X0258619Y0360933D02*
X0263220Y0360933D01*
X0261813Y0350749D02*
X0271098Y0350749D01*
X0272096Y0349751D02*
X0262811Y0349751D01*
X0263810Y0348752D02*
X0274319Y0348752D01*
X0275318Y0347754D02*
X0264808Y0347754D01*
X0265807Y0346755D02*
X0276316Y0346755D01*
X0277315Y0345757D02*
X0266805Y0345757D01*
X0267804Y0344758D02*
X0278314Y0344758D01*
X0279312Y0343760D02*
X0268483Y0343760D01*
X0269482Y0342761D02*
X0280311Y0342761D01*
X0281309Y0341763D02*
X0270480Y0341763D01*
X0271479Y0340764D02*
X0281487Y0340764D01*
X0281487Y0339766D02*
X0272477Y0339766D01*
X0273476Y0338767D02*
X0281487Y0338767D01*
X0281487Y0337769D02*
X0274474Y0337769D01*
X0275473Y0336770D02*
X0281487Y0336770D01*
X0281487Y0335772D02*
X0276471Y0335772D01*
X0277470Y0334773D02*
X0281487Y0334773D01*
X0281487Y0333775D02*
X0278468Y0333775D01*
X0279467Y0332776D02*
X0281487Y0332776D01*
X0281487Y0331778D02*
X0280465Y0331778D01*
X0280750Y0330779D02*
X0281487Y0330779D01*
X0281487Y0329781D02*
X0280750Y0329781D01*
X0280750Y0328782D02*
X0281487Y0328782D01*
X0281487Y0327784D02*
X0280750Y0327784D01*
X0280750Y0326785D02*
X0281487Y0326785D01*
X0281537Y0325787D02*
X0280750Y0325787D01*
X0281625Y0324788D02*
X0282496Y0324788D01*
X0282682Y0323790D02*
X0283428Y0323790D01*
X0285843Y0323547D02*
X0291035Y0323547D01*
X0291036Y0325516D02*
X0291036Y0325516D01*
X0286643Y0326785D02*
X0285009Y0326785D01*
X0284687Y0327784D02*
X0286861Y0327784D01*
X0286861Y0328782D02*
X0284687Y0328782D01*
X0284687Y0329781D02*
X0286861Y0329781D01*
X0286861Y0330779D02*
X0284687Y0330779D01*
X0284687Y0331778D02*
X0286861Y0331778D01*
X0286861Y0332776D02*
X0284687Y0332776D01*
X0284687Y0333775D02*
X0286861Y0333775D01*
X0286861Y0334773D02*
X0284687Y0334773D01*
X0284687Y0335772D02*
X0286861Y0335772D01*
X0286861Y0336770D02*
X0284687Y0336770D01*
X0284687Y0337769D02*
X0286861Y0337769D01*
X0287294Y0338767D02*
X0284687Y0338767D01*
X0283087Y0342248D02*
X0283087Y0326500D01*
X0285843Y0323547D01*
X0285941Y0325787D02*
X0286461Y0325787D01*
X0286461Y0319796D02*
X0276476Y0319796D01*
X0276476Y0318797D02*
X0286478Y0318797D01*
X0286861Y0317799D02*
X0276466Y0317799D01*
X0275837Y0316800D02*
X0286861Y0316800D01*
X0286861Y0315802D02*
X0266537Y0315802D01*
X0266537Y0316800D02*
X0268998Y0316800D01*
X0271917Y0316800D02*
X0272917Y0316800D01*
X0272917Y0317799D02*
X0271917Y0317799D01*
X0271917Y0318797D02*
X0272917Y0318797D01*
X0272917Y0319796D02*
X0271917Y0319796D01*
X0272917Y0320794D02*
X0281193Y0320794D01*
X0280136Y0321793D02*
X0276476Y0321793D01*
X0276476Y0321488D02*
X0276476Y0324138D01*
X0276374Y0324520D01*
X0276177Y0324862D01*
X0275897Y0325141D01*
X0275555Y0325339D01*
X0275174Y0325441D01*
X0272917Y0325441D01*
X0272917Y0321488D01*
X0276476Y0321488D01*
X0276476Y0322791D02*
X0279079Y0322791D01*
X0278022Y0323790D02*
X0276476Y0323790D01*
X0276219Y0324788D02*
X0277550Y0324788D01*
X0277550Y0325787D02*
X0222063Y0325787D01*
X0222063Y0326785D02*
X0277550Y0326785D01*
X0277550Y0327784D02*
X0222063Y0327784D01*
X0222063Y0328782D02*
X0277550Y0328782D01*
X0277550Y0329781D02*
X0222063Y0329781D01*
X0222063Y0330779D02*
X0276938Y0330779D01*
X0275940Y0331778D02*
X0222063Y0331778D01*
X0222063Y0332776D02*
X0274941Y0332776D01*
X0273943Y0333775D02*
X0222063Y0333775D01*
X0222063Y0334773D02*
X0272944Y0334773D01*
X0271946Y0335772D02*
X0222063Y0335772D01*
X0222063Y0336770D02*
X0270947Y0336770D01*
X0269949Y0337769D02*
X0222063Y0337769D01*
X0222063Y0338767D02*
X0268950Y0338767D01*
X0273760Y0351575D02*
X0283087Y0342248D01*
X0273760Y0351575D02*
X0273760Y0353819D01*
X0250062Y0355995D02*
X0246519Y0352255D01*
X0248374Y0322921D02*
X0248374Y0319937D01*
X0252343Y0319937D01*
X0252343Y0321619D01*
X0252240Y0322000D01*
X0252043Y0322342D01*
X0251764Y0322622D01*
X0251421Y0322819D01*
X0251040Y0322921D01*
X0248374Y0322921D01*
X0248374Y0322791D02*
X0247405Y0322791D01*
X0247405Y0321793D02*
X0248374Y0321793D01*
X0248374Y0320794D02*
X0247405Y0320794D01*
X0248374Y0319796D02*
X0261278Y0319796D01*
X0261278Y0320794D02*
X0252343Y0320794D01*
X0252296Y0321793D02*
X0261278Y0321793D01*
X0261278Y0322791D02*
X0251470Y0322791D01*
X0252343Y0318797D02*
X0261278Y0318797D01*
X0261278Y0317799D02*
X0252343Y0317799D01*
X0252180Y0316800D02*
X0263337Y0316800D01*
X0264937Y0320988D02*
X0264937Y0311343D01*
X0264819Y0311224D01*
X0264819Y0301461D01*
X0264701Y0301343D01*
X0272457Y0293587D01*
X0272457Y0293823D01*
X0272457Y0293587D02*
X0272457Y0281224D01*
X0273402Y0280280D01*
X0275724Y0280280D01*
X0276591Y0279413D01*
X0275803Y0279413D01*
X0275803Y0270201D01*
X0275803Y0263311D01*
X0271945Y0259453D01*
X0262693Y0259453D01*
X0262693Y0267917D01*
X0260213Y0270398D01*
X0263872Y0270869D02*
X0265451Y0270869D01*
X0265451Y0271867D02*
X0263872Y0271867D01*
X0263872Y0272866D02*
X0265451Y0272866D01*
X0265706Y0273864D02*
X0263814Y0273864D01*
X0265055Y0274863D02*
X0241928Y0274863D01*
X0241928Y0275861D02*
X0250780Y0275861D01*
X0250484Y0276860D02*
X0241928Y0276860D01*
X0241928Y0277858D02*
X0250484Y0277858D01*
X0253846Y0275861D02*
X0254846Y0275861D01*
X0253232Y0273864D02*
X0252232Y0273864D01*
X0252232Y0272866D02*
X0253232Y0272866D01*
X0253232Y0271867D02*
X0252232Y0271867D01*
X0252232Y0270869D02*
X0242550Y0270869D01*
X0241209Y0271867D02*
X0248673Y0271867D01*
X0248673Y0272866D02*
X0241803Y0272866D01*
X0241928Y0273864D02*
X0248758Y0273864D01*
X0248673Y0269870D02*
X0243929Y0269870D01*
X0244927Y0268872D02*
X0248673Y0268872D01*
X0248673Y0267873D02*
X0245926Y0267873D01*
X0246924Y0266875D02*
X0248773Y0266875D01*
X0247923Y0265876D02*
X0261093Y0265876D01*
X0261093Y0264877D02*
X0248921Y0264877D01*
X0249920Y0263879D02*
X0261093Y0263879D01*
X0261093Y0262880D02*
X0250918Y0262880D01*
X0251917Y0261882D02*
X0261093Y0261882D01*
X0259231Y0260883D02*
X0255919Y0260883D01*
X0255919Y0259885D02*
X0259231Y0259885D01*
X0259231Y0258886D02*
X0255919Y0258886D01*
X0255892Y0257888D02*
X0259257Y0257888D01*
X0264293Y0261882D02*
X0272111Y0261882D01*
X0273110Y0262880D02*
X0264293Y0262880D01*
X0264293Y0263879D02*
X0274108Y0263879D01*
X0274203Y0264877D02*
X0264293Y0264877D01*
X0264293Y0265876D02*
X0274203Y0265876D01*
X0277403Y0265876D02*
X0297956Y0265876D01*
X0298809Y0266730D02*
X0298809Y0266730D01*
X0298954Y0266875D02*
X0279462Y0266875D01*
X0279462Y0267873D02*
X0301921Y0267873D01*
X0302378Y0266067D02*
X0304937Y0268626D01*
X0304937Y0270496D01*
X0306906Y0270496D02*
X0306906Y0262327D01*
X0305331Y0260752D01*
X0308990Y0260883D02*
X0309152Y0260883D01*
X0309152Y0259885D02*
X0308990Y0259885D01*
X0308990Y0258886D02*
X0309152Y0258886D01*
X0309152Y0257888D02*
X0308990Y0257888D01*
X0308536Y0256889D02*
X0309606Y0256889D01*
X0309152Y0261882D02*
X0308990Y0261882D01*
X0308874Y0264689D02*
X0312811Y0260752D01*
X0308874Y0264689D02*
X0308874Y0270496D01*
X0302378Y0266067D02*
X0300409Y0266067D01*
X0295094Y0260752D01*
X0298754Y0260883D02*
X0301672Y0260883D01*
X0301672Y0259885D02*
X0298754Y0259885D01*
X0298754Y0258886D02*
X0301672Y0258886D01*
X0301672Y0257888D02*
X0298754Y0257888D01*
X0298299Y0256889D02*
X0302126Y0256889D01*
X0301672Y0261882D02*
X0298754Y0261882D01*
X0299486Y0262880D02*
X0301672Y0262880D01*
X0301672Y0263879D02*
X0300484Y0263879D01*
X0296957Y0264877D02*
X0291122Y0264877D01*
X0288114Y0264877D02*
X0287114Y0264877D01*
X0287114Y0265205D02*
X0284858Y0265205D01*
X0284476Y0265102D01*
X0284134Y0264905D01*
X0283855Y0264626D01*
X0283657Y0264284D01*
X0283555Y0263902D01*
X0283555Y0261252D01*
X0287114Y0261252D01*
X0287114Y0265205D01*
X0287114Y0263879D02*
X0288114Y0263879D01*
X0288114Y0262880D02*
X0287114Y0262880D01*
X0287114Y0261882D02*
X0288114Y0261882D01*
X0287114Y0260883D02*
X0275638Y0260883D01*
X0274640Y0259885D02*
X0283555Y0259885D01*
X0283555Y0258886D02*
X0273641Y0258886D01*
X0272643Y0257888D02*
X0283555Y0257888D01*
X0283848Y0256889D02*
X0270941Y0256889D01*
X0276637Y0261882D02*
X0283555Y0261882D01*
X0283555Y0262880D02*
X0277403Y0262880D01*
X0277403Y0263879D02*
X0283555Y0263879D01*
X0284107Y0264877D02*
X0277403Y0264877D01*
X0279462Y0268872D02*
X0299537Y0268872D01*
X0299016Y0269870D02*
X0279462Y0269870D01*
X0279462Y0270869D02*
X0299016Y0270869D01*
X0299016Y0271867D02*
X0279462Y0271867D01*
X0279462Y0272866D02*
X0297395Y0272866D01*
X0296941Y0273864D02*
X0279207Y0273864D01*
X0277403Y0274863D02*
X0296941Y0274863D01*
X0296941Y0275861D02*
X0286089Y0275861D01*
X0287191Y0276860D02*
X0296941Y0276860D01*
X0296941Y0276303D02*
X0299016Y0276303D01*
X0296941Y0276303D01*
X0296941Y0277858D02*
X0287264Y0277858D01*
X0287264Y0278857D02*
X0296941Y0278857D01*
X0299016Y0276303D02*
X0299016Y0276303D01*
X0299016Y0287843D02*
X0289147Y0287843D01*
X0289147Y0288842D02*
X0299016Y0288842D01*
X0299343Y0289840D02*
X0291603Y0289840D01*
X0292602Y0290839D02*
X0302212Y0290839D01*
X0301374Y0291837D02*
X0293600Y0291837D01*
X0294599Y0292836D02*
X0300535Y0292836D01*
X0298960Y0293834D02*
X0295597Y0293834D01*
X0296596Y0294833D02*
X0298291Y0294833D01*
X0298116Y0295831D02*
X0297594Y0295831D01*
X0300803Y0295791D02*
X0300803Y0295004D01*
X0304937Y0290083D01*
X0304937Y0288016D01*
X0306905Y0290098D02*
X0306905Y0292173D01*
X0306314Y0292173D01*
X0305933Y0292071D01*
X0305591Y0291874D01*
X0305554Y0291836D01*
X0303223Y0294611D01*
X0303491Y0295257D01*
X0303491Y0296326D01*
X0303152Y0297144D01*
X0303434Y0297144D01*
X0304025Y0297735D01*
X0304962Y0298672D01*
X0304962Y0299172D01*
X0307695Y0299172D01*
X0307796Y0299071D01*
X0308138Y0298874D01*
X0308519Y0298772D01*
X0309268Y0298772D01*
X0309525Y0298772D01*
X0309352Y0292173D01*
X0308874Y0292173D01*
X0308283Y0292173D01*
X0307901Y0292071D01*
X0307890Y0292064D01*
X0307878Y0292071D01*
X0307497Y0292173D01*
X0306906Y0292173D01*
X0306906Y0290098D01*
X0306905Y0290098D01*
X0306905Y0290839D02*
X0306906Y0290839D01*
X0306905Y0291837D02*
X0306906Y0291837D01*
X0305555Y0291837D02*
X0305553Y0291837D01*
X0304714Y0292836D02*
X0309369Y0292836D01*
X0308874Y0292173D02*
X0308874Y0290098D01*
X0308874Y0292173D01*
X0308874Y0291837D02*
X0308874Y0291837D01*
X0308874Y0290839D02*
X0308874Y0290839D01*
X0308874Y0290098D02*
X0308874Y0290098D01*
X0310843Y0288016D02*
X0311236Y0302953D01*
X0311236Y0303346D01*
X0309268Y0303346D02*
X0309268Y0298772D01*
X0309268Y0303346D01*
X0309268Y0303346D01*
X0309268Y0303347D02*
X0309268Y0303347D01*
X0309268Y0307921D01*
X0310016Y0307921D01*
X0310398Y0307819D01*
X0310740Y0307622D01*
X0310840Y0307521D01*
X0311257Y0307521D01*
X0311123Y0307655D01*
X0310714Y0308643D01*
X0310714Y0309712D01*
X0311123Y0310699D01*
X0311544Y0311120D01*
X0308145Y0311120D01*
X0308136Y0311111D01*
X0307485Y0311120D01*
X0307128Y0311120D01*
X0307128Y0309249D01*
X0307962Y0308415D01*
X0308469Y0307908D01*
X0308519Y0307921D01*
X0309268Y0307921D01*
X0309268Y0303347D01*
X0309268Y0303819D02*
X0309268Y0303819D01*
X0309268Y0302821D02*
X0309268Y0302821D01*
X0309268Y0301822D02*
X0309268Y0301822D01*
X0309268Y0300824D02*
X0309268Y0300824D01*
X0309268Y0299825D02*
X0309268Y0299825D01*
X0309268Y0298827D02*
X0309268Y0298827D01*
X0308313Y0298827D02*
X0304962Y0298827D01*
X0304119Y0297828D02*
X0309501Y0297828D01*
X0309474Y0296830D02*
X0303282Y0296830D01*
X0303491Y0295831D02*
X0309448Y0295831D01*
X0309422Y0294833D02*
X0303315Y0294833D01*
X0303875Y0293834D02*
X0309395Y0293834D01*
X0312811Y0293626D02*
X0312811Y0288016D01*
X0314780Y0288016D02*
X0314780Y0290673D01*
X0316551Y0292445D01*
X0328362Y0292445D01*
X0331709Y0295791D01*
X0337850Y0295791D01*
X0337969Y0295909D01*
X0335449Y0309768D02*
X0329469Y0309768D01*
X0329272Y0309571D01*
X0325213Y0309571D01*
X0321276Y0312720D01*
X0320094Y0309374D02*
X0318315Y0309402D01*
X0317142Y0306448D01*
X0317142Y0303346D01*
X0315173Y0303346D02*
X0315173Y0299925D01*
X0317732Y0297760D01*
X0320094Y0297760D01*
X0314386Y0295594D02*
X0312811Y0293626D01*
X0313205Y0303346D02*
X0313402Y0303543D01*
X0313402Y0309177D01*
X0311058Y0307813D02*
X0310407Y0307813D01*
X0310714Y0308812D02*
X0307565Y0308812D01*
X0307128Y0309810D02*
X0310755Y0309810D01*
X0311233Y0310809D02*
X0307128Y0310809D01*
X0305528Y0312749D02*
X0305528Y0308587D01*
X0303928Y0310809D02*
X0299936Y0310809D01*
X0309268Y0307813D02*
X0309268Y0307813D01*
X0309268Y0306815D02*
X0309268Y0306815D01*
X0309268Y0305816D02*
X0309268Y0305816D01*
X0309268Y0304818D02*
X0309268Y0304818D01*
X0286861Y0306815D02*
X0285546Y0306815D01*
X0284548Y0307813D02*
X0286861Y0307813D01*
X0286861Y0308812D02*
X0283549Y0308812D01*
X0282551Y0309810D02*
X0286861Y0309810D01*
X0286861Y0310809D02*
X0281552Y0310809D01*
X0280554Y0311808D02*
X0286861Y0311808D01*
X0286861Y0312806D02*
X0279555Y0312806D01*
X0275171Y0313805D02*
X0286861Y0313805D01*
X0286861Y0314803D02*
X0275001Y0314803D01*
X0272917Y0321793D02*
X0271917Y0321793D01*
X0271917Y0322791D02*
X0272917Y0322791D01*
X0272917Y0323790D02*
X0271917Y0323790D01*
X0271917Y0324788D02*
X0272917Y0324788D01*
X0268615Y0324788D02*
X0268204Y0324788D01*
X0261670Y0324788D02*
X0222063Y0324788D01*
X0222063Y0323790D02*
X0261278Y0323790D01*
X0255271Y0314803D02*
X0251536Y0314803D01*
X0248244Y0312327D02*
X0247890Y0311972D01*
X0247890Y0305634D01*
X0249780Y0303744D01*
X0245727Y0303819D02*
X0242219Y0303819D01*
X0242311Y0304818D02*
X0245727Y0304818D01*
X0245727Y0305816D02*
X0242373Y0305816D01*
X0242436Y0306815D02*
X0245783Y0306815D01*
X0246290Y0307813D02*
X0242498Y0307813D01*
X0242561Y0308812D02*
X0246290Y0308812D01*
X0249490Y0307813D02*
X0261162Y0307813D01*
X0266419Y0306815D02*
X0281021Y0306815D01*
X0282019Y0305816D02*
X0266419Y0305816D01*
X0271681Y0304818D02*
X0272681Y0304818D01*
X0272681Y0303819D02*
X0271681Y0303819D01*
X0271681Y0302821D02*
X0272681Y0302821D01*
X0276240Y0300824D02*
X0276856Y0300824D01*
X0281875Y0294833D02*
X0282108Y0294833D01*
X0270857Y0292836D02*
X0241928Y0292836D01*
X0241928Y0293834D02*
X0245475Y0293834D01*
X0245327Y0294833D02*
X0241928Y0294833D01*
X0241906Y0295831D02*
X0245327Y0295831D01*
X0245327Y0297828D02*
X0240952Y0297828D01*
X0241509Y0296830D02*
X0249279Y0296830D01*
X0249280Y0295831D02*
X0250279Y0295831D01*
X0250279Y0294833D02*
X0249280Y0294833D01*
X0249280Y0293834D02*
X0250279Y0293834D01*
X0253084Y0291837D02*
X0241928Y0291837D01*
X0241928Y0290839D02*
X0252329Y0290839D01*
X0252295Y0289840D02*
X0241928Y0289840D01*
X0241928Y0288842D02*
X0252295Y0288842D01*
X0254085Y0293834D02*
X0269946Y0293834D01*
X0268948Y0294833D02*
X0254232Y0294833D01*
X0245727Y0300824D02*
X0235020Y0300824D01*
X0233310Y0301822D02*
X0238105Y0301822D01*
X0236784Y0302821D02*
X0232747Y0302821D01*
X0232334Y0303819D02*
X0236283Y0303819D01*
X0236162Y0304818D02*
X0231754Y0304818D01*
X0230755Y0305816D02*
X0236224Y0305816D01*
X0236287Y0306815D02*
X0222063Y0306815D01*
X0222063Y0307813D02*
X0225182Y0307813D01*
X0224183Y0308812D02*
X0222063Y0308812D01*
X0222063Y0309810D02*
X0223603Y0309810D01*
X0223190Y0310809D02*
X0222063Y0310809D01*
X0222063Y0311808D02*
X0223169Y0311808D01*
X0223184Y0312806D02*
X0222063Y0312806D01*
X0222063Y0313805D02*
X0223597Y0313805D01*
X0224168Y0314803D02*
X0222063Y0314803D01*
X0222063Y0315802D02*
X0225167Y0315802D01*
X0222063Y0316800D02*
X0233356Y0316800D01*
X0234782Y0317799D02*
X0222063Y0317799D01*
X0222063Y0318797D02*
X0234782Y0318797D01*
X0234782Y0319796D02*
X0222063Y0319796D01*
X0222063Y0320794D02*
X0234782Y0320794D01*
X0234782Y0321793D02*
X0222063Y0321793D01*
X0222063Y0322791D02*
X0244310Y0322791D01*
X0248244Y0312327D02*
X0256315Y0312327D01*
X0245727Y0302821D02*
X0241730Y0302821D01*
X0240329Y0301822D02*
X0245727Y0301822D01*
X0245332Y0299825D02*
X0236730Y0299825D01*
X0238440Y0298827D02*
X0245327Y0298827D01*
X0236281Y0293834D02*
X0222063Y0293834D01*
X0222063Y0292836D02*
X0236528Y0292836D01*
X0236528Y0291837D02*
X0222063Y0291837D01*
X0222063Y0290839D02*
X0236528Y0290839D01*
X0236528Y0289840D02*
X0222063Y0289840D01*
X0222063Y0288842D02*
X0236528Y0288842D01*
X0236528Y0287843D02*
X0222063Y0287843D01*
X0222063Y0286845D02*
X0236528Y0286845D01*
X0236528Y0285846D02*
X0222063Y0285846D01*
X0222063Y0284848D02*
X0236528Y0284848D01*
X0236528Y0283849D02*
X0222063Y0283849D01*
X0222063Y0282851D02*
X0236528Y0282851D01*
X0236528Y0281852D02*
X0222063Y0281852D01*
X0222063Y0280854D02*
X0236528Y0280854D01*
X0236528Y0279855D02*
X0222063Y0279855D01*
X0222063Y0278857D02*
X0236528Y0278857D01*
X0236528Y0277858D02*
X0222063Y0277858D01*
X0222063Y0276860D02*
X0236528Y0276860D01*
X0236528Y0275861D02*
X0222063Y0275861D01*
X0222063Y0274863D02*
X0236528Y0274863D01*
X0235569Y0273864D02*
X0222063Y0273864D01*
X0222063Y0272866D02*
X0232287Y0272866D01*
X0230602Y0271867D02*
X0222063Y0271867D01*
X0222063Y0270869D02*
X0229699Y0270869D01*
X0229285Y0269870D02*
X0222063Y0269870D01*
X0222063Y0268872D02*
X0229035Y0268872D01*
X0229035Y0267873D02*
X0222063Y0267873D01*
X0222063Y0266875D02*
X0229234Y0266875D01*
X0229648Y0265876D02*
X0222063Y0265876D01*
X0222063Y0264877D02*
X0230480Y0264877D01*
X0231992Y0263879D02*
X0222063Y0263879D01*
X0222063Y0262880D02*
X0232323Y0262880D01*
X0232880Y0263111D02*
X0231116Y0262380D01*
X0229765Y0261030D01*
X0229035Y0259266D01*
X0229035Y0257485D01*
X0225871Y0255258D01*
X0225652Y0255167D01*
X0225436Y0254952D01*
X0225187Y0254776D01*
X0225060Y0254575D01*
X0224892Y0254407D01*
X0224776Y0254126D01*
X0224613Y0253869D01*
X0224572Y0253635D01*
X0224481Y0253415D01*
X0224481Y0253111D01*
X0224429Y0252811D01*
X0224481Y0252579D01*
X0224481Y0242105D01*
X0224892Y0241112D01*
X0232766Y0233238D01*
X0233526Y0232479D01*
X0234518Y0232068D01*
X0247620Y0232068D01*
X0248005Y0231683D01*
X0249770Y0230952D01*
X0251679Y0230952D01*
X0253443Y0231683D01*
X0254794Y0233033D01*
X0255524Y0234797D01*
X0255524Y0236707D01*
X0254794Y0238471D01*
X0253443Y0239821D01*
X0251679Y0240552D01*
X0249770Y0240552D01*
X0248005Y0239821D01*
X0246655Y0238471D01*
X0246240Y0237468D01*
X0236173Y0237468D01*
X0229881Y0243760D01*
X0229881Y0245476D01*
X0231116Y0244242D01*
X0232880Y0243511D01*
X0234789Y0243511D01*
X0236554Y0244242D01*
X0237904Y0245592D01*
X0238635Y0247356D01*
X0238635Y0249266D01*
X0237904Y0251030D01*
X0236554Y0252380D01*
X0234789Y0253111D01*
X0232880Y0253111D01*
X0231233Y0252429D01*
X0232811Y0253540D01*
X0232880Y0253511D01*
X0234789Y0253511D01*
X0236554Y0254242D01*
X0237904Y0255592D01*
X0238635Y0257356D01*
X0238635Y0259266D01*
X0237904Y0261030D01*
X0236554Y0262380D01*
X0234789Y0263111D01*
X0232880Y0263111D01*
X0235346Y0262880D02*
X0243281Y0262880D01*
X0244280Y0261882D02*
X0237052Y0261882D01*
X0237965Y0260883D02*
X0245278Y0260883D01*
X0246277Y0259885D02*
X0238378Y0259885D01*
X0238635Y0258886D02*
X0247276Y0258886D01*
X0248274Y0257888D02*
X0238635Y0257888D01*
X0238441Y0256889D02*
X0248594Y0256889D01*
X0248594Y0255891D02*
X0238028Y0255891D01*
X0237204Y0254892D02*
X0248594Y0254892D01*
X0248787Y0253894D02*
X0235714Y0253894D01*
X0235310Y0252895D02*
X0248994Y0252895D01*
X0248994Y0251897D02*
X0237037Y0251897D01*
X0237958Y0250898D02*
X0248994Y0250898D01*
X0249529Y0249900D02*
X0238372Y0249900D01*
X0238635Y0248901D02*
X0249757Y0248901D01*
X0249932Y0247903D02*
X0238635Y0247903D01*
X0238447Y0246904D02*
X0250596Y0246904D01*
X0251595Y0245906D02*
X0238034Y0245906D01*
X0237219Y0244907D02*
X0252593Y0244907D01*
X0253592Y0243909D02*
X0235750Y0243909D01*
X0231920Y0243909D02*
X0229881Y0243909D01*
X0229881Y0244907D02*
X0230450Y0244907D01*
X0230731Y0242910D02*
X0268212Y0242910D01*
X0268680Y0241912D02*
X0231729Y0241912D01*
X0232728Y0240913D02*
X0260071Y0240913D01*
X0260224Y0240913D02*
X0261224Y0240913D01*
X0261224Y0240938D02*
X0261224Y0236252D01*
X0260224Y0236252D01*
X0260224Y0235252D01*
X0255539Y0235252D01*
X0255652Y0234534D01*
X0255905Y0233756D01*
X0256277Y0233027D01*
X0256758Y0232364D01*
X0257337Y0231786D01*
X0257999Y0231305D01*
X0258728Y0230933D01*
X0259507Y0230680D01*
X0260224Y0230566D01*
X0260224Y0235252D01*
X0261224Y0235252D01*
X0261224Y0230566D01*
X0261942Y0230680D01*
X0262721Y0230933D01*
X0263450Y0231305D01*
X0264112Y0231786D01*
X0264691Y0232364D01*
X0265172Y0233027D01*
X0265543Y0233756D01*
X0265796Y0234534D01*
X0265910Y0235252D01*
X0261224Y0235252D01*
X0261224Y0236252D01*
X0265910Y0236252D01*
X0265796Y0236970D01*
X0265543Y0237748D01*
X0265172Y0238477D01*
X0264691Y0239140D01*
X0264112Y0239718D01*
X0263450Y0240199D01*
X0262721Y0240571D01*
X0261942Y0240824D01*
X0261224Y0240938D01*
X0261378Y0240913D02*
X0268680Y0240913D01*
X0268680Y0239915D02*
X0263842Y0239915D01*
X0264853Y0238916D02*
X0268957Y0238916D01*
X0268411Y0237918D02*
X0265457Y0237918D01*
X0265804Y0236919D02*
X0268280Y0236919D01*
X0268280Y0235921D02*
X0261224Y0235921D01*
X0261224Y0236919D02*
X0260224Y0236919D01*
X0260224Y0236252D02*
X0260224Y0240938D01*
X0259507Y0240824D01*
X0258728Y0240571D01*
X0257999Y0240199D01*
X0257337Y0239718D01*
X0256758Y0239140D01*
X0256277Y0238477D01*
X0255905Y0237748D01*
X0255652Y0236970D01*
X0255539Y0236252D01*
X0260224Y0236252D01*
X0260224Y0235921D02*
X0255524Y0235921D01*
X0255524Y0234922D02*
X0255591Y0234922D01*
X0255851Y0233924D02*
X0255163Y0233924D01*
X0254686Y0232925D02*
X0256351Y0232925D01*
X0257196Y0231927D02*
X0253687Y0231927D01*
X0258743Y0230928D02*
X0222063Y0230928D01*
X0222063Y0229930D02*
X0296035Y0229930D01*
X0296909Y0228931D02*
X0222063Y0228931D01*
X0222063Y0227933D02*
X0296909Y0227933D01*
X0296986Y0226934D02*
X0222063Y0226934D01*
X0222063Y0225936D02*
X0297399Y0225936D01*
X0298058Y0224937D02*
X0222063Y0224937D01*
X0222063Y0223939D02*
X0299152Y0223939D01*
X0304266Y0223939D02*
X0309152Y0223939D01*
X0308058Y0224937D02*
X0305359Y0224937D01*
X0306018Y0225936D02*
X0307399Y0225936D01*
X0306986Y0226934D02*
X0306432Y0226934D01*
X0306509Y0227933D02*
X0306909Y0227933D01*
X0306909Y0228931D02*
X0306509Y0228931D01*
X0306136Y0229930D02*
X0307281Y0229930D01*
X0307774Y0230928D02*
X0305644Y0230928D01*
X0304645Y0231927D02*
X0308772Y0231927D01*
X0309546Y0232925D02*
X0300677Y0232925D01*
X0299678Y0233924D02*
X0309546Y0233924D01*
X0309546Y0234922D02*
X0298680Y0234922D01*
X0297681Y0235921D02*
X0309546Y0235921D01*
X0305324Y0236919D02*
X0296683Y0236919D01*
X0295684Y0237918D02*
X0305136Y0237918D01*
X0299559Y0238916D02*
X0294686Y0238916D01*
X0294684Y0239915D02*
X0298719Y0239915D01*
X0298365Y0240913D02*
X0294684Y0240913D01*
X0294684Y0241912D02*
X0298365Y0241912D01*
X0298745Y0242910D02*
X0294659Y0242910D01*
X0293276Y0243909D02*
X0299620Y0243909D01*
X0305136Y0244907D02*
X0291698Y0244907D01*
X0289284Y0238916D02*
X0276507Y0238916D01*
X0277053Y0237918D02*
X0289284Y0237918D01*
X0289426Y0236919D02*
X0277185Y0236919D01*
X0277185Y0235921D02*
X0290044Y0235921D01*
X0291043Y0234922D02*
X0273232Y0234922D01*
X0273232Y0233924D02*
X0272232Y0233924D01*
X0272232Y0234228D02*
X0272232Y0230669D01*
X0269582Y0230669D01*
X0269201Y0230772D01*
X0268859Y0230969D01*
X0268579Y0231248D01*
X0268382Y0231590D01*
X0268280Y0231972D01*
X0268280Y0234228D01*
X0272232Y0234228D01*
X0272232Y0234922D02*
X0265858Y0234922D01*
X0265598Y0233924D02*
X0268280Y0233924D01*
X0268280Y0232925D02*
X0265098Y0232925D01*
X0264253Y0231927D02*
X0268292Y0231927D01*
X0268929Y0230928D02*
X0262706Y0230928D01*
X0261224Y0230928D02*
X0260224Y0230928D01*
X0260224Y0231927D02*
X0261224Y0231927D01*
X0261224Y0232925D02*
X0260224Y0232925D01*
X0260224Y0233924D02*
X0261224Y0233924D01*
X0261224Y0234922D02*
X0260224Y0234922D01*
X0260224Y0237918D02*
X0261224Y0237918D01*
X0261224Y0238916D02*
X0260224Y0238916D01*
X0260224Y0239915D02*
X0261224Y0239915D01*
X0257607Y0239915D02*
X0253218Y0239915D01*
X0254348Y0238916D02*
X0256596Y0238916D01*
X0255992Y0237918D02*
X0255023Y0237918D01*
X0255436Y0236919D02*
X0255644Y0236919D01*
X0248231Y0239915D02*
X0233726Y0239915D01*
X0234725Y0238916D02*
X0247100Y0238916D01*
X0246426Y0237918D02*
X0235724Y0237918D01*
X0232081Y0233924D02*
X0222063Y0233924D01*
X0222063Y0234922D02*
X0231082Y0234922D01*
X0230084Y0235921D02*
X0222063Y0235921D01*
X0222063Y0236919D02*
X0229085Y0236919D01*
X0228087Y0237918D02*
X0222063Y0237918D01*
X0222063Y0238916D02*
X0227088Y0238916D01*
X0226090Y0239915D02*
X0222063Y0239915D01*
X0222063Y0240913D02*
X0225091Y0240913D01*
X0224561Y0241912D02*
X0222063Y0241912D01*
X0222063Y0242910D02*
X0224481Y0242910D01*
X0224481Y0243909D02*
X0222063Y0243909D01*
X0222063Y0244907D02*
X0224481Y0244907D01*
X0224481Y0245906D02*
X0222063Y0245906D01*
X0222063Y0246904D02*
X0224481Y0246904D01*
X0224481Y0247903D02*
X0222063Y0247903D01*
X0222063Y0248901D02*
X0224481Y0248901D01*
X0224481Y0249900D02*
X0222063Y0249900D01*
X0222063Y0250898D02*
X0224481Y0250898D01*
X0224481Y0251897D02*
X0222063Y0251897D01*
X0222063Y0252895D02*
X0224444Y0252895D01*
X0224629Y0253894D02*
X0222063Y0253894D01*
X0222063Y0254892D02*
X0225352Y0254892D01*
X0226770Y0255891D02*
X0222063Y0255891D01*
X0222063Y0256889D02*
X0228188Y0256889D01*
X0229035Y0257888D02*
X0222063Y0257888D01*
X0222063Y0258886D02*
X0229035Y0258886D01*
X0229291Y0259885D02*
X0222063Y0259885D01*
X0222063Y0260883D02*
X0229705Y0260883D01*
X0230617Y0261882D02*
X0222063Y0261882D01*
X0231895Y0252895D02*
X0232359Y0252895D01*
X0235678Y0263879D02*
X0242283Y0263879D01*
X0241284Y0264877D02*
X0237189Y0264877D01*
X0252232Y0266875D02*
X0253232Y0266875D01*
X0253232Y0267873D02*
X0252232Y0267873D01*
X0252232Y0268872D02*
X0253232Y0268872D01*
X0253232Y0269870D02*
X0252232Y0269870D01*
X0252732Y0270398D02*
X0252772Y0270398D01*
X0257913Y0275861D02*
X0259611Y0275861D01*
X0259152Y0276860D02*
X0258209Y0276860D01*
X0258209Y0277858D02*
X0259152Y0277858D01*
X0262614Y0279138D02*
X0269110Y0273429D01*
X0269110Y0270201D01*
X0265451Y0269870D02*
X0263872Y0269870D01*
X0264001Y0268872D02*
X0265451Y0268872D01*
X0265451Y0267873D02*
X0264293Y0267873D01*
X0264293Y0266875D02*
X0265451Y0266875D01*
X0277403Y0275861D02*
X0280320Y0275861D01*
X0282705Y0275861D02*
X0283705Y0275861D01*
X0283705Y0276860D02*
X0282705Y0276860D01*
X0282705Y0277858D02*
X0283705Y0277858D01*
X0283705Y0278857D02*
X0282705Y0278857D01*
X0279270Y0283849D02*
X0279222Y0283849D01*
X0254846Y0282851D02*
X0253846Y0282851D01*
X0253846Y0281852D02*
X0254846Y0281852D01*
X0254846Y0280854D02*
X0253846Y0280854D01*
X0253846Y0279855D02*
X0254846Y0279855D01*
X0234571Y0294833D02*
X0222063Y0294833D01*
X0222063Y0295831D02*
X0232861Y0295831D01*
X0231151Y0296830D02*
X0222063Y0296830D01*
X0222063Y0297828D02*
X0225167Y0297828D01*
X0224168Y0298827D02*
X0222063Y0298827D01*
X0222063Y0299825D02*
X0223597Y0299825D01*
X0223184Y0300824D02*
X0222063Y0300824D01*
X0222063Y0301822D02*
X0223169Y0301822D01*
X0223190Y0302821D02*
X0222063Y0302821D01*
X0222063Y0303819D02*
X0223603Y0303819D01*
X0224183Y0304818D02*
X0222063Y0304818D01*
X0222063Y0305816D02*
X0225182Y0305816D01*
X0230755Y0307813D02*
X0236349Y0307813D01*
X0236412Y0308812D02*
X0231754Y0308812D01*
X0232334Y0309810D02*
X0234782Y0309810D01*
X0234779Y0310809D02*
X0234782Y0310809D01*
X0287114Y0259885D02*
X0288114Y0259885D01*
X0288114Y0258886D02*
X0287114Y0258886D01*
X0287114Y0257888D02*
X0288114Y0257888D01*
X0288114Y0256889D02*
X0287114Y0256889D01*
X0291380Y0256889D02*
X0291890Y0256889D01*
X0304736Y0247903D02*
X0270857Y0247903D01*
X0271855Y0246904D02*
X0304736Y0246904D01*
X0304915Y0245906D02*
X0272854Y0245906D01*
X0277185Y0233924D02*
X0292041Y0233924D01*
X0293040Y0232925D02*
X0277185Y0232925D01*
X0277173Y0231927D02*
X0294038Y0231927D01*
X0295037Y0230928D02*
X0276535Y0230928D01*
X0273232Y0230928D02*
X0272232Y0230928D01*
X0272232Y0231927D02*
X0273232Y0231927D01*
X0273232Y0232925D02*
X0272232Y0232925D01*
X0247762Y0231927D02*
X0222063Y0231927D01*
X0222063Y0232925D02*
X0233079Y0232925D01*
X0311673Y0246904D02*
X0312617Y0246904D01*
X0312617Y0247903D02*
X0311673Y0247903D01*
X0311673Y0248901D02*
X0312617Y0248901D01*
X0363559Y0297445D02*
X0360646Y0300358D01*
X0360646Y0310555D01*
X0364268Y0314177D01*
X0365528Y0314177D01*
X0363890Y0315815D01*
X0359509Y0315815D01*
X0361326Y0317799D02*
X0391354Y0317799D01*
X0384661Y0325713D02*
X0382220Y0323272D01*
X0376197Y0330437D02*
X0381669Y0335713D01*
X0384661Y0335713D01*
X0389461Y0335772D02*
X0391354Y0335772D01*
X0391354Y0336770D02*
X0389419Y0336770D01*
X0389005Y0337769D02*
X0391354Y0337769D01*
X0391354Y0338767D02*
X0388395Y0338767D01*
X0389461Y0334773D02*
X0391354Y0334773D01*
X0391354Y0333775D02*
X0389054Y0333775D01*
X0388513Y0332776D02*
X0391354Y0332776D01*
X0391354Y0331778D02*
X0387515Y0331778D01*
X0380275Y0343760D02*
X0368116Y0343760D01*
X0369115Y0344758D02*
X0379861Y0344758D01*
X0387485Y0351748D02*
X0391354Y0351748D01*
X0391354Y0352746D02*
X0388484Y0352746D01*
X0389042Y0353745D02*
X0391354Y0353745D01*
X0391354Y0354744D02*
X0389455Y0354744D01*
X0389461Y0355742D02*
X0391354Y0355742D01*
X0391354Y0356741D02*
X0389431Y0356741D01*
X0389018Y0357739D02*
X0391354Y0357739D01*
X0391354Y0358738D02*
X0388425Y0358738D01*
X0387426Y0359736D02*
X0391354Y0359736D01*
X0368087Y0357917D02*
X0368087Y0345993D01*
X0347509Y0325415D01*
X0359472Y0319796D02*
X0360479Y0319796D01*
X0360685Y0323272D02*
X0364071Y0323272D01*
X0373028Y0328782D02*
X0374051Y0328782D01*
X0361594Y0341763D02*
X0354035Y0341763D01*
X0353057Y0340764D02*
X0360595Y0340764D01*
X0359597Y0339766D02*
X0352079Y0339766D01*
X0355013Y0342761D02*
X0362592Y0342761D01*
X0363591Y0343760D02*
X0355991Y0343760D01*
X0356969Y0344758D02*
X0364589Y0344758D01*
X0365588Y0345757D02*
X0357953Y0345757D01*
X0358151Y0346755D02*
X0366487Y0346755D01*
X0366487Y0347754D02*
X0358151Y0347754D01*
X0358151Y0348752D02*
X0366487Y0348752D01*
X0356551Y0364177D02*
X0356551Y0373980D01*
X0356472Y0374059D01*
X0363462Y0311109D02*
X0368365Y0311109D01*
X0368365Y0310165D01*
X0366012Y0310165D01*
X0366012Y0307181D01*
X0365043Y0307181D01*
X0365043Y0310165D01*
X0362519Y0310165D01*
X0363462Y0311109D01*
X0363162Y0310809D02*
X0368365Y0310809D01*
X0366012Y0309810D02*
X0365043Y0309810D01*
X0365043Y0308812D02*
X0366012Y0308812D01*
X0366012Y0307813D02*
X0365043Y0307813D01*
X0365043Y0305816D02*
X0366012Y0305816D01*
X0366012Y0304818D02*
X0365043Y0304818D01*
X0365043Y0303819D02*
X0366012Y0303819D01*
X0367247Y0300824D02*
X0372113Y0300824D01*
X0371933Y0301822D02*
X0362246Y0301822D01*
X0362246Y0302821D02*
X0371754Y0302821D01*
X0372293Y0299825D02*
X0367612Y0299825D01*
X0367612Y0298827D02*
X0372473Y0298827D01*
X0372747Y0297828D02*
X0367612Y0297828D01*
X0367612Y0296830D02*
X0373528Y0296830D01*
X0379458Y0289840D02*
X0391354Y0289840D01*
X0391354Y0288842D02*
X0380233Y0288842D01*
X0381231Y0287843D02*
X0391354Y0287843D01*
X0391354Y0286845D02*
X0382230Y0286845D01*
X0383228Y0285846D02*
X0391354Y0285846D01*
X0391354Y0284848D02*
X0384227Y0284848D01*
X0385225Y0283849D02*
X0391354Y0283849D01*
X0391354Y0282851D02*
X0386224Y0282851D01*
X0387063Y0281852D02*
X0391354Y0281852D01*
X0391354Y0280854D02*
X0387361Y0280854D01*
X0387361Y0279855D02*
X0391354Y0279855D01*
X0391354Y0278857D02*
X0387361Y0278857D01*
X0387361Y0277858D02*
X0391354Y0277858D01*
X0391354Y0276860D02*
X0387743Y0276860D01*
X0387743Y0275861D02*
X0391354Y0275861D01*
X0391354Y0274863D02*
X0387400Y0274863D01*
X0386580Y0273864D02*
X0391354Y0273864D01*
X0391354Y0290839D02*
X0380456Y0290839D01*
X0381455Y0291837D02*
X0391354Y0291837D01*
X0391354Y0292836D02*
X0382453Y0292836D01*
X0383452Y0293834D02*
X0391354Y0293834D01*
X0391354Y0294833D02*
X0384450Y0294833D01*
X0385449Y0295831D02*
X0391354Y0295831D01*
X0391354Y0296830D02*
X0387235Y0296830D01*
X0388250Y0297828D02*
X0391354Y0297828D01*
X0391354Y0298827D02*
X0389249Y0298827D01*
X0389820Y0299825D02*
X0391354Y0299825D01*
X0391354Y0300824D02*
X0390234Y0300824D01*
X0390249Y0301822D02*
X0391354Y0301822D01*
X0391354Y0302821D02*
X0390228Y0302821D01*
X0389814Y0303819D02*
X0391354Y0303819D01*
X0391354Y0304818D02*
X0389234Y0304818D01*
X0388236Y0305816D02*
X0391354Y0305816D01*
X0366660Y0277858D02*
X0364332Y0277858D01*
X0364332Y0276860D02*
X0365661Y0276860D01*
X0364732Y0275861D02*
X0364332Y0275861D01*
X0364332Y0274863D02*
X0364732Y0274863D01*
X0352329Y0301855D02*
X0352772Y0302297D01*
X0352772Y0308665D01*
X0352772Y0302484D01*
X0352329Y0301855D01*
X0352772Y0308665D02*
X0351669Y0309768D01*
D33*
X0352329Y0301855D03*
X0359509Y0315815D03*
X0353509Y0323615D03*
X0345685Y0319807D03*
X0335449Y0309768D03*
X0323638Y0315476D03*
X0320094Y0309374D03*
X0313402Y0309177D03*
X0301394Y0309374D03*
X0298047Y0312720D03*
X0298047Y0322760D03*
X0309858Y0326697D03*
X0318717Y0329069D03*
X0337417Y0332799D03*
X0337811Y0337130D03*
X0338795Y0342642D03*
X0348047Y0348547D03*
X0348441Y0359177D03*
X0324031Y0358980D03*
X0315173Y0352287D03*
X0309268Y0347563D03*
X0282693Y0364689D03*
X0277575Y0369020D03*
X0234661Y0332406D03*
X0239386Y0327287D03*
X0229543Y0325319D03*
X0226394Y0334374D03*
X0256315Y0312327D03*
X0279543Y0300909D03*
X0290370Y0299728D03*
X0300803Y0295791D03*
X0307496Y0296382D03*
X0314386Y0295594D03*
X0320094Y0297760D03*
X0331906Y0277287D03*
X0342142Y0281618D03*
X0354740Y0282012D03*
X0338992Y0250909D03*
X0342535Y0245791D03*
X0283480Y0228469D03*
X0237811Y0226106D03*
X0371079Y0330634D03*
X0376197Y0330437D03*
D34*
X0373500Y0310437D02*
X0375528Y0299177D01*
X0373500Y0310437D02*
X0385449Y0311815D01*
X0318087Y0373213D02*
X0308126Y0374374D01*
X0318087Y0373213D02*
X0311709Y0385555D01*
X0239917Y0315713D02*
X0239228Y0304689D01*
X0239917Y0315713D02*
X0227969Y0311815D01*
X0301433Y0241382D02*
X0311118Y0241382D01*
X0311630Y0240870D02*
X0311945Y0241185D01*
X0311945Y0241598D01*
X0312614Y0239886D02*
X0312614Y0228980D01*
M02*
