G75*
%MOIN*%
%OFA0B0*%
%FSLAX25Y25*%
%IPPOS*%
%LPD*%
%AMOC8*
5,1,8,0,0,1.08239X$1,22.5*
%
%ADD10C,0.08674*%
%ADD11R,0.08200X0.08200*%
%ADD12OC8,0.08200*%
%ADD13C,0.08200*%
%ADD14C,0.04762*%
%ADD15C,0.03975*%
D10*
X0306709Y0149335D03*
X0306709Y0169020D03*
X0306709Y0188705D03*
X0306709Y0208390D03*
X0405134Y0306815D03*
X0424819Y0306815D03*
X0444504Y0306815D03*
X0464189Y0306815D03*
X0306709Y0405240D03*
X0306709Y0424925D03*
X0306709Y0444610D03*
X0306709Y0464295D03*
X0208283Y0306815D03*
X0188598Y0306815D03*
X0168913Y0306815D03*
X0149228Y0306815D03*
D11*
X0359532Y0273943D03*
D12*
X0359532Y0263943D03*
X0369532Y0263943D03*
X0369532Y0273943D03*
X0369532Y0253943D03*
X0359532Y0253943D03*
D13*
X0364268Y0231224D03*
X0374268Y0231224D03*
X0384268Y0231224D03*
X0354268Y0231224D03*
X0344268Y0231224D03*
X0334268Y0231224D03*
X0311709Y0228075D03*
X0301709Y0228075D03*
X0260724Y0235752D03*
X0250724Y0235752D03*
X0233835Y0248311D03*
X0233835Y0258311D03*
X0233835Y0268311D03*
X0227969Y0301815D03*
X0227969Y0311815D03*
X0301709Y0385555D03*
X0311709Y0385555D03*
X0384661Y0375713D03*
X0384661Y0365713D03*
X0384661Y0355713D03*
X0384661Y0345713D03*
X0384661Y0335713D03*
X0384661Y0325713D03*
X0385449Y0311815D03*
X0385449Y0301815D03*
D14*
X0384661Y0276303D03*
X0284661Y0354846D03*
X0280331Y0357602D03*
X0276000Y0360752D03*
X0272457Y0364689D03*
X0267732Y0367839D03*
X0264189Y0364295D03*
X0260252Y0367839D03*
X0263402Y0371382D03*
X0259858Y0375319D03*
X0255921Y0378862D03*
X0251984Y0374925D03*
X0255921Y0371382D03*
X0261433Y0354846D03*
X0266157Y0352091D03*
X0268913Y0347760D03*
X0273638Y0344610D03*
X0281118Y0350909D03*
X0264189Y0334768D03*
X0258677Y0337524D03*
X0255134Y0341854D03*
X0251197Y0338705D03*
X0246866Y0342248D03*
X0251197Y0345004D03*
X0239780Y0338705D03*
X0245685Y0337130D03*
X0235449Y0343035D03*
X0229937Y0343823D03*
X0231906Y0338705D03*
X0233480Y0348547D03*
X0229543Y0351303D03*
X0225213Y0347760D03*
X0268126Y0280043D03*
X0268126Y0255634D03*
D15*
X0237811Y0226106D03*
X0283480Y0228469D03*
X0331906Y0277287D03*
X0342142Y0281618D03*
X0354740Y0282012D03*
X0352329Y0301855D03*
X0359509Y0315815D03*
X0353509Y0323615D03*
X0345685Y0319807D03*
X0335449Y0309768D03*
X0323638Y0315476D03*
X0320094Y0309374D03*
X0313402Y0309177D03*
X0301394Y0309374D03*
X0298047Y0312720D03*
X0298047Y0322760D03*
X0309858Y0326697D03*
X0318717Y0329069D03*
X0337417Y0332799D03*
X0337811Y0337130D03*
X0338795Y0342642D03*
X0348047Y0348547D03*
X0348441Y0359177D03*
X0324031Y0358980D03*
X0315173Y0352287D03*
X0309268Y0347563D03*
X0282693Y0364689D03*
X0277575Y0369020D03*
X0234661Y0332406D03*
X0239386Y0327287D03*
X0229543Y0325319D03*
X0226394Y0334374D03*
X0256315Y0312327D03*
X0279543Y0300909D03*
X0290370Y0299728D03*
X0300803Y0295791D03*
X0307496Y0296382D03*
X0314386Y0295594D03*
X0320094Y0297760D03*
X0338992Y0250909D03*
X0342535Y0245791D03*
X0371079Y0330634D03*
X0376197Y0330437D03*
M02*
