%
M48
M72
T01C0.0157
T02C0.0236
T03C0.0400
T04C0.0787
%
T01
X23781Y22611
X28348Y22847
X33191Y27729
X34214Y28162
X35474Y28201
X35233Y30185
X35951Y31581
X35351Y32361
X34569Y31981
X33545Y30977
X32364Y31548
X32009Y30937
X31340Y30918
X30139Y30937
X29805Y31272
X29805Y32276
X30986Y32670
X31872Y32907
X33742Y33280
X33781Y33713
X33880Y34264
X34805Y34855
X34844Y35918
X32403Y35898
X31517Y35229
X30927Y34756
X28269Y36469
X27757Y36902
X23466Y33241
X23939Y32729
X22954Y32532
X22639Y33437
X25631Y31233
X27954Y30091
X29037Y29973
X30080Y29579
X30750Y29638
X31439Y29559
X32009Y29776
X33899Y25091
X34254Y24579
X37108Y33063
X37620Y33044
T02
X38466Y27630
X28466Y35485
X28033Y35760
X27600Y36075
X27246Y36469
X26773Y36784
X26419Y36430
X26025Y36784
X26340Y37138
X25986Y37532
X25592Y37886
X25198Y37493
X25592Y37138
X26143Y35485
X26616Y35209
X26891Y34776
X27364Y34461
X28112Y35091
X26419Y33477
X25868Y33752
X25513Y34185
X25120Y33870
X24687Y34225
X25120Y34500
X23978Y33870
X24569Y33713
X23545Y34304
X22994Y34382
X23191Y33870
X23348Y34855
X22954Y35130
X22521Y34776
X26813Y28004
X26813Y25563
T03
X26072Y23575
X25072Y23575
X23383Y24831
X23383Y25831
X23383Y26831
X22797Y30181
X22797Y31181
X30171Y38556
X31171Y38556
X38466Y37571
X38466Y36571
X38466Y35571
X38466Y34571
X38466Y33571
X38466Y32571
X38545Y31181
X38545Y30181
X36953Y27394
X36953Y26394
X36953Y25394
X35953Y25394
X35953Y26394
X35953Y27394
X36427Y23122
X37427Y23122
X38427Y23122
X35427Y23122
X34427Y23122
X33427Y23122
X31171Y22807
X30171Y22807
T04
X30671Y20839
X30671Y18870
X30671Y16902
X30671Y14933
X40513Y30681
X42482Y30681
X44450Y30681
X46419Y30681
X30671Y40524
X30671Y42493
X30671Y44461
X30671Y46430
X20828Y30681
X18860Y30681
X16891Y30681
X14923Y30681
M30
