G75*
%MOIN*%
%OFA0B0*%
%FSLAX25Y25*%
%IPPOS*%
%LPD*%
%AMOC8*
5,1,8,0,0,1.08239X$1,22.5*
%
%ADD10C,0.01000*%
%ADD11C,0.00000*%
D10*
X0218126Y0218232D02*
X0218126Y0310752D01*
X0141354Y0310752D01*
X0125606Y0295004D01*
X0098047Y0295004D01*
X0098047Y0310752D01*
X0098048Y0310752D02*
X0098340Y0310472D01*
X0098639Y0310199D01*
X0098944Y0309933D01*
X0099256Y0309675D01*
X0099575Y0309425D01*
X0099899Y0309182D01*
X0100229Y0308948D01*
X0100565Y0308722D01*
X0100906Y0308503D01*
X0101252Y0308294D01*
X0101604Y0308093D01*
X0101960Y0307900D01*
X0102321Y0307716D01*
X0102686Y0307541D01*
X0103055Y0307376D01*
X0103429Y0307219D01*
X0103806Y0307071D01*
X0104186Y0306933D01*
X0104570Y0306804D01*
X0104957Y0306684D01*
X0105346Y0306574D01*
X0105739Y0306474D01*
X0106133Y0306383D01*
X0106530Y0306301D01*
X0106928Y0306230D01*
X0107329Y0306168D01*
X0107730Y0306116D01*
X0108133Y0306074D01*
X0108536Y0306042D01*
X0108941Y0306019D01*
X0109345Y0306007D01*
X0109750Y0306004D01*
X0110155Y0306012D01*
X0110560Y0306029D01*
X0110964Y0306056D01*
X0111367Y0306093D01*
X0111769Y0306140D01*
X0112170Y0306196D01*
X0112569Y0306263D01*
X0112967Y0306339D01*
X0113363Y0306425D01*
X0113756Y0306520D01*
X0114147Y0306625D01*
X0114536Y0306740D01*
X0114921Y0306864D01*
X0115303Y0306997D01*
X0115682Y0307140D01*
X0116058Y0307292D01*
X0116429Y0307453D01*
X0116796Y0307624D01*
X0117160Y0307803D01*
X0117518Y0307991D01*
X0117872Y0308187D01*
X0118221Y0308392D01*
X0118565Y0308606D01*
X0118904Y0308828D01*
X0119237Y0309059D01*
X0119564Y0309297D01*
X0119885Y0309543D01*
X0120201Y0309797D01*
X0120510Y0310059D01*
X0120812Y0310328D01*
X0121108Y0310604D01*
X0121397Y0310888D01*
X0121679Y0311179D01*
X0121954Y0311476D01*
X0122221Y0311780D01*
X0122481Y0312091D01*
X0122733Y0312407D01*
X0122978Y0312730D01*
X0123214Y0313059D01*
X0123442Y0313393D01*
X0123662Y0313733D01*
X0123874Y0314078D01*
X0124077Y0314429D01*
X0124272Y0314784D01*
X0124458Y0315143D01*
X0124635Y0315508D01*
X0124803Y0315876D01*
X0124962Y0316248D01*
X0125112Y0316625D01*
X0125252Y0317004D01*
X0125383Y0317387D01*
X0125505Y0317773D01*
X0125618Y0318162D01*
X0125720Y0318554D01*
X0125814Y0318948D01*
X0125897Y0319344D01*
X0125971Y0319742D01*
X0126035Y0320142D01*
X0126089Y0320543D01*
X0126134Y0320946D01*
X0126168Y0321349D01*
X0126193Y0321753D01*
X0126208Y0322158D01*
X0126213Y0322563D01*
X0126208Y0322968D01*
X0126193Y0323373D01*
X0126168Y0323777D01*
X0126134Y0324180D01*
X0126089Y0324583D01*
X0126035Y0324984D01*
X0125971Y0325384D01*
X0125897Y0325782D01*
X0125814Y0326178D01*
X0125720Y0326572D01*
X0125618Y0326964D01*
X0125505Y0327353D01*
X0125383Y0327739D01*
X0125252Y0328122D01*
X0125112Y0328501D01*
X0124962Y0328878D01*
X0124803Y0329250D01*
X0124635Y0329618D01*
X0124458Y0329983D01*
X0124272Y0330342D01*
X0124077Y0330697D01*
X0123874Y0331048D01*
X0123662Y0331393D01*
X0123442Y0331733D01*
X0123214Y0332067D01*
X0122978Y0332396D01*
X0122733Y0332719D01*
X0122481Y0333035D01*
X0122221Y0333346D01*
X0121954Y0333650D01*
X0121679Y0333947D01*
X0121397Y0334238D01*
X0121108Y0334522D01*
X0120812Y0334798D01*
X0120510Y0335067D01*
X0120201Y0335329D01*
X0119885Y0335583D01*
X0119564Y0335829D01*
X0119237Y0336067D01*
X0118904Y0336298D01*
X0118565Y0336520D01*
X0118221Y0336734D01*
X0117872Y0336939D01*
X0117518Y0337135D01*
X0117160Y0337323D01*
X0116796Y0337502D01*
X0116429Y0337673D01*
X0116058Y0337834D01*
X0115682Y0337986D01*
X0115303Y0338129D01*
X0114921Y0338262D01*
X0114536Y0338386D01*
X0114147Y0338501D01*
X0113756Y0338606D01*
X0113363Y0338701D01*
X0112967Y0338787D01*
X0112569Y0338863D01*
X0112170Y0338930D01*
X0111769Y0338986D01*
X0111367Y0339033D01*
X0110964Y0339070D01*
X0110560Y0339097D01*
X0110155Y0339114D01*
X0109750Y0339122D01*
X0109345Y0339119D01*
X0108941Y0339107D01*
X0108536Y0339084D01*
X0108133Y0339052D01*
X0107730Y0339010D01*
X0107329Y0338958D01*
X0106928Y0338896D01*
X0106530Y0338825D01*
X0106133Y0338743D01*
X0105739Y0338652D01*
X0105346Y0338552D01*
X0104957Y0338442D01*
X0104570Y0338322D01*
X0104186Y0338193D01*
X0103806Y0338055D01*
X0103429Y0337907D01*
X0103055Y0337750D01*
X0102686Y0337585D01*
X0102321Y0337410D01*
X0101960Y0337226D01*
X0101604Y0337033D01*
X0101252Y0336832D01*
X0100906Y0336623D01*
X0100565Y0336404D01*
X0100229Y0336178D01*
X0099899Y0335944D01*
X0099575Y0335701D01*
X0099256Y0335451D01*
X0098944Y0335193D01*
X0098639Y0334927D01*
X0098340Y0334654D01*
X0098048Y0334374D01*
X0098047Y0334374D02*
X0098047Y0350122D01*
X0125606Y0350122D01*
X0141354Y0334374D01*
X0218126Y0334374D01*
X0218126Y0426894D01*
X0310646Y0426894D01*
X0310646Y0503665D01*
X0294898Y0519413D01*
X0294898Y0546972D01*
X0310646Y0546972D01*
X0310366Y0546680D01*
X0310093Y0546381D01*
X0309827Y0546076D01*
X0309569Y0545764D01*
X0309319Y0545445D01*
X0309076Y0545121D01*
X0308842Y0544791D01*
X0308616Y0544455D01*
X0308397Y0544114D01*
X0308188Y0543768D01*
X0307987Y0543416D01*
X0307794Y0543060D01*
X0307610Y0542699D01*
X0307435Y0542334D01*
X0307270Y0541965D01*
X0307113Y0541591D01*
X0306965Y0541214D01*
X0306827Y0540834D01*
X0306698Y0540450D01*
X0306578Y0540063D01*
X0306468Y0539674D01*
X0306368Y0539281D01*
X0306277Y0538887D01*
X0306195Y0538490D01*
X0306124Y0538092D01*
X0306062Y0537691D01*
X0306010Y0537290D01*
X0305968Y0536887D01*
X0305936Y0536484D01*
X0305913Y0536079D01*
X0305901Y0535675D01*
X0305898Y0535270D01*
X0305906Y0534865D01*
X0305923Y0534460D01*
X0305950Y0534056D01*
X0305987Y0533653D01*
X0306034Y0533251D01*
X0306090Y0532850D01*
X0306157Y0532451D01*
X0306233Y0532053D01*
X0306319Y0531657D01*
X0306414Y0531264D01*
X0306519Y0530873D01*
X0306634Y0530484D01*
X0306758Y0530099D01*
X0306891Y0529717D01*
X0307034Y0529338D01*
X0307186Y0528962D01*
X0307347Y0528591D01*
X0307518Y0528224D01*
X0307697Y0527860D01*
X0307885Y0527502D01*
X0308081Y0527148D01*
X0308286Y0526799D01*
X0308500Y0526455D01*
X0308722Y0526116D01*
X0308953Y0525783D01*
X0309191Y0525456D01*
X0309437Y0525135D01*
X0309691Y0524819D01*
X0309953Y0524510D01*
X0310222Y0524208D01*
X0310498Y0523912D01*
X0310782Y0523623D01*
X0311073Y0523341D01*
X0311370Y0523066D01*
X0311674Y0522799D01*
X0311985Y0522539D01*
X0312301Y0522287D01*
X0312624Y0522042D01*
X0312953Y0521806D01*
X0313287Y0521578D01*
X0313627Y0521358D01*
X0313972Y0521146D01*
X0314323Y0520943D01*
X0314678Y0520748D01*
X0315037Y0520562D01*
X0315402Y0520385D01*
X0315770Y0520217D01*
X0316142Y0520058D01*
X0316519Y0519908D01*
X0316898Y0519768D01*
X0317281Y0519637D01*
X0317667Y0519515D01*
X0318056Y0519402D01*
X0318448Y0519300D01*
X0318842Y0519206D01*
X0319238Y0519123D01*
X0319636Y0519049D01*
X0320036Y0518985D01*
X0320437Y0518931D01*
X0320840Y0518886D01*
X0321243Y0518852D01*
X0321647Y0518827D01*
X0322052Y0518812D01*
X0322457Y0518807D01*
X0322862Y0518812D01*
X0323267Y0518827D01*
X0323671Y0518852D01*
X0324074Y0518886D01*
X0324477Y0518931D01*
X0324878Y0518985D01*
X0325278Y0519049D01*
X0325676Y0519123D01*
X0326072Y0519206D01*
X0326466Y0519300D01*
X0326858Y0519402D01*
X0327247Y0519515D01*
X0327633Y0519637D01*
X0328016Y0519768D01*
X0328395Y0519908D01*
X0328772Y0520058D01*
X0329144Y0520217D01*
X0329512Y0520385D01*
X0329877Y0520562D01*
X0330236Y0520748D01*
X0330591Y0520943D01*
X0330942Y0521146D01*
X0331287Y0521358D01*
X0331627Y0521578D01*
X0331961Y0521806D01*
X0332290Y0522042D01*
X0332613Y0522287D01*
X0332929Y0522539D01*
X0333240Y0522799D01*
X0333544Y0523066D01*
X0333841Y0523341D01*
X0334132Y0523623D01*
X0334416Y0523912D01*
X0334692Y0524208D01*
X0334961Y0524510D01*
X0335223Y0524819D01*
X0335477Y0525135D01*
X0335723Y0525456D01*
X0335961Y0525783D01*
X0336192Y0526116D01*
X0336414Y0526455D01*
X0336628Y0526799D01*
X0336833Y0527148D01*
X0337029Y0527502D01*
X0337217Y0527860D01*
X0337396Y0528224D01*
X0337567Y0528591D01*
X0337728Y0528962D01*
X0337880Y0529338D01*
X0338023Y0529717D01*
X0338156Y0530099D01*
X0338280Y0530484D01*
X0338395Y0530873D01*
X0338500Y0531264D01*
X0338595Y0531657D01*
X0338681Y0532053D01*
X0338757Y0532451D01*
X0338824Y0532850D01*
X0338880Y0533251D01*
X0338927Y0533653D01*
X0338964Y0534056D01*
X0338991Y0534460D01*
X0339008Y0534865D01*
X0339016Y0535270D01*
X0339013Y0535675D01*
X0339001Y0536079D01*
X0338978Y0536484D01*
X0338946Y0536887D01*
X0338904Y0537290D01*
X0338852Y0537691D01*
X0338790Y0538092D01*
X0338719Y0538490D01*
X0338637Y0538887D01*
X0338546Y0539281D01*
X0338446Y0539674D01*
X0338336Y0540063D01*
X0338216Y0540450D01*
X0338087Y0540834D01*
X0337949Y0541214D01*
X0337801Y0541591D01*
X0337644Y0541965D01*
X0337479Y0542334D01*
X0337304Y0542699D01*
X0337120Y0543060D01*
X0336927Y0543416D01*
X0336726Y0543768D01*
X0336517Y0544114D01*
X0336298Y0544455D01*
X0336072Y0544791D01*
X0335838Y0545121D01*
X0335595Y0545445D01*
X0335345Y0545764D01*
X0335087Y0546076D01*
X0334821Y0546381D01*
X0334548Y0546680D01*
X0334268Y0546972D01*
X0350016Y0546972D01*
X0350016Y0519413D01*
X0334268Y0503665D01*
X0334268Y0426894D01*
X0426787Y0426894D01*
X0426787Y0334374D01*
X0503559Y0334374D01*
X0519307Y0350122D01*
X0546866Y0350122D01*
X0546866Y0334374D01*
X0546865Y0334374D02*
X0546573Y0334654D01*
X0546274Y0334927D01*
X0545969Y0335193D01*
X0545657Y0335451D01*
X0545338Y0335701D01*
X0545014Y0335944D01*
X0544684Y0336178D01*
X0544348Y0336404D01*
X0544007Y0336623D01*
X0543661Y0336832D01*
X0543309Y0337033D01*
X0542953Y0337226D01*
X0542592Y0337410D01*
X0542227Y0337585D01*
X0541858Y0337750D01*
X0541484Y0337907D01*
X0541107Y0338055D01*
X0540727Y0338193D01*
X0540343Y0338322D01*
X0539956Y0338442D01*
X0539567Y0338552D01*
X0539174Y0338652D01*
X0538780Y0338743D01*
X0538383Y0338825D01*
X0537985Y0338896D01*
X0537584Y0338958D01*
X0537183Y0339010D01*
X0536780Y0339052D01*
X0536377Y0339084D01*
X0535972Y0339107D01*
X0535568Y0339119D01*
X0535163Y0339122D01*
X0534758Y0339114D01*
X0534353Y0339097D01*
X0533949Y0339070D01*
X0533546Y0339033D01*
X0533144Y0338986D01*
X0532743Y0338930D01*
X0532344Y0338863D01*
X0531946Y0338787D01*
X0531550Y0338701D01*
X0531157Y0338606D01*
X0530766Y0338501D01*
X0530377Y0338386D01*
X0529992Y0338262D01*
X0529610Y0338129D01*
X0529231Y0337986D01*
X0528855Y0337834D01*
X0528484Y0337673D01*
X0528117Y0337502D01*
X0527753Y0337323D01*
X0527395Y0337135D01*
X0527041Y0336939D01*
X0526692Y0336734D01*
X0526348Y0336520D01*
X0526009Y0336298D01*
X0525676Y0336067D01*
X0525349Y0335829D01*
X0525028Y0335583D01*
X0524712Y0335329D01*
X0524403Y0335067D01*
X0524101Y0334798D01*
X0523805Y0334522D01*
X0523516Y0334238D01*
X0523234Y0333947D01*
X0522959Y0333650D01*
X0522692Y0333346D01*
X0522432Y0333035D01*
X0522180Y0332719D01*
X0521935Y0332396D01*
X0521699Y0332067D01*
X0521471Y0331733D01*
X0521251Y0331393D01*
X0521039Y0331048D01*
X0520836Y0330697D01*
X0520641Y0330342D01*
X0520455Y0329983D01*
X0520278Y0329618D01*
X0520110Y0329250D01*
X0519951Y0328878D01*
X0519801Y0328501D01*
X0519661Y0328122D01*
X0519530Y0327739D01*
X0519408Y0327353D01*
X0519295Y0326964D01*
X0519193Y0326572D01*
X0519099Y0326178D01*
X0519016Y0325782D01*
X0518942Y0325384D01*
X0518878Y0324984D01*
X0518824Y0324583D01*
X0518779Y0324180D01*
X0518745Y0323777D01*
X0518720Y0323373D01*
X0518705Y0322968D01*
X0518700Y0322563D01*
X0518705Y0322158D01*
X0518720Y0321753D01*
X0518745Y0321349D01*
X0518779Y0320946D01*
X0518824Y0320543D01*
X0518878Y0320142D01*
X0518942Y0319742D01*
X0519016Y0319344D01*
X0519099Y0318948D01*
X0519193Y0318554D01*
X0519295Y0318162D01*
X0519408Y0317773D01*
X0519530Y0317387D01*
X0519661Y0317004D01*
X0519801Y0316625D01*
X0519951Y0316248D01*
X0520110Y0315876D01*
X0520278Y0315508D01*
X0520455Y0315143D01*
X0520641Y0314784D01*
X0520836Y0314429D01*
X0521039Y0314078D01*
X0521251Y0313733D01*
X0521471Y0313393D01*
X0521699Y0313059D01*
X0521935Y0312730D01*
X0522180Y0312407D01*
X0522432Y0312091D01*
X0522692Y0311780D01*
X0522959Y0311476D01*
X0523234Y0311179D01*
X0523516Y0310888D01*
X0523805Y0310604D01*
X0524101Y0310328D01*
X0524403Y0310059D01*
X0524712Y0309797D01*
X0525028Y0309543D01*
X0525349Y0309297D01*
X0525676Y0309059D01*
X0526009Y0308828D01*
X0526348Y0308606D01*
X0526692Y0308392D01*
X0527041Y0308187D01*
X0527395Y0307991D01*
X0527753Y0307803D01*
X0528117Y0307624D01*
X0528484Y0307453D01*
X0528855Y0307292D01*
X0529231Y0307140D01*
X0529610Y0306997D01*
X0529992Y0306864D01*
X0530377Y0306740D01*
X0530766Y0306625D01*
X0531157Y0306520D01*
X0531550Y0306425D01*
X0531946Y0306339D01*
X0532344Y0306263D01*
X0532743Y0306196D01*
X0533144Y0306140D01*
X0533546Y0306093D01*
X0533949Y0306056D01*
X0534353Y0306029D01*
X0534758Y0306012D01*
X0535163Y0306004D01*
X0535568Y0306007D01*
X0535972Y0306019D01*
X0536377Y0306042D01*
X0536780Y0306074D01*
X0537183Y0306116D01*
X0537584Y0306168D01*
X0537985Y0306230D01*
X0538383Y0306301D01*
X0538780Y0306383D01*
X0539174Y0306474D01*
X0539567Y0306574D01*
X0539956Y0306684D01*
X0540343Y0306804D01*
X0540727Y0306933D01*
X0541107Y0307071D01*
X0541484Y0307219D01*
X0541858Y0307376D01*
X0542227Y0307541D01*
X0542592Y0307716D01*
X0542953Y0307900D01*
X0543309Y0308093D01*
X0543661Y0308294D01*
X0544007Y0308503D01*
X0544348Y0308722D01*
X0544684Y0308948D01*
X0545014Y0309182D01*
X0545338Y0309425D01*
X0545657Y0309675D01*
X0545969Y0309933D01*
X0546274Y0310199D01*
X0546573Y0310472D01*
X0546865Y0310752D01*
X0546866Y0310752D02*
X0546866Y0295004D01*
X0519307Y0295004D01*
X0503559Y0310752D01*
X0426787Y0310752D01*
X0426787Y0218232D01*
X0334268Y0218232D01*
X0334268Y0141461D01*
X0350016Y0125713D01*
X0350016Y0098154D01*
X0334268Y0098154D01*
X0334548Y0098446D01*
X0334821Y0098745D01*
X0335087Y0099050D01*
X0335345Y0099362D01*
X0335595Y0099681D01*
X0335838Y0100005D01*
X0336072Y0100335D01*
X0336298Y0100671D01*
X0336517Y0101012D01*
X0336726Y0101358D01*
X0336927Y0101710D01*
X0337120Y0102066D01*
X0337304Y0102427D01*
X0337479Y0102792D01*
X0337644Y0103161D01*
X0337801Y0103535D01*
X0337949Y0103912D01*
X0338087Y0104292D01*
X0338216Y0104676D01*
X0338336Y0105063D01*
X0338446Y0105452D01*
X0338546Y0105845D01*
X0338637Y0106239D01*
X0338719Y0106636D01*
X0338790Y0107034D01*
X0338852Y0107435D01*
X0338904Y0107836D01*
X0338946Y0108239D01*
X0338978Y0108642D01*
X0339001Y0109047D01*
X0339013Y0109451D01*
X0339016Y0109856D01*
X0339008Y0110261D01*
X0338991Y0110666D01*
X0338964Y0111070D01*
X0338927Y0111473D01*
X0338880Y0111875D01*
X0338824Y0112276D01*
X0338757Y0112675D01*
X0338681Y0113073D01*
X0338595Y0113469D01*
X0338500Y0113862D01*
X0338395Y0114253D01*
X0338280Y0114642D01*
X0338156Y0115027D01*
X0338023Y0115409D01*
X0337880Y0115788D01*
X0337728Y0116164D01*
X0337567Y0116535D01*
X0337396Y0116902D01*
X0337217Y0117266D01*
X0337029Y0117624D01*
X0336833Y0117978D01*
X0336628Y0118327D01*
X0336414Y0118671D01*
X0336192Y0119010D01*
X0335961Y0119343D01*
X0335723Y0119670D01*
X0335477Y0119991D01*
X0335223Y0120307D01*
X0334961Y0120616D01*
X0334692Y0120918D01*
X0334416Y0121214D01*
X0334132Y0121503D01*
X0333841Y0121785D01*
X0333544Y0122060D01*
X0333240Y0122327D01*
X0332929Y0122587D01*
X0332613Y0122839D01*
X0332290Y0123084D01*
X0331961Y0123320D01*
X0331627Y0123548D01*
X0331287Y0123768D01*
X0330942Y0123980D01*
X0330591Y0124183D01*
X0330236Y0124378D01*
X0329877Y0124564D01*
X0329512Y0124741D01*
X0329144Y0124909D01*
X0328772Y0125068D01*
X0328395Y0125218D01*
X0328016Y0125358D01*
X0327633Y0125489D01*
X0327247Y0125611D01*
X0326858Y0125724D01*
X0326466Y0125826D01*
X0326072Y0125920D01*
X0325676Y0126003D01*
X0325278Y0126077D01*
X0324878Y0126141D01*
X0324477Y0126195D01*
X0324074Y0126240D01*
X0323671Y0126274D01*
X0323267Y0126299D01*
X0322862Y0126314D01*
X0322457Y0126319D01*
X0322052Y0126314D01*
X0321647Y0126299D01*
X0321243Y0126274D01*
X0320840Y0126240D01*
X0320437Y0126195D01*
X0320036Y0126141D01*
X0319636Y0126077D01*
X0319238Y0126003D01*
X0318842Y0125920D01*
X0318448Y0125826D01*
X0318056Y0125724D01*
X0317667Y0125611D01*
X0317281Y0125489D01*
X0316898Y0125358D01*
X0316519Y0125218D01*
X0316142Y0125068D01*
X0315770Y0124909D01*
X0315402Y0124741D01*
X0315037Y0124564D01*
X0314678Y0124378D01*
X0314323Y0124183D01*
X0313972Y0123980D01*
X0313627Y0123768D01*
X0313287Y0123548D01*
X0312953Y0123320D01*
X0312624Y0123084D01*
X0312301Y0122839D01*
X0311985Y0122587D01*
X0311674Y0122327D01*
X0311370Y0122060D01*
X0311073Y0121785D01*
X0310782Y0121503D01*
X0310498Y0121214D01*
X0310222Y0120918D01*
X0309953Y0120616D01*
X0309691Y0120307D01*
X0309437Y0119991D01*
X0309191Y0119670D01*
X0308953Y0119343D01*
X0308722Y0119010D01*
X0308500Y0118671D01*
X0308286Y0118327D01*
X0308081Y0117978D01*
X0307885Y0117624D01*
X0307697Y0117266D01*
X0307518Y0116902D01*
X0307347Y0116535D01*
X0307186Y0116164D01*
X0307034Y0115788D01*
X0306891Y0115409D01*
X0306758Y0115027D01*
X0306634Y0114642D01*
X0306519Y0114253D01*
X0306414Y0113862D01*
X0306319Y0113469D01*
X0306233Y0113073D01*
X0306157Y0112675D01*
X0306090Y0112276D01*
X0306034Y0111875D01*
X0305987Y0111473D01*
X0305950Y0111070D01*
X0305923Y0110666D01*
X0305906Y0110261D01*
X0305898Y0109856D01*
X0305901Y0109451D01*
X0305913Y0109047D01*
X0305936Y0108642D01*
X0305968Y0108239D01*
X0306010Y0107836D01*
X0306062Y0107435D01*
X0306124Y0107034D01*
X0306195Y0106636D01*
X0306277Y0106239D01*
X0306368Y0105845D01*
X0306468Y0105452D01*
X0306578Y0105063D01*
X0306698Y0104676D01*
X0306827Y0104292D01*
X0306965Y0103912D01*
X0307113Y0103535D01*
X0307270Y0103161D01*
X0307435Y0102792D01*
X0307610Y0102427D01*
X0307794Y0102066D01*
X0307987Y0101710D01*
X0308188Y0101358D01*
X0308397Y0101012D01*
X0308616Y0100671D01*
X0308842Y0100335D01*
X0309076Y0100005D01*
X0309319Y0099681D01*
X0309569Y0099362D01*
X0309827Y0099050D01*
X0310093Y0098745D01*
X0310366Y0098446D01*
X0310646Y0098154D01*
X0294898Y0098154D01*
X0294898Y0125713D01*
X0310646Y0141461D01*
X0310646Y0218232D01*
X0218126Y0218232D01*
D11*
X0318520Y0208390D02*
X0318522Y0208515D01*
X0318528Y0208640D01*
X0318538Y0208764D01*
X0318552Y0208888D01*
X0318569Y0209012D01*
X0318591Y0209135D01*
X0318617Y0209257D01*
X0318646Y0209379D01*
X0318679Y0209499D01*
X0318717Y0209618D01*
X0318757Y0209737D01*
X0318802Y0209853D01*
X0318850Y0209968D01*
X0318902Y0210082D01*
X0318958Y0210194D01*
X0319017Y0210304D01*
X0319079Y0210412D01*
X0319145Y0210519D01*
X0319214Y0210623D01*
X0319287Y0210724D01*
X0319362Y0210824D01*
X0319441Y0210921D01*
X0319523Y0211015D01*
X0319608Y0211107D01*
X0319695Y0211196D01*
X0319786Y0211282D01*
X0319879Y0211365D01*
X0319975Y0211446D01*
X0320073Y0211523D01*
X0320173Y0211597D01*
X0320276Y0211668D01*
X0320381Y0211735D01*
X0320489Y0211800D01*
X0320598Y0211860D01*
X0320709Y0211918D01*
X0320822Y0211971D01*
X0320936Y0212021D01*
X0321052Y0212068D01*
X0321169Y0212110D01*
X0321288Y0212149D01*
X0321408Y0212185D01*
X0321529Y0212216D01*
X0321651Y0212244D01*
X0321773Y0212267D01*
X0321897Y0212287D01*
X0322021Y0212303D01*
X0322145Y0212315D01*
X0322270Y0212323D01*
X0322395Y0212327D01*
X0322519Y0212327D01*
X0322644Y0212323D01*
X0322769Y0212315D01*
X0322893Y0212303D01*
X0323017Y0212287D01*
X0323141Y0212267D01*
X0323263Y0212244D01*
X0323385Y0212216D01*
X0323506Y0212185D01*
X0323626Y0212149D01*
X0323745Y0212110D01*
X0323862Y0212068D01*
X0323978Y0212021D01*
X0324092Y0211971D01*
X0324205Y0211918D01*
X0324316Y0211860D01*
X0324426Y0211800D01*
X0324533Y0211735D01*
X0324638Y0211668D01*
X0324741Y0211597D01*
X0324841Y0211523D01*
X0324939Y0211446D01*
X0325035Y0211365D01*
X0325128Y0211282D01*
X0325219Y0211196D01*
X0325306Y0211107D01*
X0325391Y0211015D01*
X0325473Y0210921D01*
X0325552Y0210824D01*
X0325627Y0210724D01*
X0325700Y0210623D01*
X0325769Y0210519D01*
X0325835Y0210412D01*
X0325897Y0210304D01*
X0325956Y0210194D01*
X0326012Y0210082D01*
X0326064Y0209968D01*
X0326112Y0209853D01*
X0326157Y0209737D01*
X0326197Y0209618D01*
X0326235Y0209499D01*
X0326268Y0209379D01*
X0326297Y0209257D01*
X0326323Y0209135D01*
X0326345Y0209012D01*
X0326362Y0208888D01*
X0326376Y0208764D01*
X0326386Y0208640D01*
X0326392Y0208515D01*
X0326394Y0208390D01*
X0326392Y0208265D01*
X0326386Y0208140D01*
X0326376Y0208016D01*
X0326362Y0207892D01*
X0326345Y0207768D01*
X0326323Y0207645D01*
X0326297Y0207523D01*
X0326268Y0207401D01*
X0326235Y0207281D01*
X0326197Y0207162D01*
X0326157Y0207043D01*
X0326112Y0206927D01*
X0326064Y0206812D01*
X0326012Y0206698D01*
X0325956Y0206586D01*
X0325897Y0206476D01*
X0325835Y0206368D01*
X0325769Y0206261D01*
X0325700Y0206157D01*
X0325627Y0206056D01*
X0325552Y0205956D01*
X0325473Y0205859D01*
X0325391Y0205765D01*
X0325306Y0205673D01*
X0325219Y0205584D01*
X0325128Y0205498D01*
X0325035Y0205415D01*
X0324939Y0205334D01*
X0324841Y0205257D01*
X0324741Y0205183D01*
X0324638Y0205112D01*
X0324533Y0205045D01*
X0324425Y0204980D01*
X0324316Y0204920D01*
X0324205Y0204862D01*
X0324092Y0204809D01*
X0323978Y0204759D01*
X0323862Y0204712D01*
X0323745Y0204670D01*
X0323626Y0204631D01*
X0323506Y0204595D01*
X0323385Y0204564D01*
X0323263Y0204536D01*
X0323141Y0204513D01*
X0323017Y0204493D01*
X0322893Y0204477D01*
X0322769Y0204465D01*
X0322644Y0204457D01*
X0322519Y0204453D01*
X0322395Y0204453D01*
X0322270Y0204457D01*
X0322145Y0204465D01*
X0322021Y0204477D01*
X0321897Y0204493D01*
X0321773Y0204513D01*
X0321651Y0204536D01*
X0321529Y0204564D01*
X0321408Y0204595D01*
X0321288Y0204631D01*
X0321169Y0204670D01*
X0321052Y0204712D01*
X0320936Y0204759D01*
X0320822Y0204809D01*
X0320709Y0204862D01*
X0320598Y0204920D01*
X0320488Y0204980D01*
X0320381Y0205045D01*
X0320276Y0205112D01*
X0320173Y0205183D01*
X0320073Y0205257D01*
X0319975Y0205334D01*
X0319879Y0205415D01*
X0319786Y0205498D01*
X0319695Y0205584D01*
X0319608Y0205673D01*
X0319523Y0205765D01*
X0319441Y0205859D01*
X0319362Y0205956D01*
X0319287Y0206056D01*
X0319214Y0206157D01*
X0319145Y0206261D01*
X0319079Y0206368D01*
X0319017Y0206476D01*
X0318958Y0206586D01*
X0318902Y0206698D01*
X0318850Y0206812D01*
X0318802Y0206927D01*
X0318757Y0207043D01*
X0318717Y0207162D01*
X0318679Y0207281D01*
X0318646Y0207401D01*
X0318617Y0207523D01*
X0318591Y0207645D01*
X0318569Y0207768D01*
X0318552Y0207892D01*
X0318538Y0208016D01*
X0318528Y0208140D01*
X0318522Y0208265D01*
X0318520Y0208390D01*
X0318520Y0188705D02*
X0318522Y0188830D01*
X0318528Y0188955D01*
X0318538Y0189079D01*
X0318552Y0189203D01*
X0318569Y0189327D01*
X0318591Y0189450D01*
X0318617Y0189572D01*
X0318646Y0189694D01*
X0318679Y0189814D01*
X0318717Y0189933D01*
X0318757Y0190052D01*
X0318802Y0190168D01*
X0318850Y0190283D01*
X0318902Y0190397D01*
X0318958Y0190509D01*
X0319017Y0190619D01*
X0319079Y0190727D01*
X0319145Y0190834D01*
X0319214Y0190938D01*
X0319287Y0191039D01*
X0319362Y0191139D01*
X0319441Y0191236D01*
X0319523Y0191330D01*
X0319608Y0191422D01*
X0319695Y0191511D01*
X0319786Y0191597D01*
X0319879Y0191680D01*
X0319975Y0191761D01*
X0320073Y0191838D01*
X0320173Y0191912D01*
X0320276Y0191983D01*
X0320381Y0192050D01*
X0320489Y0192115D01*
X0320598Y0192175D01*
X0320709Y0192233D01*
X0320822Y0192286D01*
X0320936Y0192336D01*
X0321052Y0192383D01*
X0321169Y0192425D01*
X0321288Y0192464D01*
X0321408Y0192500D01*
X0321529Y0192531D01*
X0321651Y0192559D01*
X0321773Y0192582D01*
X0321897Y0192602D01*
X0322021Y0192618D01*
X0322145Y0192630D01*
X0322270Y0192638D01*
X0322395Y0192642D01*
X0322519Y0192642D01*
X0322644Y0192638D01*
X0322769Y0192630D01*
X0322893Y0192618D01*
X0323017Y0192602D01*
X0323141Y0192582D01*
X0323263Y0192559D01*
X0323385Y0192531D01*
X0323506Y0192500D01*
X0323626Y0192464D01*
X0323745Y0192425D01*
X0323862Y0192383D01*
X0323978Y0192336D01*
X0324092Y0192286D01*
X0324205Y0192233D01*
X0324316Y0192175D01*
X0324426Y0192115D01*
X0324533Y0192050D01*
X0324638Y0191983D01*
X0324741Y0191912D01*
X0324841Y0191838D01*
X0324939Y0191761D01*
X0325035Y0191680D01*
X0325128Y0191597D01*
X0325219Y0191511D01*
X0325306Y0191422D01*
X0325391Y0191330D01*
X0325473Y0191236D01*
X0325552Y0191139D01*
X0325627Y0191039D01*
X0325700Y0190938D01*
X0325769Y0190834D01*
X0325835Y0190727D01*
X0325897Y0190619D01*
X0325956Y0190509D01*
X0326012Y0190397D01*
X0326064Y0190283D01*
X0326112Y0190168D01*
X0326157Y0190052D01*
X0326197Y0189933D01*
X0326235Y0189814D01*
X0326268Y0189694D01*
X0326297Y0189572D01*
X0326323Y0189450D01*
X0326345Y0189327D01*
X0326362Y0189203D01*
X0326376Y0189079D01*
X0326386Y0188955D01*
X0326392Y0188830D01*
X0326394Y0188705D01*
X0326392Y0188580D01*
X0326386Y0188455D01*
X0326376Y0188331D01*
X0326362Y0188207D01*
X0326345Y0188083D01*
X0326323Y0187960D01*
X0326297Y0187838D01*
X0326268Y0187716D01*
X0326235Y0187596D01*
X0326197Y0187477D01*
X0326157Y0187358D01*
X0326112Y0187242D01*
X0326064Y0187127D01*
X0326012Y0187013D01*
X0325956Y0186901D01*
X0325897Y0186791D01*
X0325835Y0186683D01*
X0325769Y0186576D01*
X0325700Y0186472D01*
X0325627Y0186371D01*
X0325552Y0186271D01*
X0325473Y0186174D01*
X0325391Y0186080D01*
X0325306Y0185988D01*
X0325219Y0185899D01*
X0325128Y0185813D01*
X0325035Y0185730D01*
X0324939Y0185649D01*
X0324841Y0185572D01*
X0324741Y0185498D01*
X0324638Y0185427D01*
X0324533Y0185360D01*
X0324425Y0185295D01*
X0324316Y0185235D01*
X0324205Y0185177D01*
X0324092Y0185124D01*
X0323978Y0185074D01*
X0323862Y0185027D01*
X0323745Y0184985D01*
X0323626Y0184946D01*
X0323506Y0184910D01*
X0323385Y0184879D01*
X0323263Y0184851D01*
X0323141Y0184828D01*
X0323017Y0184808D01*
X0322893Y0184792D01*
X0322769Y0184780D01*
X0322644Y0184772D01*
X0322519Y0184768D01*
X0322395Y0184768D01*
X0322270Y0184772D01*
X0322145Y0184780D01*
X0322021Y0184792D01*
X0321897Y0184808D01*
X0321773Y0184828D01*
X0321651Y0184851D01*
X0321529Y0184879D01*
X0321408Y0184910D01*
X0321288Y0184946D01*
X0321169Y0184985D01*
X0321052Y0185027D01*
X0320936Y0185074D01*
X0320822Y0185124D01*
X0320709Y0185177D01*
X0320598Y0185235D01*
X0320488Y0185295D01*
X0320381Y0185360D01*
X0320276Y0185427D01*
X0320173Y0185498D01*
X0320073Y0185572D01*
X0319975Y0185649D01*
X0319879Y0185730D01*
X0319786Y0185813D01*
X0319695Y0185899D01*
X0319608Y0185988D01*
X0319523Y0186080D01*
X0319441Y0186174D01*
X0319362Y0186271D01*
X0319287Y0186371D01*
X0319214Y0186472D01*
X0319145Y0186576D01*
X0319079Y0186683D01*
X0319017Y0186791D01*
X0318958Y0186901D01*
X0318902Y0187013D01*
X0318850Y0187127D01*
X0318802Y0187242D01*
X0318757Y0187358D01*
X0318717Y0187477D01*
X0318679Y0187596D01*
X0318646Y0187716D01*
X0318617Y0187838D01*
X0318591Y0187960D01*
X0318569Y0188083D01*
X0318552Y0188207D01*
X0318538Y0188331D01*
X0318528Y0188455D01*
X0318522Y0188580D01*
X0318520Y0188705D01*
X0318520Y0169020D02*
X0318522Y0169145D01*
X0318528Y0169270D01*
X0318538Y0169394D01*
X0318552Y0169518D01*
X0318569Y0169642D01*
X0318591Y0169765D01*
X0318617Y0169887D01*
X0318646Y0170009D01*
X0318679Y0170129D01*
X0318717Y0170248D01*
X0318757Y0170367D01*
X0318802Y0170483D01*
X0318850Y0170598D01*
X0318902Y0170712D01*
X0318958Y0170824D01*
X0319017Y0170934D01*
X0319079Y0171042D01*
X0319145Y0171149D01*
X0319214Y0171253D01*
X0319287Y0171354D01*
X0319362Y0171454D01*
X0319441Y0171551D01*
X0319523Y0171645D01*
X0319608Y0171737D01*
X0319695Y0171826D01*
X0319786Y0171912D01*
X0319879Y0171995D01*
X0319975Y0172076D01*
X0320073Y0172153D01*
X0320173Y0172227D01*
X0320276Y0172298D01*
X0320381Y0172365D01*
X0320489Y0172430D01*
X0320598Y0172490D01*
X0320709Y0172548D01*
X0320822Y0172601D01*
X0320936Y0172651D01*
X0321052Y0172698D01*
X0321169Y0172740D01*
X0321288Y0172779D01*
X0321408Y0172815D01*
X0321529Y0172846D01*
X0321651Y0172874D01*
X0321773Y0172897D01*
X0321897Y0172917D01*
X0322021Y0172933D01*
X0322145Y0172945D01*
X0322270Y0172953D01*
X0322395Y0172957D01*
X0322519Y0172957D01*
X0322644Y0172953D01*
X0322769Y0172945D01*
X0322893Y0172933D01*
X0323017Y0172917D01*
X0323141Y0172897D01*
X0323263Y0172874D01*
X0323385Y0172846D01*
X0323506Y0172815D01*
X0323626Y0172779D01*
X0323745Y0172740D01*
X0323862Y0172698D01*
X0323978Y0172651D01*
X0324092Y0172601D01*
X0324205Y0172548D01*
X0324316Y0172490D01*
X0324426Y0172430D01*
X0324533Y0172365D01*
X0324638Y0172298D01*
X0324741Y0172227D01*
X0324841Y0172153D01*
X0324939Y0172076D01*
X0325035Y0171995D01*
X0325128Y0171912D01*
X0325219Y0171826D01*
X0325306Y0171737D01*
X0325391Y0171645D01*
X0325473Y0171551D01*
X0325552Y0171454D01*
X0325627Y0171354D01*
X0325700Y0171253D01*
X0325769Y0171149D01*
X0325835Y0171042D01*
X0325897Y0170934D01*
X0325956Y0170824D01*
X0326012Y0170712D01*
X0326064Y0170598D01*
X0326112Y0170483D01*
X0326157Y0170367D01*
X0326197Y0170248D01*
X0326235Y0170129D01*
X0326268Y0170009D01*
X0326297Y0169887D01*
X0326323Y0169765D01*
X0326345Y0169642D01*
X0326362Y0169518D01*
X0326376Y0169394D01*
X0326386Y0169270D01*
X0326392Y0169145D01*
X0326394Y0169020D01*
X0326392Y0168895D01*
X0326386Y0168770D01*
X0326376Y0168646D01*
X0326362Y0168522D01*
X0326345Y0168398D01*
X0326323Y0168275D01*
X0326297Y0168153D01*
X0326268Y0168031D01*
X0326235Y0167911D01*
X0326197Y0167792D01*
X0326157Y0167673D01*
X0326112Y0167557D01*
X0326064Y0167442D01*
X0326012Y0167328D01*
X0325956Y0167216D01*
X0325897Y0167106D01*
X0325835Y0166998D01*
X0325769Y0166891D01*
X0325700Y0166787D01*
X0325627Y0166686D01*
X0325552Y0166586D01*
X0325473Y0166489D01*
X0325391Y0166395D01*
X0325306Y0166303D01*
X0325219Y0166214D01*
X0325128Y0166128D01*
X0325035Y0166045D01*
X0324939Y0165964D01*
X0324841Y0165887D01*
X0324741Y0165813D01*
X0324638Y0165742D01*
X0324533Y0165675D01*
X0324425Y0165610D01*
X0324316Y0165550D01*
X0324205Y0165492D01*
X0324092Y0165439D01*
X0323978Y0165389D01*
X0323862Y0165342D01*
X0323745Y0165300D01*
X0323626Y0165261D01*
X0323506Y0165225D01*
X0323385Y0165194D01*
X0323263Y0165166D01*
X0323141Y0165143D01*
X0323017Y0165123D01*
X0322893Y0165107D01*
X0322769Y0165095D01*
X0322644Y0165087D01*
X0322519Y0165083D01*
X0322395Y0165083D01*
X0322270Y0165087D01*
X0322145Y0165095D01*
X0322021Y0165107D01*
X0321897Y0165123D01*
X0321773Y0165143D01*
X0321651Y0165166D01*
X0321529Y0165194D01*
X0321408Y0165225D01*
X0321288Y0165261D01*
X0321169Y0165300D01*
X0321052Y0165342D01*
X0320936Y0165389D01*
X0320822Y0165439D01*
X0320709Y0165492D01*
X0320598Y0165550D01*
X0320488Y0165610D01*
X0320381Y0165675D01*
X0320276Y0165742D01*
X0320173Y0165813D01*
X0320073Y0165887D01*
X0319975Y0165964D01*
X0319879Y0166045D01*
X0319786Y0166128D01*
X0319695Y0166214D01*
X0319608Y0166303D01*
X0319523Y0166395D01*
X0319441Y0166489D01*
X0319362Y0166586D01*
X0319287Y0166686D01*
X0319214Y0166787D01*
X0319145Y0166891D01*
X0319079Y0166998D01*
X0319017Y0167106D01*
X0318958Y0167216D01*
X0318902Y0167328D01*
X0318850Y0167442D01*
X0318802Y0167557D01*
X0318757Y0167673D01*
X0318717Y0167792D01*
X0318679Y0167911D01*
X0318646Y0168031D01*
X0318617Y0168153D01*
X0318591Y0168275D01*
X0318569Y0168398D01*
X0318552Y0168522D01*
X0318538Y0168646D01*
X0318528Y0168770D01*
X0318522Y0168895D01*
X0318520Y0169020D01*
X0318520Y0149335D02*
X0318522Y0149460D01*
X0318528Y0149585D01*
X0318538Y0149709D01*
X0318552Y0149833D01*
X0318569Y0149957D01*
X0318591Y0150080D01*
X0318617Y0150202D01*
X0318646Y0150324D01*
X0318679Y0150444D01*
X0318717Y0150563D01*
X0318757Y0150682D01*
X0318802Y0150798D01*
X0318850Y0150913D01*
X0318902Y0151027D01*
X0318958Y0151139D01*
X0319017Y0151249D01*
X0319079Y0151357D01*
X0319145Y0151464D01*
X0319214Y0151568D01*
X0319287Y0151669D01*
X0319362Y0151769D01*
X0319441Y0151866D01*
X0319523Y0151960D01*
X0319608Y0152052D01*
X0319695Y0152141D01*
X0319786Y0152227D01*
X0319879Y0152310D01*
X0319975Y0152391D01*
X0320073Y0152468D01*
X0320173Y0152542D01*
X0320276Y0152613D01*
X0320381Y0152680D01*
X0320489Y0152745D01*
X0320598Y0152805D01*
X0320709Y0152863D01*
X0320822Y0152916D01*
X0320936Y0152966D01*
X0321052Y0153013D01*
X0321169Y0153055D01*
X0321288Y0153094D01*
X0321408Y0153130D01*
X0321529Y0153161D01*
X0321651Y0153189D01*
X0321773Y0153212D01*
X0321897Y0153232D01*
X0322021Y0153248D01*
X0322145Y0153260D01*
X0322270Y0153268D01*
X0322395Y0153272D01*
X0322519Y0153272D01*
X0322644Y0153268D01*
X0322769Y0153260D01*
X0322893Y0153248D01*
X0323017Y0153232D01*
X0323141Y0153212D01*
X0323263Y0153189D01*
X0323385Y0153161D01*
X0323506Y0153130D01*
X0323626Y0153094D01*
X0323745Y0153055D01*
X0323862Y0153013D01*
X0323978Y0152966D01*
X0324092Y0152916D01*
X0324205Y0152863D01*
X0324316Y0152805D01*
X0324426Y0152745D01*
X0324533Y0152680D01*
X0324638Y0152613D01*
X0324741Y0152542D01*
X0324841Y0152468D01*
X0324939Y0152391D01*
X0325035Y0152310D01*
X0325128Y0152227D01*
X0325219Y0152141D01*
X0325306Y0152052D01*
X0325391Y0151960D01*
X0325473Y0151866D01*
X0325552Y0151769D01*
X0325627Y0151669D01*
X0325700Y0151568D01*
X0325769Y0151464D01*
X0325835Y0151357D01*
X0325897Y0151249D01*
X0325956Y0151139D01*
X0326012Y0151027D01*
X0326064Y0150913D01*
X0326112Y0150798D01*
X0326157Y0150682D01*
X0326197Y0150563D01*
X0326235Y0150444D01*
X0326268Y0150324D01*
X0326297Y0150202D01*
X0326323Y0150080D01*
X0326345Y0149957D01*
X0326362Y0149833D01*
X0326376Y0149709D01*
X0326386Y0149585D01*
X0326392Y0149460D01*
X0326394Y0149335D01*
X0326392Y0149210D01*
X0326386Y0149085D01*
X0326376Y0148961D01*
X0326362Y0148837D01*
X0326345Y0148713D01*
X0326323Y0148590D01*
X0326297Y0148468D01*
X0326268Y0148346D01*
X0326235Y0148226D01*
X0326197Y0148107D01*
X0326157Y0147988D01*
X0326112Y0147872D01*
X0326064Y0147757D01*
X0326012Y0147643D01*
X0325956Y0147531D01*
X0325897Y0147421D01*
X0325835Y0147313D01*
X0325769Y0147206D01*
X0325700Y0147102D01*
X0325627Y0147001D01*
X0325552Y0146901D01*
X0325473Y0146804D01*
X0325391Y0146710D01*
X0325306Y0146618D01*
X0325219Y0146529D01*
X0325128Y0146443D01*
X0325035Y0146360D01*
X0324939Y0146279D01*
X0324841Y0146202D01*
X0324741Y0146128D01*
X0324638Y0146057D01*
X0324533Y0145990D01*
X0324425Y0145925D01*
X0324316Y0145865D01*
X0324205Y0145807D01*
X0324092Y0145754D01*
X0323978Y0145704D01*
X0323862Y0145657D01*
X0323745Y0145615D01*
X0323626Y0145576D01*
X0323506Y0145540D01*
X0323385Y0145509D01*
X0323263Y0145481D01*
X0323141Y0145458D01*
X0323017Y0145438D01*
X0322893Y0145422D01*
X0322769Y0145410D01*
X0322644Y0145402D01*
X0322519Y0145398D01*
X0322395Y0145398D01*
X0322270Y0145402D01*
X0322145Y0145410D01*
X0322021Y0145422D01*
X0321897Y0145438D01*
X0321773Y0145458D01*
X0321651Y0145481D01*
X0321529Y0145509D01*
X0321408Y0145540D01*
X0321288Y0145576D01*
X0321169Y0145615D01*
X0321052Y0145657D01*
X0320936Y0145704D01*
X0320822Y0145754D01*
X0320709Y0145807D01*
X0320598Y0145865D01*
X0320488Y0145925D01*
X0320381Y0145990D01*
X0320276Y0146057D01*
X0320173Y0146128D01*
X0320073Y0146202D01*
X0319975Y0146279D01*
X0319879Y0146360D01*
X0319786Y0146443D01*
X0319695Y0146529D01*
X0319608Y0146618D01*
X0319523Y0146710D01*
X0319441Y0146804D01*
X0319362Y0146901D01*
X0319287Y0147001D01*
X0319214Y0147102D01*
X0319145Y0147206D01*
X0319079Y0147313D01*
X0319017Y0147421D01*
X0318958Y0147531D01*
X0318902Y0147643D01*
X0318850Y0147757D01*
X0318802Y0147872D01*
X0318757Y0147988D01*
X0318717Y0148107D01*
X0318679Y0148226D01*
X0318646Y0148346D01*
X0318617Y0148468D01*
X0318591Y0148590D01*
X0318569Y0148713D01*
X0318552Y0148837D01*
X0318538Y0148961D01*
X0318528Y0149085D01*
X0318522Y0149210D01*
X0318520Y0149335D01*
X0204346Y0322563D02*
X0204348Y0322688D01*
X0204354Y0322813D01*
X0204364Y0322937D01*
X0204378Y0323061D01*
X0204395Y0323185D01*
X0204417Y0323308D01*
X0204443Y0323430D01*
X0204472Y0323552D01*
X0204505Y0323672D01*
X0204543Y0323791D01*
X0204583Y0323910D01*
X0204628Y0324026D01*
X0204676Y0324141D01*
X0204728Y0324255D01*
X0204784Y0324367D01*
X0204843Y0324477D01*
X0204905Y0324585D01*
X0204971Y0324692D01*
X0205040Y0324796D01*
X0205113Y0324897D01*
X0205188Y0324997D01*
X0205267Y0325094D01*
X0205349Y0325188D01*
X0205434Y0325280D01*
X0205521Y0325369D01*
X0205612Y0325455D01*
X0205705Y0325538D01*
X0205801Y0325619D01*
X0205899Y0325696D01*
X0205999Y0325770D01*
X0206102Y0325841D01*
X0206207Y0325908D01*
X0206315Y0325973D01*
X0206424Y0326033D01*
X0206535Y0326091D01*
X0206648Y0326144D01*
X0206762Y0326194D01*
X0206878Y0326241D01*
X0206995Y0326283D01*
X0207114Y0326322D01*
X0207234Y0326358D01*
X0207355Y0326389D01*
X0207477Y0326417D01*
X0207599Y0326440D01*
X0207723Y0326460D01*
X0207847Y0326476D01*
X0207971Y0326488D01*
X0208096Y0326496D01*
X0208221Y0326500D01*
X0208345Y0326500D01*
X0208470Y0326496D01*
X0208595Y0326488D01*
X0208719Y0326476D01*
X0208843Y0326460D01*
X0208967Y0326440D01*
X0209089Y0326417D01*
X0209211Y0326389D01*
X0209332Y0326358D01*
X0209452Y0326322D01*
X0209571Y0326283D01*
X0209688Y0326241D01*
X0209804Y0326194D01*
X0209918Y0326144D01*
X0210031Y0326091D01*
X0210142Y0326033D01*
X0210252Y0325973D01*
X0210359Y0325908D01*
X0210464Y0325841D01*
X0210567Y0325770D01*
X0210667Y0325696D01*
X0210765Y0325619D01*
X0210861Y0325538D01*
X0210954Y0325455D01*
X0211045Y0325369D01*
X0211132Y0325280D01*
X0211217Y0325188D01*
X0211299Y0325094D01*
X0211378Y0324997D01*
X0211453Y0324897D01*
X0211526Y0324796D01*
X0211595Y0324692D01*
X0211661Y0324585D01*
X0211723Y0324477D01*
X0211782Y0324367D01*
X0211838Y0324255D01*
X0211890Y0324141D01*
X0211938Y0324026D01*
X0211983Y0323910D01*
X0212023Y0323791D01*
X0212061Y0323672D01*
X0212094Y0323552D01*
X0212123Y0323430D01*
X0212149Y0323308D01*
X0212171Y0323185D01*
X0212188Y0323061D01*
X0212202Y0322937D01*
X0212212Y0322813D01*
X0212218Y0322688D01*
X0212220Y0322563D01*
X0212218Y0322438D01*
X0212212Y0322313D01*
X0212202Y0322189D01*
X0212188Y0322065D01*
X0212171Y0321941D01*
X0212149Y0321818D01*
X0212123Y0321696D01*
X0212094Y0321574D01*
X0212061Y0321454D01*
X0212023Y0321335D01*
X0211983Y0321216D01*
X0211938Y0321100D01*
X0211890Y0320985D01*
X0211838Y0320871D01*
X0211782Y0320759D01*
X0211723Y0320649D01*
X0211661Y0320541D01*
X0211595Y0320434D01*
X0211526Y0320330D01*
X0211453Y0320229D01*
X0211378Y0320129D01*
X0211299Y0320032D01*
X0211217Y0319938D01*
X0211132Y0319846D01*
X0211045Y0319757D01*
X0210954Y0319671D01*
X0210861Y0319588D01*
X0210765Y0319507D01*
X0210667Y0319430D01*
X0210567Y0319356D01*
X0210464Y0319285D01*
X0210359Y0319218D01*
X0210251Y0319153D01*
X0210142Y0319093D01*
X0210031Y0319035D01*
X0209918Y0318982D01*
X0209804Y0318932D01*
X0209688Y0318885D01*
X0209571Y0318843D01*
X0209452Y0318804D01*
X0209332Y0318768D01*
X0209211Y0318737D01*
X0209089Y0318709D01*
X0208967Y0318686D01*
X0208843Y0318666D01*
X0208719Y0318650D01*
X0208595Y0318638D01*
X0208470Y0318630D01*
X0208345Y0318626D01*
X0208221Y0318626D01*
X0208096Y0318630D01*
X0207971Y0318638D01*
X0207847Y0318650D01*
X0207723Y0318666D01*
X0207599Y0318686D01*
X0207477Y0318709D01*
X0207355Y0318737D01*
X0207234Y0318768D01*
X0207114Y0318804D01*
X0206995Y0318843D01*
X0206878Y0318885D01*
X0206762Y0318932D01*
X0206648Y0318982D01*
X0206535Y0319035D01*
X0206424Y0319093D01*
X0206314Y0319153D01*
X0206207Y0319218D01*
X0206102Y0319285D01*
X0205999Y0319356D01*
X0205899Y0319430D01*
X0205801Y0319507D01*
X0205705Y0319588D01*
X0205612Y0319671D01*
X0205521Y0319757D01*
X0205434Y0319846D01*
X0205349Y0319938D01*
X0205267Y0320032D01*
X0205188Y0320129D01*
X0205113Y0320229D01*
X0205040Y0320330D01*
X0204971Y0320434D01*
X0204905Y0320541D01*
X0204843Y0320649D01*
X0204784Y0320759D01*
X0204728Y0320871D01*
X0204676Y0320985D01*
X0204628Y0321100D01*
X0204583Y0321216D01*
X0204543Y0321335D01*
X0204505Y0321454D01*
X0204472Y0321574D01*
X0204443Y0321696D01*
X0204417Y0321818D01*
X0204395Y0321941D01*
X0204378Y0322065D01*
X0204364Y0322189D01*
X0204354Y0322313D01*
X0204348Y0322438D01*
X0204346Y0322563D01*
X0184661Y0322563D02*
X0184663Y0322688D01*
X0184669Y0322813D01*
X0184679Y0322937D01*
X0184693Y0323061D01*
X0184710Y0323185D01*
X0184732Y0323308D01*
X0184758Y0323430D01*
X0184787Y0323552D01*
X0184820Y0323672D01*
X0184858Y0323791D01*
X0184898Y0323910D01*
X0184943Y0324026D01*
X0184991Y0324141D01*
X0185043Y0324255D01*
X0185099Y0324367D01*
X0185158Y0324477D01*
X0185220Y0324585D01*
X0185286Y0324692D01*
X0185355Y0324796D01*
X0185428Y0324897D01*
X0185503Y0324997D01*
X0185582Y0325094D01*
X0185664Y0325188D01*
X0185749Y0325280D01*
X0185836Y0325369D01*
X0185927Y0325455D01*
X0186020Y0325538D01*
X0186116Y0325619D01*
X0186214Y0325696D01*
X0186314Y0325770D01*
X0186417Y0325841D01*
X0186522Y0325908D01*
X0186630Y0325973D01*
X0186739Y0326033D01*
X0186850Y0326091D01*
X0186963Y0326144D01*
X0187077Y0326194D01*
X0187193Y0326241D01*
X0187310Y0326283D01*
X0187429Y0326322D01*
X0187549Y0326358D01*
X0187670Y0326389D01*
X0187792Y0326417D01*
X0187914Y0326440D01*
X0188038Y0326460D01*
X0188162Y0326476D01*
X0188286Y0326488D01*
X0188411Y0326496D01*
X0188536Y0326500D01*
X0188660Y0326500D01*
X0188785Y0326496D01*
X0188910Y0326488D01*
X0189034Y0326476D01*
X0189158Y0326460D01*
X0189282Y0326440D01*
X0189404Y0326417D01*
X0189526Y0326389D01*
X0189647Y0326358D01*
X0189767Y0326322D01*
X0189886Y0326283D01*
X0190003Y0326241D01*
X0190119Y0326194D01*
X0190233Y0326144D01*
X0190346Y0326091D01*
X0190457Y0326033D01*
X0190567Y0325973D01*
X0190674Y0325908D01*
X0190779Y0325841D01*
X0190882Y0325770D01*
X0190982Y0325696D01*
X0191080Y0325619D01*
X0191176Y0325538D01*
X0191269Y0325455D01*
X0191360Y0325369D01*
X0191447Y0325280D01*
X0191532Y0325188D01*
X0191614Y0325094D01*
X0191693Y0324997D01*
X0191768Y0324897D01*
X0191841Y0324796D01*
X0191910Y0324692D01*
X0191976Y0324585D01*
X0192038Y0324477D01*
X0192097Y0324367D01*
X0192153Y0324255D01*
X0192205Y0324141D01*
X0192253Y0324026D01*
X0192298Y0323910D01*
X0192338Y0323791D01*
X0192376Y0323672D01*
X0192409Y0323552D01*
X0192438Y0323430D01*
X0192464Y0323308D01*
X0192486Y0323185D01*
X0192503Y0323061D01*
X0192517Y0322937D01*
X0192527Y0322813D01*
X0192533Y0322688D01*
X0192535Y0322563D01*
X0192533Y0322438D01*
X0192527Y0322313D01*
X0192517Y0322189D01*
X0192503Y0322065D01*
X0192486Y0321941D01*
X0192464Y0321818D01*
X0192438Y0321696D01*
X0192409Y0321574D01*
X0192376Y0321454D01*
X0192338Y0321335D01*
X0192298Y0321216D01*
X0192253Y0321100D01*
X0192205Y0320985D01*
X0192153Y0320871D01*
X0192097Y0320759D01*
X0192038Y0320649D01*
X0191976Y0320541D01*
X0191910Y0320434D01*
X0191841Y0320330D01*
X0191768Y0320229D01*
X0191693Y0320129D01*
X0191614Y0320032D01*
X0191532Y0319938D01*
X0191447Y0319846D01*
X0191360Y0319757D01*
X0191269Y0319671D01*
X0191176Y0319588D01*
X0191080Y0319507D01*
X0190982Y0319430D01*
X0190882Y0319356D01*
X0190779Y0319285D01*
X0190674Y0319218D01*
X0190566Y0319153D01*
X0190457Y0319093D01*
X0190346Y0319035D01*
X0190233Y0318982D01*
X0190119Y0318932D01*
X0190003Y0318885D01*
X0189886Y0318843D01*
X0189767Y0318804D01*
X0189647Y0318768D01*
X0189526Y0318737D01*
X0189404Y0318709D01*
X0189282Y0318686D01*
X0189158Y0318666D01*
X0189034Y0318650D01*
X0188910Y0318638D01*
X0188785Y0318630D01*
X0188660Y0318626D01*
X0188536Y0318626D01*
X0188411Y0318630D01*
X0188286Y0318638D01*
X0188162Y0318650D01*
X0188038Y0318666D01*
X0187914Y0318686D01*
X0187792Y0318709D01*
X0187670Y0318737D01*
X0187549Y0318768D01*
X0187429Y0318804D01*
X0187310Y0318843D01*
X0187193Y0318885D01*
X0187077Y0318932D01*
X0186963Y0318982D01*
X0186850Y0319035D01*
X0186739Y0319093D01*
X0186629Y0319153D01*
X0186522Y0319218D01*
X0186417Y0319285D01*
X0186314Y0319356D01*
X0186214Y0319430D01*
X0186116Y0319507D01*
X0186020Y0319588D01*
X0185927Y0319671D01*
X0185836Y0319757D01*
X0185749Y0319846D01*
X0185664Y0319938D01*
X0185582Y0320032D01*
X0185503Y0320129D01*
X0185428Y0320229D01*
X0185355Y0320330D01*
X0185286Y0320434D01*
X0185220Y0320541D01*
X0185158Y0320649D01*
X0185099Y0320759D01*
X0185043Y0320871D01*
X0184991Y0320985D01*
X0184943Y0321100D01*
X0184898Y0321216D01*
X0184858Y0321335D01*
X0184820Y0321454D01*
X0184787Y0321574D01*
X0184758Y0321696D01*
X0184732Y0321818D01*
X0184710Y0321941D01*
X0184693Y0322065D01*
X0184679Y0322189D01*
X0184669Y0322313D01*
X0184663Y0322438D01*
X0184661Y0322563D01*
X0164976Y0322563D02*
X0164978Y0322688D01*
X0164984Y0322813D01*
X0164994Y0322937D01*
X0165008Y0323061D01*
X0165025Y0323185D01*
X0165047Y0323308D01*
X0165073Y0323430D01*
X0165102Y0323552D01*
X0165135Y0323672D01*
X0165173Y0323791D01*
X0165213Y0323910D01*
X0165258Y0324026D01*
X0165306Y0324141D01*
X0165358Y0324255D01*
X0165414Y0324367D01*
X0165473Y0324477D01*
X0165535Y0324585D01*
X0165601Y0324692D01*
X0165670Y0324796D01*
X0165743Y0324897D01*
X0165818Y0324997D01*
X0165897Y0325094D01*
X0165979Y0325188D01*
X0166064Y0325280D01*
X0166151Y0325369D01*
X0166242Y0325455D01*
X0166335Y0325538D01*
X0166431Y0325619D01*
X0166529Y0325696D01*
X0166629Y0325770D01*
X0166732Y0325841D01*
X0166837Y0325908D01*
X0166945Y0325973D01*
X0167054Y0326033D01*
X0167165Y0326091D01*
X0167278Y0326144D01*
X0167392Y0326194D01*
X0167508Y0326241D01*
X0167625Y0326283D01*
X0167744Y0326322D01*
X0167864Y0326358D01*
X0167985Y0326389D01*
X0168107Y0326417D01*
X0168229Y0326440D01*
X0168353Y0326460D01*
X0168477Y0326476D01*
X0168601Y0326488D01*
X0168726Y0326496D01*
X0168851Y0326500D01*
X0168975Y0326500D01*
X0169100Y0326496D01*
X0169225Y0326488D01*
X0169349Y0326476D01*
X0169473Y0326460D01*
X0169597Y0326440D01*
X0169719Y0326417D01*
X0169841Y0326389D01*
X0169962Y0326358D01*
X0170082Y0326322D01*
X0170201Y0326283D01*
X0170318Y0326241D01*
X0170434Y0326194D01*
X0170548Y0326144D01*
X0170661Y0326091D01*
X0170772Y0326033D01*
X0170882Y0325973D01*
X0170989Y0325908D01*
X0171094Y0325841D01*
X0171197Y0325770D01*
X0171297Y0325696D01*
X0171395Y0325619D01*
X0171491Y0325538D01*
X0171584Y0325455D01*
X0171675Y0325369D01*
X0171762Y0325280D01*
X0171847Y0325188D01*
X0171929Y0325094D01*
X0172008Y0324997D01*
X0172083Y0324897D01*
X0172156Y0324796D01*
X0172225Y0324692D01*
X0172291Y0324585D01*
X0172353Y0324477D01*
X0172412Y0324367D01*
X0172468Y0324255D01*
X0172520Y0324141D01*
X0172568Y0324026D01*
X0172613Y0323910D01*
X0172653Y0323791D01*
X0172691Y0323672D01*
X0172724Y0323552D01*
X0172753Y0323430D01*
X0172779Y0323308D01*
X0172801Y0323185D01*
X0172818Y0323061D01*
X0172832Y0322937D01*
X0172842Y0322813D01*
X0172848Y0322688D01*
X0172850Y0322563D01*
X0172848Y0322438D01*
X0172842Y0322313D01*
X0172832Y0322189D01*
X0172818Y0322065D01*
X0172801Y0321941D01*
X0172779Y0321818D01*
X0172753Y0321696D01*
X0172724Y0321574D01*
X0172691Y0321454D01*
X0172653Y0321335D01*
X0172613Y0321216D01*
X0172568Y0321100D01*
X0172520Y0320985D01*
X0172468Y0320871D01*
X0172412Y0320759D01*
X0172353Y0320649D01*
X0172291Y0320541D01*
X0172225Y0320434D01*
X0172156Y0320330D01*
X0172083Y0320229D01*
X0172008Y0320129D01*
X0171929Y0320032D01*
X0171847Y0319938D01*
X0171762Y0319846D01*
X0171675Y0319757D01*
X0171584Y0319671D01*
X0171491Y0319588D01*
X0171395Y0319507D01*
X0171297Y0319430D01*
X0171197Y0319356D01*
X0171094Y0319285D01*
X0170989Y0319218D01*
X0170881Y0319153D01*
X0170772Y0319093D01*
X0170661Y0319035D01*
X0170548Y0318982D01*
X0170434Y0318932D01*
X0170318Y0318885D01*
X0170201Y0318843D01*
X0170082Y0318804D01*
X0169962Y0318768D01*
X0169841Y0318737D01*
X0169719Y0318709D01*
X0169597Y0318686D01*
X0169473Y0318666D01*
X0169349Y0318650D01*
X0169225Y0318638D01*
X0169100Y0318630D01*
X0168975Y0318626D01*
X0168851Y0318626D01*
X0168726Y0318630D01*
X0168601Y0318638D01*
X0168477Y0318650D01*
X0168353Y0318666D01*
X0168229Y0318686D01*
X0168107Y0318709D01*
X0167985Y0318737D01*
X0167864Y0318768D01*
X0167744Y0318804D01*
X0167625Y0318843D01*
X0167508Y0318885D01*
X0167392Y0318932D01*
X0167278Y0318982D01*
X0167165Y0319035D01*
X0167054Y0319093D01*
X0166944Y0319153D01*
X0166837Y0319218D01*
X0166732Y0319285D01*
X0166629Y0319356D01*
X0166529Y0319430D01*
X0166431Y0319507D01*
X0166335Y0319588D01*
X0166242Y0319671D01*
X0166151Y0319757D01*
X0166064Y0319846D01*
X0165979Y0319938D01*
X0165897Y0320032D01*
X0165818Y0320129D01*
X0165743Y0320229D01*
X0165670Y0320330D01*
X0165601Y0320434D01*
X0165535Y0320541D01*
X0165473Y0320649D01*
X0165414Y0320759D01*
X0165358Y0320871D01*
X0165306Y0320985D01*
X0165258Y0321100D01*
X0165213Y0321216D01*
X0165173Y0321335D01*
X0165135Y0321454D01*
X0165102Y0321574D01*
X0165073Y0321696D01*
X0165047Y0321818D01*
X0165025Y0321941D01*
X0165008Y0322065D01*
X0164994Y0322189D01*
X0164984Y0322313D01*
X0164978Y0322438D01*
X0164976Y0322563D01*
X0145291Y0322563D02*
X0145293Y0322688D01*
X0145299Y0322813D01*
X0145309Y0322937D01*
X0145323Y0323061D01*
X0145340Y0323185D01*
X0145362Y0323308D01*
X0145388Y0323430D01*
X0145417Y0323552D01*
X0145450Y0323672D01*
X0145488Y0323791D01*
X0145528Y0323910D01*
X0145573Y0324026D01*
X0145621Y0324141D01*
X0145673Y0324255D01*
X0145729Y0324367D01*
X0145788Y0324477D01*
X0145850Y0324585D01*
X0145916Y0324692D01*
X0145985Y0324796D01*
X0146058Y0324897D01*
X0146133Y0324997D01*
X0146212Y0325094D01*
X0146294Y0325188D01*
X0146379Y0325280D01*
X0146466Y0325369D01*
X0146557Y0325455D01*
X0146650Y0325538D01*
X0146746Y0325619D01*
X0146844Y0325696D01*
X0146944Y0325770D01*
X0147047Y0325841D01*
X0147152Y0325908D01*
X0147260Y0325973D01*
X0147369Y0326033D01*
X0147480Y0326091D01*
X0147593Y0326144D01*
X0147707Y0326194D01*
X0147823Y0326241D01*
X0147940Y0326283D01*
X0148059Y0326322D01*
X0148179Y0326358D01*
X0148300Y0326389D01*
X0148422Y0326417D01*
X0148544Y0326440D01*
X0148668Y0326460D01*
X0148792Y0326476D01*
X0148916Y0326488D01*
X0149041Y0326496D01*
X0149166Y0326500D01*
X0149290Y0326500D01*
X0149415Y0326496D01*
X0149540Y0326488D01*
X0149664Y0326476D01*
X0149788Y0326460D01*
X0149912Y0326440D01*
X0150034Y0326417D01*
X0150156Y0326389D01*
X0150277Y0326358D01*
X0150397Y0326322D01*
X0150516Y0326283D01*
X0150633Y0326241D01*
X0150749Y0326194D01*
X0150863Y0326144D01*
X0150976Y0326091D01*
X0151087Y0326033D01*
X0151197Y0325973D01*
X0151304Y0325908D01*
X0151409Y0325841D01*
X0151512Y0325770D01*
X0151612Y0325696D01*
X0151710Y0325619D01*
X0151806Y0325538D01*
X0151899Y0325455D01*
X0151990Y0325369D01*
X0152077Y0325280D01*
X0152162Y0325188D01*
X0152244Y0325094D01*
X0152323Y0324997D01*
X0152398Y0324897D01*
X0152471Y0324796D01*
X0152540Y0324692D01*
X0152606Y0324585D01*
X0152668Y0324477D01*
X0152727Y0324367D01*
X0152783Y0324255D01*
X0152835Y0324141D01*
X0152883Y0324026D01*
X0152928Y0323910D01*
X0152968Y0323791D01*
X0153006Y0323672D01*
X0153039Y0323552D01*
X0153068Y0323430D01*
X0153094Y0323308D01*
X0153116Y0323185D01*
X0153133Y0323061D01*
X0153147Y0322937D01*
X0153157Y0322813D01*
X0153163Y0322688D01*
X0153165Y0322563D01*
X0153163Y0322438D01*
X0153157Y0322313D01*
X0153147Y0322189D01*
X0153133Y0322065D01*
X0153116Y0321941D01*
X0153094Y0321818D01*
X0153068Y0321696D01*
X0153039Y0321574D01*
X0153006Y0321454D01*
X0152968Y0321335D01*
X0152928Y0321216D01*
X0152883Y0321100D01*
X0152835Y0320985D01*
X0152783Y0320871D01*
X0152727Y0320759D01*
X0152668Y0320649D01*
X0152606Y0320541D01*
X0152540Y0320434D01*
X0152471Y0320330D01*
X0152398Y0320229D01*
X0152323Y0320129D01*
X0152244Y0320032D01*
X0152162Y0319938D01*
X0152077Y0319846D01*
X0151990Y0319757D01*
X0151899Y0319671D01*
X0151806Y0319588D01*
X0151710Y0319507D01*
X0151612Y0319430D01*
X0151512Y0319356D01*
X0151409Y0319285D01*
X0151304Y0319218D01*
X0151196Y0319153D01*
X0151087Y0319093D01*
X0150976Y0319035D01*
X0150863Y0318982D01*
X0150749Y0318932D01*
X0150633Y0318885D01*
X0150516Y0318843D01*
X0150397Y0318804D01*
X0150277Y0318768D01*
X0150156Y0318737D01*
X0150034Y0318709D01*
X0149912Y0318686D01*
X0149788Y0318666D01*
X0149664Y0318650D01*
X0149540Y0318638D01*
X0149415Y0318630D01*
X0149290Y0318626D01*
X0149166Y0318626D01*
X0149041Y0318630D01*
X0148916Y0318638D01*
X0148792Y0318650D01*
X0148668Y0318666D01*
X0148544Y0318686D01*
X0148422Y0318709D01*
X0148300Y0318737D01*
X0148179Y0318768D01*
X0148059Y0318804D01*
X0147940Y0318843D01*
X0147823Y0318885D01*
X0147707Y0318932D01*
X0147593Y0318982D01*
X0147480Y0319035D01*
X0147369Y0319093D01*
X0147259Y0319153D01*
X0147152Y0319218D01*
X0147047Y0319285D01*
X0146944Y0319356D01*
X0146844Y0319430D01*
X0146746Y0319507D01*
X0146650Y0319588D01*
X0146557Y0319671D01*
X0146466Y0319757D01*
X0146379Y0319846D01*
X0146294Y0319938D01*
X0146212Y0320032D01*
X0146133Y0320129D01*
X0146058Y0320229D01*
X0145985Y0320330D01*
X0145916Y0320434D01*
X0145850Y0320541D01*
X0145788Y0320649D01*
X0145729Y0320759D01*
X0145673Y0320871D01*
X0145621Y0320985D01*
X0145573Y0321100D01*
X0145528Y0321216D01*
X0145488Y0321335D01*
X0145450Y0321454D01*
X0145417Y0321574D01*
X0145388Y0321696D01*
X0145362Y0321818D01*
X0145340Y0321941D01*
X0145323Y0322065D01*
X0145309Y0322189D01*
X0145299Y0322313D01*
X0145293Y0322438D01*
X0145291Y0322563D01*
X0318520Y0436736D02*
X0318522Y0436861D01*
X0318528Y0436986D01*
X0318538Y0437110D01*
X0318552Y0437234D01*
X0318569Y0437358D01*
X0318591Y0437481D01*
X0318617Y0437603D01*
X0318646Y0437725D01*
X0318679Y0437845D01*
X0318717Y0437964D01*
X0318757Y0438083D01*
X0318802Y0438199D01*
X0318850Y0438314D01*
X0318902Y0438428D01*
X0318958Y0438540D01*
X0319017Y0438650D01*
X0319079Y0438758D01*
X0319145Y0438865D01*
X0319214Y0438969D01*
X0319287Y0439070D01*
X0319362Y0439170D01*
X0319441Y0439267D01*
X0319523Y0439361D01*
X0319608Y0439453D01*
X0319695Y0439542D01*
X0319786Y0439628D01*
X0319879Y0439711D01*
X0319975Y0439792D01*
X0320073Y0439869D01*
X0320173Y0439943D01*
X0320276Y0440014D01*
X0320381Y0440081D01*
X0320489Y0440146D01*
X0320598Y0440206D01*
X0320709Y0440264D01*
X0320822Y0440317D01*
X0320936Y0440367D01*
X0321052Y0440414D01*
X0321169Y0440456D01*
X0321288Y0440495D01*
X0321408Y0440531D01*
X0321529Y0440562D01*
X0321651Y0440590D01*
X0321773Y0440613D01*
X0321897Y0440633D01*
X0322021Y0440649D01*
X0322145Y0440661D01*
X0322270Y0440669D01*
X0322395Y0440673D01*
X0322519Y0440673D01*
X0322644Y0440669D01*
X0322769Y0440661D01*
X0322893Y0440649D01*
X0323017Y0440633D01*
X0323141Y0440613D01*
X0323263Y0440590D01*
X0323385Y0440562D01*
X0323506Y0440531D01*
X0323626Y0440495D01*
X0323745Y0440456D01*
X0323862Y0440414D01*
X0323978Y0440367D01*
X0324092Y0440317D01*
X0324205Y0440264D01*
X0324316Y0440206D01*
X0324426Y0440146D01*
X0324533Y0440081D01*
X0324638Y0440014D01*
X0324741Y0439943D01*
X0324841Y0439869D01*
X0324939Y0439792D01*
X0325035Y0439711D01*
X0325128Y0439628D01*
X0325219Y0439542D01*
X0325306Y0439453D01*
X0325391Y0439361D01*
X0325473Y0439267D01*
X0325552Y0439170D01*
X0325627Y0439070D01*
X0325700Y0438969D01*
X0325769Y0438865D01*
X0325835Y0438758D01*
X0325897Y0438650D01*
X0325956Y0438540D01*
X0326012Y0438428D01*
X0326064Y0438314D01*
X0326112Y0438199D01*
X0326157Y0438083D01*
X0326197Y0437964D01*
X0326235Y0437845D01*
X0326268Y0437725D01*
X0326297Y0437603D01*
X0326323Y0437481D01*
X0326345Y0437358D01*
X0326362Y0437234D01*
X0326376Y0437110D01*
X0326386Y0436986D01*
X0326392Y0436861D01*
X0326394Y0436736D01*
X0326392Y0436611D01*
X0326386Y0436486D01*
X0326376Y0436362D01*
X0326362Y0436238D01*
X0326345Y0436114D01*
X0326323Y0435991D01*
X0326297Y0435869D01*
X0326268Y0435747D01*
X0326235Y0435627D01*
X0326197Y0435508D01*
X0326157Y0435389D01*
X0326112Y0435273D01*
X0326064Y0435158D01*
X0326012Y0435044D01*
X0325956Y0434932D01*
X0325897Y0434822D01*
X0325835Y0434714D01*
X0325769Y0434607D01*
X0325700Y0434503D01*
X0325627Y0434402D01*
X0325552Y0434302D01*
X0325473Y0434205D01*
X0325391Y0434111D01*
X0325306Y0434019D01*
X0325219Y0433930D01*
X0325128Y0433844D01*
X0325035Y0433761D01*
X0324939Y0433680D01*
X0324841Y0433603D01*
X0324741Y0433529D01*
X0324638Y0433458D01*
X0324533Y0433391D01*
X0324425Y0433326D01*
X0324316Y0433266D01*
X0324205Y0433208D01*
X0324092Y0433155D01*
X0323978Y0433105D01*
X0323862Y0433058D01*
X0323745Y0433016D01*
X0323626Y0432977D01*
X0323506Y0432941D01*
X0323385Y0432910D01*
X0323263Y0432882D01*
X0323141Y0432859D01*
X0323017Y0432839D01*
X0322893Y0432823D01*
X0322769Y0432811D01*
X0322644Y0432803D01*
X0322519Y0432799D01*
X0322395Y0432799D01*
X0322270Y0432803D01*
X0322145Y0432811D01*
X0322021Y0432823D01*
X0321897Y0432839D01*
X0321773Y0432859D01*
X0321651Y0432882D01*
X0321529Y0432910D01*
X0321408Y0432941D01*
X0321288Y0432977D01*
X0321169Y0433016D01*
X0321052Y0433058D01*
X0320936Y0433105D01*
X0320822Y0433155D01*
X0320709Y0433208D01*
X0320598Y0433266D01*
X0320488Y0433326D01*
X0320381Y0433391D01*
X0320276Y0433458D01*
X0320173Y0433529D01*
X0320073Y0433603D01*
X0319975Y0433680D01*
X0319879Y0433761D01*
X0319786Y0433844D01*
X0319695Y0433930D01*
X0319608Y0434019D01*
X0319523Y0434111D01*
X0319441Y0434205D01*
X0319362Y0434302D01*
X0319287Y0434402D01*
X0319214Y0434503D01*
X0319145Y0434607D01*
X0319079Y0434714D01*
X0319017Y0434822D01*
X0318958Y0434932D01*
X0318902Y0435044D01*
X0318850Y0435158D01*
X0318802Y0435273D01*
X0318757Y0435389D01*
X0318717Y0435508D01*
X0318679Y0435627D01*
X0318646Y0435747D01*
X0318617Y0435869D01*
X0318591Y0435991D01*
X0318569Y0436114D01*
X0318552Y0436238D01*
X0318538Y0436362D01*
X0318528Y0436486D01*
X0318522Y0436611D01*
X0318520Y0436736D01*
X0318520Y0456421D02*
X0318522Y0456546D01*
X0318528Y0456671D01*
X0318538Y0456795D01*
X0318552Y0456919D01*
X0318569Y0457043D01*
X0318591Y0457166D01*
X0318617Y0457288D01*
X0318646Y0457410D01*
X0318679Y0457530D01*
X0318717Y0457649D01*
X0318757Y0457768D01*
X0318802Y0457884D01*
X0318850Y0457999D01*
X0318902Y0458113D01*
X0318958Y0458225D01*
X0319017Y0458335D01*
X0319079Y0458443D01*
X0319145Y0458550D01*
X0319214Y0458654D01*
X0319287Y0458755D01*
X0319362Y0458855D01*
X0319441Y0458952D01*
X0319523Y0459046D01*
X0319608Y0459138D01*
X0319695Y0459227D01*
X0319786Y0459313D01*
X0319879Y0459396D01*
X0319975Y0459477D01*
X0320073Y0459554D01*
X0320173Y0459628D01*
X0320276Y0459699D01*
X0320381Y0459766D01*
X0320489Y0459831D01*
X0320598Y0459891D01*
X0320709Y0459949D01*
X0320822Y0460002D01*
X0320936Y0460052D01*
X0321052Y0460099D01*
X0321169Y0460141D01*
X0321288Y0460180D01*
X0321408Y0460216D01*
X0321529Y0460247D01*
X0321651Y0460275D01*
X0321773Y0460298D01*
X0321897Y0460318D01*
X0322021Y0460334D01*
X0322145Y0460346D01*
X0322270Y0460354D01*
X0322395Y0460358D01*
X0322519Y0460358D01*
X0322644Y0460354D01*
X0322769Y0460346D01*
X0322893Y0460334D01*
X0323017Y0460318D01*
X0323141Y0460298D01*
X0323263Y0460275D01*
X0323385Y0460247D01*
X0323506Y0460216D01*
X0323626Y0460180D01*
X0323745Y0460141D01*
X0323862Y0460099D01*
X0323978Y0460052D01*
X0324092Y0460002D01*
X0324205Y0459949D01*
X0324316Y0459891D01*
X0324426Y0459831D01*
X0324533Y0459766D01*
X0324638Y0459699D01*
X0324741Y0459628D01*
X0324841Y0459554D01*
X0324939Y0459477D01*
X0325035Y0459396D01*
X0325128Y0459313D01*
X0325219Y0459227D01*
X0325306Y0459138D01*
X0325391Y0459046D01*
X0325473Y0458952D01*
X0325552Y0458855D01*
X0325627Y0458755D01*
X0325700Y0458654D01*
X0325769Y0458550D01*
X0325835Y0458443D01*
X0325897Y0458335D01*
X0325956Y0458225D01*
X0326012Y0458113D01*
X0326064Y0457999D01*
X0326112Y0457884D01*
X0326157Y0457768D01*
X0326197Y0457649D01*
X0326235Y0457530D01*
X0326268Y0457410D01*
X0326297Y0457288D01*
X0326323Y0457166D01*
X0326345Y0457043D01*
X0326362Y0456919D01*
X0326376Y0456795D01*
X0326386Y0456671D01*
X0326392Y0456546D01*
X0326394Y0456421D01*
X0326392Y0456296D01*
X0326386Y0456171D01*
X0326376Y0456047D01*
X0326362Y0455923D01*
X0326345Y0455799D01*
X0326323Y0455676D01*
X0326297Y0455554D01*
X0326268Y0455432D01*
X0326235Y0455312D01*
X0326197Y0455193D01*
X0326157Y0455074D01*
X0326112Y0454958D01*
X0326064Y0454843D01*
X0326012Y0454729D01*
X0325956Y0454617D01*
X0325897Y0454507D01*
X0325835Y0454399D01*
X0325769Y0454292D01*
X0325700Y0454188D01*
X0325627Y0454087D01*
X0325552Y0453987D01*
X0325473Y0453890D01*
X0325391Y0453796D01*
X0325306Y0453704D01*
X0325219Y0453615D01*
X0325128Y0453529D01*
X0325035Y0453446D01*
X0324939Y0453365D01*
X0324841Y0453288D01*
X0324741Y0453214D01*
X0324638Y0453143D01*
X0324533Y0453076D01*
X0324425Y0453011D01*
X0324316Y0452951D01*
X0324205Y0452893D01*
X0324092Y0452840D01*
X0323978Y0452790D01*
X0323862Y0452743D01*
X0323745Y0452701D01*
X0323626Y0452662D01*
X0323506Y0452626D01*
X0323385Y0452595D01*
X0323263Y0452567D01*
X0323141Y0452544D01*
X0323017Y0452524D01*
X0322893Y0452508D01*
X0322769Y0452496D01*
X0322644Y0452488D01*
X0322519Y0452484D01*
X0322395Y0452484D01*
X0322270Y0452488D01*
X0322145Y0452496D01*
X0322021Y0452508D01*
X0321897Y0452524D01*
X0321773Y0452544D01*
X0321651Y0452567D01*
X0321529Y0452595D01*
X0321408Y0452626D01*
X0321288Y0452662D01*
X0321169Y0452701D01*
X0321052Y0452743D01*
X0320936Y0452790D01*
X0320822Y0452840D01*
X0320709Y0452893D01*
X0320598Y0452951D01*
X0320488Y0453011D01*
X0320381Y0453076D01*
X0320276Y0453143D01*
X0320173Y0453214D01*
X0320073Y0453288D01*
X0319975Y0453365D01*
X0319879Y0453446D01*
X0319786Y0453529D01*
X0319695Y0453615D01*
X0319608Y0453704D01*
X0319523Y0453796D01*
X0319441Y0453890D01*
X0319362Y0453987D01*
X0319287Y0454087D01*
X0319214Y0454188D01*
X0319145Y0454292D01*
X0319079Y0454399D01*
X0319017Y0454507D01*
X0318958Y0454617D01*
X0318902Y0454729D01*
X0318850Y0454843D01*
X0318802Y0454958D01*
X0318757Y0455074D01*
X0318717Y0455193D01*
X0318679Y0455312D01*
X0318646Y0455432D01*
X0318617Y0455554D01*
X0318591Y0455676D01*
X0318569Y0455799D01*
X0318552Y0455923D01*
X0318538Y0456047D01*
X0318528Y0456171D01*
X0318522Y0456296D01*
X0318520Y0456421D01*
X0318520Y0476106D02*
X0318522Y0476231D01*
X0318528Y0476356D01*
X0318538Y0476480D01*
X0318552Y0476604D01*
X0318569Y0476728D01*
X0318591Y0476851D01*
X0318617Y0476973D01*
X0318646Y0477095D01*
X0318679Y0477215D01*
X0318717Y0477334D01*
X0318757Y0477453D01*
X0318802Y0477569D01*
X0318850Y0477684D01*
X0318902Y0477798D01*
X0318958Y0477910D01*
X0319017Y0478020D01*
X0319079Y0478128D01*
X0319145Y0478235D01*
X0319214Y0478339D01*
X0319287Y0478440D01*
X0319362Y0478540D01*
X0319441Y0478637D01*
X0319523Y0478731D01*
X0319608Y0478823D01*
X0319695Y0478912D01*
X0319786Y0478998D01*
X0319879Y0479081D01*
X0319975Y0479162D01*
X0320073Y0479239D01*
X0320173Y0479313D01*
X0320276Y0479384D01*
X0320381Y0479451D01*
X0320489Y0479516D01*
X0320598Y0479576D01*
X0320709Y0479634D01*
X0320822Y0479687D01*
X0320936Y0479737D01*
X0321052Y0479784D01*
X0321169Y0479826D01*
X0321288Y0479865D01*
X0321408Y0479901D01*
X0321529Y0479932D01*
X0321651Y0479960D01*
X0321773Y0479983D01*
X0321897Y0480003D01*
X0322021Y0480019D01*
X0322145Y0480031D01*
X0322270Y0480039D01*
X0322395Y0480043D01*
X0322519Y0480043D01*
X0322644Y0480039D01*
X0322769Y0480031D01*
X0322893Y0480019D01*
X0323017Y0480003D01*
X0323141Y0479983D01*
X0323263Y0479960D01*
X0323385Y0479932D01*
X0323506Y0479901D01*
X0323626Y0479865D01*
X0323745Y0479826D01*
X0323862Y0479784D01*
X0323978Y0479737D01*
X0324092Y0479687D01*
X0324205Y0479634D01*
X0324316Y0479576D01*
X0324426Y0479516D01*
X0324533Y0479451D01*
X0324638Y0479384D01*
X0324741Y0479313D01*
X0324841Y0479239D01*
X0324939Y0479162D01*
X0325035Y0479081D01*
X0325128Y0478998D01*
X0325219Y0478912D01*
X0325306Y0478823D01*
X0325391Y0478731D01*
X0325473Y0478637D01*
X0325552Y0478540D01*
X0325627Y0478440D01*
X0325700Y0478339D01*
X0325769Y0478235D01*
X0325835Y0478128D01*
X0325897Y0478020D01*
X0325956Y0477910D01*
X0326012Y0477798D01*
X0326064Y0477684D01*
X0326112Y0477569D01*
X0326157Y0477453D01*
X0326197Y0477334D01*
X0326235Y0477215D01*
X0326268Y0477095D01*
X0326297Y0476973D01*
X0326323Y0476851D01*
X0326345Y0476728D01*
X0326362Y0476604D01*
X0326376Y0476480D01*
X0326386Y0476356D01*
X0326392Y0476231D01*
X0326394Y0476106D01*
X0326392Y0475981D01*
X0326386Y0475856D01*
X0326376Y0475732D01*
X0326362Y0475608D01*
X0326345Y0475484D01*
X0326323Y0475361D01*
X0326297Y0475239D01*
X0326268Y0475117D01*
X0326235Y0474997D01*
X0326197Y0474878D01*
X0326157Y0474759D01*
X0326112Y0474643D01*
X0326064Y0474528D01*
X0326012Y0474414D01*
X0325956Y0474302D01*
X0325897Y0474192D01*
X0325835Y0474084D01*
X0325769Y0473977D01*
X0325700Y0473873D01*
X0325627Y0473772D01*
X0325552Y0473672D01*
X0325473Y0473575D01*
X0325391Y0473481D01*
X0325306Y0473389D01*
X0325219Y0473300D01*
X0325128Y0473214D01*
X0325035Y0473131D01*
X0324939Y0473050D01*
X0324841Y0472973D01*
X0324741Y0472899D01*
X0324638Y0472828D01*
X0324533Y0472761D01*
X0324425Y0472696D01*
X0324316Y0472636D01*
X0324205Y0472578D01*
X0324092Y0472525D01*
X0323978Y0472475D01*
X0323862Y0472428D01*
X0323745Y0472386D01*
X0323626Y0472347D01*
X0323506Y0472311D01*
X0323385Y0472280D01*
X0323263Y0472252D01*
X0323141Y0472229D01*
X0323017Y0472209D01*
X0322893Y0472193D01*
X0322769Y0472181D01*
X0322644Y0472173D01*
X0322519Y0472169D01*
X0322395Y0472169D01*
X0322270Y0472173D01*
X0322145Y0472181D01*
X0322021Y0472193D01*
X0321897Y0472209D01*
X0321773Y0472229D01*
X0321651Y0472252D01*
X0321529Y0472280D01*
X0321408Y0472311D01*
X0321288Y0472347D01*
X0321169Y0472386D01*
X0321052Y0472428D01*
X0320936Y0472475D01*
X0320822Y0472525D01*
X0320709Y0472578D01*
X0320598Y0472636D01*
X0320488Y0472696D01*
X0320381Y0472761D01*
X0320276Y0472828D01*
X0320173Y0472899D01*
X0320073Y0472973D01*
X0319975Y0473050D01*
X0319879Y0473131D01*
X0319786Y0473214D01*
X0319695Y0473300D01*
X0319608Y0473389D01*
X0319523Y0473481D01*
X0319441Y0473575D01*
X0319362Y0473672D01*
X0319287Y0473772D01*
X0319214Y0473873D01*
X0319145Y0473977D01*
X0319079Y0474084D01*
X0319017Y0474192D01*
X0318958Y0474302D01*
X0318902Y0474414D01*
X0318850Y0474528D01*
X0318802Y0474643D01*
X0318757Y0474759D01*
X0318717Y0474878D01*
X0318679Y0474997D01*
X0318646Y0475117D01*
X0318617Y0475239D01*
X0318591Y0475361D01*
X0318569Y0475484D01*
X0318552Y0475608D01*
X0318538Y0475732D01*
X0318528Y0475856D01*
X0318522Y0475981D01*
X0318520Y0476106D01*
X0318520Y0495791D02*
X0318522Y0495916D01*
X0318528Y0496041D01*
X0318538Y0496165D01*
X0318552Y0496289D01*
X0318569Y0496413D01*
X0318591Y0496536D01*
X0318617Y0496658D01*
X0318646Y0496780D01*
X0318679Y0496900D01*
X0318717Y0497019D01*
X0318757Y0497138D01*
X0318802Y0497254D01*
X0318850Y0497369D01*
X0318902Y0497483D01*
X0318958Y0497595D01*
X0319017Y0497705D01*
X0319079Y0497813D01*
X0319145Y0497920D01*
X0319214Y0498024D01*
X0319287Y0498125D01*
X0319362Y0498225D01*
X0319441Y0498322D01*
X0319523Y0498416D01*
X0319608Y0498508D01*
X0319695Y0498597D01*
X0319786Y0498683D01*
X0319879Y0498766D01*
X0319975Y0498847D01*
X0320073Y0498924D01*
X0320173Y0498998D01*
X0320276Y0499069D01*
X0320381Y0499136D01*
X0320489Y0499201D01*
X0320598Y0499261D01*
X0320709Y0499319D01*
X0320822Y0499372D01*
X0320936Y0499422D01*
X0321052Y0499469D01*
X0321169Y0499511D01*
X0321288Y0499550D01*
X0321408Y0499586D01*
X0321529Y0499617D01*
X0321651Y0499645D01*
X0321773Y0499668D01*
X0321897Y0499688D01*
X0322021Y0499704D01*
X0322145Y0499716D01*
X0322270Y0499724D01*
X0322395Y0499728D01*
X0322519Y0499728D01*
X0322644Y0499724D01*
X0322769Y0499716D01*
X0322893Y0499704D01*
X0323017Y0499688D01*
X0323141Y0499668D01*
X0323263Y0499645D01*
X0323385Y0499617D01*
X0323506Y0499586D01*
X0323626Y0499550D01*
X0323745Y0499511D01*
X0323862Y0499469D01*
X0323978Y0499422D01*
X0324092Y0499372D01*
X0324205Y0499319D01*
X0324316Y0499261D01*
X0324426Y0499201D01*
X0324533Y0499136D01*
X0324638Y0499069D01*
X0324741Y0498998D01*
X0324841Y0498924D01*
X0324939Y0498847D01*
X0325035Y0498766D01*
X0325128Y0498683D01*
X0325219Y0498597D01*
X0325306Y0498508D01*
X0325391Y0498416D01*
X0325473Y0498322D01*
X0325552Y0498225D01*
X0325627Y0498125D01*
X0325700Y0498024D01*
X0325769Y0497920D01*
X0325835Y0497813D01*
X0325897Y0497705D01*
X0325956Y0497595D01*
X0326012Y0497483D01*
X0326064Y0497369D01*
X0326112Y0497254D01*
X0326157Y0497138D01*
X0326197Y0497019D01*
X0326235Y0496900D01*
X0326268Y0496780D01*
X0326297Y0496658D01*
X0326323Y0496536D01*
X0326345Y0496413D01*
X0326362Y0496289D01*
X0326376Y0496165D01*
X0326386Y0496041D01*
X0326392Y0495916D01*
X0326394Y0495791D01*
X0326392Y0495666D01*
X0326386Y0495541D01*
X0326376Y0495417D01*
X0326362Y0495293D01*
X0326345Y0495169D01*
X0326323Y0495046D01*
X0326297Y0494924D01*
X0326268Y0494802D01*
X0326235Y0494682D01*
X0326197Y0494563D01*
X0326157Y0494444D01*
X0326112Y0494328D01*
X0326064Y0494213D01*
X0326012Y0494099D01*
X0325956Y0493987D01*
X0325897Y0493877D01*
X0325835Y0493769D01*
X0325769Y0493662D01*
X0325700Y0493558D01*
X0325627Y0493457D01*
X0325552Y0493357D01*
X0325473Y0493260D01*
X0325391Y0493166D01*
X0325306Y0493074D01*
X0325219Y0492985D01*
X0325128Y0492899D01*
X0325035Y0492816D01*
X0324939Y0492735D01*
X0324841Y0492658D01*
X0324741Y0492584D01*
X0324638Y0492513D01*
X0324533Y0492446D01*
X0324425Y0492381D01*
X0324316Y0492321D01*
X0324205Y0492263D01*
X0324092Y0492210D01*
X0323978Y0492160D01*
X0323862Y0492113D01*
X0323745Y0492071D01*
X0323626Y0492032D01*
X0323506Y0491996D01*
X0323385Y0491965D01*
X0323263Y0491937D01*
X0323141Y0491914D01*
X0323017Y0491894D01*
X0322893Y0491878D01*
X0322769Y0491866D01*
X0322644Y0491858D01*
X0322519Y0491854D01*
X0322395Y0491854D01*
X0322270Y0491858D01*
X0322145Y0491866D01*
X0322021Y0491878D01*
X0321897Y0491894D01*
X0321773Y0491914D01*
X0321651Y0491937D01*
X0321529Y0491965D01*
X0321408Y0491996D01*
X0321288Y0492032D01*
X0321169Y0492071D01*
X0321052Y0492113D01*
X0320936Y0492160D01*
X0320822Y0492210D01*
X0320709Y0492263D01*
X0320598Y0492321D01*
X0320488Y0492381D01*
X0320381Y0492446D01*
X0320276Y0492513D01*
X0320173Y0492584D01*
X0320073Y0492658D01*
X0319975Y0492735D01*
X0319879Y0492816D01*
X0319786Y0492899D01*
X0319695Y0492985D01*
X0319608Y0493074D01*
X0319523Y0493166D01*
X0319441Y0493260D01*
X0319362Y0493357D01*
X0319287Y0493457D01*
X0319214Y0493558D01*
X0319145Y0493662D01*
X0319079Y0493769D01*
X0319017Y0493877D01*
X0318958Y0493987D01*
X0318902Y0494099D01*
X0318850Y0494213D01*
X0318802Y0494328D01*
X0318757Y0494444D01*
X0318717Y0494563D01*
X0318679Y0494682D01*
X0318646Y0494802D01*
X0318617Y0494924D01*
X0318591Y0495046D01*
X0318569Y0495169D01*
X0318552Y0495293D01*
X0318538Y0495417D01*
X0318528Y0495541D01*
X0318522Y0495666D01*
X0318520Y0495791D01*
X0432693Y0322563D02*
X0432695Y0322688D01*
X0432701Y0322813D01*
X0432711Y0322937D01*
X0432725Y0323061D01*
X0432742Y0323185D01*
X0432764Y0323308D01*
X0432790Y0323430D01*
X0432819Y0323552D01*
X0432852Y0323672D01*
X0432890Y0323791D01*
X0432930Y0323910D01*
X0432975Y0324026D01*
X0433023Y0324141D01*
X0433075Y0324255D01*
X0433131Y0324367D01*
X0433190Y0324477D01*
X0433252Y0324585D01*
X0433318Y0324692D01*
X0433387Y0324796D01*
X0433460Y0324897D01*
X0433535Y0324997D01*
X0433614Y0325094D01*
X0433696Y0325188D01*
X0433781Y0325280D01*
X0433868Y0325369D01*
X0433959Y0325455D01*
X0434052Y0325538D01*
X0434148Y0325619D01*
X0434246Y0325696D01*
X0434346Y0325770D01*
X0434449Y0325841D01*
X0434554Y0325908D01*
X0434662Y0325973D01*
X0434771Y0326033D01*
X0434882Y0326091D01*
X0434995Y0326144D01*
X0435109Y0326194D01*
X0435225Y0326241D01*
X0435342Y0326283D01*
X0435461Y0326322D01*
X0435581Y0326358D01*
X0435702Y0326389D01*
X0435824Y0326417D01*
X0435946Y0326440D01*
X0436070Y0326460D01*
X0436194Y0326476D01*
X0436318Y0326488D01*
X0436443Y0326496D01*
X0436568Y0326500D01*
X0436692Y0326500D01*
X0436817Y0326496D01*
X0436942Y0326488D01*
X0437066Y0326476D01*
X0437190Y0326460D01*
X0437314Y0326440D01*
X0437436Y0326417D01*
X0437558Y0326389D01*
X0437679Y0326358D01*
X0437799Y0326322D01*
X0437918Y0326283D01*
X0438035Y0326241D01*
X0438151Y0326194D01*
X0438265Y0326144D01*
X0438378Y0326091D01*
X0438489Y0326033D01*
X0438599Y0325973D01*
X0438706Y0325908D01*
X0438811Y0325841D01*
X0438914Y0325770D01*
X0439014Y0325696D01*
X0439112Y0325619D01*
X0439208Y0325538D01*
X0439301Y0325455D01*
X0439392Y0325369D01*
X0439479Y0325280D01*
X0439564Y0325188D01*
X0439646Y0325094D01*
X0439725Y0324997D01*
X0439800Y0324897D01*
X0439873Y0324796D01*
X0439942Y0324692D01*
X0440008Y0324585D01*
X0440070Y0324477D01*
X0440129Y0324367D01*
X0440185Y0324255D01*
X0440237Y0324141D01*
X0440285Y0324026D01*
X0440330Y0323910D01*
X0440370Y0323791D01*
X0440408Y0323672D01*
X0440441Y0323552D01*
X0440470Y0323430D01*
X0440496Y0323308D01*
X0440518Y0323185D01*
X0440535Y0323061D01*
X0440549Y0322937D01*
X0440559Y0322813D01*
X0440565Y0322688D01*
X0440567Y0322563D01*
X0440565Y0322438D01*
X0440559Y0322313D01*
X0440549Y0322189D01*
X0440535Y0322065D01*
X0440518Y0321941D01*
X0440496Y0321818D01*
X0440470Y0321696D01*
X0440441Y0321574D01*
X0440408Y0321454D01*
X0440370Y0321335D01*
X0440330Y0321216D01*
X0440285Y0321100D01*
X0440237Y0320985D01*
X0440185Y0320871D01*
X0440129Y0320759D01*
X0440070Y0320649D01*
X0440008Y0320541D01*
X0439942Y0320434D01*
X0439873Y0320330D01*
X0439800Y0320229D01*
X0439725Y0320129D01*
X0439646Y0320032D01*
X0439564Y0319938D01*
X0439479Y0319846D01*
X0439392Y0319757D01*
X0439301Y0319671D01*
X0439208Y0319588D01*
X0439112Y0319507D01*
X0439014Y0319430D01*
X0438914Y0319356D01*
X0438811Y0319285D01*
X0438706Y0319218D01*
X0438598Y0319153D01*
X0438489Y0319093D01*
X0438378Y0319035D01*
X0438265Y0318982D01*
X0438151Y0318932D01*
X0438035Y0318885D01*
X0437918Y0318843D01*
X0437799Y0318804D01*
X0437679Y0318768D01*
X0437558Y0318737D01*
X0437436Y0318709D01*
X0437314Y0318686D01*
X0437190Y0318666D01*
X0437066Y0318650D01*
X0436942Y0318638D01*
X0436817Y0318630D01*
X0436692Y0318626D01*
X0436568Y0318626D01*
X0436443Y0318630D01*
X0436318Y0318638D01*
X0436194Y0318650D01*
X0436070Y0318666D01*
X0435946Y0318686D01*
X0435824Y0318709D01*
X0435702Y0318737D01*
X0435581Y0318768D01*
X0435461Y0318804D01*
X0435342Y0318843D01*
X0435225Y0318885D01*
X0435109Y0318932D01*
X0434995Y0318982D01*
X0434882Y0319035D01*
X0434771Y0319093D01*
X0434661Y0319153D01*
X0434554Y0319218D01*
X0434449Y0319285D01*
X0434346Y0319356D01*
X0434246Y0319430D01*
X0434148Y0319507D01*
X0434052Y0319588D01*
X0433959Y0319671D01*
X0433868Y0319757D01*
X0433781Y0319846D01*
X0433696Y0319938D01*
X0433614Y0320032D01*
X0433535Y0320129D01*
X0433460Y0320229D01*
X0433387Y0320330D01*
X0433318Y0320434D01*
X0433252Y0320541D01*
X0433190Y0320649D01*
X0433131Y0320759D01*
X0433075Y0320871D01*
X0433023Y0320985D01*
X0432975Y0321100D01*
X0432930Y0321216D01*
X0432890Y0321335D01*
X0432852Y0321454D01*
X0432819Y0321574D01*
X0432790Y0321696D01*
X0432764Y0321818D01*
X0432742Y0321941D01*
X0432725Y0322065D01*
X0432711Y0322189D01*
X0432701Y0322313D01*
X0432695Y0322438D01*
X0432693Y0322563D01*
X0452378Y0322563D02*
X0452380Y0322688D01*
X0452386Y0322813D01*
X0452396Y0322937D01*
X0452410Y0323061D01*
X0452427Y0323185D01*
X0452449Y0323308D01*
X0452475Y0323430D01*
X0452504Y0323552D01*
X0452537Y0323672D01*
X0452575Y0323791D01*
X0452615Y0323910D01*
X0452660Y0324026D01*
X0452708Y0324141D01*
X0452760Y0324255D01*
X0452816Y0324367D01*
X0452875Y0324477D01*
X0452937Y0324585D01*
X0453003Y0324692D01*
X0453072Y0324796D01*
X0453145Y0324897D01*
X0453220Y0324997D01*
X0453299Y0325094D01*
X0453381Y0325188D01*
X0453466Y0325280D01*
X0453553Y0325369D01*
X0453644Y0325455D01*
X0453737Y0325538D01*
X0453833Y0325619D01*
X0453931Y0325696D01*
X0454031Y0325770D01*
X0454134Y0325841D01*
X0454239Y0325908D01*
X0454347Y0325973D01*
X0454456Y0326033D01*
X0454567Y0326091D01*
X0454680Y0326144D01*
X0454794Y0326194D01*
X0454910Y0326241D01*
X0455027Y0326283D01*
X0455146Y0326322D01*
X0455266Y0326358D01*
X0455387Y0326389D01*
X0455509Y0326417D01*
X0455631Y0326440D01*
X0455755Y0326460D01*
X0455879Y0326476D01*
X0456003Y0326488D01*
X0456128Y0326496D01*
X0456253Y0326500D01*
X0456377Y0326500D01*
X0456502Y0326496D01*
X0456627Y0326488D01*
X0456751Y0326476D01*
X0456875Y0326460D01*
X0456999Y0326440D01*
X0457121Y0326417D01*
X0457243Y0326389D01*
X0457364Y0326358D01*
X0457484Y0326322D01*
X0457603Y0326283D01*
X0457720Y0326241D01*
X0457836Y0326194D01*
X0457950Y0326144D01*
X0458063Y0326091D01*
X0458174Y0326033D01*
X0458284Y0325973D01*
X0458391Y0325908D01*
X0458496Y0325841D01*
X0458599Y0325770D01*
X0458699Y0325696D01*
X0458797Y0325619D01*
X0458893Y0325538D01*
X0458986Y0325455D01*
X0459077Y0325369D01*
X0459164Y0325280D01*
X0459249Y0325188D01*
X0459331Y0325094D01*
X0459410Y0324997D01*
X0459485Y0324897D01*
X0459558Y0324796D01*
X0459627Y0324692D01*
X0459693Y0324585D01*
X0459755Y0324477D01*
X0459814Y0324367D01*
X0459870Y0324255D01*
X0459922Y0324141D01*
X0459970Y0324026D01*
X0460015Y0323910D01*
X0460055Y0323791D01*
X0460093Y0323672D01*
X0460126Y0323552D01*
X0460155Y0323430D01*
X0460181Y0323308D01*
X0460203Y0323185D01*
X0460220Y0323061D01*
X0460234Y0322937D01*
X0460244Y0322813D01*
X0460250Y0322688D01*
X0460252Y0322563D01*
X0460250Y0322438D01*
X0460244Y0322313D01*
X0460234Y0322189D01*
X0460220Y0322065D01*
X0460203Y0321941D01*
X0460181Y0321818D01*
X0460155Y0321696D01*
X0460126Y0321574D01*
X0460093Y0321454D01*
X0460055Y0321335D01*
X0460015Y0321216D01*
X0459970Y0321100D01*
X0459922Y0320985D01*
X0459870Y0320871D01*
X0459814Y0320759D01*
X0459755Y0320649D01*
X0459693Y0320541D01*
X0459627Y0320434D01*
X0459558Y0320330D01*
X0459485Y0320229D01*
X0459410Y0320129D01*
X0459331Y0320032D01*
X0459249Y0319938D01*
X0459164Y0319846D01*
X0459077Y0319757D01*
X0458986Y0319671D01*
X0458893Y0319588D01*
X0458797Y0319507D01*
X0458699Y0319430D01*
X0458599Y0319356D01*
X0458496Y0319285D01*
X0458391Y0319218D01*
X0458283Y0319153D01*
X0458174Y0319093D01*
X0458063Y0319035D01*
X0457950Y0318982D01*
X0457836Y0318932D01*
X0457720Y0318885D01*
X0457603Y0318843D01*
X0457484Y0318804D01*
X0457364Y0318768D01*
X0457243Y0318737D01*
X0457121Y0318709D01*
X0456999Y0318686D01*
X0456875Y0318666D01*
X0456751Y0318650D01*
X0456627Y0318638D01*
X0456502Y0318630D01*
X0456377Y0318626D01*
X0456253Y0318626D01*
X0456128Y0318630D01*
X0456003Y0318638D01*
X0455879Y0318650D01*
X0455755Y0318666D01*
X0455631Y0318686D01*
X0455509Y0318709D01*
X0455387Y0318737D01*
X0455266Y0318768D01*
X0455146Y0318804D01*
X0455027Y0318843D01*
X0454910Y0318885D01*
X0454794Y0318932D01*
X0454680Y0318982D01*
X0454567Y0319035D01*
X0454456Y0319093D01*
X0454346Y0319153D01*
X0454239Y0319218D01*
X0454134Y0319285D01*
X0454031Y0319356D01*
X0453931Y0319430D01*
X0453833Y0319507D01*
X0453737Y0319588D01*
X0453644Y0319671D01*
X0453553Y0319757D01*
X0453466Y0319846D01*
X0453381Y0319938D01*
X0453299Y0320032D01*
X0453220Y0320129D01*
X0453145Y0320229D01*
X0453072Y0320330D01*
X0453003Y0320434D01*
X0452937Y0320541D01*
X0452875Y0320649D01*
X0452816Y0320759D01*
X0452760Y0320871D01*
X0452708Y0320985D01*
X0452660Y0321100D01*
X0452615Y0321216D01*
X0452575Y0321335D01*
X0452537Y0321454D01*
X0452504Y0321574D01*
X0452475Y0321696D01*
X0452449Y0321818D01*
X0452427Y0321941D01*
X0452410Y0322065D01*
X0452396Y0322189D01*
X0452386Y0322313D01*
X0452380Y0322438D01*
X0452378Y0322563D01*
X0472063Y0322563D02*
X0472065Y0322688D01*
X0472071Y0322813D01*
X0472081Y0322937D01*
X0472095Y0323061D01*
X0472112Y0323185D01*
X0472134Y0323308D01*
X0472160Y0323430D01*
X0472189Y0323552D01*
X0472222Y0323672D01*
X0472260Y0323791D01*
X0472300Y0323910D01*
X0472345Y0324026D01*
X0472393Y0324141D01*
X0472445Y0324255D01*
X0472501Y0324367D01*
X0472560Y0324477D01*
X0472622Y0324585D01*
X0472688Y0324692D01*
X0472757Y0324796D01*
X0472830Y0324897D01*
X0472905Y0324997D01*
X0472984Y0325094D01*
X0473066Y0325188D01*
X0473151Y0325280D01*
X0473238Y0325369D01*
X0473329Y0325455D01*
X0473422Y0325538D01*
X0473518Y0325619D01*
X0473616Y0325696D01*
X0473716Y0325770D01*
X0473819Y0325841D01*
X0473924Y0325908D01*
X0474032Y0325973D01*
X0474141Y0326033D01*
X0474252Y0326091D01*
X0474365Y0326144D01*
X0474479Y0326194D01*
X0474595Y0326241D01*
X0474712Y0326283D01*
X0474831Y0326322D01*
X0474951Y0326358D01*
X0475072Y0326389D01*
X0475194Y0326417D01*
X0475316Y0326440D01*
X0475440Y0326460D01*
X0475564Y0326476D01*
X0475688Y0326488D01*
X0475813Y0326496D01*
X0475938Y0326500D01*
X0476062Y0326500D01*
X0476187Y0326496D01*
X0476312Y0326488D01*
X0476436Y0326476D01*
X0476560Y0326460D01*
X0476684Y0326440D01*
X0476806Y0326417D01*
X0476928Y0326389D01*
X0477049Y0326358D01*
X0477169Y0326322D01*
X0477288Y0326283D01*
X0477405Y0326241D01*
X0477521Y0326194D01*
X0477635Y0326144D01*
X0477748Y0326091D01*
X0477859Y0326033D01*
X0477969Y0325973D01*
X0478076Y0325908D01*
X0478181Y0325841D01*
X0478284Y0325770D01*
X0478384Y0325696D01*
X0478482Y0325619D01*
X0478578Y0325538D01*
X0478671Y0325455D01*
X0478762Y0325369D01*
X0478849Y0325280D01*
X0478934Y0325188D01*
X0479016Y0325094D01*
X0479095Y0324997D01*
X0479170Y0324897D01*
X0479243Y0324796D01*
X0479312Y0324692D01*
X0479378Y0324585D01*
X0479440Y0324477D01*
X0479499Y0324367D01*
X0479555Y0324255D01*
X0479607Y0324141D01*
X0479655Y0324026D01*
X0479700Y0323910D01*
X0479740Y0323791D01*
X0479778Y0323672D01*
X0479811Y0323552D01*
X0479840Y0323430D01*
X0479866Y0323308D01*
X0479888Y0323185D01*
X0479905Y0323061D01*
X0479919Y0322937D01*
X0479929Y0322813D01*
X0479935Y0322688D01*
X0479937Y0322563D01*
X0479935Y0322438D01*
X0479929Y0322313D01*
X0479919Y0322189D01*
X0479905Y0322065D01*
X0479888Y0321941D01*
X0479866Y0321818D01*
X0479840Y0321696D01*
X0479811Y0321574D01*
X0479778Y0321454D01*
X0479740Y0321335D01*
X0479700Y0321216D01*
X0479655Y0321100D01*
X0479607Y0320985D01*
X0479555Y0320871D01*
X0479499Y0320759D01*
X0479440Y0320649D01*
X0479378Y0320541D01*
X0479312Y0320434D01*
X0479243Y0320330D01*
X0479170Y0320229D01*
X0479095Y0320129D01*
X0479016Y0320032D01*
X0478934Y0319938D01*
X0478849Y0319846D01*
X0478762Y0319757D01*
X0478671Y0319671D01*
X0478578Y0319588D01*
X0478482Y0319507D01*
X0478384Y0319430D01*
X0478284Y0319356D01*
X0478181Y0319285D01*
X0478076Y0319218D01*
X0477968Y0319153D01*
X0477859Y0319093D01*
X0477748Y0319035D01*
X0477635Y0318982D01*
X0477521Y0318932D01*
X0477405Y0318885D01*
X0477288Y0318843D01*
X0477169Y0318804D01*
X0477049Y0318768D01*
X0476928Y0318737D01*
X0476806Y0318709D01*
X0476684Y0318686D01*
X0476560Y0318666D01*
X0476436Y0318650D01*
X0476312Y0318638D01*
X0476187Y0318630D01*
X0476062Y0318626D01*
X0475938Y0318626D01*
X0475813Y0318630D01*
X0475688Y0318638D01*
X0475564Y0318650D01*
X0475440Y0318666D01*
X0475316Y0318686D01*
X0475194Y0318709D01*
X0475072Y0318737D01*
X0474951Y0318768D01*
X0474831Y0318804D01*
X0474712Y0318843D01*
X0474595Y0318885D01*
X0474479Y0318932D01*
X0474365Y0318982D01*
X0474252Y0319035D01*
X0474141Y0319093D01*
X0474031Y0319153D01*
X0473924Y0319218D01*
X0473819Y0319285D01*
X0473716Y0319356D01*
X0473616Y0319430D01*
X0473518Y0319507D01*
X0473422Y0319588D01*
X0473329Y0319671D01*
X0473238Y0319757D01*
X0473151Y0319846D01*
X0473066Y0319938D01*
X0472984Y0320032D01*
X0472905Y0320129D01*
X0472830Y0320229D01*
X0472757Y0320330D01*
X0472688Y0320434D01*
X0472622Y0320541D01*
X0472560Y0320649D01*
X0472501Y0320759D01*
X0472445Y0320871D01*
X0472393Y0320985D01*
X0472345Y0321100D01*
X0472300Y0321216D01*
X0472260Y0321335D01*
X0472222Y0321454D01*
X0472189Y0321574D01*
X0472160Y0321696D01*
X0472134Y0321818D01*
X0472112Y0321941D01*
X0472095Y0322065D01*
X0472081Y0322189D01*
X0472071Y0322313D01*
X0472065Y0322438D01*
X0472063Y0322563D01*
X0491748Y0322563D02*
X0491750Y0322688D01*
X0491756Y0322813D01*
X0491766Y0322937D01*
X0491780Y0323061D01*
X0491797Y0323185D01*
X0491819Y0323308D01*
X0491845Y0323430D01*
X0491874Y0323552D01*
X0491907Y0323672D01*
X0491945Y0323791D01*
X0491985Y0323910D01*
X0492030Y0324026D01*
X0492078Y0324141D01*
X0492130Y0324255D01*
X0492186Y0324367D01*
X0492245Y0324477D01*
X0492307Y0324585D01*
X0492373Y0324692D01*
X0492442Y0324796D01*
X0492515Y0324897D01*
X0492590Y0324997D01*
X0492669Y0325094D01*
X0492751Y0325188D01*
X0492836Y0325280D01*
X0492923Y0325369D01*
X0493014Y0325455D01*
X0493107Y0325538D01*
X0493203Y0325619D01*
X0493301Y0325696D01*
X0493401Y0325770D01*
X0493504Y0325841D01*
X0493609Y0325908D01*
X0493717Y0325973D01*
X0493826Y0326033D01*
X0493937Y0326091D01*
X0494050Y0326144D01*
X0494164Y0326194D01*
X0494280Y0326241D01*
X0494397Y0326283D01*
X0494516Y0326322D01*
X0494636Y0326358D01*
X0494757Y0326389D01*
X0494879Y0326417D01*
X0495001Y0326440D01*
X0495125Y0326460D01*
X0495249Y0326476D01*
X0495373Y0326488D01*
X0495498Y0326496D01*
X0495623Y0326500D01*
X0495747Y0326500D01*
X0495872Y0326496D01*
X0495997Y0326488D01*
X0496121Y0326476D01*
X0496245Y0326460D01*
X0496369Y0326440D01*
X0496491Y0326417D01*
X0496613Y0326389D01*
X0496734Y0326358D01*
X0496854Y0326322D01*
X0496973Y0326283D01*
X0497090Y0326241D01*
X0497206Y0326194D01*
X0497320Y0326144D01*
X0497433Y0326091D01*
X0497544Y0326033D01*
X0497654Y0325973D01*
X0497761Y0325908D01*
X0497866Y0325841D01*
X0497969Y0325770D01*
X0498069Y0325696D01*
X0498167Y0325619D01*
X0498263Y0325538D01*
X0498356Y0325455D01*
X0498447Y0325369D01*
X0498534Y0325280D01*
X0498619Y0325188D01*
X0498701Y0325094D01*
X0498780Y0324997D01*
X0498855Y0324897D01*
X0498928Y0324796D01*
X0498997Y0324692D01*
X0499063Y0324585D01*
X0499125Y0324477D01*
X0499184Y0324367D01*
X0499240Y0324255D01*
X0499292Y0324141D01*
X0499340Y0324026D01*
X0499385Y0323910D01*
X0499425Y0323791D01*
X0499463Y0323672D01*
X0499496Y0323552D01*
X0499525Y0323430D01*
X0499551Y0323308D01*
X0499573Y0323185D01*
X0499590Y0323061D01*
X0499604Y0322937D01*
X0499614Y0322813D01*
X0499620Y0322688D01*
X0499622Y0322563D01*
X0499620Y0322438D01*
X0499614Y0322313D01*
X0499604Y0322189D01*
X0499590Y0322065D01*
X0499573Y0321941D01*
X0499551Y0321818D01*
X0499525Y0321696D01*
X0499496Y0321574D01*
X0499463Y0321454D01*
X0499425Y0321335D01*
X0499385Y0321216D01*
X0499340Y0321100D01*
X0499292Y0320985D01*
X0499240Y0320871D01*
X0499184Y0320759D01*
X0499125Y0320649D01*
X0499063Y0320541D01*
X0498997Y0320434D01*
X0498928Y0320330D01*
X0498855Y0320229D01*
X0498780Y0320129D01*
X0498701Y0320032D01*
X0498619Y0319938D01*
X0498534Y0319846D01*
X0498447Y0319757D01*
X0498356Y0319671D01*
X0498263Y0319588D01*
X0498167Y0319507D01*
X0498069Y0319430D01*
X0497969Y0319356D01*
X0497866Y0319285D01*
X0497761Y0319218D01*
X0497653Y0319153D01*
X0497544Y0319093D01*
X0497433Y0319035D01*
X0497320Y0318982D01*
X0497206Y0318932D01*
X0497090Y0318885D01*
X0496973Y0318843D01*
X0496854Y0318804D01*
X0496734Y0318768D01*
X0496613Y0318737D01*
X0496491Y0318709D01*
X0496369Y0318686D01*
X0496245Y0318666D01*
X0496121Y0318650D01*
X0495997Y0318638D01*
X0495872Y0318630D01*
X0495747Y0318626D01*
X0495623Y0318626D01*
X0495498Y0318630D01*
X0495373Y0318638D01*
X0495249Y0318650D01*
X0495125Y0318666D01*
X0495001Y0318686D01*
X0494879Y0318709D01*
X0494757Y0318737D01*
X0494636Y0318768D01*
X0494516Y0318804D01*
X0494397Y0318843D01*
X0494280Y0318885D01*
X0494164Y0318932D01*
X0494050Y0318982D01*
X0493937Y0319035D01*
X0493826Y0319093D01*
X0493716Y0319153D01*
X0493609Y0319218D01*
X0493504Y0319285D01*
X0493401Y0319356D01*
X0493301Y0319430D01*
X0493203Y0319507D01*
X0493107Y0319588D01*
X0493014Y0319671D01*
X0492923Y0319757D01*
X0492836Y0319846D01*
X0492751Y0319938D01*
X0492669Y0320032D01*
X0492590Y0320129D01*
X0492515Y0320229D01*
X0492442Y0320330D01*
X0492373Y0320434D01*
X0492307Y0320541D01*
X0492245Y0320649D01*
X0492186Y0320759D01*
X0492130Y0320871D01*
X0492078Y0320985D01*
X0492030Y0321100D01*
X0491985Y0321216D01*
X0491945Y0321335D01*
X0491907Y0321454D01*
X0491874Y0321574D01*
X0491845Y0321696D01*
X0491819Y0321818D01*
X0491797Y0321941D01*
X0491780Y0322065D01*
X0491766Y0322189D01*
X0491756Y0322313D01*
X0491750Y0322438D01*
X0491748Y0322563D01*
M02*
