%
M48
M72
T01C0.0150
T02C0.0157
T03C0.0197
T04C0.0236
T05C0.0400
T06C0.0787
%
T01
X31340Y24619
X33899Y27453
X34667Y26922
X34391Y26528
X37935Y30052
X36872Y31075
X36261Y33280
X35750Y33398
X35474Y33103
X35061Y32926
X34805Y31233
X34234Y31154
X32954Y31016
X32049Y30839
X30041Y32886
X31261Y33181
X33643Y35170
X33919Y34894
X38407Y33949
X38702Y34658
X39569Y33949
X38702Y28477
T02
X32344Y30544
X24470Y26666
T03
X27344Y27158
X26202Y22729
X28958Y31823
X31714Y32512
X32777Y32473
X36261Y32768
X38624Y31193
X33289Y36311
X34135Y37729
X34254Y39697
X30572Y38418
X28289Y38162
X28210Y38674
X27895Y39048
X27561Y39382
X27226Y39717
X26872Y40071
X26478Y40307
X26124Y40032
X26399Y39737
X25828Y40367
X26143Y40681
X25730Y41036
X25415Y40662
X26301Y38575
X26675Y38181
X27088Y37768
X27305Y37119
X27777Y37611
X26439Y36508
X26084Y36823
X25750Y37138
X25454Y37473
X25080Y37768
X24746Y37433
X24450Y37119
X24076Y36804
X23722Y37138
X23368Y37552
X23191Y38083
X22836Y38437
X36576Y23831
X41301Y24894
X38663Y40347
T04
X39450Y36863
X35671Y37178
X31931Y40603
X41222Y32296
T05
X22946Y23004
X23946Y23004
X23269Y25292
X23269Y26292
X23269Y27292
X22797Y31756
X22797Y32756
X31746Y41705
X32746Y41705
X36773Y41784
X37773Y41784
X38773Y41784
X39773Y41784
X40773Y41784
X41773Y41784
X41694Y32756
X41694Y31756
X41697Y27886
X40697Y27886
X40697Y26886
X40697Y25886
X41697Y25886
X41697Y26886
X41813Y22729
X40813Y22729
X39813Y22729
X38813Y22729
X37813Y22729
X36813Y22729
X32726Y22788
X31726Y22788
T06
X32246Y20839
X32246Y18870
X32246Y16902
X32246Y14933
X43663Y32256
X45631Y32256
X47600Y32256
X49569Y32256
X32246Y43674
X32246Y45642
X32246Y47611
X32246Y49579
X20828Y32256
X18860Y32256
X16891Y32256
X14923Y32256
M30
